<?xml version="1.0" standalone="no"?>
<!DOCTYPE svg PUBLIC "-//W3C//DTD SVG 20010904//EN"
 "http://www.w3.org/TR/2001/REC-SVG-20010904/DTD/svg10.dtd">
<svg version="1.0" xmlns="http://www.w3.org/2000/svg"
 width="570.000000pt" height="708.000000pt" viewBox="0 0 570.000000 708.000000"
 preserveAspectRatio="xMidYMid meet">
<metadata>
Created by potrace 1.16, written by Peter Selinger 2001-2019
</metadata>
<g transform="translate(0.000000,708.000000) scale(0.100000,-0.100000)"
fill="#ec4899" stroke="none">
<path d="M2595 5779 c-673 -81 -1275 -457 -1639 -1022 -163 -253 -272 -535
-328 -844 -19 -110 -23 -162 -23 -373 0 -211 4 -263 23 -373 86 -477 295 -880
632 -1218 340 -341 748 -549 1245 -636 142 -25 548 -25 690 0 245 43 445 107
645 206 238 119 416 246 600 430 337 338 546 741 632 1218 19 110 23 162 23
373 0 211 -4 263 -23 373 -86 477 -295 880 -632 1218 -339 339 -752 551 -1240
635 -114 19 -486 27 -605 13z m430 -159 c608 -56 1161 -372 1508 -862 223
-316 357 -701 374 -1075 6 -137 1 -157 -31 -112 l-15 22 -36 -32 c-27 -23 -31
-31 -18 -31 11 -1 2 -9 -22 -22 -34 -18 -37 -22 -21 -28 19 -6 19 -7 0 -15
-18 -7 -17 -8 6 -15 22 -7 21 -8 -18 -15 -30 -5 -39 -11 -30 -16 10 -7 9 -9
-4 -9 -9 0 -20 -5 -24 -11 -4 -8 1 -9 17 -4 22 7 23 7 9 -10 -16 -20 -18 -20
33 0 24 10 22 -12 -2 -25 -11 -5 -33 -10 -50 -10 -35 0 -43 -19 -8 -21 19 -1
20 -2 2 -6 -13 -4 -26 4 -40 21 l-21 26 -49 -46 -49 -47 32 6 c18 4 32 4 32 2
0 -3 -28 -19 -62 -37 l-63 -33 34 -3 34 -3 -34 -22 -34 -21 30 -6 30 -6 -38
-13 c-21 -7 -49 -11 -63 -8 -13 2 -24 0 -24 -4 0 -5 15 -9 33 -10 31 -1 31 -1
-12 -15 -60 -19 -65 -28 -11 -20 l45 6 -25 -20 c-33 -26 -6 -27 38 0 25 16 32
17 32 5 0 -34 -60 -65 -127 -65 -14 0 -21 -4 -18 -10 3 -5 17 -10 31 -10 14 0
22 -4 19 -10 -3 -5 -35 -10 -71 -10 -72 0 -82 -19 -11 -21 l42 0 -40 -20 -40
-19 40 5 c22 2 54 7 70 11 l30 5 -30 -27 -30 -27 33 6 c18 4 32 2 32 -3 0 -16
-52 -37 -108 -45 -53 -7 -63 -25 -14 -25 l27 -1 -27 -15 c-37 -20 -35 -28 5
-20 l32 6 -33 -20 c-35 -22 -52 -19 -52 8 0 9 -14 49 -31 87 l-30 70 40 38
c22 20 49 37 60 37 26 0 36 17 20 36 -10 12 -10 23 -1 47 25 71 -21 255 -88
352 -30 43 -106 101 -147 111 -13 4 -23 11 -23 16 0 7 -30 9 -86 5 -102 -6
-194 -45 -246 -106 -27 -31 -42 -40 -81 -45 -56 -9 -104 -44 -94 -70 4 -10 24
-25 45 -34 l39 -16 -4 -66 c-10 -154 -1 -196 60 -259 l48 -50 -17 -32 c-27
-53 -64 -162 -64 -190 0 -34 32 -62 69 -61 26 1 29 -3 34 -40 9 -65 -10 -84
-91 -92 -37 -3 -112 -6 -167 -6 l-100 0 -18 33 c-19 36 -10 94 13 89 24 -6 70
20 76 42 11 47 -4 135 -34 201 l-32 67 30 36 c42 53 60 113 60 201 0 137 -50
244 -143 308 -61 41 -114 56 -199 55 -65 -1 -67 0 -72 26 -8 39 -28 413 -23
418 3 3 32 -2 65 -10 33 -9 66 -16 72 -16 17 0 7 186 -14 254 -14 47 -14 49
10 86 14 21 33 41 42 45 9 4 76 27 147 52 113 40 141 46 215 47 75 1 105 -5
248 -48 l163 -49 -30 -18 c-17 -10 -41 -35 -55 -56 -26 -39 -70 -203 -55 -203
5 0 31 34 59 75 66 98 89 109 198 102 96 -7 155 -31 160 -64 2 -12 -11 -49
-28 -83 -17 -34 -30 -66 -28 -71 5 -14 88 45 109 77 l19 29 0 -35 c0 -19 -5
-52 -11 -73 -6 -22 -8 -42 -4 -45 12 -12 64 62 73 103 l9 40 16 -54 c9 -30 17
-72 17 -94 0 -49 18 -45 37 9 14 37 13 108 -2 147 -12 31 14 18 59 -28 25 -25
46 -45 49 -45 9 0 -25 155 -36 167 -7 6 -52 21 -101 32 -113 27 -143 42 -203
99 -44 42 -67 53 -224 110 -226 81 -295 96 -424 88 -55 -3 -143 -13 -195 -21
-52 -8 -96 -12 -98 -10 -3 3 30 41 73 85 76 77 78 80 49 80 -16 0 -85 14 -154
30 -137 33 -226 38 -287 16 l-40 -14 14 41 c32 92 -9 205 -123 340 -37 42 -69
77 -73 77 -15 0 -96 -88 -133 -145 -52 -80 -72 -150 -66 -240 l5 -72 -46 20
c-66 29 -160 25 -291 -13 -58 -16 -112 -30 -120 -30 -8 0 -21 -4 -29 -9 -19
-12 48 -111 104 -154 l42 -32 -161 0 c-181 0 -201 -5 -449 -107 -132 -54 -144
-61 -240 -135 -38 -29 -87 -57 -110 -63 -89 -23 -129 -42 -148 -73 -21 -36
-62 -164 -57 -179 2 -6 18 11 36 39 17 27 42 59 55 71 l24 23 6 -73 c8 -85 16
-118 28 -118 5 0 9 12 10 28 0 15 8 52 17 82 l18 54 13 -44 c14 -49 61 -130
75 -130 4 0 5 8 1 18 -4 9 -10 48 -13 85 l-5 69 46 -49 c25 -26 48 -45 52 -42
3 4 -6 32 -20 64 -31 72 -31 90 -1 110 27 18 158 44 223 45 48 0 66 -17 123
-118 19 -34 39 -62 44 -62 12 0 -3 148 -20 188 -10 25 -26 39 -63 55 -28 12
-51 24 -51 27 0 5 83 41 268 117 129 53 234 45 409 -32 l52 -24 -18 -43 c-12
-27 -21 -80 -25 -143 -4 -55 -9 -117 -12 -138 -6 -36 -5 -37 18 -28 29 11 138
24 138 17 0 -3 11 -69 25 -146 13 -77 27 -181 31 -231 l7 -91 -49 9 c-116 19
-209 -5 -287 -77 -68 -62 -98 -123 -110 -224 -13 -104 2 -178 48 -245 l34 -49
-31 -78 c-16 -43 -32 -102 -34 -131 -4 -46 -2 -56 20 -78 14 -14 36 -25 50
-25 37 0 49 -44 23 -87 -18 -31 -23 -33 -71 -33 -29 0 -93 3 -142 6 -76 6 -92
10 -106 29 -14 18 -14 28 -5 63 10 37 14 41 46 44 26 2 39 10 50 30 14 24 13
32 -8 95 -14 37 -35 92 -47 121 l-23 53 44 60 c25 34 47 76 50 97 3 20 9 48
12 62 11 44 5 161 -9 178 -7 10 -22 34 -32 55 -25 49 -105 123 -159 147 -65
29 -134 34 -205 16 -103 -26 -161 -73 -224 -180 l-41 -69 7 -101 c7 -113 32
-179 85 -230 l30 -29 -18 -36 c-10 -20 -33 -76 -51 -125 l-32 -88 19 -27 c13
-16 32 -27 51 -29 27 -3 33 -9 42 -43 8 -30 8 -44 -1 -55 -15 -18 -60 -18 -85
1 -19 14 -19 14 1 16 11 1 -15 5 -58 9 -81 8 -140 26 -131 41 3 5 13 5 24 -1
10 -5 31 -10 47 -10 l28 0 -25 20 -25 20 28 -10 c35 -12 87 -13 87 -1 0 5 -17
12 -38 16 -44 7 -78 25 -49 25 26 0 21 15 -10 27 l-28 11 28 1 c15 1 27 5 27
10 0 5 12 12 28 16 l27 8 -25 7 c-14 5 -41 8 -61 9 -23 1 -43 9 -55 23 -19 21
-19 21 1 14 11 -5 29 -11 40 -14 17 -4 16 -2 -5 17 l-25 21 29 -10 c35 -13 46
-5 20 15 -19 14 -19 14 1 15 19 1 19 1 2 14 -18 14 -17 15 2 21 33 10 16 22
-40 27 -34 4 -58 12 -72 27 l-22 21 35 -6 35 -7 -25 21 c-29 25 -13 29 38 11
45 -15 63 -6 27 14 l-30 16 32 1 c17 0 35 5 39 11 5 9 -1 10 -20 5 -33 -8 -98
3 -90 15 3 5 14 9 25 9 10 0 19 5 19 10 0 6 -20 10 -45 10 -36 0 -52 6 -72 26
-31 31 -25 40 16 20 38 -20 47 -20 30 0 -13 15 -11 17 18 12 41 -6 33 8 -10
18 -31 7 -32 8 -7 15 l25 7 -26 1 c-14 1 -41 6 -60 13 l-34 12 30 6 30 6 -30
17 -30 16 28 1 c26 0 40 20 15 20 -7 0 -31 12 -53 26 -35 22 -37 25 -12 19 34
-7 36 8 3 23 -14 6 -32 22 -41 36 l-16 25 -41 -41 c-33 -33 -44 -39 -66 -33
-41 10 -51 25 -16 25 l29 0 -29 19 -29 19 29 4 c27 3 26 5 -31 36 -53 29 -56
32 -25 26 l35 -6 -44 38 -44 38 6 155 c30 850 603 1602 1420 1866 274 89 540
120 812 95z m-204 -591 c16 -16 29 -33 29 -39 0 -5 9 -15 20 -22 11 -7 20 -21
20 -31 0 -10 7 -20 15 -23 8 -4 15 -14 15 -23 0 -9 5 -22 11 -28 13 -13 15
-123 4 -165 -7 -27 -7 -27 26 -17 31 10 78 19 104 20 44 2 138 -10 147 -19 6
-6 17 -8 24 -5 8 3 20 0 27 -6 7 -6 39 -13 70 -17 l56 -7 -16 -23 c-8 -13 -20
-24 -25 -24 -10 0 -68 -54 -68 -64 0 -9 -47 -53 -64 -59 -9 -4 -16 -11 -16
-17 0 -5 -9 -10 -19 -10 -11 0 -21 -6 -23 -12 -3 -7 -13 -13 -24 -14 -10 0
-38 -1 -62 -2 l-43 -2 36 -35 c20 -19 34 -38 31 -44 -4 -5 -2 -12 4 -16 5 -3
10 -17 10 -30 0 -13 5 -27 10 -30 6 -3 10 -17 10 -30 0 -13 4 -26 9 -29 5 -3
7 -15 4 -25 -3 -10 0 -22 6 -25 8 -5 8 -13 1 -26 -6 -12 -7 -21 0 -25 5 -3 9
-18 8 -33 -1 -15 2 -34 6 -43 5 -12 0 -14 -29 -11 -19 2 -38 8 -41 13 -3 5
-18 9 -34 9 -16 0 -31 4 -34 9 -3 5 -15 7 -26 4 -14 -4 -20 0 -20 12 0 13 -6
16 -26 12 -16 -3 -28 0 -31 9 -3 8 -14 14 -24 14 -12 0 -19 7 -19 20 0 14 -7
20 -21 20 -17 0 -20 5 -16 21 4 15 0 23 -14 26 -10 3 -19 13 -19 22 0 10 -7
26 -15 37 -14 18 -14 18 -15 -7 0 -15 -7 -32 -15 -39 -8 -7 -15 -23 -15 -36 0
-13 -5 -24 -10 -24 -6 0 -20 -11 -32 -25 -12 -14 -28 -25 -35 -25 -7 0 -13 -4
-13 -10 0 -5 -11 -10 -23 -10 -13 0 -27 -3 -30 -7 -4 -3 -17 -7 -30 -8 -57 -4
-133 -18 -145 -28 -18 -14 -28 0 -15 22 7 11 7 23 2 33 -6 11 -5 19 1 23 7 4
6 13 -1 28 -9 15 -9 22 -1 25 7 2 9 15 5 34 -4 23 -2 34 11 43 13 10 14 18 6
39 -8 21 -7 28 5 32 8 4 15 17 15 30 0 16 6 24 18 24 9 0 23 9 30 20 7 11 20
21 30 21 22 2 -66 20 -95 19 -12 0 -25 5 -28 10 -3 6 -15 10 -26 10 -11 0 -22
7 -25 15 -4 8 -15 15 -25 15 -10 0 -19 4 -19 9 0 5 -20 29 -45 54 -25 26 -45
52 -45 60 0 8 -12 20 -27 27 -28 14 -28 14 29 24 31 6 60 14 64 19 4 4 17 7
29 7 11 0 25 4 31 9 5 5 35 13 66 18 59 10 164 0 183 -18 25 -24 32 -7 31 81
-1 59 3 93 12 102 6 6 12 20 12 30 0 10 7 21 15 24 8 4 15 16 15 29 0 13 7 25
15 29 8 3 15 15 15 26 0 13 7 20 20 20 11 0 20 7 20 15 0 8 6 24 13 35 10 18
12 18 15 4 2 -9 17 -29 33 -45z m64 -1582 c15 -69 15 -74 -4 -117 -26 -61 -36
-172 -21 -243 6 -33 26 -77 45 -106 l34 -49 -31 -78 c-16 -43 -32 -102 -34
-131 -4 -46 -2 -56 20 -78 14 -14 36 -25 50 -25 38 0 48 -43 22 -92 l-21 -38
-122 0 -121 0 -21 36 c-17 28 -19 42 -13 67 5 18 15 31 22 29 24 -6 70 20 76
42 11 47 -4 135 -34 201 l-32 67 30 36 c16 20 36 57 45 81 22 62 19 192 -5
261 -11 30 -19 63 -20 73 0 25 47 137 67 159 17 19 18 19 35 -2 9 -11 24 -53
33 -93z m1175 55 c21 -21 43 -55 49 -77 6 -21 9 -40 8 -40 -1 -1 -56 6 -122
16 -66 10 -148 18 -183 18 -73 1 -75 9 -19 54 45 37 128 66 186 67 37 0 49 -5
81 -38z m845 20 c-3 -3 -11 0 -18 7 -9 10 -8 11 6 5 10 -3 15 -9 12 -12z
m-2992 -112 c38 -12 66 -24 63 -27 -3 -3 -22 1 -43 10 -107 42 -290 46 -412 8
-63 -20 -76 -20 -40 -1 81 44 309 49 432 10z m507 -100 c15 -11 71 -31 125
-45 57 -15 112 -36 131 -50 34 -26 74 -98 74 -134 0 -37 -35 -94 -89 -144
-106 -99 -208 -117 -319 -57 -67 35 -138 107 -149 148 -11 46 23 125 86 196
57 65 71 95 71 160 l0 31 21 -43 c12 -23 34 -51 49 -62z m611 36 c100 -45 217
-43 317 6 l45 21 24 -29 c42 -53 57 -97 61 -178 5 -102 -9 -147 -66 -208 -97
-104 -228 -139 -336 -90 -68 31 -131 85 -163 140 -25 42 -28 56 -27 137 0 98
12 138 58 193 15 17 29 32 31 32 1 0 27 -11 56 -24z m774 -113 c17 -6 85 33
86 50 1 7 6 -5 13 -27 l12 -39 25 31 c23 27 27 28 37 12 6 -9 20 -20 31 -23
23 -6 26 0 12 22 -18 29 -3 39 42 28 53 -13 70 -26 64 -49 -7 -26 21 -23 51 5
l24 22 -7 -45 -7 -45 27 25 28 25 -17 -32 c-22 -43 -20 -63 4 -63 11 0 20 -6
20 -13 0 -23 -31 -57 -52 -57 -21 0 -21 0 3 -26 l24 -26 -45 -40 c-126 -113
-263 -118 -387 -14 -35 30 -52 98 -24 95 9 -1 25 -1 36 0 18 2 18 4 -6 24 -26
21 -69 84 -69 100 0 4 12 4 26 1 l26 -7 -23 41 -23 40 24 36 25 36 3 -41 c2
-23 9 -42 17 -46z m-2848 51 c-3 -3 -12 -4 -19 -1 -8 3 -5 6 6 6 11 1 17 -2
13 -5z m879 -25 c32 -6 85 -22 117 -36 l57 -26 0 -49 c0 -61 -27 -116 -86
-174 -129 -125 -276 -128 -405 -7 -62 58 -99 127 -99 186 0 37 4 45 30 60 80
48 259 69 386 46z m-909 -35 c-3 -3 -12 -4 -19 -1 -8 3 -5 6 6 6 11 1 17 -2
13 -5z m693 -364 c0 -10 -64 -49 -72 -44 -4 3 -8 25 -8 49 l0 43 40 -21 c22
-12 40 -24 40 -27z m275 3 c-4 -27 -8 -49 -10 -51 -4 -4 -75 41 -75 48 1 4 78
48 89 49 2 1 0 -20 -4 -46z m376 -11 c14 -41 19 -47 40 -44 19 3 22 1 12 -9
-18 -18 -16 -36 11 -101 l24 -58 -40 0 c-37 0 -40 2 -33 23 4 12 10 41 12 65
4 34 2 42 -11 42 -9 0 -16 -7 -16 -16 0 -11 -5 -14 -16 -10 -9 3 -27 9 -41 12
-21 6 -24 11 -18 33 11 44 47 122 54 116 3 -4 13 -27 22 -53z m433 6 c40 -91
40 -95 9 -102 -15 -4 -36 -9 -45 -12 -12 -4 -18 0 -18 11 0 9 -6 15 -12 13
-19 -7 -21 -64 -4 -91 20 -29 13 -37 -32 -37 -29 0 -33 3 -27 18 37 90 45 124
33 140 -11 13 -10 15 4 9 19 -7 39 23 52 76 3 15 9 27 12 27 3 0 15 -24 28
-52z m1176 0 c0 -3 -15 -15 -32 -26 -38 -24 -48 -16 -48 40 l0 36 40 -21 c22
-12 40 -25 40 -29z m275 -15 c-3 -19 -9 -33 -13 -31 -24 12 -72 44 -71 48 0 3
19 14 42 26 48 23 54 18 42 -43z m-1144 18 c7 -20 15 -28 25 -24 8 3 26 2 40
-1 l27 -7 -26 -27 -26 -27 24 -59 c38 -93 45 -92 45 10 l0 90 65 0 65 0 -6
-90 -5 -91 20 23 c10 12 27 43 37 67 17 45 17 46 -6 70 -27 29 -18 48 22 43
24 -4 31 0 38 18 5 12 14 25 21 30 9 5 10 2 6 -10 -4 -10 -10 -29 -13 -43 -5
-20 -12 -24 -30 -20 -26 5 -30 -3 -12 -21 14 -14 -3 -78 -38 -139 l-25 -43 51
0 c84 0 56 -17 -41 -23 -101 -8 -257 1 -265 15 -3 4 18 8 45 8 28 0 51 2 51 4
0 2 -11 23 -24 47 -13 24 -29 61 -36 82 -10 33 -10 41 5 57 17 18 16 19 -10
17 -23 -2 -29 4 -41 36 -8 22 -9 37 -3 37 6 0 15 -13 20 -29z m-386 -10 c-3
-6 -14 -11 -23 -11 -15 1 -15 2 2 15 21 16 32 13 21 -4z m-830 -9 c-3 -8 -5
-49 -5 -93 l0 -80 -72 3 -73 3 -3 90 -3 90 81 0 c63 0 79 -3 75 -13z m530 8
c3 -5 -1 -10 -9 -10 -9 0 -16 5 -16 10 0 6 4 10 9 10 6 0 13 -4 16 -10z m1731
-54 c-3 -32 -6 -74 -6 -92 l0 -34 -69 0 c-80 0 -81 1 -81 115 l0 70 81 0 81 0
-6 -59z m-1623 17 c-7 -2 -19 -2 -25 0 -7 3 -2 5 12 5 14 0 19 -2 13 -5z m90
0 c-7 -2 -19 -2 -25 0 -7 3 -2 5 12 5 14 0 19 -2 13 -5z m-154 -70 l-1 -58
-15 43 c-12 34 -12 46 -3 57 7 8 14 15 16 15 2 0 4 -26 3 -57z m202 -16 l-16
-52 -3 49 c-4 61 3 83 22 67 12 -10 11 -20 -3 -64z m-51 23 c0 -6 -27 -10 -60
-10 -33 0 -60 4 -60 10 0 6 27 10 60 10 33 0 60 -4 60 -10z m1830 -20 c-39
-33 -35 -38 11 -14 40 20 47 12 13 -15 -35 -28 -84 -29 -84 -1 0 13 14 25 43
39 56 26 57 26 17 -9z m-2880 -7 c0 -9 7 -24 15 -33 14 -16 14 -18 1 -23 -25
-10 -60 25 -52 51 9 26 36 30 36 5z m528 -15 c4 -30 -25 -52 -53 -41 -16 5
-16 7 -1 15 9 5 16 20 16 34 0 36 34 28 38 -8z m1732 13 c0 -10 7 -24 15 -31
21 -17 -1 -33 -27 -19 -26 14 -23 69 4 69 4 0 8 -8 8 -19z m528 -13 c3 -29
-25 -52 -52 -42 -12 5 -11 9 6 26 11 11 17 26 14 34 -4 11 -1 14 12 12 10 -2
18 -14 20 -30z m-2728 12 c0 -5 -7 -10 -15 -10 -8 0 -15 5 -15 10 0 6 7 10 15
10 8 0 15 -4 15 -10z m400 0 c0 -5 -4 -10 -10 -10 -5 0 -10 5 -10 10 0 6 5 10
10 10 6 0 10 -4 10 -10z m290 -15 c0 -13 8 -28 18 -34 16 -9 16 -10 -2 -17
-35 -13 -66 24 -52 62 9 24 36 16 36 -11z m518 9 c13 -24 3 -52 -20 -60 -27
-8 -43 9 -23 26 8 7 15 21 15 31 0 23 16 25 28 3z m202 -9 c0 -13 8 -28 18
-34 16 -9 16 -10 -2 -17 -35 -13 -66 24 -52 62 9 24 36 16 36 -11z m518 9 c13
-24 3 -52 -20 -60 -27 -8 -43 9 -23 26 8 7 15 21 15 31 0 23 16 25 28 3z m332
6 c0 -5 -7 -10 -15 -10 -8 0 -15 5 -15 10 0 6 7 10 15 10 8 0 15 -4 15 -10z
m410 0 c0 -5 -7 -10 -15 -10 -8 0 -15 5 -15 10 0 6 7 10 15 10 8 0 15 -4 15
-10z m-1930 -21 c0 -5 -4 -9 -10 -9 -5 0 -10 7 -10 16 0 8 5 12 10 9 6 -3 10
-10 10 -16z m405 2 c-3 -6 -11 -8 -17 -5 -6 4 -5 9 3 15 16 10 23 4 14 -10z
m315 -2 c0 -5 -4 -9 -10 -9 -5 0 -10 7 -10 16 0 8 5 12 10 9 6 -3 10 -10 10
-16z m405 2 c-3 -6 -11 -8 -17 -5 -6 4 -5 9 3 15 16 10 23 4 14 -10z m-875
-21 c0 -6 -27 -10 -60 -10 -33 0 -60 4 -60 10 0 6 27 10 60 10 33 0 60 -4 60
-10z m-730 -46 c0 -13 10 -15 55 -12 30 1 55 0 55 -3 0 -3 -5 -20 -11 -38 -9
-27 -8 -35 6 -51 18 -20 17 -20 -73 -20 l-92 0 0 61 c0 81 -24 77 -28 -4 l-3
-57 -84 0 c-82 0 -103 9 -69 28 13 7 14 13 5 30 -22 42 -15 52 39 52 36 0 52
4 56 15 9 23 144 22 144 -1z m2260 0 c0 -13 10 -15 55 -12 60 3 64 -1 43 -48
-10 -22 -10 -28 5 -39 9 -7 17 -15 17 -19 0 -4 -39 -5 -87 -4 l-88 3 -3 58
c-4 77 -26 72 -30 -6 l-3 -57 -84 0 c-82 0 -103 9 -69 28 13 7 14 13 5 30 -23
43 -15 52 44 52 42 0 55 3 55 15 0 12 14 15 70 15 57 0 70 -3 70 -16z m231 7
c-18 -12 20 -25 52 -17 12 3 5 -2 -15 -12 -47 -21 -49 -37 -5 -28 51 9 9 -11
-59 -29 -32 -8 -62 -11 -66 -7 -5 5 -6 27 -2 50 7 44 1 41 94 50 12 1 13 0 1
-7z m-1811 -81 c0 -33 -4 -60 -10 -60 -6 0 -10 27 -10 60 0 33 4 60 10 60 6 0
10 -27 10 -60z m720 -30 c0 -16 -4 -30 -10 -30 -5 0 -10 14 -10 30 0 17 5 30
10 30 6 0 10 -13 10 -30z m-557 -105 c12 -24 15 -48 11 -74 -5 -32 -9 -37 -28
-34 -12 3 -33 -5 -49 -18 -26 -20 -28 -26 -24 -78 2 -36 18 -89 40 -141 l37
-84 -24 -26 c-13 -14 -34 -45 -47 -70 -21 -39 -24 -59 -24 -155 0 -126 16
-172 81 -245 l38 -42 -50 7 c-226 32 -444 96 -634 186 -237 114 -403 232 -595
423 l-130 130 30 8 c17 4 50 13 73 18 31 8 42 15 38 25 -3 8 -2 17 3 19 4 3
68 10 142 16 73 7 138 14 143 17 5 4 1 12 -9 19 -10 8 -17 16 -14 18 2 2 69 9
148 15 80 7 147 14 150 17 3 3 0 9 -7 13 -7 4 44 11 115 14 76 3 146 12 172
21 31 11 82 16 175 17 72 0 149 4 171 8 22 5 43 9 46 10 3 0 13 -15 22 -34z
m758 3 c4 -6 229 -26 327 -28 6 0 11 -5 10 -12 -3 -14 45 -22 185 -33 97 -7
121 -17 70 -30 -49 -12 -6 -22 141 -34 77 -7 143 -14 147 -16 4 -3 5 -14 2
-24 -5 -20 4 -24 102 -37 28 -4 56 -10 63 -13 9 -5 -14 -36 -76 -102 -326
-344 -763 -565 -1256 -634 l-50 -7 38 42 c65 73 81 119 81 245 0 96 -3 116
-24 155 -13 25 -34 56 -47 70 l-24 26 37 84 c22 52 38 105 40 141 4 52 2 58
-24 78 -16 13 -37 21 -49 18 -19 -3 -23 2 -28 35 -4 25 -1 48 8 67 l15 28 153
-5 c84 -3 156 -9 159 -14z m-551 -33 c0 -25 5 -45 10 -45 6 0 10 20 10 45 l0
45 90 0 c50 0 90 -3 90 -6 0 -4 -7 -12 -16 -18 -12 -9 -13 -17 -5 -39 20 -53
24 -52 -169 -52 -193 0 -189 -1 -169 52 8 22 7 30 -5 39 -9 6 -16 14 -16 18 0
3 41 6 90 6 l90 0 0 -45z m20 -150 c0 -37 -4 -65 -10 -65 -6 0 -10 28 -10 65
0 37 4 65 10 65 6 0 10 -28 10 -65z m-237 39 c3 -4 -1 -17 -9 -30 -9 -13 -13
-28 -9 -35 5 -7 1 -10 -11 -7 -23 4 -31 43 -14 64 13 15 32 18 43 8z m497 -8
c17 -21 9 -60 -14 -64 -12 -3 -16 0 -11 7 4 7 0 22 -9 35 -22 34 7 53 34 22z
m-460 -47 c0 -5 -7 -9 -15 -9 -15 0 -20 12 -9 23 8 8 24 -1 24 -14z m395 1 c3
-5 1 -10 -4 -10 -6 0 -11 5 -11 10 0 6 2 10 4 10 3 0 8 -4 11 -10z m-254 -80
c28 0 39 -4 39 -15 0 -8 5 -15 10 -15 6 0 10 7 10 15 0 11 11 15 39 15 21 0
59 3 84 6 l46 7 10 -40 c6 -21 14 -55 17 -74 6 -30 5 -32 -8 -19 -8 8 -20 34
-27 58 -13 46 -17 48 -64 29 -38 -16 -179 -15 -220 1 -42 18 -45 16 -58 -30
-7 -24 -19 -50 -27 -58 -13 -13 -14 -11 -8 19 3 19 11 53 17 74 l10 40 46 -7
c25 -3 63 -6 84 -6z m166 -106 c29 -14 74 -49 102 -80 48 -53 51 -59 51 -110
0 -31 -5 -65 -11 -77 -6 -12 -51 -60 -100 -107 l-88 -86 -3 36 -3 35 -22 -35
c-21 -31 -23 -33 -23 -12 0 27 -18 20 -29 -12 -8 -19 -10 -18 -27 19 l-18 40
-4 -32 c-4 -41 -18 -43 -25 -3 -6 28 -27 43 -27 19 0 -15 -129 111 -144 141
-21 40 -28 97 -15 121 18 35 88 107 126 130 87 54 168 58 260 13z"/>
<path d="M2744 4638 c-3 -4 -14 -8 -26 -8 -11 0 -22 -8 -25 -19 -3 -11 -13
-21 -24 -24 -10 -3 -19 -14 -19 -24 0 -10 -5 -24 -11 -30 -8 -8 -8 -17 0 -30
6 -13 7 -23 1 -29 -14 -14 10 -73 32 -80 9 -3 20 -14 23 -25 4 -12 13 -18 20
-15 8 3 18 -1 24 -8 11 -13 85 -15 97 -3 4 4 16 7 27 7 10 0 21 9 24 20 3 10
14 22 24 25 11 4 19 16 19 30 0 12 7 25 15 29 11 4 13 14 9 38 -4 18 -11 37
-15 43 -5 5 -9 18 -9 28 0 10 -9 21 -20 24 -10 3 -22 14 -25 24 -4 10 -14 19
-24 19 -10 0 -21 3 -25 8 -10 10 -86 10 -92 0z"/>
<path d="M2337 3164 c-9 -9 4 -96 16 -112 9 -11 13 -11 24 4 19 26 17 100 -3
108 -20 8 -29 8 -37 0z"/>
<path d="M2536 3162 c-6 -10 12 -104 23 -115 12 -12 31 16 38 55 3 25 0 39
-12 51 -17 18 -41 22 -49 9z"/>
<path d="M2451 3000 c-52 -5 -54 -6 -37 -22 23 -24 69 -23 90 1 22 24 14 28
-53 21z"/>
<path d="M3046 3161 c-8 -13 6 -111 17 -118 29 -17 52 88 25 115 -14 14 -35
16 -42 3z"/>
<path d="M3248 3165 c-8 -9 3 -98 15 -113 18 -23 37 7 37 58 0 34 -4 50 -16
54 -19 7 -29 8 -36 1z"/>
<path d="M3163 3002 c-29 -2 -53 -6 -53 -11 0 -15 25 -31 47 -31 16 0 23 -6
23 -20 0 -11 5 -20 10 -20 6 0 10 10 10 22 0 12 7 29 16 39 19 22 12 25 -53
21z"/>
<path d="M3854 3204 c-15 -6 7 -116 24 -122 13 -4 32 37 32 73 0 13 -7 31 -16
39 -16 16 -21 18 -40 10z"/>
<path d="M4057 3204 c-9 -9 3 -96 16 -112 7 -9 13 -9 23 -1 16 13 20 109 5
109 -5 0 -16 2 -23 5 -8 3 -17 3 -21 -1z"/>
<path d="M4015 3019 c-22 -5 -61 -6 -87 -3 -43 5 -48 4 -48 -14 0 -27 46 -62
82 -62 57 0 140 53 123 79 -7 12 -13 12 -70 0z m-93 -31 c-11 -11 -32 -3 -32
12 0 4 9 6 21 3 13 -4 17 -9 11 -15z m143 12 c-3 -5 -13 -10 -21 -10 -8 0 -14
5 -14 10 0 6 9 10 21 10 11 0 17 -4 14 -10z"/>
<path d="M1584 3168 c3 -13 8 -40 11 -61 5 -28 10 -37 22 -35 20 4 35 53 27
91 -5 22 -11 27 -35 27 -25 0 -29 -3 -25 -22z"/>
<path d="M1795 3143 c9 -65 12 -73 29 -73 19 0 29 35 24 81 -3 29 -7 34 -31
37 l-28 3 6 -48z"/>
<path d="M1660 3013 c0 -8 12 -19 26 -25 21 -10 31 -9 52 2 45 26 38 39 -22
37 -39 -1 -56 -5 -56 -14z"/>
<path d="M2805 1920 c-18 -20 -17 -20 43 -20 34 0 62 4 62 8 0 35 -77 43 -105
12z"/>
<path d="M2726 1844 c-3 -9 -6 -35 -6 -59 0 -32 4 -44 18 -47 33 -9 40 1 34
50 -6 64 -31 94 -46 56z"/>
<path d="M2930 1840 c-6 -12 -10 -38 -8 -58 3 -32 7 -37 31 -40 l28 -3 -6 48
c-4 26 -8 54 -10 61 -6 18 -23 15 -35 -8z"/>
</g>
</svg>
