<?xml version="1.0" standalone="no"?>
<!DOCTYPE svg PUBLIC "-//W3C//DTD SVG 20010904//EN"
 "http://www.w3.org/TR/2001/REC-SVG-20010904/DTD/svg10.dtd">
<svg version="1.0" xmlns="http://www.w3.org/2000/svg"
 width="860.000000pt" height="980.000000pt" viewBox="0 0 860.000000 980.000000"
 preserveAspectRatio="xMidYMid meet">
<metadata>
Created by potrace 1.16, written by Peter Selinger 2001-2019
</metadata>
<g transform="translate(0.000000,980.000000) scale(0.100000,-0.100000)"
fill="#f1f5f9" stroke="none">
<path d="M4521 9374 c-66 -56 -336 -444 -616 -888 -66 -104 -144 -216 -173
-249 -73 -81 -93 -131 -99 -242 -5 -78 -2 -99 20 -160 13 -38 38 -110 56 -158
59 -167 65 -281 16 -313 -95 -62 -228 138 -356 532 -87 269 -203 387 -439 443
-319 76 -870 39 -1535 -105 -141 -31 -169 -43 -191 -86 -20 -39 -15 -94 26
-262 94 -392 301 -800 563 -1111 99 -118 290 -303 326 -317 155 -60 467 -45
770 37 92 25 94 25 125 7 60 -35 96 -121 96 -227 0 -38 -5 -47 -37 -74 -81
-66 -207 -91 -518 -100 -227 -7 -243 -9 -302 -33 -94 -40 -176 -102 -247 -188
-17 -20 -31 -30 -33 -23 -22 64 -101 121 -144 104 -24 -9 -126 -111 -227 -225
l-52 -60 -35 34 c-20 19 -33 40 -31 46 14 36 -19 90 -110 182 -105 105 -158
193 -152 253 l3 34 103 3 103 3 -48 62 c-78 102 -222 245 -269 268 -83 40
-151 5 -203 -104 l-29 -62 32 -160 c18 -88 35 -178 38 -200 l5 -40 -46 3 c-58
4 -103 -22 -131 -77 -29 -59 -27 -113 9 -153 29 -34 111 -190 111 -212 0 -9
-22 -15 -74 -18 -115 -8 -166 -49 -166 -136 0 -52 29 -93 98 -142 l58 -41 -15
-59 c-14 -54 -14 -61 4 -99 44 -98 275 -274 588 -449 l58 -33 -50 98 c-27 54
-61 124 -75 156 l-25 57 25 17 c23 15 30 14 112 -10 48 -14 101 -28 119 -32
27 -5 38 -17 71 -78 l38 -72 -8 -180 c-9 -181 4 -580 20 -640 11 -38 46 -57
92 -48 19 3 109 37 200 75 91 39 173 72 182 75 41 12 244 -183 315 -304 50
-83 104 -133 188 -173 85 -40 123 -47 131 -23 21 61 70 153 97 182 18 18 79
72 137 119 58 47 142 121 186 164 45 43 86 78 91 78 5 0 15 -44 22 -97 7 -54
20 -119 29 -144 15 -44 15 -53 -7 -163 l-23 -116 55 -83 c47 -71 99 -127 171
-185 24 -19 19 -29 -15 -30 -35 -1 -73 -31 -97 -77 -24 -46 -28 -206 -8 -298
17 -74 17 -76 -6 -138 -20 -58 -22 -82 -23 -259 0 -107 4 -225 8 -262 7 -62 6
-68 -11 -68 -28 0 -102 -51 -150 -103 -45 -50 -119 -160 -148 -219 -17 -36
-18 -37 -65 -31 -63 7 -91 -1 -135 -39 -44 -39 -64 -84 -93 -204 -26 -112 -26
-184 -1 -294 31 -134 27 -198 -21 -347 -49 -152 -54 -224 -22 -294 28 -62 86
-124 148 -160 l50 -29 228 0 229 0 -30 38 c-16 20 -57 67 -91 104 -34 36 -57
69 -52 73 6 3 35 -11 67 -31 31 -20 91 -52 133 -73 76 -36 76 -36 201 -35 152
2 214 13 218 37 6 28 -44 120 -88 166 -53 54 -107 89 -182 116 -55 20 -67 28
-93 71 -16 27 -66 108 -112 180 -93 148 -102 183 -62 254 21 36 37 48 194 138
91 52 176 115 256 189 35 33 80 68 99 78 91 46 218 187 274 305 31 64 31 68
34 246 l4 182 39 17 c27 13 50 16 80 11 42 -7 43 -7 286 -230 9 -8 0 -26 -39
-76 -63 -82 -102 -159 -118 -233 -6 -32 -20 -78 -31 -101 -16 -38 -24 -44 -58
-50 -28 -4 -48 -17 -74 -45 -88 -98 -70 -243 51 -406 l37 -50 0 -245 c0 -221
2 -248 18 -274 40 -60 229 -121 552 -175 94 -16 172 -27 174 -25 2 2 -26 38
-63 80 -44 50 -64 80 -58 86 27 27 98 20 222 -20 69 -22 140 -43 159 -47 l34
-7 -7 56 c-19 167 -125 295 -297 357 l-60 22 -64 126 c-35 69 -89 164 -120
211 l-56 85 23 18 c151 122 427 396 506 501 77 104 77 107 36 233 -93 281
-222 515 -348 631 -41 38 -44 44 -51 109 l-7 70 -89 68 c-49 37 -89 71 -89 75
0 4 21 5 48 3 l47 -5 48 79 c105 175 146 318 130 464 -8 84 16 139 62 139 28
0 38 -9 87 -77 93 -130 168 -249 199 -318 16 -35 43 -80 60 -100 64 -72 265
-191 480 -285 92 -40 215 -119 264 -170 20 -21 38 -62 62 -142 19 -62 45 -137
59 -167 19 -43 24 -70 24 -135 l0 -82 -40 -39 -39 -38 -64 31 c-68 34 -105 40
-125 20 -16 -16 -15 -63 2 -96 26 -48 110 -120 174 -150 l64 -29 -31 -26 c-17
-14 -31 -28 -31 -31 0 -10 223 -6 260 4 21 6 72 44 129 95 51 47 97 83 101 80
4 -3 11 -16 14 -30 5 -21 -10 -45 -98 -152 -58 -71 -102 -129 -98 -130 4 -2
76 16 161 40 l154 43 39 56 c48 68 57 120 34 198 -9 29 -16 57 -16 60 0 12 90
42 106 36 8 -3 23 -25 33 -48 40 -92 46 -77 -130 -287 -88 -105 -158 -191
-155 -191 13 0 531 392 533 403 1 7 -48 81 -110 166 l-112 153 -105 43 c-66
27 -111 51 -121 66 -9 13 -48 79 -85 147 -96 171 -193 312 -233 339 -19 13
-71 35 -116 48 -92 28 -95 31 -211 185 -43 58 -124 150 -179 206 -79 80 -115
108 -171 135 l-72 34 -7 50 c-3 28 -9 58 -11 68 -11 36 49 14 340 -128 204
-100 307 -145 331 -145 46 0 90 46 111 115 13 48 14 75 3 217 -21 288 -4 557
50 790 61 259 66 484 15 636 -34 105 -63 136 -142 152 -224 47 -370 112 -467
207 -115 113 -154 210 -109 270 63 84 208 101 369 43 66 -23 114 -33 180 -37
84 -5 96 -3 168 26 125 50 300 157 386 235 24 23 103 113 175 201 162 199 272
314 401 420 202 167 334 327 343 415 4 41 1 51 -24 79 -24 26 -59 42 -204 90
-362 121 -725 284 -898 403 -143 98 -299 139 -532 139 -243 0 -405 -43 -476
-125 -32 -37 -204 -373 -285 -556 -42 -95 -46 -100 -79 -100 -42 0 -59 9 -75
41 -20 38 -19 89 4 206 25 126 50 192 117 305 60 102 70 136 60 209 -11 81
-40 145 -147 325 -259 432 -664 996 -768 1069 -47 32 -72 32 -110 -1z m158
-139 c239 -281 730 -1024 786 -1190 9 -27 17 -74 17 -102 1 -47 -6 -64 -55
-146 -70 -118 -91 -171 -117 -297 -48 -237 -12 -340 122 -340 81 0 88 6 147
136 92 204 245 504 274 539 34 41 99 67 226 89 238 41 503 4 657 -91 289 -178
590 -315 964 -438 148 -49 180 -65 180 -95 0 -28 -78 -140 -149 -214 -36 -37
-118 -112 -181 -166 -143 -121 -223 -204 -380 -395 -159 -194 -197 -233 -301
-310 -237 -177 -371 -212 -559 -144 -179 64 -220 70 -309 43 -66 -19 -131 -81
-156 -149 -18 -46 -18 -51 -2 -114 23 -85 67 -151 142 -208 55 -42 57 -46 28
-40 -95 18 -197 100 -229 182 -36 96 -1 200 123 360 145 187 175 195 308 77
28 -25 77 -58 110 -73 73 -34 195 -80 195 -73 0 2 -48 27 -107 55 -75 36 -124
67 -163 104 -108 103 -163 125 -229 90 -72 -37 -243 -266 -275 -368 -33 -106
-9 -195 76 -279 53 -51 135 -88 197 -88 22 0 69 -13 105 -29 81 -37 226 -83
329 -106 74 -16 79 -19 98 -56 71 -141 73 -336 5 -668 -60 -294 -70 -450 -52
-812 8 -157 7 -179 -9 -212 -9 -20 -25 -39 -34 -42 -10 -3 -220 94 -527 243
-280 137 -547 266 -594 287 -47 20 -102 54 -123 74 -21 20 -104 117 -185 216
-276 340 -415 486 -496 520 -20 9 -67 11 -155 7 -124 -5 -263 12 -313 39 -14
7 -32 -5 -95 -69 -62 -61 -111 -97 -233 -169 -217 -128 -390 -200 -605 -252
-169 -40 -694 -288 -990 -466 -145 -87 -185 -108 -185 -97 0 11 171 177 324
315 376 339 808 630 1261 847 277 133 381 175 440 175 91 0 192 -67 302 -200
41 -49 42 -50 96 -49 39 1 76 12 134 38 152 68 215 88 299 93 120 8 170 -11
260 -101 64 -64 134 -172 134 -206 0 -6 15 -44 34 -84 51 -112 134 -192 423
-407 278 -208 365 -279 467 -383 77 -79 57 -44 -26 46 -64 68 -161 155 -287
257 -51 41 -89 77 -83 79 15 5 -5 79 -34 130 -28 47 -121 144 -156 163 -15 8
-7 -6 22 -37 68 -73 146 -194 125 -194 -2 0 -42 21 -89 47 -157 85 -298 237
-336 360 -11 36 -20 69 -20 74 0 4 27 -7 59 -26 76 -45 82 -44 69 3 -21 77
-107 211 -179 277 -25 24 -20 12 28 -60 62 -93 103 -166 103 -185 0 -5 -23 2
-50 18 -35 18 -65 46 -94 87 -53 74 -120 137 -175 165 -23 11 -40 24 -37 28 2
4 -20 21 -50 37 -30 16 -54 32 -54 35 0 3 29 34 64 69 l65 64 77 -72 c43 -39
83 -70 89 -68 10 3 175 237 175 248 0 4 -18 9 -41 13 -76 12 -311 96 -395 140
-47 25 -84 39 -84 33 0 -16 52 -122 81 -165 l22 -34 -54 27 c-77 39 -180 107
-229 152 l-43 38 7 -35 c18 -90 69 -212 119 -285 20 -29 19 -29 -17 5 -21 19
-51 58 -67 85 l-30 50 3 -109 3 -108 -37 42 c-33 37 -69 100 -93 165 -6 15
-12 2 -21 -49 -8 -38 -16 -71 -19 -74 -3 -3 -5 27 -5 66 0 40 -4 72 -9 72 -10
0 -77 -100 -127 -192 l-35 -63 5 120 c3 66 8 131 11 145 9 34 -120 -97 -171
-174 -36 -54 -54 -65 -82 -47 -12 7 -9 24 13 96 14 48 24 89 21 92 -5 6 -95
-77 -185 -171 -49 -50 -126 -104 -136 -94 -5 5 123 280 169 363 20 37 35 69
33 71 -6 7 -192 -118 -251 -169 -71 -62 -59 -32 24 54 32 35 58 65 56 67 -6 6
-122 -18 -168 -34 l-43 -15 45 47 c25 25 72 65 105 87 l60 42 -60 3 c-72 4
-187 -13 -263 -39 -30 -10 -57 -17 -59 -15 -12 12 114 80 181 97 26 6 45 13
43 16 -3 2 -46 14 -98 27 l-93 23 65 36 c82 46 131 63 205 73 l59 7 -60 29
c-51 24 -56 28 -31 28 24 0 27 2 16 15 -7 9 -54 43 -104 76 -50 34 -93 64 -96
66 -10 11 176 -7 230 -22 30 -8 61 -15 68 -15 19 0 0 30 -63 98 -46 50 -51 58
-32 58 36 -1 27 70 -22 160 l-41 75 52 -28 c28 -15 99 -61 157 -100 90 -62
107 -70 113 -55 10 25 9 111 -2 162 -6 25 -12 56 -15 70 -3 14 16 -13 42 -60
l48 -85 9 94 c5 57 5 134 -1 200 -5 58 -8 108 -7 110 4 4 179 -355 188 -386 4
-13 11 -23 16 -23 11 0 47 115 71 225 l17 80 1 -70 2 -70 29 34 c34 40 89 144
115 216 10 28 23 55 28 60 10 11 3 -292 -9 -339 l-7 -30 49 39 c87 69 126 109
165 170 21 33 39 53 39 44 0 -29 -39 -143 -60 -174 -11 -16 -20 -33 -20 -37 0
-18 150 83 218 146 39 36 41 26 11 -70 -26 -83 -47 -127 -88 -178 -17 -22 -29
-41 -27 -43 9 -9 162 62 223 103 34 23 63 40 63 38 0 -12 -65 -165 -82 -193
l-21 -33 24 7 c31 10 94 41 142 72 20 13 37 21 37 18 0 -13 -118 -201 -148
-236 -19 -22 -30 -39 -25 -39 4 0 50 22 101 49 50 26 92 46 92 44 0 -2 -19
-24 -42 -50 l-43 -46 45 7 c25 4 54 10 65 12 11 3 3 -5 -18 -18 -36 -23 -37
-25 -20 -40 33 -30 73 -38 186 -38 101 0 109 -1 91 -15 -26 -17 -152 -61 -223
-76 -59 -12 -61 -23 -11 -57 32 -21 58 -30 150 -49 38 -8 18 -11 -127 -18 -95
-4 -173 -10 -173 -12 0 -7 43 -41 94 -75 49 -33 38 -34 -72 -8 -121 29 -124
28 -62 -36 105 -106 350 -274 403 -274 9 0 22 28 37 85 18 65 27 85 39 83 13
-3 19 19 35 120 17 104 22 122 38 122 24 0 23 4 -17 110 -19 50 -35 96 -35
100 0 5 21 12 48 16 26 3 52 9 59 13 7 4 -17 53 -72 144 l-83 138 -11 -31 c-8
-23 -15 -30 -28 -26 -10 3 -35 8 -55 12 -21 3 -38 7 -38 9 0 1 18 21 40 43 22
22 40 46 40 53 0 8 -32 27 -70 43 -39 17 -70 32 -70 34 0 2 11 17 25 34 14 16
25 38 25 48 0 16 -186 198 -194 189 -1 -2 -9 -25 -16 -51 -7 -27 -17 -48 -22
-48 -6 0 -38 23 -72 52 -33 29 -63 54 -65 55 -3 2 3 19 12 38 9 20 17 43 17
53 -1 11 -41 39 -120 84 l-120 66 0 -29 c0 -34 7 -33 -143 -3 -38 8 -71 14
-73 14 -3 0 -2 20 1 44 7 42 6 44 -22 50 -15 3 -86 8 -157 12 -124 6 -129 6
-122 -12 4 -11 16 -49 26 -86 l18 -66 -121 -22 c-67 -13 -125 -25 -130 -27 -4
-2 -9 2 -11 9 -2 7 -12 41 -21 76 -10 34 -20 62 -22 62 -14 0 -243 -115 -243
-121 0 -5 16 -31 35 -58 19 -26 35 -50 35 -53 0 -3 -54 -53 -119 -111 l-120
-107 -35 43 c-19 23 -37 39 -39 37 -10 -10 -137 -250 -137 -258 0 -5 17 -16
37 -26 l36 -17 -104 -105 c-76 -76 -98 -104 -84 -104 45 0 46 -11 15 -120 -16
-57 -28 -105 -26 -108 2 -2 30 1 62 7 31 6 58 10 60 8 1 -1 4 -33 6 -70 4 -75
10 -69 -79 -81 -53 -8 -113 -35 -113 -53 0 -12 54 -217 66 -253 4 -11 14 -5
39 25 19 22 35 37 37 35 12 -16 78 -133 76 -134 -2 -1 -27 -19 -55 -40 l-53
-38 78 -89 c42 -50 88 -104 102 -120 l25 -30 34 63 c19 35 35 64 36 66 1 1 34
-16 72 -39 l71 -40 -202 -103 c-298 -152 -544 -306 -784 -493 -61 -48 -86 -64
-74 -45 11 15 31 47 45 72 14 25 51 74 84 110 67 74 36 57 -50 -27 -53 -52
-123 -166 -112 -183 2 -4 -48 -51 -111 -105 -126 -108 -412 -391 -484 -479
-29 -36 -63 -64 -95 -80 -62 -30 -133 -51 -142 -43 -22 22 -31 559 -13 797 55
742 247 1188 558 1303 50 18 90 22 307 28 208 6 264 10 330 28 147 39 230 94
244 162 10 50 -5 161 -30 218 -26 61 -87 118 -137 127 -22 4 -61 -1 -111 -15
-224 -61 -463 -90 -601 -72 -150 19 -150 19 -305 175 -362 363 -608 818 -710
1311 -29 143 -26 159 33 174 75 20 391 81 547 105 478 75 914 77 1118 7 91
-32 155 -71 204 -125 54 -60 85 -119 123 -234 136 -418 248 -597 379 -610 164
-15 187 175 59 491 -37 91 -41 111 -42 187 -1 103 20 156 91 234 27 29 102
137 168 242 251 397 514 783 587 861 38 40 45 36 137 -72z m-216 -2034 c10 -1
17 -9 17 -20 0 -46 -54 -224 -92 -305 l-43 -89 -12 91 c-7 51 -26 146 -43 212
-16 66 -30 121 -30 122 0 2 42 0 92 -4 51 -3 101 -7 111 -7z m-515 -108 c22
-76 42 -230 42 -333 l0 -105 -66 115 c-76 133 -71 127 -85 113 -8 -8 -1 -42
24 -119 33 -104 64 -260 54 -271 -3 -2 -39 18 -81 46 -106 72 -173 111 -233
135 l-51 21 134 119 c74 66 134 124 134 128 0 5 -13 29 -30 53 -16 24 -30 47
-30 52 1 8 147 81 166 82 6 1 16 -16 22 -36z m682 -9 c47 -9 89 -21 94 -25 11
-10 -13 -86 -52 -163 -22 -45 -126 -166 -142 -166 -3 0 -6 69 -7 154 -1 85 -4
168 -8 185 -8 37 -5 38 115 15z m283 -68 c24 -15 21 -32 -12 -85 -32 -49 -83
-101 -144 -146 l-38 -28 11 28 c21 55 30 118 32 216 l1 99 66 -37 c36 -20 74
-41 84 -47z m-643 -88 c0 -92 -17 -215 -41 -286 l-11 -33 -52 108 c-28 59 -70
144 -93 188 -24 44 -44 84 -45 89 -4 15 225 55 234 42 4 -6 8 -54 8 -108z
m748 -117 c23 -19 42 -38 42 -42 0 -29 -127 -133 -193 -158 l-23 -9 24 51 c14
28 34 90 45 138 24 98 11 96 105 20z m200 -35 c28 -28 52 -55 52 -62 0 -28
-127 -131 -219 -179 -33 -16 -34 -16 -26 1 4 11 31 85 59 166 57 165 46 158
134 74z m-1666 -116 c82 -109 138 -220 110 -220 -9 0 -152 58 -245 99 l-48 21
53 100 c39 74 56 97 63 87 6 -7 36 -46 67 -87z m1748 -78 l62 -29 -45 -39
c-43 -38 -182 -126 -221 -140 -17 -6 -16 -2 8 37 14 24 45 79 69 121 23 43 47
78 53 78 6 0 39 -13 74 -28z m-4201 -86 c15 -8 67 -57 116 -108 l89 -93 -80
-3 c-76 -3 -82 -1 -163 40 -57 28 -86 38 -89 30 -6 -18 -22 -4 -22 19 0 25 26
77 53 107 24 25 56 28 96 8z m2400 -17 c27 -6 51 -16 53 -23 2 -7 24 -31 50
-53 69 -60 118 -117 93 -110 -31 10 -202 27 -275 27 -36 0 -82 3 -103 7 l-39
6 78 78 c43 44 82 79 86 79 4 0 29 -5 57 -11z m1847 -55 c55 -11 83 -13 94 -6
14 8 25 -4 70 -79 29 -49 51 -92 49 -94 -8 -7 -173 -25 -235 -25 -69 0 -124 9
-124 20 0 4 40 33 90 64 49 32 92 61 95 66 3 4 -28 -3 -68 -15 -39 -13 -89
-26 -110 -30 l-38 -7 43 61 c23 33 45 61 49 61 4 0 42 -7 85 -16z m-4228 -167
l42 -11 0 -59 c0 -95 59 -194 186 -311 60 -54 83 -99 67 -126 -10 -14 0 -29
63 -91 l75 -74 41 45 c180 198 252 271 266 268 9 -2 27 -18 39 -37 31 -46 31
-121 0 -190 l-22 -51 -44 55 c-24 30 -46 55 -48 55 -2 0 -11 -16 -19 -35 -21
-50 -18 -144 7 -216 24 -69 24 -65 -20 -278 -17 -80 -36 -198 -43 -263 -7 -65
-16 -118 -20 -118 -4 0 -19 23 -33 50 -16 31 -32 50 -43 50 -9 0 -74 16 -143
36 l-126 36 -43 -27 c-23 -14 -43 -25 -45 -23 -2 2 -28 41 -59 86 -33 51 -48
81 -38 77 9 -3 55 -9 102 -12 l84 -6 -39 54 c-101 139 -198 245 -288 313 -45
34 -49 40 -51 84 -2 30 -16 73 -40 121 l-37 73 93 -48 c73 -38 114 -70 191
-143 l97 -94 0 101 c0 55 -5 113 -11 128 -5 16 -62 80 -125 144 -112 114 -114
117 -114 162 0 41 -39 274 -56 335 -6 21 -3 21 52 -13 33 -19 78 -40 102 -47z
m2302 7 c63 -29 170 -95 170 -106 0 -5 -26 -8 -57 -9 -32 0 -67 -4 -78 -8 -16
-6 -12 -9 20 -15 72 -13 147 -38 138 -46 -4 -4 -28 -15 -54 -24 -25 -10 -76
-37 -115 -61 -41 -27 -70 -39 -72 -32 -1 7 -6 46 -10 87 -8 81 -5 78 -75 67
-45 -7 -44 -14 -6 116 l20 68 32 -6 c18 -4 57 -18 87 -31z m2079 -174 c12 -30
21 -59 21 -64 0 -14 -198 1 -260 20 l-55 16 90 27 c50 15 108 37 130 48 22 12
43 18 47 15 3 -4 16 -32 27 -62z m-17 -223 c-11 -73 -18 -97 -28 -93 -9 4 -20
-16 -34 -67 -12 -40 -23 -78 -25 -85 -9 -26 -245 120 -319 197 l-27 28 158
-33 c87 -18 166 -34 176 -34 10 0 -30 25 -90 55 -59 30 -121 65 -137 78 l-29
24 139 7 c76 4 159 11 184 15 25 4 46 7 46 7 1 -1 -5 -45 -14 -99z m-4511 44
c59 -39 235 -220 249 -255 5 -15 10 -43 10 -62 l0 -35 -69 58 c-41 34 -123 87
-201 127 -72 37 -134 74 -137 82 -15 40 36 114 80 114 13 0 43 -13 68 -29z
m2476 -7 l53 -7 -62 -36 c-33 -20 -94 -67 -135 -105 -40 -38 -75 -67 -77 -65
-9 10 -48 180 -43 185 28 29 151 41 264 28z m106 -210 c-63 -64 -112 -118
-110 -121 3 -2 22 4 44 15 49 25 184 74 190 69 2 -3 -25 -42 -59 -88 -35 -46
-87 -125 -116 -176 l-53 -92 -76 85 c-42 47 -72 89 -67 92 5 4 28 19 52 35 23
15 42 32 42 37 0 5 -20 42 -45 82 l-44 73 47 23 c62 29 167 61 239 71 32 5 61
9 64 10 3 0 -45 -51 -108 -115z m1615 -100 c62 -19 115 -34 117 -34 2 0 -24
-40 -58 -90 -34 -49 -67 -90 -73 -90 -31 0 -264 274 -264 311 0 4 37 -9 83
-28 45 -19 133 -50 195 -69z m-443 46 c22 -15 85 -51 140 -80 55 -29 102 -55
104 -57 6 -5 -121 -133 -131 -133 -22 0 -150 213 -173 289 -8 26 -8 26 60 -19z
m-923 -107 c-38 -76 -76 -157 -85 -181 l-17 -44 -48 28 c-26 15 -60 35 -76 45
l-29 18 84 83 c66 67 219 188 235 188 2 0 -27 -62 -64 -137z m-1972 31 c0 -8
-4 -12 -10 -9 -5 3 -10 13 -10 21 0 8 5 12 10 9 6 -3 10 -13 10 -21z m2410
-154 l0 -130 -49 37 c-26 21 -56 43 -66 49 -17 10 -16 14 14 58 34 49 90 116
97 116 2 0 4 -59 4 -130z m174 43 c4 -32 17 -109 30 -170 l23 -113 -26 6
c-153 35 -167 44 -157 98 8 41 103 236 115 236 5 0 11 -26 15 -57z m-417 0
c-15 -51 -13 -49 -62 -57 l-40 -7 54 55 c30 31 56 54 57 53 2 -2 -2 -21 -9
-44z m612 -108 c34 -33 61 -57 61 -55 0 3 -7 41 -15 85 -8 44 -14 87 -15 95 0
8 24 -9 53 -37 28 -28 85 -74 124 -101 l72 -49 -82 -8 c-45 -4 -100 -8 -122
-9 -22 -1 -66 -12 -98 -24 -32 -12 -59 -22 -61 -22 -2 0 -11 19 -21 42 -19 48
-31 163 -21 203 l7 27 29 -43 c16 -24 56 -71 89 -104z m-3684 111 c28 -13 76
-45 109 -71 68 -56 222 -238 206 -243 -22 -8 -135 20 -223 54 -96 37 -213 101
-258 143 -56 51 -46 115 21 131 60 14 93 11 145 -14z m58 -293 c84 -36 93 -42
138 -103 27 -36 58 -85 70 -110 12 -25 39 -80 60 -122 21 -43 36 -78 32 -78
-3 0 -65 39 -137 87 -162 108 -286 224 -286 269 0 33 18 94 28 94 3 0 46 -17
95 -37z m3402 -13 c8 -13 -5 -13 -25 0 -13 8 -13 10 2 10 9 0 20 -4 23 -10z
m-298 -151 c59 -22 133 -30 278 -30 89 0 156 -4 165 -10 9 -6 11 -12 5 -15
-36 -15 -134 -87 -153 -113 -30 -41 -23 -40 141 3 l128 34 102 -117 c191 -217
338 -408 348 -448 26 -112 5 -224 -67 -359 -30 -56 -54 -111 -54 -121 0 -31
-76 -93 -113 -93 -8 0 -37 18 -63 40 -100 83 -256 140 -379 139 l-60 0 94 -24
c106 -28 252 -95 323 -149 65 -50 113 -50 164 0 l36 37 -4 -109 c-5 -121 -24
-181 -106 -321 -42 -71 -42 -72 -72 -61 -38 13 -42 21 -69 138 -39 169 -38
167 -113 246 -39 41 -94 91 -121 111 -47 35 -55 37 -136 41 -47 2 -152 -1
-233 -5 -170 -10 -193 -19 -353 -138 -108 -79 -125 -108 -133 -210 -5 -74 -17
-109 -50 -138 -20 -18 -21 -18 -66 23 -25 23 -66 73 -92 110 l-47 69 19 105
18 104 27 -19 c43 -30 93 -25 147 17 71 54 217 121 323 149 l94 24 -60 0
c-122 1 -259 -48 -374 -135 -67 -50 -86 -52 -133 -15 -40 32 -73 157 -104 391
l-7 55 -17 -38 c-24 -54 -71 -99 -265 -257 -208 -170 -245 -207 -288 -292
l-33 -66 -50 24 c-75 36 -120 78 -166 157 -44 74 -202 247 -277 302 -22 17
-41 33 -41 37 0 8 142 89 276 156 l102 51 19 -22 c25 -27 94 -130 119 -177
l19 -35 5 82 c5 70 10 88 35 125 29 40 49 58 190 168 31 25 67 53 79 63 11 9
66 28 121 42 55 13 133 35 174 49 41 14 76 24 79 21 7 -7 21 -86 23 -130 l1
-40 13 45 c8 25 19 71 25 102 l11 58 127 65 c70 36 164 92 209 124 80 58 83
59 124 50 23 -6 49 -7 56 -5 8 3 27 -10 45 -30 40 -45 77 -64 125 -63 33 0 36
2 19 12 -10 7 -52 33 -92 59 l-74 48 0 48 c0 26 5 53 12 60 14 14 11 14 45 1z
m-97 -74 c0 -9 -9 -15 -21 -15 -18 0 -19 2 -9 15 7 8 16 15 21 15 5 0 9 -7 9
-15z m604 -14 c17 -18 16 -19 -34 -30 -74 -16 -79 -14 -40 19 41 35 51 36 74
11z m-1751 -529 c-62 -50 -112 -107 -130 -150 -8 -19 -16 -33 -17 -31 -2 2
-20 25 -40 51 l-36 48 78 35 c42 20 100 46 127 59 70 34 74 32 18 -12z m2617
-292 c129 -61 238 -116 241 -122 4 -6 15 -68 25 -139 l18 -128 41 -10 c101
-25 224 -138 403 -368 56 -73 112 -139 125 -148 12 -9 60 -27 107 -42 67 -20
92 -33 120 -63 39 -41 119 -169 225 -357 l70 -125 113 -46 114 -47 88 -125 88
-125 -26 -22 c-15 -12 -31 -21 -36 -20 -5 2 -15 26 -22 55 -23 89 -59 147
-101 163 -25 9 -68 -2 -172 -46 -63 -27 -66 -27 -97 -10 -55 30 -152 162 -259
353 -31 56 -58 102 -59 102 -2 0 16 -96 40 -212 l43 -213 -107 -107 c-115
-116 -114 -116 -187 -81 -32 16 -125 102 -125 115 0 8 79 -30 115 -56 19 -14
25 -10 93 55 l72 69 0 107 c0 82 -4 110 -15 124 -19 20 -78 182 -96 262 -11
51 -19 65 -68 109 -82 76 -181 136 -317 196 -144 63 -279 139 -363 204 -51 40
-68 62 -105 135 -49 98 -126 219 -243 381 l-78 107 12 45 c6 25 12 83 12 130
l1 84 38 -36 c25 -25 111 -71 272 -148z m-990 -347 c19 -14 56 -47 83 -72 46
-45 47 -46 46 -106 -1 -33 -4 -71 -9 -85 -6 -20 -1 -32 26 -60 41 -44 53 -88
47 -176 -2 -38 3 -107 11 -154 l14 -85 2 120 c2 69 5 105 9 85 5 -29 21 -47
99 -108 l92 -74 0 -59 0 -59 74 -72 c122 -120 231 -315 316 -563 39 -113 40
-122 27 -151 -41 -85 -265 -319 -505 -525 -59 -51 -108 -96 -110 -100 -2 -4 7
-10 18 -14 28 -9 115 -142 205 -317 l72 -140 64 -21 c128 -43 212 -117 251
-219 10 -28 18 -52 16 -53 -2 -2 -57 15 -123 36 -131 43 -163 44 -243 9 l-45
-20 -62 64 c-35 36 -82 74 -106 86 -41 22 -102 31 -115 17 -13 -13 6 -37 31
-37 41 0 96 -34 156 -97 77 -81 131 -144 127 -148 -6 -6 -277 51 -358 75 -116
34 -147 54 -159 97 -14 48 -14 205 -1 351 l10 114 -46 61 c-66 87 -109 181
-109 237 1 86 45 140 116 140 28 0 33 6 63 73 18 39 36 92 39 116 7 59 56 153
116 228 l50 61 73 -28 c40 -15 89 -31 108 -34 27 -5 16 3 -45 35 -92 47 -123
71 -293 228 l-123 114 38 17 c45 21 98 74 89 89 -11 18 -26 13 -62 -19 -35
-30 -154 -73 -178 -64 -7 3 -44 -9 -82 -26 l-69 -30 0 -183 c0 -118 -4 -197
-13 -224 -26 -88 -173 -267 -252 -308 -22 -12 -57 -19 -92 -19 -39 -1 -59 -5
-63 -14 -8 -21 3 -32 32 -32 26 0 26 0 7 -21 -41 -47 -185 -149 -289 -208
-138 -77 -189 -128 -205 -207 -7 -31 -9 -68 -5 -82 3 -15 41 -83 84 -152 43
-69 96 -157 119 -195 41 -69 43 -71 109 -93 38 -13 92 -40 122 -60 55 -39 120
-116 107 -129 -4 -5 -57 -10 -117 -11 -131 -4 -170 6 -298 84 -98 58 -109 61
-189 40 -46 -13 -59 -13 -98 1 -61 21 -125 13 -169 -21 -19 -15 -35 -31 -35
-37 0 -20 30 -20 58 1 69 51 195 13 297 -90 l59 -60 -155 0 c-153 0 -156 0
-200 28 -83 53 -129 126 -129 204 0 24 18 100 39 170 56 179 59 217 26 374
-26 121 -27 134 -15 204 20 123 48 200 86 238 30 30 39 34 71 29 57 -10 60
-19 28 -87 -22 -47 -26 -63 -17 -72 19 -19 36 5 85 119 96 220 236 393 319
393 9 0 21 -28 33 -82 20 -81 29 -95 53 -80 9 6 10 16 2 38 -38 112 -68 486
-51 637 11 96 29 151 52 159 8 3 5 24 -9 70 -41 130 -38 301 5 344 23 23 78
12 124 -26 21 -16 40 -30 43 -30 3 0 -10 43 -29 96 l-35 95 32 40 c28 35 33
51 39 118 4 43 14 92 23 110 19 35 161 145 241 186 45 22 71 27 196 34 204 13
285 6 329 -26z m166 -160 c18 -29 68 -222 59 -231 -3 -3 -5 2 -5 11 0 8 -15
35 -34 60 -29 38 -34 53 -38 115 -2 40 -3 72 -2 72 1 0 10 -12 20 -27z m2043
-1180 l60 -71 -92 -84 c-135 -123 -143 -128 -196 -128 l-46 0 112 106 113 105
-19 37 c-10 20 -22 53 -26 72 -3 19 -9 44 -12 54 -5 19 -5 19 20 0 15 -10 53
-51 86 -91z m206 -164 c16 -62 16 -69 1 -100 -28 -57 -50 -77 -106 -93 -30 -9
-55 -16 -57 -16 -2 0 22 32 53 70 l57 70 -25 70 -25 69 36 3 c20 2 39 1 42 -2
4 -3 14 -35 24 -71z"/>
<path d="M4517 9116 c-10 -8 -49 -66 -87 -130 -92 -156 -221 -344 -434 -634
-97 -133 -187 -263 -198 -289 -42 -95 -20 -228 62 -378 54 -99 65 -151 45
-228 -9 -34 -25 -77 -36 -96 -13 -21 -15 -30 -6 -23 32 27 61 115 62 187 0 64
-4 79 -47 165 -25 52 -54 119 -62 149 -19 64 -21 155 -4 201 6 19 84 131 174
250 221 296 363 500 457 655 43 72 86 136 95 143 58 44 138 -52 425 -513 99
-159 212 -337 250 -394 119 -177 131 -249 73 -426 -53 -161 -69 -252 -64 -374
3 -89 8 -115 30 -163 15 -32 29 -58 32 -58 3 0 -7 25 -21 56 -52 113 -39 288
37 516 45 134 52 222 24 305 -9 26 -53 104 -97 173 -44 69 -141 224 -215 345
-280 457 -372 575 -445 575 -18 0 -40 -7 -50 -14z"/>
<path d="M4621 8719 c-33 -58 -66 -185 -75 -289 -7 -81 -4 -73 33 70 16 63 37
133 46 155 l17 39 29 -114 c36 -143 71 -261 76 -257 8 9 -78 431 -91 444 -2 3
-18 -19 -35 -48z"/>
<path d="M4242 8444 c-40 -61 -53 -114 -58 -224 -6 -117 10 -121 19 -5 3 39
16 97 28 130 l23 60 9 -35 c25 -94 101 -311 110 -317 7 -4 8 0 3 12 -3 10 -27
100 -51 199 -58 232 -54 224 -83 180z"/>
<path d="M4878 8289 c-50 -66 -80 -220 -60 -304 l10 -40 1 55 c2 67 24 179 44
217 l15 28 12 -45 c31 -119 107 -332 109 -305 0 6 -23 104 -52 219 l-53 210
-26 -35z"/>
<path d="M2315 8254 c-325 -32 -535 -71 -834 -152 l-133 -36 6 -75 c16 -170
65 -327 165 -526 130 -256 302 -495 511 -706 249 -252 342 -278 594 -166 224
100 322 117 413 72 55 -28 85 -61 126 -140 33 -64 35 -50 2 18 -27 58 -82 119
-129 145 -22 12 -55 17 -111 17 -91 0 -158 -19 -325 -93 -98 -44 -111 -47
-190 -47 -74 0 -91 3 -130 27 -213 126 -562 558 -731 906 -86 177 -137 337
-153 487 l-6 51 97 27 c390 108 758 167 1043 167 160 0 260 -12 381 -44 109
-30 142 -47 175 -93 40 -54 50 -63 28 -25 -46 82 -137 127 -338 168 -69 14
-378 26 -461 18z"/>
<path d="M4532 8123 c-13 -19 -30 -54 -39 -77 -19 -54 -29 -217 -15 -242 9
-15 11 -8 12 41 0 65 22 171 43 211 12 24 15 20 40 -72 29 -100 86 -258 92
-252 5 5 -96 411 -104 420 -3 4 -17 -9 -29 -29z"/>
<path d="M2096 8103 c11 -63 48 -146 97 -219 85 -125 88 -121 16 22 -39 78
-70 146 -68 152 2 6 54 -22 114 -62 61 -40 133 -85 160 -100 l50 -28 -35 31
c-43 38 -324 241 -334 241 -4 0 -4 -17 0 -37z"/>
<path d="M2725 7993 c10 -70 57 -155 126 -225 63 -65 69 -62 14 7 -43 55 -72
104 -90 155 l-15 42 23 -14 c115 -74 295 -173 302 -166 2 2 -80 59 -182 126
l-185 123 7 -48z"/>
<path d="M4235 7846 c-32 -54 -51 -115 -64 -200 -29 -184 -24 -191 18 -25 28
109 58 195 66 187 2 -2 20 -66 39 -143 43 -167 64 -237 65 -210 1 30 -79 419
-89 428 -4 5 -20 -12 -35 -37z"/>
<path d="M6120 7884 c-78 -15 -180 -48 -210 -68 -45 -30 -106 -144 -199 -380
-77 -193 -92 -251 -21 -84 68 162 182 388 210 418 44 47 143 72 302 78 200 6
236 -4 525 -148 308 -153 644 -298 883 -382 47 -17 93 -37 103 -46 49 -43 -4
-114 -218 -296 -132 -111 -271 -249 -342 -339 -30 -39 0 -13 88 76 74 74 190
179 259 234 150 119 246 216 261 260 8 26 7 39 -6 66 -18 38 -30 44 -189 102
-196 73 -600 252 -864 384 -215 108 -265 123 -427 126 -71 2 -141 1 -155 -1z"/>
<path d="M1945 7769 c4 -24 15 -64 26 -87 22 -51 112 -168 141 -183 14 -7 5 9
-24 47 -52 68 -101 159 -96 180 2 11 17 5 56 -21 56 -38 253 -145 267 -145 7
0 -286 197 -364 244 -11 7 -12 0 -6 -35z"/>
<path d="M4772 7705 c-44 -55 -93 -236 -91 -328 1 -23 3 -33 6 -22 26 113 55
218 71 255 l20 45 7 -30 c30 -128 90 -337 93 -323 3 15 -75 418 -83 426 -1 2
-12 -9 -23 -23z"/>
<path d="M6170 7631 c-55 -17 -134 -56 -95 -47 11 3 47 12 80 21 32 8 90 15
129 15 l69 0 -79 -56 c-84 -60 -207 -161 -212 -174 -2 -5 77 45 175 111 98 66
179 123 181 128 9 26 -170 27 -248 2z"/>
<path d="M2436 7583 c12 -72 60 -158 124 -224 65 -67 64 -63 -9 42 -25 34 -53
85 -63 112 l-19 50 23 -15 c109 -71 296 -174 303 -166 5 4 -348 238 -359 238
-4 0 -4 -17 0 -37z"/>
<path d="M2895 7429 c8 -55 61 -169 113 -246 64 -94 75 -92 22 3 -54 97 -96
192 -87 200 3 3 45 -21 94 -54 129 -87 230 -147 214 -128 -13 16 -153 120
-295 221 l-68 48 7 -44z"/>
<path d="M6720 7405 c-57 -14 -150 -51 -150 -59 0 -3 21 1 48 9 72 21 182 37
214 30 27 -6 26 -8 -51 -63 -96 -69 -212 -164 -207 -170 2 -2 87 52 188 119
l183 123 -50 13 c-62 16 -104 15 -175 -2z"/>
<path d="M3819 7293 l-24 -28 28 24 c25 23 32 31 24 31 -2 0 -14 -12 -28 -27z"/>
<path d="M1925 7203 c11 -73 53 -148 123 -222 45 -46 56 -54 36 -27 -68 96
-93 137 -108 181 l-15 47 22 -15 c106 -69 295 -173 302 -165 2 2 -80 59 -182
126 l-186 124 8 -49z"/>
<path d="M2400 7201 c0 -49 37 -134 100 -230 62 -94 102 -136 57 -59 -62 106
-126 248 -112 248 3 0 45 -26 93 -59 114 -76 223 -143 228 -139 3 4 -280 216
-333 250 l-33 20 0 -31z"/>
<path d="M5930 7199 c-100 -21 -145 -41 -63 -28 91 14 273 22 273 12 0 -6 -19
-23 -42 -38 -96 -62 -258 -178 -255 -182 6 -5 232 127 348 204 35 23 38 28 23
36 -35 20 -185 18 -284 -4z"/>
<path d="M5290 7146 c0 -2 8 -10 18 -17 15 -13 16 -12 3 4 -13 16 -21 21 -21
13z"/>
<path d="M6910 7135 c-98 -18 -148 -38 -75 -30 112 12 265 18 265 9 0 -5 -40
-35 -88 -66 -115 -76 -232 -162 -207 -154 26 9 317 184 352 212 l28 22 -40 11
c-52 14 -141 13 -235 -4z"/>
<path d="M6374 7025 c-56 -12 -169 -54 -162 -60 2 -2 35 5 73 15 39 11 103 19
143 19 l73 1 -118 -89 c-194 -145 -193 -162 2 -31 99 66 181 124 183 129 3 9
-84 32 -116 30 -9 0 -44 -7 -78 -14z"/>
<path d="M5946 6650 c-94 -20 -130 -37 -56 -26 68 10 280 20 280 13 0 -3 -60
-47 -132 -97 -73 -49 -144 -99 -158 -111 l-25 -20 42 20 c44 22 239 138 311
186 30 20 40 31 32 39 -19 19 -198 17 -294 -4z"/>
<path d="M6605 6591 c-64 -19 -135 -47 -135 -54 0 -2 30 4 68 15 74 21 243 37
227 21 -5 -5 -62 -48 -125 -95 -63 -47 -128 -101 -145 -119 l-30 -33 50 36
c28 19 113 77 190 128 l140 94 -30 12 c-42 18 -139 16 -210 -5z"/>
<path d="M2393 6011 c-150 -55 -268 -193 -403 -475 -106 -219 -168 -423 -204
-666 -25 -167 -38 -465 -28 -635 8 -140 9 -144 11 -55 10 612 94 1017 293
1414 120 239 264 384 401 402 27 4 70 -1 121 -15 91 -24 214 -27 316 -8 62 12
58 12 -95 12 -140 0 -168 3 -224 23 -77 27 -119 27 -188 3z"/>
<path d="M2625 5638 c-86 -96 -148 -197 -164 -267 l-9 -40 32 16 c64 33 346
205 352 215 4 6 -68 -28 -160 -75 -91 -47 -166 -80 -166 -73 0 16 71 136 126
213 25 35 43 63 40 63 -2 0 -25 -24 -51 -52z"/>
<path d="M5694 5441 c53 -78 122 -201 112 -201 -2 0 -80 39 -172 86 -171 88
-197 93 -69 14 99 -61 285 -170 291 -170 11 0 -9 66 -33 115 -31 61 -110 169
-154 210 -25 24 -21 14 25 -54z"/>
<path d="M3094 5358 c-92 -103 -184 -271 -161 -294 7 -7 328 182 367 215 27
24 -107 -40 -241 -114 -72 -40 -79 -42 -73 -22 10 33 51 102 111 190 29 42 52
77 49 77 -2 0 -26 -24 -52 -52z"/>
<path d="M6430 5280 c-13 -24 -5 -59 28 -125 36 -70 33 -134 -12 -270 -20 -60
-41 -139 -48 -176 -11 -72 -4 -167 15 -193 10 -13 12 4 13 81 0 88 4 110 43
222 71 208 72 263 4 372 -24 40 -34 66 -31 84 6 30 2 32 -12 5z"/>
<path d="M2191 5210 c-47 -37 -114 -118 -139 -166 -13 -25 -32 -104 -25 -104
8 0 381 205 378 208 -6 6 -134 -47 -233 -97 l-102 -51 15 35 c20 49 49 89 114
158 30 31 52 57 48 57 -3 0 -28 -18 -56 -40z"/>
<path d="M2613 5202 c-71 -59 -126 -139 -147 -209 -8 -29 -13 -53 -10 -53 10
0 383 204 379 208 -5 6 -135 -48 -237 -99 -92 -46 -97 -48 -88 -24 17 44 63
109 118 168 30 31 52 57 49 57 -3 0 -32 -22 -64 -48z"/>
<path d="M5687 5028 c47 -48 123 -159 123 -180 0 -5 -36 10 -79 32 -92 46
-244 110 -262 110 -6 0 15 -14 47 -31 32 -17 121 -65 197 -106 76 -42 140 -73
142 -71 10 10 -26 106 -56 151 -32 48 -135 147 -153 147 -6 0 13 -24 41 -52z"/>
<path d="M6117 5028 c47 -48 123 -159 123 -180 0 -5 -44 14 -97 40 -103 52
-233 106 -238 100 -4 -4 369 -208 380 -208 11 0 -6 63 -33 115 -25 51 -152
185 -174 185 -7 0 11 -24 39 -52z"/>
<path d="M2229 4748 c-75 -89 -127 -174 -144 -231 -8 -28 -13 -53 -10 -55 8
-8 395 222 395 234 0 3 -79 -35 -175 -84 -96 -50 -175 -88 -175 -86 0 13 57
113 103 181 65 96 69 103 63 103 -3 0 -29 -28 -57 -62z"/>
<path d="M6078 4565 c52 -80 112 -186 112 -199 0 -3 -74 33 -163 80 -90 46
-168 84 -173 84 -12 0 120 -85 266 -170 102 -59 120 -66 120 -50 0 56 -81 195
-170 290 l-51 55 59 -90z"/>
<path d="M3845 4761 l-50 -18 101 5 c81 4 106 1 133 -13 117 -60 258 -222 156
-179 -19 7 -51 14 -72 14 l-38 -1 55 -19 c67 -23 100 -60 100 -112 l0 -37 -42
19 c-50 23 -108 24 -158 5 l-35 -14 51 6 c92 10 176 -38 189 -107 l6 -35 -58
3 c-46 2 -63 -2 -83 -18 l-25 -20 28 10 c44 16 85 12 108 -11 25 -25 59 -33
59 -14 0 31 69 46 113 24 21 -10 21 -9 -2 10 -16 15 -37 21 -68 21 l-45 0 7
43 c4 23 12 48 19 56 29 36 116 51 173 31 26 -9 26 -9 9 5 -34 26 -122 31
-178 10 -16 -6 -18 -1 -18 37 0 53 17 73 82 94 l43 14 -58 -4 -57 -5 17 31
c20 33 119 115 172 143 29 14 53 17 135 13 l101 -5 -50 18 c-56 20 -160 24
-201 9 -45 -17 -163 -110 -189 -147 l-23 -35 -16 31 c-18 33 -142 133 -189
150 -42 16 -145 12 -202 -8z"/>
<path d="M3261 4368 c0 -41 30 -120 47 -126 19 -6 15 56 -7 104 -25 56 -41 64
-40 22z"/>
<path d="M4181 3645 c-1 -40 -6 -76 -13 -83 -9 -9 -8 -21 1 -54 13 -43 21
-101 25 -193 1 -27 8 -61 15 -73 8 -16 10 -41 6 -75 l-6 -52 21 34 c17 27 21
44 16 75 -3 23 -8 80 -11 128 -2 48 -10 107 -16 130 -7 24 -11 68 -10 98 1 30
-5 73 -13 95 l-15 40 0 -70z"/>
<path d="M3720 3504 c-15 -45 -16 -94 -2 -164 24 -123 34 -207 29 -244 -4 -29
-3 -36 6 -27 16 16 27 169 15 201 -19 49 -31 126 -32 198 -1 39 -2 72 -3 72
-1 0 -7 -16 -13 -36z"/>
<path d="M3644 3038 c5 -69 36 -142 79 -186 49 -51 76 -62 139 -55 42 4 65 1
100 -15 86 -37 165 -127 178 -201 7 -36 7 -36 14 -9 11 36 -29 122 -84 181
-59 64 -115 88 -201 86 -60 -2 -72 1 -103 25 -42 32 -81 95 -108 174 l-19 57
5 -57z"/>
<path d="M4732 2990 c-1 -8 -13 -39 -27 -67 -27 -60 -92 -133 -172 -195 -65
-49 -57 -60 18 -23 115 59 194 169 186 258 -2 23 -4 35 -5 27z"/>
</g>
</svg>
