<?xml version="1.0" standalone="no"?>
<!DOCTYPE svg PUBLIC "-//W3C//DTD SVG 20010904//EN"
 "http://www.w3.org/TR/2001/REC-SVG-20010904/DTD/svg10.dtd">
<svg version="1.0" xmlns="http://www.w3.org/2000/svg"
 width="1000.000000pt" height="618.000000pt" viewBox="0 0 1000.000000 618.000000"
 preserveAspectRatio="xMidYMid meet">
<metadata>
Created by potrace 1.16, written by Peter Selinger 2001-2019
</metadata>
<g transform="translate(0.000000,618.000000) scale(0.100000,-0.100000)"
fill="#f1f5f9" stroke="none">
<path d="M5068 5643 c-55 -61 -212 -453 -243 -603 -3 -19 -21 -98 -40 -175
-55 -235 -75 -599 -46 -840 18 -142 55 -320 84 -395 37 -98 124 -267 174 -337
50 -72 78 -92 99 -71 15 16 129 218 170 303 l29 60 0 205 c0 113 -6 241 -12
285 -31 212 -75 454 -119 663 -45 211 -52 350 -30 556 16 152 11 239 -18 325
-13 41 -27 48 -48 24z"/>
<path d="M2860 4866 c-159 -29 -300 -100 -444 -224 -224 -193 -373 -385 -517
-667 -114 -221 -164 -291 -338 -470 -346 -354 -369 -384 -514 -665 -99 -191
-118 -246 -145 -430 -26 -168 -31 -271 -37 -735 -3 -203 -8 -396 -11 -427 -9
-91 10 -68 30 35 11 50 29 133 42 182 13 50 32 153 44 230 11 77 29 172 40
210 11 39 29 114 40 168 56 259 128 440 256 639 218 340 327 488 359 488 7 0
15 -14 19 -31 10 -52 7 -659 -5 -728 -8 -50 -24 -87 -75 -174 -36 -60 -76
-134 -89 -164 -73 -165 -125 -408 -125 -586 0 -158 24 -154 55 8 55 289 108
426 203 524 38 41 55 52 63 44 16 -16 -2 -113 -51 -271 -21 -70 -51 -185 -66
-257 -25 -114 -28 -152 -29 -310 0 -179 9 -295 24 -295 4 0 11 66 14 148 10
235 47 405 124 572 34 76 103 190 114 190 12 0 28 -50 63 -191 43 -173 74
-260 123 -348 44 -80 122 -191 133 -191 15 0 22 40 15 78 -3 21 -30 111 -60
202 -60 186 -133 488 -165 690 -12 74 -31 177 -42 229 -11 51 -17 102 -15 113
3 10 -3 60 -14 111 -26 129 -26 369 0 498 28 136 58 247 91 337 16 43 36 107
45 142 21 80 96 266 137 339 175 312 463 575 698 640 41 12 92 21 113 21 54 0
227 -36 290 -61 159 -63 323 -174 462 -315 150 -152 258 -241 385 -321 155
-97 237 -167 280 -239 33 -56 35 -64 42 -184 11 -206 53 -332 192 -583 303
-546 373 -706 416 -949 24 -142 40 -192 61 -196 18 -3 81 83 127 174 28 55 31
72 37 195 4 75 15 168 26 212 16 61 19 107 17 225 -2 139 0 153 30 257 69 237
73 271 71 633 -2 278 1 340 16 412 19 91 57 190 74 190 14 0 15 5 -15 -142
-14 -70 -24 -140 -22 -155 3 -27 7 -24 108 73 132 128 309 269 425 342 287
178 755 352 913 340 62 -5 190 -62 509 -226 155 -81 325 -196 471 -322 59 -51
170 -178 224 -257 41 -60 95 -212 114 -321 7 -40 26 -115 43 -165 16 -51 43
-146 60 -212 17 -66 43 -158 57 -205 23 -78 25 -102 27 -295 3 -311 -29 -710
-79 -983 -24 -130 -20 -452 5 -452 4 0 20 69 35 153 15 83 40 206 57 272 16
66 34 149 39 185 10 73 57 240 70 254 11 11 90 -98 150 -206 49 -89 91 -196
137 -345 29 -95 53 -122 53 -59 0 53 -36 242 -64 339 -27 90 -77 224 -120 319
-64 143 -78 182 -107 293 -31 116 -32 130 -39 400 l-8 280 -34 110 c-20 61
-38 129 -42 153 -6 41 -6 42 23 42 64 0 417 -211 564 -337 53 -46 121 -114
151 -151 l54 -67 8 -160 c5 -88 8 -218 7 -290 -5 -371 -2 -790 7 -799 6 -6 10
-7 10 -3 0 3 11 50 25 104 13 54 27 139 30 188 7 101 46 406 76 594 18 114 24
155 49 338 13 99 8 110 -115 218 -60 54 -172 157 -249 229 -76 72 -176 160
-222 196 -163 128 -420 338 -487 400 -38 35 -96 100 -129 144 -176 234 -322
382 -523 535 -197 149 -354 244 -548 330 -220 97 -216 96 -371 94 -172 -2
-252 -15 -386 -63 -132 -47 -384 -160 -470 -210 -36 -21 -157 -87 -270 -147
-213 -114 -344 -193 -357 -218 -5 -7 -4 -80 0 -162 5 -96 4 -192 -3 -273 -10
-116 -14 -131 -55 -215 -57 -117 -130 -243 -157 -272 -12 -13 -30 -23 -39 -23
-29 0 -84 55 -137 138 -111 174 -165 315 -227 596 -13 60 -29 115 -37 122 -7
7 -56 18 -108 24 -142 17 -247 76 -435 250 -151 138 -267 225 -459 341 -191
115 -292 162 -425 195 -119 31 -285 39 -391 20z"/>
<path d="M5750 3864 c-25 -14 -75 -53 -111 -87 -36 -34 -95 -88 -132 -120 -37
-32 -67 -62 -67 -66 0 -4 156 -11 347 -15 367 -7 510 -20 609 -57 43 -16 69
-37 129 -102 41 -45 92 -104 112 -132 21 -27 72 -93 114 -145 42 -52 95 -126
118 -164 l41 -70 0 -124 c0 -146 -25 -319 -75 -515 -19 -77 -35 -153 -35 -170
0 -18 -7 -68 -14 -112 -19 -110 -30 -363 -17 -395 l10 -25 0 25 c1 34 67 386
81 430 6 19 20 82 31 140 44 223 91 351 160 430 29 33 32 34 42 17 100 -159
106 -172 113 -224 9 -75 3 -174 -46 -713 -12 -139 -13 -400 -1 -400 8 0 20 83
41 280 20 187 38 283 79 405 21 66 47 149 56 185 28 110 11 122 202 -140 86
-118 114 -190 188 -475 44 -169 99 -333 103 -310 2 9 -1 76 -7 147 -6 72 -11
181 -11 242 0 61 -9 166 -19 234 -18 118 -21 127 -73 208 -55 88 -99 147 -231
308 -100 121 -171 240 -198 330 -84 281 -185 449 -408 681 -42 44 -113 120
-156 169 -191 214 -336 287 -671 336 -193 27 -247 26 -304 -6z"/>
<path d="M4009 3826 c-2 -2 -53 -9 -114 -15 -60 -6 -162 -20 -225 -30 -63 -11
-164 -27 -225 -36 -62 -10 -168 -36 -243 -61 -74 -24 -146 -44 -161 -44 -16 0
-54 -9 -87 -20 -85 -30 -147 -47 -247 -66 -155 -30 -241 -105 -520 -449 -197
-243 -277 -359 -277 -401 0 -74 13 -153 27 -158 9 -4 29 19 59 67 75 117 238
326 382 488 195 219 194 218 357 219 98 0 221 -12 232 -23 2 -3 -52 -78 -120
-168 -148 -197 -214 -304 -261 -424 -62 -160 -104 -255 -135 -303 -49 -78
-128 -238 -152 -310 -18 -55 -22 -87 -21 -185 1 -64 6 -125 11 -135 8 -13 10
-8 11 25 0 69 27 187 59 262 31 73 103 176 189 272 l47 53 7 -55 c13 -109 8
-214 -12 -293 -27 -103 -21 -127 14 -51 43 94 75 218 96 370 11 77 25 171 30
208 6 37 22 91 36 120 30 59 71 117 83 117 5 0 11 -29 13 -65 5 -56 13 -77 62
-159 31 -52 65 -115 77 -140 30 -70 69 -252 69 -328 0 -52 3 -68 14 -68 20 0
30 144 17 245 -13 101 -53 239 -90 313 -24 48 -29 72 -31 137 -4 175 -4 176
49 256 61 93 245 314 301 361 45 39 161 104 213 119 116 35 495 58 659 41 70
-8 95 -15 122 -36 19 -14 38 -26 42 -26 3 0 5 24 2 53 -6 68 -40 120 -131 197
-86 72 -211 142 -228 126z"/>
</g>
</svg>
