<?xml version="1.0" standalone="no"?>
<!DOCTYPE svg PUBLIC "-//W3C//DTD SVG 20010904//EN"
 "http://www.w3.org/TR/2001/REC-SVG-20010904/DTD/svg10.dtd">
<svg version="1.0" xmlns="http://www.w3.org/2000/svg"
 width="736.000000pt" height="505.000000pt" viewBox="0 0 736.000000 505.000000"
 preserveAspectRatio="xMidYMid meet">
<metadata>
Created by potrace 1.16, written by Peter Selinger 2001-2019
</metadata>
<g transform="translate(0.000000,505.000000) scale(0.100000,-0.100000)"
fill="#ec4899" stroke="none">
<path d="M3605 4964 c-38 -5 -107 -22 -165 -40 -107 -33 -206 -66 -222 -75
-10 -5 -23 -9 -29 -9 -6 0 -27 -7 -47 -16 -21 -9 -46 -20 -57 -24 -11 -5 -49
-22 -85 -38 -36 -16 -83 -35 -104 -43 -46 -16 -130 -89 -171 -149 -71 -102
-114 -299 -115 -523 l0 -119 -44 -51 c-54 -64 -106 -151 -106 -179 0 -11 -21
-44 -47 -72 -53 -58 -83 -128 -83 -193 0 -52 -21 -67 -84 -58 -48 8 -99 -12
-110 -42 -4 -9 3 -43 15 -76 l22 -58 -20 -27 c-76 -103 -71 -245 12 -310 26
-21 29 -37 19 -90 -5 -24 -14 -34 -40 -42 -41 -14 -64 -35 -64 -59 0 -26 64
-96 105 -115 20 -10 38 -23 40 -29 2 -7 11 -38 21 -70 30 -101 131 -181 229
-182 83 -1 94 -21 48 -87 l-26 -39 20 -27 c11 -15 30 -28 42 -30 35 -5 150 27
227 64 39 19 74 34 78 34 18 0 1 -49 -33 -94 -32 -41 -51 -55 -93 -69 -170
-58 -264 -108 -348 -187 -30 -29 -64 -56 -75 -61 -11 -6 -29 -15 -40 -22 -11
-7 -58 -34 -105 -61 -47 -27 -86 -53 -88 -58 -2 -4 -9 -8 -16 -8 -22 0 -175
-129 -220 -186 -24 -31 -63 -95 -86 -143 -23 -47 -46 -94 -51 -103 -5 -10 -9
-24 -9 -32 0 -7 -7 -19 -15 -26 -8 -7 -15 -19 -15 -27 0 -8 -11 -38 -24 -66
-33 -72 -76 -210 -76 -245 0 -46 -28 -102 -79 -162 -67 -78 -95 -126 -111
-193 -14 -60 -15 -56 28 -197 16 -52 19 -83 15 -158 l-6 -92 61 0 60 0 18 97
c21 120 50 177 132 265 70 74 76 97 31 130 -25 19 -28 19 -57 4 -32 -16 -77
-58 -127 -116 l-30 -35 -3 48 c-4 61 30 124 82 151 20 11 36 23 36 27 0 16 53
60 103 85 76 38 127 90 127 130 0 35 -12 49 -52 59 -21 5 -31 1 -54 -24 -30
-34 -58 -42 -50 -13 3 9 12 44 22 77 9 33 20 64 25 70 5 5 9 15 9 22 0 7 12
38 26 70 15 32 33 74 41 93 93 215 146 281 311 388 146 94 199 124 205 115 3
-4 1 -30 -4 -58 -31 -183 -42 -264 -51 -370 -15 -176 -20 -468 -10 -558 4 -42
6 -79 4 -82 -6 -5 -42 60 -42 76 0 6 -9 24 -21 40 -40 57 -117 25 -106 -44 11
-71 84 -206 143 -265 56 -56 84 -116 64 -136 -8 -8 -24 0 -126 64 -21 13 -27
13 -51 0 -20 -11 -29 -25 -31 -46 -2 -25 4 -38 39 -68 49 -45 112 -75 156 -76
44 0 63 -23 63 -76 l0 -45 73 3 72 3 6 40 c3 22 16 76 28 120 29 106 45 168
76 300 58 246 60 252 91 395 9 41 19 86 24 100 4 14 16 57 25 95 10 39 22 74
26 80 11 11 79 8 95 -5 15 -13 24 -203 15 -310 -5 -47 -17 -152 -29 -235 -27
-195 -42 -377 -42 -492 l0 -93 60 0 c41 0 60 4 61 13 0 6 2 62 4 122 5 131 20
293 40 431 8 56 15 113 15 128 0 29 27 37 37 10 10 -26 52 -37 79 -20 31 21
39 52 20 81 -19 29 -66 34 -86 10 -7 -9 -17 -14 -22 -13 -5 2 -9 87 -10 188 0
184 0 185 22 188 46 7 94 -62 116 -168 16 -74 19 -314 5 -405 -5 -33 -13 -174
-16 -312 l-7 -253 66 0 66 0 1 163 c0 89 5 220 10 292 19 284 28 383 39 454 7
41 13 147 14 235 1 151 0 163 -21 196 -21 32 -30 70 -18 70 3 0 22 -7 42 -15
153 -64 448 -64 622 -1 24 9 45 16 47 16 11 0 1 -34 -21 -74 -23 -41 -25 -55
-25 -173 1 -70 5 -159 11 -198 5 -38 14 -128 19 -200 6 -71 14 -168 19 -215 5
-47 13 -190 17 -317 l7 -233 58 0 c37 0 59 4 62 13 8 20 -11 553 -24 676 -19
179 12 357 73 423 39 42 61 34 70 -27 12 -77 39 -263 48 -335 5 -36 18 -136
29 -223 15 -111 21 -212 21 -343 l0 -185 63 3 62 3 3 135 c3 155 -20 394 -74
765 -9 66 -18 145 -18 175 l-1 55 55 7 c30 4 58 3 63 -1 4 -4 14 -36 21 -72 8
-35 22 -98 31 -139 9 -41 25 -115 36 -165 10 -49 30 -135 43 -190 14 -55 41
-167 61 -250 35 -143 46 -186 75 -282 l13 -43 154 0 c134 0 159 3 193 20 66
33 76 83 24 116 -21 15 -28 15 -62 1 -21 -8 -59 -18 -85 -22 -61 -9 -64 11 -7
49 61 40 114 120 151 227 16 48 5 87 -28 100 -36 14 -70 -12 -92 -71 -10 -25
-28 -61 -40 -80 l-23 -35 6 40 c10 61 26 202 32 280 8 101 10 108 41 127 152
90 320 365 263 433 -13 16 -57 20 -76 7 -6 -4 -30 -45 -52 -92 -40 -84 -132
-205 -155 -205 -8 0 -14 38 -18 130 -9 162 -25 341 -38 420 -6 33 -16 90 -23
128 -6 37 -9 69 -6 72 5 5 133 -65 201 -109 15 -10 27 -15 27 -11 0 4 17 -8
38 -28 20 -19 56 -51 79 -72 52 -45 100 -119 138 -210 33 -80 72 -153 150
-286 30 -51 55 -100 55 -109 0 -9 -38 -51 -84 -93 -130 -118 -131 -122 -130
-302 1 -95 7 -172 17 -210 8 -33 22 -95 32 -138 l17 -77 65 0 65 0 -7 32 c-3
18 -10 44 -15 58 -15 46 -39 164 -46 229 -8 78 7 80 40 5 43 -101 90 -144 184
-165 47 -11 52 -15 70 -58 11 -25 22 -58 26 -74 6 -26 9 -27 70 -27 l63 0 -10
43 c-10 45 -24 83 -38 107 -5 8 -12 21 -15 28 -4 7 12 32 35 57 53 58 59 112
17 169 -41 57 -86 193 -86 263 0 17 -4 35 -10 38 -5 3 -10 14 -10 24 0 24 -41
60 -86 76 -30 10 -40 20 -45 42 -6 30 -29 74 -96 188 -50 86 -83 149 -121 235
-55 125 -118 209 -216 287 -44 35 -88 67 -96 70 -8 4 -28 16 -45 27 -16 12
-39 26 -50 32 -145 77 -186 103 -250 164 -52 49 -146 110 -168 110 -7 0 -17 4
-22 9 -6 5 -53 23 -106 41 -81 29 -99 39 -122 71 -15 20 -27 41 -27 46 0 5 60
9 133 10 126 0 135 2 192 31 63 32 128 92 139 129 9 30 -8 59 -39 67 -29 7
-35 44 -7 52 58 19 81 33 119 71 45 44 54 76 31 112 -9 15 -9 23 1 35 8 9 19
16 26 16 21 0 92 78 116 128 18 37 24 68 27 147 2 72 9 112 23 142 42 92 16
202 -63 266 -34 27 -38 35 -38 77 0 55 -21 102 -68 150 -32 33 -33 38 -29 93
4 49 2 62 -14 78 -23 23 -48 24 -75 4 -33 -25 -51 -18 -75 33 -12 26 -25 49
-28 52 -3 3 -25 28 -48 57 l-43 52 0 135 c0 209 -39 379 -115 501 -33 52 -128
145 -149 145 -7 0 -36 11 -64 25 -29 14 -55 25 -59 25 -7 0 -90 38 -137 62
-10 5 -26 11 -35 13 -16 4 -159 51 -196 65 -131 48 -286 75 -370 64z m215
-143 c85 -22 206 -64 264 -92 22 -10 46 -19 53 -19 22 0 127 -60 153 -88 53
-57 55 -68 54 -311 -2 -184 -4 -226 -15 -224 -8 0 -48 9 -89 18 -261 57 -866
57 -1140 0 -41 -9 -82 -17 -90 -18 -13 -2 -15 29 -18 217 -3 206 -2 220 18
260 31 59 52 78 123 113 61 31 223 97 282 115 165 52 282 60 405 29z m-954
-483 c3 -111 2 -226 -1 -254 l-6 -50 -53 -18 c-30 -10 -59 -15 -65 -12 -25 16
7 308 46 421 17 48 63 128 70 122 2 -3 7 -97 9 -209z m1669 120 c15 -34 36
-98 46 -143 17 -79 29 -299 17 -311 -4 -3 -31 3 -62 13 -53 17 -56 20 -61 58
-5 29 0 422 5 464 1 15 32 -30 55 -81z m-481 -449 c172 -20 376 -76 535 -145
55 -24 141 -104 141 -131 0 -15 -36 -18 -44 -4 -3 5 -23 12 -43 15 -21 4 -74
15 -118 25 -44 10 -114 26 -155 34 -41 9 -100 21 -130 28 -91 20 -408 48 -570
50 -100 2 -364 -19 -470 -36 -52 -9 -124 -20 -160 -25 -36 -4 -96 -17 -135
-28 -38 -10 -106 -27 -150 -37 -44 -9 -90 -21 -103 -26 -32 -12 -42 -11 -42 5
0 23 103 121 140 133 19 6 94 31 165 56 156 54 207 66 339 82 129 16 680 18
800 4z m-476 -276 c2 -14 -10 -36 -32 -61 -44 -49 -47 -83 -8 -110 40 -28 147
-55 190 -47 34 5 40 3 74 -38 20 -25 57 -54 81 -66 78 -38 184 -23 222 32 23
33 19 82 -7 99 -20 13 -21 17 -9 32 20 24 27 21 61 -29 34 -49 95 -96 150
-114 31 -10 37 -17 54 -74 16 -50 31 -73 79 -121 l59 -60 -17 -29 c-11 -19
-20 -66 -26 -140 -5 -62 -13 -134 -19 -162 -29 -135 -33 -146 -79 -243 -20
-41 -98 -122 -137 -142 -63 -32 -195 -110 -251 -147 -110 -73 -125 -77 -317
-77 -196 1 -193 0 -337 92 -52 32 -135 82 -185 110 -129 73 -176 130 -225 273
-22 65 -30 115 -50 296 l-11 102 30 63 c52 108 65 196 41 267 -10 27 -8 36 13
64 13 17 34 52 47 77 39 73 38 73 83 37 22 -18 46 -44 53 -58 13 -23 11 -30
-11 -62 -13 -20 -24 -44 -24 -55 0 -82 175 -68 257 20 48 51 66 155 39 231
-17 45 -21 43 94 55 108 12 114 11 118 -15z m184 17 c12 0 0 -79 -14 -97 -14
-18 -58 -16 -58 1 0 8 5 18 10 21 6 3 10 21 10 39 0 37 8 49 28 41 7 -3 18 -5
24 -5z m276 -16 c12 -4 22 -10 22 -14 0 -4 -21 -24 -47 -44 -57 -44 -83 -82
-83 -118 0 -32 -7 -35 -26 -10 -17 21 -18 132 -2 167 10 22 17 25 62 25 28 0
61 -3 74 -6z m-803 -44 c16 -31 20 -105 6 -114 -5 -3 -11 7 -14 23 -3 16 -22
45 -42 66 -19 21 -35 39 -35 41 0 3 33 10 57 13 7 0 19 -12 28 -29z m1087 -5
c28 -4 41 -14 57 -40 17 -29 26 -35 55 -35 19 0 48 8 65 17 33 20 57 9 46 -20
-8 -18 -85 -57 -131 -64 -66 -11 -140 31 -175 98 -23 46 -18 62 19 55 15 -2
44 -7 64 -11z m-1488 -87 c-34 -51 -90 -105 -117 -112 -16 -4 -18 -1 -12 17 4
12 10 39 15 60 4 22 14 45 21 52 13 13 109 36 118 28 2 -1 -9 -22 -25 -45z
m2016 -24 c0 -6 -11 -21 -25 -34 -26 -25 -110 -38 -160 -26 l-25 6 22 33 21
33 84 0 c52 -1 83 -5 83 -12z m-2270 -17 c0 -22 -82 -87 -110 -87 -28 0 17 75
54 90 32 13 56 12 56 -3z m2387 -99 c6 -13 14 -31 17 -41 7 -22 -4 -77 -16
-77 -10 0 -78 66 -78 77 0 9 51 63 60 63 4 0 11 -10 17 -22z m-464 -35 c11
-10 110 -43 132 -43 25 0 98 -28 151 -59 44 -25 84 -83 84 -123 0 -45 -18 -47
-63 -4 -41 39 -100 65 -149 67 -63 1 -159 65 -179 117 -14 37 2 67 24 45z
m-1713 -88 c0 -60 -47 -140 -142 -241 -48 -51 -88 -98 -88 -104 0 -5 -4 -10
-10 -10 -16 0 -11 56 8 89 9 17 22 31 29 31 30 0 88 95 113 185 12 43 24 63
41 72 39 20 49 16 49 -22z m-210 -7 c-1 -23 -33 -87 -54 -108 -48 -51 -156
-48 -206 5 l-23 25 61 0 c63 0 156 34 183 66 9 12 39 20 39 12z m2520 -119
c11 -20 13 -62 4 -71 -3 -4 -20 3 -39 15 -18 12 -41 27 -50 33 -16 9 -15 12
15 31 36 23 55 21 70 -8z m-500 -79 c0 -5 -4 -10 -10 -10 -5 0 -10 5 -10 10 0
6 5 10 10 10 6 0 10 -4 10 -10z m-2316 -39 c3 -4 26 -14 51 -21 25 -7 48 -16
50 -20 3 -4 -15 -15 -39 -24 -23 -9 -55 -30 -71 -46 -15 -16 -32 -27 -37 -24
-9 6 -11 104 -2 128 7 17 39 22 48 7z m2433 -43 c-3 -8 -6 -5 -6 6 -1 11 2 17
5 13 3 -3 4 -12 1 -19z m317 -39 c14 -17 26 -40 27 -52 3 -60 -3 -106 -18
-139 -17 -39 -33 -50 -33 -22 0 28 -51 124 -72 135 -17 9 -19 17 -15 46 4 20
16 46 28 59 25 27 42 22 83 -27z m-334 -3 c0 -15 11 -33 27 -45 28 -23 28 -23
-4 -40 -35 -18 -85 -13 -117 12 -33 27 -29 42 13 50 17 4 38 15 48 26 24 26
33 25 33 -3z m-1975 -63 c5 -21 2 -32 -15 -45 -48 -39 -69 -5 -29 46 26 33 35
33 44 -1z m-295 -37 c0 -8 -4 -18 -10 -21 -22 -13 -64 -101 -71 -148 -9 -57
-32 -87 -66 -87 -26 0 -29 7 -9 29 7 9 24 45 36 81 12 36 29 79 37 95 25 50
83 86 83 51z m2436 -91 c13 -20 15 -38 10 -88 -11 -94 -11 -109 -2 -144 11
-47 -19 -45 -34 2 -6 19 -27 57 -46 85 -52 76 -47 119 20 156 31 17 34 17 52
-11z m-2301 -29 c18 -13 18 -18 7 -48 -6 -19 -12 -58 -12 -86 0 -44 -3 -52
-19 -52 -26 0 -44 25 -57 79 -11 40 -10 50 7 83 21 41 42 47 74 24z m2062 -12
c12 -16 3 -54 -18 -81 -14 -16 -69 -27 -80 -16 -5 5 -2 33 9 67 17 56 18 57
47 52 17 -4 35 -13 42 -22z m-1863 -56 c6 -39 4 -45 -21 -65 -39 -32 -53 -29
-53 10 0 40 36 96 61 97 4 0 10 -19 13 -42z m1946 -155 c16 -37 24 -144 11
-163 -15 -22 -40 -3 -68 51 -30 58 -30 102 0 122 32 23 42 21 57 -10z m-1860
-60 c0 -21 -28 -15 -35 7 -10 30 5 47 22 25 7 -11 13 -25 13 -32z m-438 20
c19 -17 27 -103 9 -103 -19 0 -61 62 -61 91 0 34 22 39 52 12z m2086 -8 c14
-93 68 -192 123 -223 16 -10 27 -21 26 -27 -5 -15 -80 -18 -127 -5 l-41 11 6
42 c6 44 -4 110 -26 163 -7 17 -9 39 -6 48 9 23 41 16 45 -9z m-1885 -76 c24
-27 32 -31 63 -26 30 5 43 1 85 -31 27 -20 49 -39 49 -43 0 -15 -43 -59 -72
-73 -45 -23 -68 -21 -68 7 0 20 -38 82 -91 149 -19 23 -20 48 -1 48 4 0 20
-14 35 -31z m400 -81 c49 -30 65 -58 33 -58 -8 0 -25 -9 -38 -20 -20 -15 -28
-17 -40 -7 -24 18 -34 117 -13 117 2 0 28 -15 58 -32z m1345 8 c2 -11 -2 -37
-9 -58 -9 -30 -17 -38 -36 -38 -12 0 -23 4 -23 8 0 4 -13 13 -30 19 -39 15
-38 28 5 48 19 9 39 23 46 31 16 20 43 14 47 -10z m-1129 -160 c8 -10 9 -16 1
-21 -13 -8 -30 3 -30 21 0 18 14 18 29 0z m864 8 c3 -4 2 -16 -4 -26 -13 -24
-33 -10 -23 15 6 18 16 21 27 11z m-973 -131 c0 -7 -11 -13 -26 -13 -14 0 -35
-5 -46 -11 -17 -9 -24 -7 -41 10 l-21 21 39 37 39 36 28 -33 c15 -19 28 -40
28 -47z m1149 47 c17 -17 31 -37 31 -45 0 -20 -33 -36 -51 -24 -7 5 -26 9 -41
9 -35 0 -36 19 -2 59 14 17 27 31 28 31 2 0 17 -14 35 -30z m-819 -6 c109 -28
371 -17 462 21 11 4 19 2 22 -6 2 -8 11 -40 21 -71 17 -57 81 -138 110 -138 6
0 19 -8 29 -19 16 -17 13 -21 -51 -72 -134 -107 -197 -130 -370 -136 -108 -4
-142 -2 -190 13 -87 26 -164 68 -233 125 -68 57 -68 58 5 104 48 31 88 98 100
168 5 31 10 37 23 32 9 -3 42 -13 72 -21z m-520 -163 c5 -11 10 -40 10 -65 l0
-45 -41 1 c-39 0 -40 2 -34 27 9 37 39 100 47 101 4 0 12 -9 18 -19z m1475
-18 c9 -21 21 -46 26 -55 15 -30 10 -35 -36 -35 l-45 0 0 38 c0 40 17 89 31
89 4 0 15 -17 24 -37z m299 -103 c35 -17 70 -39 78 -48 18 -21 41 -106 63
-232 9 -52 20 -117 25 -145 45 -249 46 -856 1 -1050 -10 -44 -35 -38 -43 10
-3 22 -14 69 -23 105 -8 36 -20 83 -24 105 -5 22 -16 74 -26 115 -9 41 -21 91
-25 110 -19 86 -43 190 -56 245 -8 33 -17 81 -20 106 -6 44 -5 47 29 68 70 43
126 142 113 197 -4 14 -34 54 -67 90 -58 62 -99 135 -99 174 0 11 -6 34 -14
52 -19 46 -37 128 -31 138 7 11 30 3 119 -40z m-1991 33 c3 -5 -2 -30 -10 -58
-8 -27 -22 -75 -30 -105 -26 -91 -49 -132 -103 -189 -62 -64 -73 -90 -64 -149
5 -35 16 -55 53 -91 25 -25 59 -55 76 -67 28 -20 29 -22 18 -60 -6 -21 -19
-68 -28 -104 -9 -36 -20 -78 -25 -95 -4 -16 -15 -64 -24 -105 -10 -41 -21 -91
-26 -110 -5 -19 -14 -60 -21 -90 -6 -30 -15 -71 -20 -90 -4 -19 -18 -81 -31
-138 -13 -57 -27 -104 -32 -105 -24 -5 -56 290 -56 518 0 310 31 609 87 850
23 94 40 117 125 159 72 35 103 43 111 29z m511 -168 c144 -102 368 -157 516
-126 30 7 75 16 100 21 92 17 224 90 319 176 l53 48 -7 -33 c-8 -39 -68 -156
-93 -184 -14 -15 -108 -64 -187 -97 -64 -26 -131 -35 -270 -35 -184 0 -245 13
-379 80 l-100 50 -42 85 c-24 47 -46 98 -50 115 -7 29 -6 28 45 -20 28 -27 71
-63 95 -80z m-279 2 c65 -37 58 -53 -22 -52 -37 0 -75 -2 -83 -5 -11 -4 -16 3
-18 23 -3 23 2 30 30 42 43 19 46 18 93 -8z m1512 1 c7 -6 13 -20 13 -32 0
-20 -5 -21 -85 -21 -47 0 -85 3 -85 6 0 9 33 36 65 53 30 17 68 14 92 -6z
m-1447 -203 c17 -9 28 -19 26 -24 -3 -4 -30 -14 -61 -21 -55 -13 -57 -13 -82
12 -40 41 -26 62 37 55 27 -3 63 -13 80 -22z m1409 16 c11 -7 9 -15 -10 -40
-25 -35 -31 -36 -95 -20 -54 14 -62 24 -32 40 46 25 114 35 137 20z m-1658
-82 c27 -38 18 -49 -53 -60 -88 -14 -97 20 -18 73 35 24 46 22 71 -13z m1868
-5 c36 -31 40 -39 29 -50 -16 -16 -97 -9 -124 11 -16 11 -16 14 2 43 24 41 41
40 93 -4z m-1496 -93 c30 -12 62 -63 71 -114 7 -36 6 -38 -13 -28 -11 6 -23
16 -27 22 -3 6 -25 19 -49 29 -43 19 -91 72 -80 90 8 13 66 13 98 1z m1132 -1
c10 -16 -44 -78 -75 -85 -16 -3 -40 -17 -55 -31 -37 -34 -49 -31 -42 11 7 42
41 93 71 105 29 12 94 12 101 0z m-1357 -67 c2 -8 -6 -13 -22 -13 -17 0 -26 5
-26 16 0 19 41 16 48 -3z m1527 7 c7 -11 -35 -31 -48 -23 -11 6 12 33 29 33 7
0 16 -5 19 -10z m1353 -602 c7 -7 12 -23 12 -36 0 -55 47 -205 82 -263 15 -25
28 -49 28 -53 0 -14 -67 -46 -96 -46 -44 0 -80 43 -110 130 -28 84 -57 136
-85 150 -32 18 -22 38 42 85 62 46 104 56 127 33z"/>
<path d="M4168 773 c-35 -41 -25 -78 25 -96 19 -7 56 8 69 27 36 54 -52 118
-94 69z"/>
<path d="M2986 155 c-15 -23 -15 -28 -1 -56 14 -26 21 -30 53 -27 27 2 40 10
51 29 13 24 13 29 -2 53 -24 36 -78 37 -101 1z"/>
<path d="M4210 161 c-24 -45 2 -91 52 -91 49 0 76 61 42 94 -22 23 -81 21 -94
-3z"/>
</g>
</svg>
