<?xml version="1.0" standalone="no"?>
<!DOCTYPE svg PUBLIC "-//W3C//DTD SVG 20010904//EN"
 "http://www.w3.org/TR/2001/REC-SVG-20010904/DTD/svg10.dtd">
<svg version="1.0" xmlns="http://www.w3.org/2000/svg"
 width="570.000000pt" height="570.000000pt" viewBox="0 0 570.000000 570.000000"
 preserveAspectRatio="xMidYMid meet">
<metadata>
Created by potrace 1.16, written by Peter Selinger 2001-2019
</metadata>
<g transform="translate(0.000000,570.000000) scale(0.100000,-0.100000)"
fill="#000000" stroke="none">
<path d="M3146 4933 c13 -54 25 -77 59 -115 19 -21 35 -43 35 -48 0 -17 -22
-11 -47 12 -20 18 -23 19 -23 5 0 -9 -4 -17 -9 -17 -19 0 -41 45 -41 82 0 65
-36 41 -41 -27 -3 -33 -1 -40 14 -37 11 2 17 -4 17 -18 0 -27 -13 -25 -46 5
-15 14 -32 25 -39 25 -6 0 -38 -16 -70 -36 l-60 -35 -18 23 c-13 16 -17 32
-14 55 6 37 1 40 -31 17 -15 -10 -22 -25 -22 -49 0 -44 -22 -57 -67 -39 -36
16 -46 2 -13 -18 18 -12 18 -13 2 -32 -16 -18 -16 -19 11 -12 23 6 27 3 27
-16 0 -13 9 -38 20 -56 38 -62 18 -112 -44 -112 -35 0 -87 42 -67 55 19 11 12
26 -11 23 -33 -4 -34 -36 -2 -69 25 -26 26 -31 15 -53 -8 -13 -11 -29 -7 -34
9 -15 -4 -42 -21 -42 -10 0 -11 4 -5 17 7 11 6 23 -1 35 -9 14 -8 20 7 31 18
13 18 14 -5 30 -35 25 -57 22 -33 -4 16 -17 16 -22 4 -29 -32 -21 -38 -3 -28
80 2 17 -2 25 -15 28 -15 3 -18 0 -12 -17 5 -15 2 -21 -10 -21 -26 0 -27 24
-1 73 30 55 20 62 -18 12 -15 -19 -31 -35 -35 -35 -5 0 -14 14 -21 30 -15 37
-43 42 -34 6 3 -14 1 -33 -4 -42 -8 -14 -5 -25 10 -46 24 -34 20 -62 -9 -66
-17 -3 -26 5 -38 35 -11 25 -13 43 -7 53 7 11 1 22 -19 41 -18 16 -29 37 -29
53 0 29 -11 33 -30 11 -10 -12 -10 -18 0 -30 15 -18 5 -35 -22 -35 -14 0 -18
5 -14 16 4 9 1 23 -5 30 -9 11 -8 18 2 30 11 14 9 19 -11 35 -30 23 -36 23
-44 4 -3 -8 -16 -15 -28 -15 -22 -1 -22 -1 -3 -12 45 -25 54 -39 43 -64 -12
-27 -27 -30 -47 -11 -11 10 -14 10 -18 0 -10 -27 -24 -12 -18 17 8 38 -16 80
-46 80 -11 0 -33 10 -49 21 l-29 22 -34 -37 c-42 -44 -67 -45 -118 -6 -50 40
-55 61 -28 110 12 22 19 43 14 47 -4 5 -10 2 -13 -6 -8 -24 -51 -63 -62 -56
-6 3 -10 -4 -10 -16 0 -21 48 -71 108 -110 16 -11 20 -19 12 -24 -8 -5 -5 -12
9 -22 12 -8 21 -20 21 -26 0 -7 14 -32 30 -57 16 -25 30 -48 30 -53 0 -4 -16
0 -36 8 -20 8 -47 15 -60 15 -27 0 -33 24 -9 34 17 6 20 36 4 36 -6 0 -28 -18
-48 -39 -20 -21 -55 -46 -77 -54 l-42 -16 1 34 c1 32 3 34 36 32 27 -2 36 2
39 16 3 15 -2 17 -37 11 -39 -6 -56 5 -31 21 5 3 7 19 3 35 -4 24 1 37 26 65
35 41 37 48 16 65 -13 11 -27 7 -80 -20 -70 -35 -85 -35 -111 5 -15 23 -16 33
-6 76 15 64 15 69 -2 69 -8 0 -16 -16 -19 -42 -6 -44 -29 -70 -53 -61 -8 3
-14 0 -14 -5 0 -6 9 -14 21 -17 11 -4 36 -20 55 -37 29 -26 34 -36 34 -74 0
-32 -4 -44 -15 -44 -17 0 -41 34 -50 73 -7 27 -28 36 -40 17 -4 -6 -1 -18 6
-26 17 -21 2 -30 -19 -11 -21 19 -32 22 -32 7 0 -5 32 -30 70 -56 66 -43 70
-48 70 -84 0 -21 -6 -43 -14 -49 -21 -17 -107 -2 -136 24 -14 12 -37 30 -52
40 -34 21 -35 32 -6 62 25 26 19 40 -10 24 -40 -21 -43 -10 -8 33 20 23 36 48
36 55 0 23 -26 10 -48 -24 -12 -19 -28 -35 -34 -35 -7 0 -27 14 -44 31 -20 20
-39 29 -48 26 -26 -10 -19 -25 24 -52 41 -26 83 -82 74 -97 -18 -29 -140 11
-156 51 l-10 26 -10 -27 c-9 -27 -56 -47 -77 -33 -6 3 -15 -4 -21 -15 -14 -27
-56 -53 -70 -45 -8 5 -4 15 12 32 l23 26 -40 -8 c-22 -4 -42 -9 -44 -11 -2 -2
12 -28 32 -57 43 -62 44 -67 17 -67 -30 0 -24 -17 8 -23 33 -7 117 -76 105
-88 -4 -4 -51 -9 -102 -11 -57 -2 -96 -7 -98 -14 -2 -7 25 -10 88 -8 l91 3
-18 -22 c-10 -12 -35 -38 -57 -57 l-39 -35 22 -27 c13 -17 34 -29 58 -33 20
-3 45 -10 54 -16 27 -14 29 -12 22 31 -8 50 7 52 29 5 16 -34 37 -47 37 -22 0
6 -11 30 -25 52 -49 81 -56 97 -51 111 3 8 17 14 31 14 24 0 26 -3 21 -27 -6
-27 -4 -28 34 -30 34 -2 40 0 40 17 0 20 15 25 44 14 15 -6 15 -10 -3 -40 -11
-19 -17 -34 -13 -34 22 0 62 27 62 43 0 22 25 22 42 -1 8 -12 26 -18 48 -18
43 0 154 -53 158 -75 2 -10 -9 -21 -28 -29 -21 -9 -36 -26 -50 -58 -11 -25
-18 -48 -14 -51 8 -8 44 38 56 70 10 28 48 47 48 25 0 -18 -106 -148 -132
-163 -13 -7 -33 -12 -45 -13 -39 0 -27 -28 15 -35 20 -3 45 -8 55 -10 13 -2
25 8 39 31 23 38 43 35 35 -6 l-6 -27 62 1 62 1 18 -100 c10 -55 19 -116 19
-135 2 -82 -15 -338 -23 -373 -10 -38 -29 -42 -29 -6 0 23 -41 99 -54 99 -4 0
-5 -15 -2 -32 4 -18 8 -46 9 -63 2 -30 2 -30 -57 -33 -57 -3 -58 -2 -52 20 23
73 27 109 16 123 -6 8 -37 19 -68 26 -83 16 -92 24 -47 39 23 7 63 10 101 7
35 -2 64 -2 64 2 0 20 -30 31 -89 31 -90 0 -108 7 -120 42 -15 44 -14 55 9 61
11 3 22 13 26 24 3 10 10 25 15 33 20 33 21 41 4 60 -13 15 -31 20 -66 20 -54
0 -79 -23 -79 -72 0 -32 -24 -48 -70 -48 -48 0 -69 -17 -95 -73 -22 -47 -23
-53 -9 -86 8 -20 19 -40 25 -46 5 -5 9 -17 9 -26 0 -22 54 -67 88 -75 43 -9
54 -17 70 -58 14 -36 14 -39 -6 -59 -21 -20 -22 -20 -75 -2 -37 12 -65 16 -91
11 -50 -9 -112 -66 -120 -110 -10 -53 -36 -69 -95 -61 -27 4 -55 13 -62 21
-20 25 -37 15 -43 -23 -7 -52 6 -119 24 -115 8 2 469 2 1025 1 555 -2 1035 -2
1065 -2 131 2 854 3 1305 3 270 0 522 3 560 9 39 5 83 8 100 7 26 -1 30 3 41
39 7 27 8 49 2 68 -11 30 -32 36 -42 11 -4 -11 -13 -14 -27 -11 -12 3 -32 -1
-45 -9 -18 -12 -27 -13 -45 -4 -12 7 -47 16 -78 20 -55 8 -57 8 -84 -23 l-27
-32 -19 23 c-11 12 -27 22 -37 22 -9 0 -23 8 -29 17 -12 17 -14 17 -35 -2 -35
-32 -42 -6 -36 130 3 66 9 218 13 338 l6 218 41 23 c23 13 67 27 100 30 40 4
76 16 108 36 26 16 59 32 73 36 27 7 32 18 13 30 -8 5 -6 11 6 20 10 7 15 17
11 23 -7 12 -123 -62 -131 -84 -3 -7 -12 -16 -21 -19 -12 -5 -14 -1 -10 16 3
13 9 35 12 51 6 21 4 27 -9 27 -9 0 -16 -8 -16 -20 0 -11 -4 -28 -9 -38 -5 -9
-12 -25 -15 -34 -4 -12 -16 -18 -36 -18 -32 0 -34 4 -31 63 2 28 -1 37 -13 37
-13 0 -16 -11 -16 -53 0 -58 -12 -77 -48 -77 -20 0 -23 4 -18 23 3 12 6 34 6
49 0 14 11 40 25 56 14 17 25 35 25 42 0 8 -9 10 -25 6 -17 -4 -25 -2 -25 6 0
22 13 34 80 75 93 58 120 64 220 54 87 -9 118 -2 81 18 -12 7 -21 18 -21 26 0
19 -2 19 -47 0 -53 -23 -94 -5 -58 25 20 17 19 27 -5 35 -29 9 -98 -35 -164
-105 -30 -33 -60 -60 -64 -60 -17 0 -22 13 -10 27 9 11 9 19 0 34 -23 36 23
86 108 119 30 11 87 36 127 55 49 24 86 35 117 35 33 0 52 6 73 24 39 33 24
42 -26 15 -57 -29 -75 -12 -26 25 35 27 45 46 24 46 -6 0 -32 -18 -58 -39 -80
-67 -271 -156 -271 -126 0 3 22 35 50 71 58 76 73 101 66 113 -7 11 -85 -10
-116 -31 -30 -22 -54 -23 -69 -4 -16 19 36 56 90 63 37 5 39 7 23 24 -20 22
-13 34 37 59 48 25 50 34 5 26 -41 -8 -55 14 -27 41 10 10 21 26 24 36 4 10
23 25 43 33 26 11 34 19 30 31 -4 9 1 24 9 33 18 20 25 67 11 72 -5 2 -14 -11
-20 -28 -11 -31 -155 -184 -174 -184 -13 0 -21 60 -11 86 4 12 35 43 68 69 57
45 73 65 52 65 -5 0 -16 -7 -25 -15 -8 -8 -17 -15 -20 -15 -3 0 -3 7 0 15 9
23 -10 18 -36 -10 -22 -24 -50 -34 -50 -17 1 16 27 52 53 72 15 12 27 31 27
43 0 20 -1 19 -28 -6 -40 -38 -63 -37 -42 2 6 13 5 27 -3 45 -15 33 -25 33
-32 -1 -4 -16 -13 -43 -21 -61 -8 -18 -14 -47 -14 -65 0 -18 -4 -38 -9 -46
-19 -29 -34 29 -29 111 5 91 -12 104 -25 20 -10 -62 -31 -69 -53 -17 -16 38
-34 46 -34 16 0 -11 18 -41 40 -66 64 -74 92 -138 85 -189 -4 -27 -3 -46 4
-50 11 -7 4 -36 -10 -36 -5 0 -9 9 -9 20 0 17 -3 19 -19 10 -26 -14 -27 -14
-56 15 -27 28 -32 64 -12 96 10 18 9 23 -10 36 -14 9 -23 26 -23 42 0 14 -4
33 -10 41 -10 16 -12 12 -25 -45 -3 -16 -13 -40 -21 -53 -12 -19 -18 -21 -30
-11 -8 6 -14 19 -14 28 0 9 -4 23 -10 31 -7 12 -12 11 -30 -5 -20 -18 -21 -18
-66 3 -53 26 -61 27 -43 6 11 -14 10 -19 -10 -35 -13 -11 -27 -19 -32 -19 -17
0 -9 57 17 109 23 48 24 55 10 70 -9 10 -16 23 -16 29 0 7 -4 12 -9 12 -16 0
-24 -21 -12 -33 15 -15 14 -50 -4 -73 -8 -10 -15 -26 -15 -35 0 -8 -6 -24 -14
-34 -14 -19 -15 -19 -35 -1 -12 11 -21 30 -21 43 0 12 -5 23 -10 23 -17 0 -24
-31 -12 -49 19 -27 51 -91 45 -91 -4 0 -21 11 -39 25 -39 30 -44 31 -44 6 0
-11 -4 -23 -10 -26 -5 -3 -10 -15 -10 -25 0 -10 -15 -30 -32 -45 l-33 -28 -5
24 c-9 36 -33 29 -41 -11 -10 -49 -42 -73 -77 -58 -41 18 -45 24 -31 49 19 37
110 139 123 139 7 0 23 11 36 25 28 30 9 34 -27 5 -31 -24 -46 -25 -63 -5 -19
23 -40 18 -40 -8 0 -13 -8 -31 -18 -41 -18 -15 -20 -15 -37 4 -10 12 -21 40
-24 63 -7 51 -24 52 -32 1 -3 -20 -12 -39 -18 -44 -9 -5 -11 -21 -6 -52 6 -39
3 -48 -20 -76 -22 -26 -30 -30 -45 -22 -28 15 -43 12 -36 -6 4 -10 2 -14 -6
-11 -7 2 -11 11 -9 18 3 8 4 33 3 55 -3 54 28 122 84 185 43 48 52 68 37 83
-4 4 -14 -8 -23 -26 -21 -46 -50 -50 -51 -6 -1 45 -12 81 -26 85 -8 3 -10 -22
-6 -90 4 -70 3 -96 -7 -102 -16 -10 -30 12 -30 52 0 17 -6 44 -14 60 -8 15
-19 44 -24 63 l-9 35 -12 -28 c-6 -16 -11 -42 -11 -58 0 -16 -5 -29 -10 -29
-14 0 -48 57 -55 92 -4 15 -13 28 -21 28 -11 0 -13 -7 -8 -27z m144 -169 c0
-17 -22 -14 -28 4 -2 7 3 12 12 12 9 0 16 -7 16 -16z m-260 1 c0 -17 -33 -66
-49 -75 -25 -13 -36 2 -21 29 15 30 70 65 70 46z m150 -43 c0 -4 14 -16 30
-25 26 -16 30 -24 30 -63 0 -56 -15 -57 -72 -3 l-43 40 25 19 c14 10 21 22 17
26 -4 4 -13 2 -19 -4 -7 -7 -21 -12 -32 -12 -18 0 -18 1 4 25 18 19 27 22 41
14 11 -5 19 -13 19 -17z m-313 -12 c3 -17 10 -33 14 -36 19 -11 8 -24 -21 -24
-29 0 -40 -13 -20 -25 13 -8 13 -45 0 -45 -6 0 -13 8 -16 18 -3 9 -10 25 -15
34 -15 29 -10 59 14 84 29 31 36 30 44 -6z m183 0 c0 -5 -5 -10 -11 -10 -5 0
-7 5 -4 10 3 6 8 10 11 10 2 0 4 -4 4 -10z m236 -28 c-9 -8 -26 10 -26 26 1
15 2 15 15 -2 8 -11 13 -21 11 -24z m1174 24 c0 -11 -19 -15 -25 -6 -3 5 1 10
9 10 9 0 16 -2 16 -4z m-380 -33 c17 -22 20 -35 15 -63 -4 -19 -9 -37 -11 -39
-8 -9 -34 23 -34 43 0 25 -16 53 -25 44 -5 -5 -11 -34 -14 -70 -2 -18 -31 -6
-50 21 -26 37 -26 37 5 66 37 35 86 34 114 -2z m-2365 7 c6 -10 -61 -90 -76
-90 -5 0 -9 13 -9 29 0 43 66 91 85 61z m333 -63 c3 -59 -9 -97 -32 -97 -22 0
-47 37 -52 77 -5 34 -2 40 28 60 18 12 38 20 43 19 6 -1 11 -28 13 -59z m1060
27 c12 -8 22 -20 22 -26 0 -7 9 -22 21 -34 26 -28 16 -48 -18 -39 -34 8 -104
81 -96 100 7 20 43 19 71 -1z m-163 -4 c3 -5 -1 -10 -9 -10 -9 0 -16 5 -16 10
0 6 4 10 9 10 6 0 13 -4 16 -10z m-830 -20 c3 -5 -1 -10 -10 -10 -9 0 -13 5
-10 10 3 6 8 10 10 10 2 0 7 -4 10 -10z m1425 0 c0 -5 -5 -10 -11 -10 -5 0 -7
5 -4 10 3 6 8 10 11 10 2 0 4 -4 4 -10z m645 0 c3 -5 1 -10 -4 -10 -6 0 -11 5
-11 10 0 6 2 10 4 10 3 0 8 -4 11 -10z m-1270 -20 c3 -5 1 -10 -4 -10 -6 0
-11 5 -11 10 0 6 2 10 4 10 3 0 8 -4 11 -10z m948 -35 c18 -38 9 -52 -22 -35
-25 13 -38 -5 -14 -18 14 -8 8 -12 -30 -17 -27 -4 -51 -5 -54 -1 -6 5 86 104
98 105 3 1 13 -15 22 -34z m-2175 -38 c2 -36 -2 -51 -17 -66 -35 -35 -44 -26
-39 33 8 92 51 117 56 33z m1310 28 c23 -29 19 -65 -7 -65 -18 0 -51 48 -51
74 0 25 36 19 58 -9z m1171 -42 c1 -41 -21 -43 -62 -8 -29 26 -28 45 2 45 10
0 25 7 32 16 12 14 14 14 20 -3 4 -10 8 -33 8 -50z m-669 47 c0 -5 -4 -10 -10
-10 -5 0 -10 5 -10 10 0 6 5 10 10 10 6 0 10 -4 10 -10z m245 -14 c-16 -23
-45 -42 -45 -29 0 10 42 53 52 53 5 0 1 -11 -7 -24z m235 9 c14 -16 10 -18
-14 -9 -9 3 -16 10 -16 15 0 14 16 11 30 -6z m260 5 c0 -5 -4 -10 -10 -10 -5
0 -10 5 -10 10 0 6 5 10 10 10 6 0 10 -4 10 -10z m-2140 -15 c-7 -8 -16 -12
-21 -9 -13 8 -1 24 18 24 13 0 13 -3 3 -15z m-903 -7 c15 -7 30 -14 33 -16 9
-6 -25 -22 -48 -22 -16 0 -23 -5 -21 -17 1 -10 -2 -26 -6 -37 -9 -20 3 -47 23
-54 8 -2 10 6 6 27 -6 30 7 43 21 21 7 -11 65 42 65 59 0 18 57 17 102 0 28
-12 41 -31 32 -51 -6 -16 -89 -78 -104 -78 -20 0 -10 -18 14 -24 17 -4 26 -15
31 -37 4 -17 5 -33 2 -35 -4 -5 -41 3 -106 22 -11 4 -8 10 9 29 13 14 21 27
18 30 -6 6 -44 -9 -68 -26 -11 -8 -30 -2 -80 23 -51 27 -70 44 -89 78 l-24 44
34 28 c52 44 108 57 156 36z m1356 -94 c1 -19 -3 -29 -14 -32 -12 -2 -22 14
-37 56 -12 33 -22 64 -22 71 0 24 71 -69 73 -95z m303 58 c-24 -24 -31 -6 -10
25 16 24 19 26 22 9 2 -10 -3 -25 -12 -34z m254 27 c80 -30 89 -50 34 -76 -31
-15 -36 -15 -44 -3 -16 25 -11 32 16 26 18 -5 25 -3 22 6 -2 6 -17 15 -32 19
-30 8 -56 27 -56 40 0 12 -4 12 60 -12z m100 0 c0 -18 -2 -19 -15 -9 -15 12
-12 30 6 30 5 0 9 -10 9 -21z m1310 1 c0 -11 -7 -20 -15 -20 -17 0 -18 2 -9
24 9 23 24 20 24 -4z m-2318 -42 c4 -38 1 -46 -26 -70 -39 -34 -44 -34 -52 -1
-5 20 -2 30 15 44 13 11 19 23 15 30 -6 11 20 39 37 39 4 0 9 -19 11 -42z
m731 25 c2 -10 8 -26 12 -35 5 -13 1 -20 -16 -27 -21 -9 -19 -10 17 -10 33 -1
43 -5 47 -21 3 -14 14 -20 31 -20 34 0 33 -15 -1 -28 -16 -5 -40 -21 -55 -34
-30 -29 -82 -50 -103 -42 -10 4 -15 0 -15 -11 0 -10 -6 -15 -17 -13 -15 3 -18
13 -15 53 4 78 10 94 38 101 18 5 24 12 21 25 -5 19 27 79 42 79 5 0 11 -8 14
-17z m570 -46 c-1 -28 -2 -55 -3 -59 0 -16 -26 -7 -38 12 -7 11 -19 20 -27 20
-25 0 -17 37 15 64 43 35 56 26 53 -37z m762 28 c31 -35 88 -159 77 -169 -12
-12 -90 -5 -102 9 -6 8 -16 46 -21 85 -5 39 -11 75 -14 81 -8 11 3 29 17 29 6
0 25 -16 43 -35z m-695 -6 c0 -5 -7 -9 -15 -9 -9 0 -15 9 -15 21 0 18 2 19 15
9 8 -7 15 -16 15 -21z m-1306 5 c20 -8 21 -44 1 -44 -8 0 -15 7 -15 15 0 7 -8
19 -17 24 -16 9 -16 10 -1 11 9 0 23 -3 32 -6z m1629 -18 c25 0 21 -14 -11
-41 -16 -13 -40 -47 -53 -75 -13 -27 -32 -53 -41 -56 -25 -8 -22 -22 5 -26 18
-2 22 -9 20 -32 -1 -16 -9 -36 -17 -44 -13 -14 -20 -10 -61 30 -51 52 -60 84
-20 74 29 -7 34 13 9 38 -11 12 -20 13 -34 6 -28 -15 -32 -12 -20 11 9 16 7
27 -8 53 l-19 33 75 12 c41 7 85 17 96 21 12 5 30 6 41 2 11 -3 28 -6 38 -6z
m445 -4 c2 -7 -2 -10 -12 -6 -9 3 -16 11 -16 16 0 13 23 5 28 -10z m-2484 2
c22 -9 20 -24 -4 -24 -10 0 -24 -9 -31 -21 -8 -16 -17 -20 -39 -15 -19 3 -30
1 -34 -9 -6 -17 -77 -38 -89 -26 -22 22 29 61 64 49 7 -2 21 4 32 15 11 11 27
17 39 14 11 -3 21 0 25 9 6 15 13 17 37 8z m929 -11 c7 -11 -36 -84 -55 -97
-23 -14 -27 -7 -19 39 4 28 13 43 31 52 29 15 37 16 43 6z m1364 -17 c20 -18
25 -28 17 -36 -8 -7 -18 -4 -37 14 -48 44 -29 64 20 22z m-106 -14 c32 -21 57
-50 88 -102 41 -69 43 -74 25 -87 -35 -25 -51 -14 -88 60 -26 51 -43 55 -91
23 -21 -15 -42 -26 -46 -26 -12 0 -11 27 0 34 5 3 15 30 21 58 7 29 15 56 17
61 8 13 29 7 74 -21z m-1660 -8 c13 -16 -9 -57 -40 -73 -28 -16 -76 31 -61 58
20 39 74 47 101 15z m676 20 c-3 -3 -12 -4 -19 -1 -8 3 -5 6 6 6 11 1 17 -2
13 -5z m536 0 c7 -7 -37 -64 -59 -77 -22 -13 -17 26 7 57 20 25 39 33 52 20z
m-358 -18 c27 -12 35 -21 35 -40 0 -32 -26 -35 -63 -6 -14 11 -34 20 -44 20
-27 0 -35 10 -22 27 15 17 51 17 94 -1z m135 9 c0 -12 -24 -55 -32 -55 -12 0
-10 34 4 48 12 12 28 16 28 7z m-1797 -45 c32 -36 33 -58 8 -125 -13 -36 -25
-51 -40 -53 -30 -5 -121 27 -128 44 -3 8 1 34 8 59 13 43 30 57 44 35 3 -5 10
-10 16 -10 14 0 11 26 -6 40 -8 7 -15 21 -15 33 0 17 5 19 43 14 30 -4 50 -14
70 -37z m2795 28 c7 -7 12 -19 12 -27 0 -11 -4 -10 -20 4 -21 19 -26 35 -12
35 4 0 13 -5 20 -12z m-2443 -8 c-3 -5 -13 -10 -21 -10 -8 0 -14 5 -14 10 0 6
9 10 21 10 11 0 17 -4 14 -10z m1517 -17 c36 -35 35 -59 -3 -78 -36 -19 -59
-7 -59 31 0 24 19 74 29 74 2 0 18 -12 33 -27z m-2032 -38 c-11 -22 -20 -50
-20 -62 0 -13 -4 -23 -10 -23 -5 0 -10 24 -10 54 0 45 4 58 22 70 33 23 41 5
18 -39z m444 24 c-3 -5 -10 -7 -15 -3 -5 3 -7 10 -3 15 3 5 10 7 15 3 5 -3 7
-10 3 -15z m746 8 c0 -7 -6 -22 -14 -33 -12 -15 -19 -17 -32 -8 -27 16 -27 29
-2 42 31 15 48 14 48 -1z m1040 -13 c0 -8 -2 -14 -4 -14 -2 0 -11 -3 -20 -6
-11 -4 -16 0 -16 14 0 20 18 33 33 25 4 -2 7 -11 7 -19z m-1440 7 c0 -12 -20
-25 -27 -18 -7 7 6 27 18 27 5 0 9 -4 9 -9z m-85 -17 c13 -13 14 -19 4 -25
-17 -10 -25 -4 -32 21 -6 24 6 26 28 4z m1030 -49 c22 -35 43 -64 48 -65 4 0
7 -13 7 -28 0 -20 13 -41 45 -72 46 -45 51 -55 36 -78 -13 -21 -73 0 -128 46
-61 51 -89 65 -113 57 -21 -7 -27 -21 -12 -27 5 -1 15 -16 23 -32 10 -20 31
-35 73 -52 33 -13 67 -31 76 -39 21 -19 41 -20 34 -1 -8 20 21 27 43 10 17
-13 17 -15 1 -24 -17 -10 -17 -13 3 -40 21 -28 18 -63 -4 -41 -17 17 -27 13
-27 -9 0 -11 8 -24 18 -27 9 -4 20 -11 24 -17 15 -22 5 -131 -11 -122 -4 3
-13 1 -21 -4 -11 -7 -8 -13 14 -31 l29 -23 -7 -110 c-4 -61 -11 -140 -16 -176
-5 -36 -10 -90 -10 -120 l-1 -55 -30 58 c-22 42 -27 62 -20 75 5 10 6 33 2 52
-6 30 -11 35 -32 32 -35 -4 -159 29 -191 51 -33 22 -36 47 -8 65 41 25 6 112
-46 112 -46 0 -64 -17 -64 -60 0 -33 -5 -43 -35 -66 -20 -15 -38 -24 -42 -21
-3 4 -14 25 -24 47 -18 39 -17 40 2 50 24 13 26 71 3 94 -16 16 -70 21 -91 8
-17 -11 -19 -34 -4 -70 13 -30 11 -38 -13 -95 -14 -34 -26 -80 -26 -102 0 -22
-7 -71 -15 -110 -22 -104 -20 -125 10 -125 20 0 25 -5 25 -26 0 -36 -17 -64
-39 -64 -10 0 -38 9 -62 20 -24 11 -56 20 -70 20 -14 0 -34 6 -44 14 -18 13
-18 20 -6 162 17 208 22 222 105 349 86 128 111 176 120 227 4 23 14 39 25 43
21 6 180 -47 229 -77 19 -11 37 -31 42 -43 14 -37 127 -87 207 -92 61 -5 66
-4 54 11 -9 11 -26 16 -50 14 -35 -3 -36 -2 -57 58 -11 34 -31 75 -43 92 -11
17 -21 40 -21 51 0 14 -6 21 -20 21 -28 0 -25 -27 8 -76 31 -46 59 -121 48
-131 -3 -4 -21 8 -39 25 -18 17 -70 58 -117 89 -46 32 -85 63 -88 70 -2 7 11
16 29 20 34 9 52 33 25 33 -9 0 -34 -7 -56 -16 -22 -9 -52 -14 -67 -11 -15 3
-37 -2 -50 -10 -32 -21 -41 -9 -21 30 10 18 24 49 32 70 14 35 18 37 58 37 44
0 68 13 68 37 0 7 -7 13 -15 13 -8 0 -15 -7 -15 -15 0 -18 -14 -19 -41 -4 -16
8 -18 14 -9 24 16 20 60 28 76 14 12 -9 19 -8 37 8 12 12 36 28 53 36 17 9 39
29 49 44 28 45 67 83 84 83 9 0 34 -29 56 -65z m1052 50 c3 -9 3 -19 -1 -22
-7 -7 -36 16 -36 28 0 15 30 10 37 -6z m-1943 -10 c3 -8 12 -15 19 -15 8 0 20
-7 27 -15 18 -22 -1 -40 -57 -54 -49 -13 -60 -10 -47 11 5 7 7 23 5 36 -5 40
39 72 53 37z m192 -9 c18 -14 18 -15 -10 -26 -33 -12 -56 -7 -56 13 0 30 33
36 66 13z m774 -15 c33 -20 48 -37 58 -66 19 -58 -1 -64 -32 -11 -15 25 -40
56 -56 68 -28 20 -39 39 -22 37 4 0 27 -13 52 -28z m1285 -26 c-47 -42 -75
-55 -75 -37 0 21 107 98 120 85 3 -2 -18 -24 -45 -48z m-2796 19 c-13 -16 -39
-19 -39 -4 0 12 32 30 43 23 4 -3 3 -11 -4 -19z m1072 -47 c-12 -12 -41 -2
-41 16 0 7 10 24 23 37 l22 25 3 -34 c2 -18 -1 -38 -7 -44z m-711 42 c0 -5 -4
-9 -10 -9 -5 0 -10 7 -10 16 0 8 5 12 10 9 6 -3 10 -10 10 -16z m-65 1 c3 -6
-1 -13 -10 -16 -19 -8 -30 0 -20 15 8 14 22 14 30 1z m-220 -30 c7 -34 -2 -87
-16 -96 -6 -3 -16 -1 -24 6 -20 17 -26 -3 -9 -34 20 -40 18 -48 -13 -44 -27 3
-28 5 -31 71 -3 63 -1 69 27 97 38 38 58 38 66 0z m2241 -5 c16 -40 18 -74 4
-95 -13 -21 -39 -3 -65 43 l-20 36 24 25 c32 34 39 33 57 -9z m-1376 15 c0 -5
-7 -10 -16 -10 -8 0 -12 5 -9 10 3 6 10 10 16 10 5 0 9 -4 9 -10z m978 -4 c8
-9 -10 -46 -28 -56 -30 -16 -48 -3 -45 33 2 18 3 34 4 36 1 4 63 -7 69 -13z
m-1504 -15 c3 -4 -3 -16 -13 -25 -15 -13 -20 -14 -23 -4 -10 29 21 54 36 29z
m336 -1 c0 -5 -12 -10 -26 -10 -14 0 -23 4 -19 10 3 6 15 10 26 10 10 0 19 -4
19 -10z m-453 -15 c61 -26 67 -34 42 -62 -33 -34 -55 -29 -79 17 -33 64 -27
71 37 45z m624 5 c16 -9 28 -40 15 -40 -20 0 -56 22 -56 35 0 18 14 19 41 5z
m-261 -10 c0 -5 -9 -10 -20 -10 -11 0 -20 5 -20 10 0 6 9 10 20 10 11 0 20 -4
20 -10z m1556 -32 c43 -73 55 -108 44 -128 -12 -22 -25 -26 -36 -9 -3 6 -14 9
-24 6 -13 -3 -21 7 -34 48 -20 64 -20 75 0 104 17 24 26 21 50 -21z m-2271 -5
c-9 -53 -13 -63 -25 -63 -13 0 -13 41 0 74 15 40 32 32 25 -11z m204 11 c12
-28 7 -44 -15 -44 -9 0 -14 11 -14 35 0 41 12 45 29 9z m77 -1 c19 -26 17 -43
-5 -43 -20 0 -37 32 -26 50 9 14 16 13 31 -7z m342 1 c-9 -9 -24 -14 -32 -11
-27 11 -17 27 16 27 30 0 31 -1 16 -16z m527 6 c-3 -5 -10 -10 -16 -10 -5 0
-9 5 -9 10 0 6 7 10 16 10 8 0 12 -4 9 -10z m590 0 c3 -5 18 -10 33 -10 34 0
17 -15 -25 -23 -35 -7 -47 2 -37 27 7 18 20 21 29 6z m945 -9 c0 -11 -4 -23
-10 -26 -6 -4 -10 5 -10 19 0 14 5 26 10 26 6 0 10 -9 10 -19z m-1835 -1 c3
-5 1 -10 -4 -10 -6 0 -11 5 -11 10 0 6 2 10 4 10 3 0 8 -4 11 -10z m222 -17
c-9 -9 -19 -14 -23 -11 -10 10 6 28 24 28 15 0 15 -1 -1 -17z m989 -10 c119
-96 149 -136 158 -210 1 -16 8 -38 14 -49 13 -24 19 -100 9 -110 -12 -12 -80
-5 -88 8 -5 7 -11 30 -15 51 -5 33 -2 43 21 67 35 36 16 48 -24 15 -40 -34
-46 -59 -26 -101 9 -19 19 -58 22 -87 3 -28 11 -55 17 -59 6 -4 30 -8 53 -8
40 0 42 -1 49 -36 8 -45 -4 -350 -17 -418 -5 -27 -9 -83 -9 -125 0 -124 1
-123 -92 -121 -21 0 -38 -4 -38 -9 0 -17 -52 -23 -69 -7 -12 11 -21 12 -35 4
-15 -8 -23 -5 -41 18 l-23 29 -10 -26 c-17 -43 -61 -46 -62 -5 0 5 -17 35 -37
66 -27 42 -46 61 -72 70 -77 27 -83 34 -76 103 3 34 10 130 15 214 5 92 14
160 22 173 11 18 74 54 133 75 14 5 16 9 6 12 -7 3 -44 -5 -82 -18 -37 -13
-71 -20 -75 -16 -13 13 15 56 53 80 43 27 213 118 288 155 116 56 135 78 119
140 -9 31 -21 27 -38 -11 -7 -19 -29 -45 -47 -60 -44 -35 -64 -21 -55 40 4 34
3 41 -9 37 -19 -8 -28 -39 -28 -96 1 -54 -6 -59 -76 -53 -24 2 -54 0 -66 -5
-43 -16 -35 3 35 80 54 60 78 79 105 84 49 10 59 31 11 23 -31 -5 -37 -3 -32
9 3 9 6 24 6 33 0 24 38 71 57 71 8 0 31 -12 49 -27z m-1356 8 c0 -13 -58 -32
-65 -21 -7 11 23 29 48 30 9 0 17 -4 17 -9z m100 -1 c0 -5 -8 -10 -17 -10 -15
0 -16 2 -3 10 19 12 20 12 20 0z m161 -10 c23 -18 23 -19 4 -20 -11 0 -26 9
-33 20 -16 26 -1 26 29 0z m-1521 -5 c0 -13 -4 -14 -20 -5 -11 6 -20 13 -20
15 0 3 9 5 20 5 11 0 20 -7 20 -15z m1023 -9 c27 -20 20 -33 -20 -39 -46 -8
-50 -4 -29 28 19 28 24 30 49 11z m1447 4 c0 -5 -4 -10 -10 -10 -5 0 -10 5
-10 10 0 6 5 10 10 10 6 0 10 -4 10 -10z m-2530 -15 c0 -16 -27 -32 -37 -22
-3 4 -3 13 0 22 8 20 37 20 37 0z m2335 -145 c-25 -48 -35 -36 -35 42 0 61 3
75 23 96 l22 24 3 -66 c2 -45 -2 -75 -13 -96z m715 145 c0 -2 -13 -11 -30 -20
-31 -16 -43 -3 -12 14 18 11 42 14 42 6z m277 -39 c8 -25 11 -57 7 -88 -12
-92 -48 -45 -57 75 -3 53 -2 58 16 55 13 -2 25 -17 34 -42z m-2388 20 l24 -13
-27 -18 c-17 -12 -26 -25 -23 -35 3 -12 -15 -35 -54 -70 l-59 -52 -15 36 c-8
19 -15 40 -15 45 0 5 20 34 46 65 48 60 74 69 123 42z m487 2 c7 -10 -29 -48
-45 -48 -19 0 -44 29 -38 44 7 19 72 23 83 4z m1062 -4 c-5 -27 -34 -40 -53
-24 -16 13 -16 15 1 27 26 19 56 17 52 -3z m721 -24 c42 -81 61 -160 39 -160
-22 0 -57 29 -73 60 -13 26 -13 30 5 53 24 30 25 37 6 37 -7 0 -19 7 -27 16
-10 13 -10 17 2 25 20 13 28 8 48 -31z m-1603 9 c10 -17 -13 -36 -27 -22 -12
12 -4 33 11 33 5 0 12 -5 16 -11z m922 -19 c-12 -16 -28 -30 -36 -30 -10 0 -8
8 8 30 12 17 28 30 36 30 11 0 9 -7 -8 -30z m612 -19 c0 -10 -8 -7 -25 9 -14
13 -25 27 -25 32 0 15 49 -26 50 -41z m-1056 14 c11 -8 17 -17 14 -21 -8 -8
-48 14 -48 26 0 14 12 12 34 -5z m980 6 c4 -5 0 -12 -6 -15 -10 -5 -9 -8 2
-13 15 -6 44 -35 111 -109 49 -55 51 -61 39 -84 -14 -26 -30 -17 -30 16 0 25
-2 25 -62 22 -57 -3 -63 -1 -63 17 0 11 -4 26 -8 33 -5 7 -6 20 -3 28 6 16
-13 64 -26 64 -4 0 -8 -11 -8 -24 0 -31 -26 -54 -43 -37 -16 16 10 62 46 79
15 7 27 17 27 23 0 12 17 12 24 0z m514 -3 c-6 -17 -36 -34 -45 -24 -4 4 1 14
11 22 24 17 39 18 34 2z m-2362 -12 c10 -8 16 -17 12 -21 -11 -11 -48 5 -48
21 0 18 11 18 36 0z m309 4 c10 -16 -14 -40 -40 -40 -34 0 -39 27 -7 39 36 13
40 13 47 1z m-374 -10 c20 -11 27 -50 8 -50 -7 0 -27 10 -46 21 -26 16 -31 24
-21 30 18 12 35 11 59 -1z m1294 -15 c14 -13 25 -29 25 -35 0 -16 -80 -100
-95 -100 -20 0 -24 22 -10 50 7 14 18 44 24 68 14 49 23 51 56 17z m-1735 -15
c18 -18 20 -31 18 -98 -2 -60 -6 -77 -18 -77 -9 0 -19 19 -27 50 -8 28 -19 67
-25 88 -10 32 -9 40 3 48 20 13 27 11 49 -11z m634 11 c10 -15 -20 -45 -39
-37 -17 6 -17 7 0 26 20 22 31 25 39 11z m-239 -40 c22 -13 29 -24 27 -40 -4
-23 13 -51 30 -51 6 0 8 11 6 25 -7 35 17 33 50 -5 15 -16 33 -30 40 -30 10 0
12 -6 7 -22 -25 -78 -7 -159 41 -180 31 -15 50 -121 39 -223 -5 -52 -10 -65
-26 -70 -13 -4 -18 -13 -15 -23 3 -9 10 -36 16 -59 6 -26 17 -43 25 -43 8 0
15 -9 15 -21 0 -16 -4 -19 -20 -14 -25 8 -26 -7 -4 -45 17 -28 14 -60 -7 -60
-7 0 -9 9 -5 25 6 24 4 25 -21 19 -16 -3 -34 -7 -40 -10 -7 -2 -19 -1 -27 2
-12 5 -12 12 1 49 8 24 13 58 11 77 -3 31 -6 34 -58 45 -30 6 -74 12 -98 12
-51 1 -82 15 -82 37 0 12 7 14 33 8 17 -4 76 -7 129 -8 84 -1 98 1 98 15 0 13
-19 18 -97 25 l-98 9 -3 40 c-3 36 0 41 26 51 25 10 30 18 35 60 6 56 -2 69
-50 79 -45 9 -86 -30 -77 -74 5 -25 2 -31 -24 -45 -40 -21 -110 -101 -116
-134 -17 -96 -17 -99 9 -130 23 -28 97 -62 134 -62 38 -1 43 -15 19 -60 -30
-55 -51 -69 -79 -52 -12 8 -46 16 -76 19 -44 5 -56 3 -67 -12 -11 -16 -16 -16
-41 -4 -38 18 -49 70 -35 162 6 37 10 139 10 225 -2 225 23 299 132 393 154
134 165 139 233 100z m-508 -37 c26 -100 15 -121 -46 -89 -29 14 -41 33 -41
62 0 22 49 85 63 80 6 -2 17 -26 24 -53z m623 30 c0 -9 -5 -14 -12 -12 -18 6
-21 28 -4 28 9 0 16 -7 16 -16z m309 9 c0 -5 -15 -35 -32 -68 -36 -66 -78 -99
-99 -77 -11 11 -8 17 15 34 23 17 27 25 22 52 -6 28 -3 32 32 48 42 18 63 22
62 11z m74 -36 c-13 -72 -43 -138 -92 -202 -28 -36 -58 -80 -67 -96 -17 -34
-29 -34 -51 1 -14 24 -12 29 21 85 20 33 49 73 65 90 16 16 34 40 40 53 7 13
24 27 38 33 19 7 24 14 20 31 -7 23 10 51 24 43 5 -3 6 -20 2 -38z m-195 -1
c5 -38 -24 -69 -50 -55 -32 17 -33 39 -2 65 35 28 48 26 52 -10z m1710 -138
c179 -93 202 -110 202 -151 0 -16 -3 -27 -7 -25 -94 48 -132 57 -140 32 -2 -6
13 -14 35 -18 21 -3 54 -16 73 -29 l34 -23 -2 -125 c-1 -68 -5 -212 -8 -320
l-7 -196 -92 -1 c-50 0 -114 -1 -143 -3 -31 -2 -57 2 -67 10 -11 9 -20 10 -35
2 -28 -15 -30 -14 -42 16 -11 30 14 344 32 390 5 13 9 35 9 49 0 20 5 24 31
24 36 0 35 21 -2 30 -21 5 -24 12 -24 50 0 45 0 45 45 56 57 14 65 34 13 34
-68 0 -73 10 -78 144 -4 109 -2 136 11 136 3 0 76 -37 162 -82z m202 35 c0
-19 -14 -16 -36 8 -16 17 -16 22 -4 29 16 10 40 -12 40 -37z m-1963 -14 c31
-48 32 -52 18 -80 -19 -35 -29 -36 -49 -7 -16 23 -23 138 -8 138 4 0 22 -23
39 -51z m993 36 c0 -15 -26 -32 -36 -23 -2 3 -2 13 2 22 8 20 34 21 34 1z m90
-25 c0 -5 -4 -10 -10 -10 -5 0 -10 5 -10 10 0 6 5 10 10 10 6 0 10 -4 10 -10z
m409 -119 c18 -12 7 -41 -17 -41 -10 0 -27 7 -38 15 -16 13 -17 16 -4 25 19
12 41 12 59 1z m-819 -337 c74 -15 100 -27 87 -40 -8 -8 -119 13 -153 28 -23
11 -33 28 -16 28 4 0 41 -7 82 -16z m-1850 -34 c0 -5 -9 -10 -20 -10 -11 0
-20 5 -20 10 0 6 9 10 20 10 11 0 20 -4 20 -10z m1771 -20 l24 -19 -35 -1
c-34 0 -60 14 -60 32 0 16 48 8 71 -12z m-941 -16 c0 -8 -5 -12 -10 -9 -6 4
-8 11 -5 16 9 14 15 11 15 -7z m1157 -80 c12 -32 22 -62 22 -66 1 -5 -15 -8
-35 -8 -31 0 -37 4 -50 35 -11 28 -12 39 -2 55 10 15 10 24 1 39 -7 10 -9 22
-6 25 15 15 50 -26 70 -80z m-1139 15 c2 -23 2 -23 -13 -5 -18 24 -20 39 -2
34 6 -3 13 -15 15 -29z m132 1 c0 -5 -4 -10 -10 -10 -5 0 -10 5 -10 10 0 6 5
10 10 10 6 0 10 -4 10 -10z m-786 -85 c-7 -16 -24 -21 -24 -6 0 8 7 13 27 20
1 1 0 -6 -3 -14z m1426 -3 c52 -20 57 -40 15 -62 -16 -8 -36 -23 -43 -32 -16
-22 -48 -23 -56 -3 -4 11 1 15 19 15 36 0 39 17 5 35 -21 11 -30 23 -30 40 0
30 24 32 90 7z m-654 -7 c-21 -16 -32 -13 -21 4 3 6 14 11 23 11 15 -1 15 -2
-2 -15z m-542 -33 c2 -4 -11 -23 -30 -41 -19 -19 -37 -46 -40 -60 -15 -73 -28
-82 -78 -56 -40 21 -46 19 -46 -15 0 -34 -15 -40 -25 -9 -4 11 -18 25 -32 30
-20 7 -23 13 -15 21 9 9 15 9 24 0 17 -17 23 -15 36 13 6 14 20 25 30 25 24 0
82 29 82 41 0 5 -22 9 -50 9 -27 0 -50 4 -50 8 0 20 25 29 70 24 33 -3 50 -1
50 7 0 12 66 15 74 3z m1606 1 c0 -4 -16 -24 -35 -43 -35 -35 -40 -51 -44
-134 -1 -19 -2 -18 -24 2 -13 12 -29 22 -35 22 -7 0 -12 10 -12 23 1 25 22 57
39 57 14 0 14 23 0 37 -8 8 -4 15 17 27 29 15 94 22 94 9z m-1890 -48 c-7 -8
-16 -15 -21 -15 -13 0 -11 24 3 38 18 18 35 -3 18 -23z m776 -3 c-23 -23 -33
-6 -10 19 12 13 20 16 22 9 3 -7 -3 -19 -12 -28z m226 20 c12 -12 -18 -126
-39 -143 -8 -8 -27 -7 -60 1 -57 14 -89 16 -122 5 l-24 -8 19 26 c14 19 25 24
42 20 15 -4 27 1 36 13 8 10 35 25 62 34 61 21 66 36 14 44 -22 3 -40 11 -40
17 0 14 97 6 112 -9z m-397 -14 c25 -7 45 -16 45 -21 0 -5 -7 -6 -16 -3 -8 3
-33 -3 -56 -15 -38 -19 -41 -19 -59 -3 -49 44 -4 66 86 42z m595 -4 c22 -9 40
-21 40 -28 0 -30 -22 -86 -34 -86 -8 0 -19 -7 -26 -15 -7 -8 -17 -12 -22 -9
-5 3 -3 13 6 23 23 26 20 34 -25 71 -39 31 -41 34 -23 47 23 17 35 16 84 -3z
m832 -6 c22 -13 46 -35 54 -49 12 -24 11 -28 -9 -46 -24 -22 -82 -45 -91 -35
-3 3 1 17 10 31 16 24 16 25 -10 46 -33 26 -35 75 -3 75 5 0 27 -10 49 -22z
m-2197 -3 c0 -5 -22 -20 -48 -32 -51 -25 -56 -36 -29 -66 16 -20 16 -20 -8
-13 -14 4 -37 10 -53 13 -33 6 -41 17 -33 48 10 38 63 66 121 63 28 -2 50 -7
50 -13z m595 2 c0 -8 -3 -17 -7 -20 -9 -9 -34 13 -27 24 8 14 34 11 34 -4z
m-135 -84 c-9 -47 -39 -42 -43 7 -2 26 3 42 20 60 l23 25 3 -29 c2 -16 1 -44
-3 -63z m1020 50 c3 -16 17 -42 31 -60 13 -17 24 -34 24 -37 0 -2 -17 0 -37 6
-30 8 -39 7 -49 -6 -15 -21 -24 -20 -24 2 0 9 9 23 19 29 16 10 18 20 14 53
-6 46 11 56 22 13z m573 -20 c-3 -39 -24 -56 -34 -28 -8 19 11 65 26 65 7 0
10 -15 8 -37z m-1408 -14 c0 -32 -26 -51 -40 -29 -10 17 17 73 30 65 6 -4 10
-20 10 -36z m628 -2 c2 -19 -1 -27 -12 -27 -11 0 -16 10 -16 31 0 38 24 35 28
-4z m-468 -36 c13 -25 13 -31 -2 -31 -23 0 -41 18 -35 34 9 22 24 20 37 -3z
m1630 -86 c0 -8 -7 -15 -15 -15 -8 0 -15 7 -15 15 0 8 7 15 15 15 8 0 15 -7
15 -15z"/>
<path d="M1100 4510 c0 -5 9 -10 21 -10 11 0 17 5 14 10 -3 6 -13 10 -21 10
-8 0 -14 -4 -14 -10z"/>
<path d="M2876 4378 c-18 -25 -21 -53 -6 -43 16 10 42 65 31 65 -6 0 -17 -10
-25 -22z"/>
<path d="M2955 4370 c3 -5 8 -10 11 -10 2 0 4 5 4 10 0 6 -5 10 -11 10 -5 0
-7 -4 -4 -10z"/>
<path d="M3200 3820 c0 -5 5 -10 10 -10 6 0 10 5 10 10 0 6 -4 10 -10 10 -5 0
-10 -4 -10 -10z"/>
<path d="M2224 4326 c-10 -8 -15 -18 -11 -22 4 -4 15 0 24 9 22 21 12 31 -13
13z"/>
<path d="M3603 3785 c-39 -16 -64 -55 -36 -55 10 0 23 8 30 19 6 10 26 21 45
25 26 5 30 9 18 16 -19 12 -18 12 -57 -5z"/>
<path d="M4134 3975 c-18 -15 -18 -15 10 -13 16 2 31 9 34 16 5 17 -20 15 -44
-3z"/>
<path d="M4178 3634 c-51 -25 -68 -51 -23 -34 47 18 85 40 85 50 0 14 -8 12
-62 -16z"/>
<path d="M4078 3583 c7 -3 16 -2 19 1 4 3 -2 6 -13 5 -11 0 -14 -3 -6 -6z"/>
<path d="M4040 3570 c0 -5 5 -10 10 -10 6 0 10 5 10 10 0 6 -4 10 -10 10 -5 0
-10 -4 -10 -10z"/>
<path d="M4175 4820 c-3 -5 -1 -10 4 -10 6 0 11 5 11 10 0 6 -2 10 -4 10 -3 0
-8 -4 -11 -10z"/>
<path d="M1390 4790 c0 -5 5 -10 11 -10 5 0 7 5 4 10 -3 6 -8 10 -11 10 -2 0
-4 -4 -4 -10z"/>
<path d="M1405 4760 c-10 -11 -16 -22 -13 -25 8 -9 69 26 63 36 -10 15 -31 10
-50 -11z"/>
<path d="M4078 4753 c7 -3 16 -2 19 1 4 3 -2 6 -13 5 -11 0 -14 -3 -6 -6z"/>
<path d="M1170 4690 c0 -5 7 -10 15 -10 8 0 15 5 15 10 0 6 -7 10 -15 10 -8 0
-15 -4 -15 -10z"/>
<path d="M4740 4655 c-7 -9 -24 -14 -39 -13 -20 2 -25 -1 -23 -15 2 -9 -5 -20
-15 -24 -21 -8 -33 -22 -33 -41 0 -9 5 -10 19 -2 32 17 33 12 6 -40 -37 -73
-33 -92 10 -50 19 19 35 44 35 55 0 12 9 30 20 40 11 10 20 24 20 30 0 7 9 24
20 38 11 14 20 28 20 31 0 12 -28 6 -40 -9z"/>
<path d="M1760 4610 c0 -5 4 -10 9 -10 6 0 13 5 16 10 3 6 -1 10 -9 10 -9 0
-16 -4 -16 -10z"/>
<path d="M4781 4550 c-12 -14 -37 -44 -56 -66 -22 -26 -47 -44 -66 -48 -41 -8
-32 -30 14 -34 32 -3 38 0 47 24 10 25 37 64 75 107 9 10 15 23 12 30 -2 6
-13 1 -26 -13z"/>
<path d="M1430 4091 c-40 -18 -46 -44 -12 -49 14 -2 22 2 22 12 0 8 12 22 26
29 40 21 6 28 -36 8z"/>
<path d="M4637 3943 c-12 -11 -8 -23 8 -23 8 0 15 7 15 15 0 16 -12 20 -23 8z"/>
<path d="M4810 3930 c0 -5 5 -10 10 -10 6 0 10 5 10 10 0 6 -4 10 -10 10 -5 0
-10 -4 -10 -10z"/>
<path d="M1593 3453 c-22 -8 -14 -23 12 -23 14 0 25 4 25 9 0 11 -21 19 -37
14z"/>
<path d="M1574 3396 c-4 -10 -2 -22 4 -28 8 -8 13 -7 18 6 4 10 2 22 -4 28 -8
8 -13 7 -18 -6z"/>
<path d="M961 2809 c-21 -23 -29 -39 -25 -55 4 -16 -3 -28 -27 -47 -29 -23
-31 -27 -21 -55 13 -36 1 -88 -19 -86 -8 1 -22 5 -32 9 -17 7 -18 4 -12 -37 6
-41 4 -50 -27 -90 -18 -25 -45 -52 -60 -61 -21 -12 -28 -24 -28 -46 0 -35 19
-51 32 -27 8 14 13 15 24 5 18 -15 18 -29 0 -29 -8 0 -23 -8 -35 -17 -19 -16
-20 -24 -12 -78 5 -39 5 -62 -2 -66 -13 -9 0 -29 19 -29 8 0 23 -5 33 -12 15
-9 22 -8 35 5 13 13 22 14 46 5 36 -12 42 -48 9 -48 -11 0 -29 -5 -40 -10 -15
-8 -19 -7 -19 3 0 16 -30 27 -70 26 -25 0 -25 0 -3 -11 13 -6 30 -30 39 -57
24 -65 28 -67 68 -36 38 29 56 26 56 -9 0 -19 4 -22 24 -19 20 4 24 0 29 -34
4 -21 25 -76 48 -123 23 -47 57 -118 75 -158 25 -55 38 -73 51 -70 21 4 31 41
27 99 -5 63 -5 63 5 184 4 61 6 116 4 123 -7 17 -27 15 -70 -8 -22 -12 -57
-20 -83 -20 l-45 0 30 20 c20 14 39 19 58 15 35 -6 85 19 96 48 5 12 12 141
15 287 4 146 9 320 12 388 5 137 1 146 -55 118 -29 -15 -32 -15 -51 4 -11 11
-24 20 -29 20 -5 0 -16 3 -25 6 -10 4 -26 -6 -45 -27z m19 -125 c0 -22 -2 -25
-15 -14 -12 10 -13 16 -4 26 16 20 19 18 19 -12z m-30 -210 c0 -20 -16 -18
-25 4 -6 13 -10 10 -17 -18 -5 -19 -10 -60 -12 -90 -2 -30 -8 -67 -15 -82 -16
-41 -51 -35 -41 7 2 6 6 26 11 45 4 19 11 45 14 58 6 16 3 22 -9 22 -21 0 -20
6 4 30 11 11 23 34 27 50 l5 30 29 -21 c16 -11 29 -27 29 -35z m-148 -219 c0
-5 -5 -11 -11 -13 -6 -2 -11 4 -11 13 0 9 5 15 11 13 6 -2 11 -8 11 -13z m38
-44 c0 -12 -20 -25 -27 -18 -7 7 6 27 18 27 5 0 9 -4 9 -9z"/>
<path d="M2500 2818 c-24 -17 -28 -18 -55 -4 -41 21 -78 20 -92 -3 -8 -12 -19
-17 -31 -14 -28 7 -32 -18 -32 -192 0 -83 -4 -186 -10 -230 -5 -44 -11 -141
-12 -216 -3 -125 -1 -139 17 -159 27 -30 68 -50 102 -50 15 0 45 -5 65 -10 56
-16 125 -80 86 -80 -6 0 -23 14 -37 31 -22 26 -36 31 -96 40 -38 5 -79 16 -92
24 -51 34 -53 28 -48 -147 2 -90 4 -182 4 -205 1 -35 8 -51 38 -84 25 -28 37
-49 35 -64 -2 -14 5 -29 15 -37 10 -7 32 -39 48 -71 33 -65 75 -97 125 -97 47
0 33 -24 -17 -28 -40 -3 -44 -1 -173 77 -16 9 -20 16 -11 19 7 2 26 -6 43 -18
21 -16 33 -19 41 -11 7 7 -2 21 -31 48 -23 21 -55 65 -71 98 -23 48 -31 56
-36 41 -5 -10 -3 -38 2 -62 10 -41 9 -44 -8 -39 -13 4 -19 1 -19 -9 0 -10 9
-16 25 -16 29 0 31 -10 9 -51 -14 -28 -14 -32 2 -50 9 -10 34 -27 56 -36 28
-13 37 -21 33 -34 -4 -12 3 -22 21 -31 43 -21 39 -33 -19 -55 -48 -17 -55 -18
-64 -5 -5 9 -15 12 -21 8 -17 -10 -15 -46 3 -46 9 0 15 -9 15 -25 0 -13 8 -29
18 -35 12 -8 13 -13 5 -16 -19 -8 -16 -28 7 -49 18 -17 21 -17 45 -1 31 20 32
37 4 54 -16 10 -18 17 -10 25 8 8 5 17 -11 34 l-22 24 68 -7 69 -7 -7 29 c-4
16 -17 39 -28 51 -21 22 -17 43 8 43 8 0 17 7 21 15 5 14 7 14 22 1 15 -14 19
-14 40 0 18 13 27 14 51 4 15 -6 30 -21 33 -32 5 -19 6 -19 41 4 19 14 52 44
73 69 39 45 113 160 117 182 1 7 6 23 10 36 6 16 4 26 -5 31 -10 7 -10 11 1
24 18 22 5 32 -25 18 -40 -18 -40 5 -1 29 41 24 42 26 20 50 -11 13 -13 22 -6
36 5 10 22 62 36 116 16 59 39 119 59 150 108 168 140 232 154 301 15 81 32
323 33 472 0 93 -2 102 -24 123 -21 20 -33 22 -112 21 -49 -1 -97 1 -106 5
-11 4 -18 3 -18 -5 0 -8 -9 -10 -26 -6 -17 5 -35 1 -50 -9 -22 -14 -27 -14
-55 0 -28 15 -33 15 -54 1 -32 -21 -42 -20 -72 4 -18 14 -30 17 -38 10 -7 -6
-18 -5 -31 4 -16 12 -23 11 -44 -6z m-140 -143 c0 -26 -14 -33 -25 -15 -9 14
1 40 15 40 5 0 10 -11 10 -25z m445 -85 c3 -5 -1 -10 -10 -10 -9 0 -13 5 -10
10 3 6 8 10 10 10 2 0 7 -4 10 -10z m87 -142 c-9 -9 -12 -7 -12 12 0 19 3 21
12 12 9 -9 9 -15 0 -24z m-542 -33 c0 -8 -4 -15 -10 -15 -5 0 -10 7 -10 15 0
8 5 15 10 15 6 0 10 -7 10 -15z m365 -5 c3 -5 1 -10 -4 -10 -6 0 -11 5 -11 10
0 6 2 10 4 10 3 0 8 -4 11 -10z m230 -103 c11 -9 16 -19 12 -24 -5 -4 -13 0
-18 10 -8 14 -14 15 -31 6 -25 -13 -54 10 -45 36 6 14 10 14 34 1 16 -8 37
-21 48 -29z m-65 -107 c0 -11 -6 -20 -14 -20 -9 0 -12 7 -9 20 3 11 9 20 14
20 5 0 9 -9 9 -20z m-530 -124 c0 -11 -19 -15 -25 -6 -3 5 1 10 9 10 9 0 16
-2 16 -4z m557 -108 c-3 -8 -6 -5 -6 6 -1 11 2 17 5 13 3 -3 4 -12 1 -19z
m-437 -150 c0 -16 -3 -19 -11 -11 -6 6 -8 16 -5 22 11 17 16 13 16 -11z m180
-22 c0 -11 -19 -15 -25 -6 -3 5 1 10 9 10 9 0 16 -2 16 -4z m98 -53 c60 -27
78 -43 47 -43 -19 0 -111 46 -120 60 -10 16 5 12 73 -17z m-218 -33 c0 -5 -2
-10 -4 -10 -3 0 -8 5 -11 10 -3 6 -1 10 4 10 6 0 11 -4 11 -10z m-96 -89 c28
-9 52 -23 54 -29 6 -18 -23 -15 -39 4 -8 10 -22 14 -40 10 -19 -3 -32 1 -44
14 -17 19 -17 20 1 19 10 0 41 -8 68 -18z m76 -86 c0 -8 -6 -15 -14 -15 -17 0
-28 14 -19 24 12 12 33 6 33 -9z m298 -67 c-3 -7 -14 -14 -26 -16 -11 -2 -26
-10 -32 -18 -14 -16 -40 -19 -40 -5 0 10 67 48 88 50 8 0 12 -5 10 -11z m-136
-57 c20 -23 14 -31 -23 -31 -35 0 -48 19 -24 37 24 17 27 17 47 -6z m-99 -73
c-13 -12 -25 -19 -29 -15 -10 10 16 37 34 37 13 0 12 -4 -5 -22z m77 -42 c0
-11 -19 -15 -25 -6 -3 5 1 10 9 10 9 0 16 -2 16 -4z"/>
<path d="M4772 2815 c-12 -26 -26 -32 -37 -15 -3 6 -19 10 -34 10 -15 0 -32 5
-38 11 -8 8 -17 8 -33 -1 -28 -15 -141 -21 -158 -8 -16 14 -107 12 -133 -3
-17 -9 -20 -17 -15 -42 4 -18 10 -68 14 -112 4 -46 14 -90 24 -105 9 -14 24
-61 33 -105 8 -44 23 -101 31 -127 15 -45 14 -48 -5 -75 -12 -16 -28 -64 -37
-113 -19 -103 -45 -147 -116 -195 -56 -37 -88 -45 -88 -20 0 18 -12 19 -27 4
-13 -13 -65 -8 -70 6 -5 16 20 46 42 50 11 2 21 4 22 4 1 1 -9 17 -22 38 -25
36 -25 36 -5 50 20 14 20 14 -1 43 -22 30 -38 91 -39 151 0 32 4 38 27 44 38
9 60 45 28 45 -8 0 -15 -4 -15 -10 0 -24 -33 -6 -77 41 -54 58 -68 79 -78 128
-5 23 -3 36 6 42 18 11 49 -8 49 -29 0 -43 78 -167 95 -151 2 3 9 59 15 125 6
65 15 141 20 167 14 66 12 114 -2 124 -7 4 -42 11 -78 16 -36 4 -83 10 -106
13 -29 4 -44 2 -53 -10 -7 -9 -16 -69 -22 -153 -5 -76 -14 -169 -19 -208 -15
-112 -16 -390 -1 -485 19 -121 24 -135 50 -133 11 2 21 -2 21 -7 0 -6 -6 -10
-14 -10 -8 0 -16 -6 -19 -13 -11 -29 15 -136 51 -206 35 -70 40 -74 102 -103
97 -45 160 -62 174 -48 8 8 6 15 -8 26 -19 14 -19 14 -1 28 17 12 16 14 -18
27 -29 10 -37 18 -37 37 0 30 49 79 86 87 16 3 54 13 84 22 64 19 183 26 177
10 -1 -5 -23 -18 -47 -27 -24 -9 -46 -23 -48 -30 -10 -28 60 5 192 89 33 21
35 25 19 36 -15 11 -14 14 14 28 31 16 49 61 37 92 -7 18 14 75 27 75 5 0 9
-7 9 -15 0 -8 9 -15 20 -15 16 0 20 7 20 34 0 19 5 38 10 41 6 3 10 15 10 26
0 23 15 25 24 4 3 -8 13 -15 21 -15 12 0 15 -6 10 -21 -8 -24 19 -59 47 -59
20 0 25 29 8 46 -7 7 -8 19 -1 36 12 31 6 38 -28 38 -21 0 -29 7 -39 32 -8 21
-8 36 -2 42 17 17 11 39 -20 71 -27 28 -29 34 -20 67 6 19 20 48 32 64 21 26
21 27 3 22 -11 -3 -28 -9 -37 -13 -15 -6 -18 -2 -18 22 0 30 24 73 42 73 5 0
19 11 29 24 24 31 59 43 70 25 16 -26 32 8 38 78 5 59 9 69 31 80 27 14 28 25
4 89 -14 40 -16 42 -66 46 -44 5 -57 11 -85 42 -18 20 -35 36 -37 36 -1 0 -8
-11 -14 -25z m128 -101 c0 -8 -4 -14 -10 -14 -5 0 -10 9 -10 21 0 11 5 17 10
14 6 -3 10 -13 10 -21z m20 -123 c0 -22 -4 -43 -10 -46 -5 -3 -10 -2 -10 3 0
5 -13 12 -30 16 -40 7 -41 40 -2 54 47 18 52 15 52 -27z m-419 -304 c-13 -13
-26 -3 -16 12 3 6 11 8 17 5 6 -4 6 -10 -1 -17z m-1 -68 c0 -17 -4 -28 -10
-24 -5 3 -10 17 -10 31 0 13 5 24 10 24 6 0 10 -14 10 -31z m250 -60 c0 -10
-7 -19 -15 -19 -15 0 -21 31 -9 43 11 10 24 -3 24 -24z m-30 -149 c0 -5 -4
-10 -10 -10 -5 0 -10 5 -10 10 0 6 5 10 10 10 6 0 10 -4 10 -10z m-205 -170
c11 -17 -25 -57 -87 -99 -34 -23 -64 -41 -68 -41 -11 0 14 69 31 85 50 49 111
76 124 55z m-389 -46 c-25 -18 -46 -18 -46 -1 0 19 42 38 55 25 7 -6 3 -14 -9
-24z m-76 -61 c0 -5 -4 -15 -10 -23 -11 -18 -25 -7 -17 15 6 15 27 21 27 8z
m10 -93 c0 -5 -4 -10 -10 -10 -5 0 -10 5 -10 10 0 6 5 10 10 10 6 0 10 -4 10
-10z m95 -20 c-3 -5 -10 -10 -16 -10 -5 0 -9 5 -9 10 0 6 7 10 16 10 8 0 12
-4 9 -10z"/>
<path d="M1427 2812 c-40 -13 -55 -13 -82 -3 -25 9 -40 9 -54 1 -12 -6 -32 -8
-45 -4 -23 5 -25 3 -30 -38 -3 -23 -8 -167 -11 -318 -4 -151 -8 -321 -11 -378
-4 -101 -4 -103 22 -127 14 -13 50 -38 80 -55 62 -35 73 -50 14 -20 -61 31
-82 26 -40 -10 19 -16 30 -30 23 -30 -7 0 -28 14 -48 31 -27 24 -39 29 -47 21
-7 -7 -10 -13 -7 -15 44 -30 99 -81 99 -92 0 -7 11 -20 25 -29 14 -9 36 -39
50 -66 14 -27 35 -58 47 -70 16 -15 19 -23 11 -31 -8 -8 -14 -5 -22 10 -13 24
-31 28 -31 7 0 -7 -7 -19 -15 -26 -32 -27 -23 -29 106 -29 36 0 100 67 101
105 2 63 -43 99 -50 41 -5 -43 -22 -31 -22 16 0 67 -16 81 -84 74 -60 -6 -62
-5 -43 36 14 31 33 29 83 -9 48 -37 124 -68 137 -55 10 10 -6 281 -18 302 -4
5 -21 9 -40 9 -49 0 -52 17 -7 30 33 8 41 15 46 41 12 61 8 77 -19 81 -30 4
-34 22 -6 26 26 4 28 12 47 158 15 117 15 127 -1 144 -15 17 -15 19 2 28 16 9
18 25 18 125 0 64 -2 117 -5 120 -15 14 -130 13 -173 -1z"/>
<path d="M1845 2821 c-6 -5 -41 -11 -80 -14 l-70 -4 -11 -119 c-7 -65 -17
-162 -23 -214 -7 -52 -11 -193 -10 -313 l2 -218 24 -16 c22 -14 25 -14 44 3
20 18 21 18 35 -1 22 -30 14 -66 -10 -46 -6 5 -29 11 -51 13 l-40 3 -3 -48
c-3 -51 35 -203 68 -266 10 -20 38 -51 63 -68 44 -32 167 -163 167 -179 0 -4
-9 -17 -20 -29 -12 -13 -18 -29 -14 -38 10 -28 34 -19 50 18 7 19 29 50 48 68
l34 35 -19 31 c-21 35 -37 38 -80 15 -34 -17 -43 -15 -33 10 8 22 41 39 49 26
8 -12 25 -13 44 -1 12 8 12 12 2 25 -7 8 -10 20 -6 26 4 6 17 -2 32 -20 29
-35 43 -38 43 -11 0 11 5 23 10 26 15 9 50 90 50 115 0 12 19 57 43 100 33 61
39 82 30 91 -9 9 -19 4 -45 -26 -18 -21 -42 -48 -54 -59 -35 -36 -64 -83 -64
-105 0 -12 -5 -21 -12 -21 -6 0 -20 -7 -30 -17 -10 -9 -21 -13 -25 -9 -4 4 2
15 13 24 11 9 31 35 43 57 32 56 67 99 131 161 56 55 53 74 -6 29 -33 -25 -54
-32 -54 -17 0 5 16 16 35 25 19 9 35 21 35 27 0 17 -22 11 -61 -16 -21 -14
-43 -24 -49 -22 -7 2 18 21 55 43 83 48 99 71 92 128 -3 23 1 166 8 317 8 151
15 317 15 367 0 89 -1 93 -26 109 -22 15 -31 16 -60 5 -19 -7 -39 -9 -45 -5
-7 4 -20 -4 -31 -17 -11 -14 -21 -19 -24 -13 -3 6 -11 20 -19 30 -15 18 -16
18 -40 -11 -24 -28 -26 -29 -40 -12 -9 12 -20 17 -33 13 -11 -4 -24 0 -32 9
-14 17 -32 19 -45 6z m323 -478 c2 -8 -6 -13 -22 -13 -17 0 -26 5 -26 16 0 19
41 16 48 -3z m-33 -333 c-3 -5 -12 -10 -18 -10 -7 0 -6 4 3 10 19 12 23 12 15
0z m-83 -205 c4 -16 6 -30 5 -32 -6 -5 -107 10 -107 16 0 9 74 50 84 47 6 -1
13 -15 18 -31z m-262 -12 c0 -22 -2 -25 -10 -13 -13 20 -13 40 0 40 6 0 10
-12 10 -27z m134 -51 c-6 -27 -11 -32 -36 -32 -16 0 -45 -12 -64 -26 -35 -27
-56 -26 -38 3 10 16 135 96 141 90 2 -2 0 -18 -3 -35z m-154 -6 c0 -3 -4 -8
-10 -11 -5 -3 -10 -1 -10 4 0 6 5 11 10 11 6 0 10 -2 10 -4z m16 -123 c-10
-10 -19 5 -10 18 6 11 8 11 12 0 2 -7 1 -15 -2 -18z m284 -33 c0 -5 -7 -10
-16 -10 -8 0 -12 5 -9 10 3 6 10 10 16 10 5 0 9 -4 9 -10z"/>
<path d="M3229 2808 c-7 -13 -16 -89 -20 -178 -9 -173 -24 -332 -40 -431 -9
-58 -8 -73 10 -126 11 -33 36 -87 55 -119 33 -57 34 -61 25 -123 -8 -57 -7
-67 10 -85 13 -14 18 -30 14 -47 -3 -15 0 -29 5 -33 7 -4 6 -16 -1 -36 -9 -24
-8 -32 8 -51 17 -18 28 -20 73 -17 67 6 81 18 57 54 -9 14 -13 25 -8 22 4 -2
20 -10 35 -17 25 -13 31 -12 65 11 76 50 194 179 224 243 41 87 47 134 55 485
8 363 8 350 0 395 -10 49 -56 90 -56 49 0 -12 -7 -14 -31 -9 -35 8 -47 -1
-120 -88 -40 -47 -49 -65 -49 -96 0 -22 6 -44 15 -51 32 -26 5 -95 -58 -151
l-41 -36 22 -28 c30 -38 28 -49 -13 -68 -54 -26 -72 -22 -91 18 -16 34 -16 37
1 55 15 17 16 24 5 49 -16 41 -43 47 -81 21 -16 -12 -33 -19 -37 -15 -10 10
57 63 89 70 22 5 28 13 34 43 5 29 3 39 -10 47 -50 29 -95 67 -95 78 0 24 58
70 97 76 33 6 38 10 38 33 0 15 9 33 19 41 11 8 16 19 12 25 -12 20 -45 13
-62 -13 -15 -23 -19 -24 -33 -12 -9 8 -29 17 -46 19 -16 3 -38 8 -47 12 -11 5
-20 1 -29 -16z m161 -1092 c0 -8 -5 -18 -10 -21 -6 -4 -8 -15 -5 -26 8 -25
-16 -25 -39 0 -17 19 -17 19 3 14 17 -4 21 -1 21 21 0 16 5 26 15 26 8 0 15
-6 15 -14z"/>
<path d="M3562 2818 c-7 -7 -30 -11 -51 -10 -31 2 -42 -2 -50 -17 -8 -14 -7
-22 4 -31 23 -19 19 -26 -35 -59 -52 -32 -64 -51 -31 -51 22 0 58 26 129 94
61 58 80 86 59 86 -7 0 -18 -5 -25 -12z"/>
<path d="M4220 2689 c0 -100 3 -130 13 -127 22 8 46 91 46 164 1 72 -8 94 -41
94 -16 0 -18 -12 -18 -131z"/>
<path d="M806 2674 c-4 -10 -2 -22 3 -27 14 -14 43 0 39 20 -4 24 -34 28 -42
7z"/>
<path d="M850 2600 c0 -5 5 -10 10 -10 6 0 10 5 10 10 0 6 -4 10 -10 10 -5 0
-10 -4 -10 -10z"/>
<path d="M4965 2580 c-3 -5 1 -10 10 -10 9 0 13 5 10 10 -3 6 -8 10 -10 10 -2
0 -7 -4 -10 -10z"/>
<path d="M3513 2533 c-7 -3 -13 -17 -13 -31 l0 -26 22 22 c22 22 16 44 -9 35z"/>
<path d="M4200 2500 c0 -32 14 -40 24 -14 10 27 7 44 -9 44 -10 0 -15 -10 -15
-30z"/>
<path d="M4300 2497 c0 -13 6 -32 14 -43 13 -16 15 -17 21 -3 7 19 -11 69 -25
69 -5 0 -10 -10 -10 -23z"/>
<path d="M4870 2405 c-13 -15 -7 -45 9 -45 8 0 20 32 21 53 0 12 -17 8 -30 -8z"/>
<path d="M4316 2382 c-4 -10 -5 -41 -4 -70 2 -45 -1 -55 -27 -82 -21 -22 -26
-33 -18 -41 19 -19 61 -1 78 32 23 44 31 125 15 154 -16 29 -36 32 -44 7z"/>
<path d="M4180 2053 c0 -5 6 -18 14 -29 17 -22 35 -11 20 13 -12 19 -34 29
-34 16z"/>
<path d="M3078 2023 c-9 -10 -25 -36 -36 -58 -11 -22 -29 -48 -40 -58 -32 -30
-81 -148 -88 -215 -5 -44 -3 -62 5 -62 18 0 51 38 51 59 0 10 7 24 15 31 8 7
15 17 15 23 0 5 16 30 36 54 48 58 106 179 102 212 -4 32 -37 40 -60 14z"/>
<path d="M4190 1970 c0 -5 5 -10 11 -10 5 0 7 5 4 10 -3 6 -8 10 -11 10 -2 0
-4 -4 -4 -10z"/>
<path d="M3148 1918 c-27 -43 -29 -60 -9 -82 35 -39 35 -62 0 -80 -39 -20 -50
-20 -26 -1 23 17 19 58 -6 63 -27 5 -46 -16 -80 -86 -27 -57 -75 -112 -98
-112 -5 0 -9 -4 -9 -10 0 -15 27 -12 61 6 17 8 33 13 36 11 2 -3 -10 -11 -26
-18 -36 -16 -37 -20 -11 -44 10 -9 19 -29 19 -44 0 -57 15 -97 49 -133 34 -36
36 -36 63 -22 15 7 36 14 46 13 10 0 -1 -10 -25 -21 -41 -18 -43 -20 -27 -38
9 -10 27 -21 41 -24 26 -7 31 -25 12 -45 -11 -10 -9 -16 10 -28 12 -9 22 -26
22 -39 0 -20 5 -24 28 -23 15 1 44 -8 65 -21 50 -30 65 -18 49 38 -17 56 -15
80 8 92 20 11 20 9 15 -57 -4 -37 -8 -78 -11 -89 -3 -16 6 -29 32 -49 40 -31
53 -27 36 10 -7 14 -12 28 -12 30 0 7 80 58 113 72 15 7 27 19 27 28 0 18 -4
19 -31 3 -18 -12 -24 -9 -47 18 -15 17 -35 34 -45 37 -15 6 -17 13 -12 37 7
31 -2 39 -23 18 -15 -15 -15 -4 -2 41 8 30 7 37 -13 55 -55 50 -56 50 -77 31
-25 -22 -26 -42 -2 -48 13 -3 11 -6 -10 -15 -22 -9 -28 -18 -28 -43 l0 -32
-30 29 -29 29 24 18 c54 40 13 49 -74 17 -59 -21 -75 -19 -66 11 4 13 -2 30
-19 50 -14 17 -26 36 -26 42 1 32 14 57 31 57 25 0 32 -16 19 -41 -17 -31 5
-81 34 -77 13 2 21 10 21 22 0 10 9 22 20 26 29 11 40 27 64 90 26 67 26 82 2
111 -14 18 -16 30 -10 58 18 77 7 152 -25 173 -17 12 -23 10 -38 -14z m52
-238 c0 -5 -5 -10 -11 -10 -5 0 -7 5 -4 10 3 6 8 10 11 10 2 0 4 -4 4 -10z
m-100 -24 c0 -3 -4 -8 -10 -11 -5 -3 -10 -1 -10 4 0 6 5 11 10 11 6 0 10 -2
10 -4z m80 -72 c0 -15 -9 -17 -34 -8 -21 8 -20 22 2 27 22 5 32 -1 32 -19z
m120 -294 c0 -5 -4 -10 -10 -10 -5 0 -10 5 -10 10 0 6 5 10 10 10 6 0 10 -4
10 -10z m-10 -67 c-1 -14 -30 -47 -36 -41 -8 8 14 48 26 48 6 0 10 -3 10 -7z"/>
<path d="M822 1878 c5 -32 28 -35 28 -4 0 17 -5 26 -16 26 -10 0 -14 -7 -12
-22z"/>
<path d="M900 1821 c0 -20 27 -48 37 -37 9 8 -14 56 -27 56 -5 0 -10 -8 -10
-19z"/>
<path d="M1190 1818 c0 -7 18 -49 39 -93 22 -44 42 -87 44 -95 4 -12 15 -15
47 -12 39 4 41 6 35 31 -7 27 -47 80 -109 144 -38 38 -56 46 -56 25z"/>
<path d="M3791 1811 c-14 -25 -14 -125 0 -173 10 -39 41 -57 75 -44 18 7 18
11 -18 145 -24 87 -39 106 -57 72z"/>
<path d="M4708 1737 c-16 -13 -28 -26 -28 -29 0 -4 16 -12 36 -18 45 -15 70 3
60 44 -8 32 -32 33 -68 3z"/>
<path d="M3662 1684 c-41 -37 -62 -63 -62 -78 0 -13 -9 -31 -20 -41 -11 -10
-20 -22 -20 -27 0 -5 -29 -38 -65 -74 -36 -36 -65 -70 -65 -75 0 -20 30 -20
56 0 20 16 31 18 45 10 27 -14 24 -31 -5 -23 -18 4 -31 -3 -59 -31 -38 -39
-38 -62 -1 -83 9 -5 17 -13 17 -18 3 -12 28 -5 50 13 24 22 21 33 -7 33 -23 0
-24 2 -13 30 13 34 22 37 36 13 8 -15 13 -16 28 -7 10 7 17 21 16 31 -2 14 9
25 32 36 29 14 35 22 35 47 0 40 20 87 55 128 24 29 28 43 28 93 0 33 -4 64
-9 69 -7 7 -32 -9 -72 -46z"/>
<path d="M1188 1693 c0 -10 -1 -51 -2 -90 -1 -69 0 -73 21 -73 25 0 39 15 23
25 -8 5 -6 12 4 24 12 14 13 24 4 61 -11 47 -24 70 -39 70 -5 0 -10 -8 -11
-17z"/>
<path d="M2194 1698 c-9 -14 -20 -78 -30 -164 -5 -42 -11 -54 -30 -63 -13 -6
-25 -16 -25 -23 -8 -80 -23 -113 -50 -116 -18 -2 -35 -17 -54 -47 -15 -25 -34
-50 -42 -56 -11 -10 -11 -15 4 -31 17 -19 15 -21 -41 -70 l-58 -51 24 -18 c12
-10 31 -19 40 -19 11 0 15 -5 12 -15 -4 -8 -15 -15 -26 -15 -11 0 -22 -8 -25
-20 -3 -11 -12 -20 -20 -20 -11 0 -11 4 -3 21 13 23 5 70 -13 81 -8 5 -1 22
21 54 34 48 36 70 4 41 -19 -17 -42 -23 -42 -11 0 4 17 21 37 39 36 31 37 34
24 59 -11 20 -12 31 -3 51 17 37 15 47 -7 40 -16 -5 -18 -2 -14 15 11 41 -73
131 -109 117 -22 -8 -41 -82 -27 -105 15 -24 -25 -106 -76 -153 -40 -38 -42
-45 -16 -52 12 -3 19 -13 19 -28 0 -53 25 -117 49 -128 32 -15 33 -14 33 9 0
12 7 20 16 20 12 0 15 -6 10 -26 -8 -29 8 -54 32 -54 9 0 33 -12 54 -27 33
-22 42 -24 64 -15 34 16 44 15 44 -3 0 -18 43 -65 59 -65 5 0 16 12 23 27 7
14 24 35 38 45 24 17 28 18 58 3 44 -22 64 -16 87 28 15 27 17 41 10 53 -15
24 -29 19 -33 -11 -3 -21 -8 -25 -38 -25 -33 0 -45 12 -24 25 6 3 10 14 10 25
0 10 7 20 15 24 20 7 19 32 -2 41 -25 9 -73 -46 -73 -85 0 -35 1 -34 -33 -17
-20 11 -23 17 -15 25 19 19 -5 37 -31 23 -24 -14 -27 -4 -6 23 8 11 15 28 15
38 0 10 5 18 10 18 6 0 10 -6 10 -13 0 -19 20 -36 36 -30 8 3 14 14 14 25 0
11 11 34 25 52 14 18 25 39 25 47 0 8 10 34 21 59 26 58 19 107 -17 120 -28
11 -23 30 8 30 11 0 22 -8 25 -20 9 -35 26 -22 20 14 -3 19 1 72 9 118 20 112
6 231 -22 186z m-124 -409 c0 -11 -4 -17 -10 -14 -5 3 -10 13 -10 21 0 8 5 14
10 14 6 0 10 -9 10 -21z m-20 -94 c0 -30 -4 -55 -10 -55 -11 0 -14 93 -3 103
12 12 13 8 13 -48z"/>
<path d="M960 1600 c0 -5 7 -10 15 -10 8 0 15 5 15 10 0 6 -7 10 -15 10 -8 0
-15 -4 -15 -10z"/>
<path d="M1585 1590 c-4 -11 -3 -35 0 -53 10 -46 65 -147 81 -147 17 0 44 52
44 85 0 80 -105 177 -125 115z"/>
<path d="M4285 1590 c4 -6 11 -8 16 -5 14 9 11 15 -7 15 -8 0 -12 -5 -9 -10z"/>
<path d="M1290 1575 c0 -8 7 -15 15 -15 9 0 12 6 9 15 -4 8 -10 15 -15 15 -5
0 -9 -7 -9 -15z"/>
<path d="M2913 1565 c-10 -29 6 -89 29 -108 l23 -18 -27 7 c-20 4 -29 1 -37
-15 -8 -13 -8 -22 -1 -26 6 -4 8 -21 4 -42 l-7 -36 39 8 c56 10 67 21 50 54
-10 19 -11 30 -3 43 8 13 5 25 -16 57 -21 31 -24 41 -12 41 20 0 19 13 -3 33
-23 21 -31 21 -39 2z"/>
<path d="M4230 1570 c0 -5 5 -10 10 -10 6 0 10 5 10 10 0 6 -4 10 -10 10 -5 0
-10 -4 -10 -10z"/>
<path d="M3800 1550 c0 -11 -4 -20 -8 -20 -12 0 -35 -136 -28 -165 5 -19 -3
-32 -46 -70 -56 -50 -54 -50 -72 8 -5 15 -9 16 -26 7 -24 -13 -26 -35 -4 -44
10 -4 13 -13 9 -26 -5 -16 -2 -20 14 -20 25 0 101 39 101 52 0 5 16 16 35 24
20 8 41 26 47 39 6 14 22 32 35 40 21 14 23 22 23 99 0 90 -4 96 -56 96 -17 0
-24 -6 -24 -20z"/>
<path d="M4200 1554 c0 -8 5 -12 10 -9 6 4 8 11 5 16 -9 14 -15 11 -15 -7z"/>
<path d="M4300 1555 c0 -17 2 -18 24 -9 18 7 12 24 -10 24 -8 0 -14 -7 -14
-15z"/>
<path d="M3447 1541 c-40 -26 -43 -31 -27 -41 11 -7 12 -12 3 -21 -8 -8 -17
-7 -37 6 -23 16 -26 16 -26 1 0 -21 45 -50 62 -40 22 14 39 28 69 58 23 22 27
32 18 42 -15 18 -27 17 -62 -5z"/>
<path d="M1492 1530 c-27 -26 -28 -40 -2 -40 16 0 20 -7 20 -34 0 -39 -14 -53
-35 -36 -12 10 -18 10 -30 0 -8 -6 -23 -9 -35 -5 -60 19 21 -143 102 -203 26
-20 48 -42 48 -49 0 -18 -19 -16 -27 2 -3 9 -23 25 -45 36 -27 14 -51 39 -76
80 -38 60 -37 60 -109 63 -9 1 -18 -5 -20 -11 -3 -9 6 -13 26 -13 31 0 43 -21
21 -35 -18 -11 -10 -25 15 -25 19 0 26 -7 31 -27 13 -56 71 -92 100 -63 8 8
15 6 24 -5 10 -12 10 -18 -1 -31 -11 -14 -10 -15 10 -12 17 2 36 -9 69 -42 38
-38 47 -42 50 -27 2 11 -8 31 -22 46 -26 27 -26 29 -12 72 8 24 18 62 22 84 4
22 13 53 21 69 14 26 13 32 -18 90 -51 95 -78 136 -92 136 -7 0 -23 -9 -35
-20z m35 -167 c7 -15 10 -29 7 -32 -7 -8 -34 29 -34 46 0 22 14 15 27 -14z"/>
<path d="M4255 1530 c-3 -5 1 -10 9 -10 8 0 18 5 21 10 3 6 -1 10 -9 10 -8 0
-18 -4 -21 -10z"/>
<path d="M3227 1512 c-29 -12 -37 -20 -35 -36 4 -27 39 -32 72 -10 29 19 31
24 14 46 -12 14 -17 14 -51 0z"/>
<path d="M3916 1515 c-13 -36 -18 -122 -7 -129 15 -10 34 39 35 93 1 44 -16
66 -28 36z"/>
<path d="M3707 1513 c-4 -3 -7 -39 -7 -80 0 -55 3 -73 14 -73 9 0 15 19 19 58
8 78 -3 119 -26 95z"/>
<path d="M3976 1415 c-14 -36 -26 -74 -26 -86 0 -33 30 -81 46 -75 8 3 14 -1
14 -9 0 -21 14 -19 35 5 12 13 28 19 48 17 30 -2 31 0 49 67 10 38 17 75 14
82 -4 10 -128 64 -148 64 -3 0 -18 -29 -32 -65z"/>
<path d="M3852 1344 c-29 -20 -28 -34 2 -34 26 0 51 24 41 40 -8 14 -17 13
-43 -6z"/>
<path d="M2998 1333 c-35 -22 -53 -60 -37 -79 7 -8 9 -17 5 -21 -3 -3 -28 18
-55 47 -56 61 -59 61 -113 -17 -24 -35 -27 -47 -18 -58 7 -8 21 -15 32 -15 22
0 60 -18 69 -33 4 -6 22 -7 45 -2 22 4 57 8 78 9 39 1 40 1 42 44 2 39 0 42
-24 42 -26 0 -26 0 -5 15 11 8 26 28 31 44 16 45 -2 53 -50 24z m-128 -93 c0
-5 -4 -10 -10 -10 -5 0 -10 5 -10 10 0 6 5 10 10 10 6 0 10 -4 10 -10z"/>
<path d="M4240 1340 c0 -5 7 -10 15 -10 8 0 15 5 15 10 0 6 -7 10 -15 10 -8 0
-15 -4 -15 -10z"/>
<path d="M1677 1333 c-10 -10 -8 -53 2 -53 10 0 21 24 21 46 0 15 -12 19 -23
7z"/>
<path d="M3660 1325 c0 -15 26 -32 36 -23 2 3 2 13 -2 22 -8 20 -34 21 -34 1z"/>
<path d="M4380 1275 c0 -17 5 -25 13 -22 6 2 12 12 12 22 0 10 -6 20 -12 23
-8 2 -13 -6 -13 -23z"/>
<path d="M1073 1283 c-23 -9 -14 -31 17 -42 25 -8 32 -7 37 4 13 34 -16 54
-54 38z"/>
<path d="M1181 1277 c-21 -27 -9 -52 27 -55 38 -4 40 3 9 42 -20 25 -24 26
-36 13z"/>
<path d="M2200 1265 c-13 -35 -13 -45 4 -45 19 0 38 26 34 46 -5 28 -27 28
-38 -1z"/>
<path d="M3823 1267 c-34 -12 -70 -30 -81 -40 -13 -12 -28 -16 -44 -12 -18 5
-33 -1 -54 -18 -21 -18 -37 -24 -57 -20 -29 6 -37 -13 -15 -35 16 -16 -5 -17
-33 -1 -28 15 -51 4 -76 -36 -29 -44 -29 -53 2 -47 22 4 25 1 25 -22 0 -39 43
-35 91 9 22 19 44 35 50 35 7 0 40 -18 74 -39 76 -48 93 -46 165 20 29 27 57
49 62 49 4 0 8 23 8 50 0 57 -18 74 -49 46 -12 -11 -21 -13 -25 -7 -4 6 7 17
24 26 21 11 30 23 30 40 0 31 -14 31 -97 2z m-28 -87 c-3 -5 -12 -10 -18 -10
-7 0 -6 4 3 10 19 12 23 12 15 0z m-110 -10 c3 -5 1 -10 -4 -10 -6 0 -11 5
-11 10 0 6 2 10 4 10 3 0 8 -4 11 -10z"/>
<path d="M3090 1240 c0 -5 7 -10 15 -10 8 0 15 5 15 10 0 6 -7 10 -15 10 -8 0
-15 -4 -15 -10z"/>
<path d="M3576 1232 c-3 -6 -1 -14 5 -17 15 -10 25 3 12 16 -7 7 -13 7 -17 1z"/>
<path d="M2180 1190 c0 -5 7 -10 15 -10 8 0 15 5 15 10 0 6 -7 10 -15 10 -8 0
-15 -4 -15 -10z"/>
<path d="M3100 1191 c0 -15 29 -33 45 -27 22 8 6 36 -21 36 -13 0 -24 -4 -24
-9z"/>
<path d="M1325 1171 c-3 -5 -1 -12 5 -16 5 -3 10 1 10 9 0 18 -6 21 -15 7z"/>
<path d="M2146 1155 c-4 -12 -1 -16 11 -13 18 3 21 20 5 26 -5 1 -12 -4 -16
-13z"/>
<path d="M2262 1148 c-8 -8 -9 -15 -1 -25 16 -19 29 -16 29 6 0 25 -13 34 -28
19z"/>
<path d="M2203 1104 c-3 -8 1 -23 10 -32 15 -14 17 -14 23 1 8 21 -1 47 -16
47 -6 0 -13 -7 -17 -16z"/>
<path d="M1435 1010 c3 -5 8 -10 11 -10 2 0 4 5 4 10 0 6 -5 10 -11 10 -5 0
-7 -4 -4 -10z"/>
<path d="M1606 1002 c-3 -6 -1 -14 5 -17 15 -10 25 3 12 16 -7 7 -13 7 -17 1z"/>
<path d="M1475 980 c3 -5 10 -10 16 -10 5 0 9 5 9 10 0 6 -7 10 -16 10 -8 0
-12 -4 -9 -10z"/>
<path d="M1660 978 c0 -24 52 -77 87 -89 21 -7 60 -22 87 -35 71 -33 77 -18 9
22 -32 19 -62 41 -68 48 -15 19 -88 66 -102 66 -7 0 -13 -5 -13 -12z"/>
<path d="M2990 961 c-16 -30 -12 -53 8 -49 11 2 18 14 20 36 4 35 -12 43 -28
13z"/>
<path d="M3260 944 c-7 -18 -7 -31 -1 -37 15 -15 43 12 39 36 -5 31 -27 32
-38 1z"/>
<path d="M2290 906 c0 -8 4 -17 9 -20 10 -7 23 19 14 28 -11 11 -23 6 -23 -8z"/>
<path d="M2090 855 c0 -30 20 -41 49 -25 28 14 26 24 -4 38 -38 17 -45 15 -45
-13z"/>
<path d="M2375 860 c-7 -12 12 -40 27 -40 13 0 6 43 -9 47 -6 2 -14 -1 -18 -7z"/>
<path d="M1975 780 c3 -5 10 -10 16 -10 5 0 9 5 9 10 0 6 -7 10 -16 10 -8 0
-12 -4 -9 -10z"/>
<path d="M2034 755 c22 -17 46 -20 46 -6 0 10 -25 21 -48 21 -15 -1 -14 -3 2
-15z"/>
</g>
</svg>
