<?xml version="1.0" standalone="no"?>
<!DOCTYPE svg PUBLIC "-//W3C//DTD SVG 20010904//EN"
 "http://www.w3.org/TR/2001/REC-SVG-20010904/DTD/svg10.dtd">
<svg version="1.0" xmlns="http://www.w3.org/2000/svg"
 width="978.000000pt" height="964.000000pt" viewBox="0 0 978.000000 964.000000"
 preserveAspectRatio="xMidYMid meet">
<metadata>
Created by potrace 1.16, written by Peter Selinger 2001-2019
</metadata>
<g transform="translate(0.000000,964.000000) scale(0.100000,-0.100000)"
fill="#000000" stroke="none">
<path d="M6503 9021 c-56 -14 -122 -68 -123 -98 0 -14 -9 -16 -52 -13 -14 1
-56 -13 -93 -30 -79 -37 -201 -154 -280 -270 -27 -40 -66 -91 -86 -112 l-37
-40 -7 -232 c-8 -268 -10 -259 82 -382 29 -39 53 -81 53 -93 0 -13 -19 -42
-45 -69 -25 -25 -45 -51 -45 -58 0 -7 33 -13 93 -17 91 -6 92 -6 121 -42 31
-39 73 -65 106 -65 21 0 27 14 9 25 -5 4 -21 30 -33 58 -23 50 -30 70 -59 167
-12 41 -17 45 -48 48 -49 5 -79 37 -79 84 0 41 6 46 36 23 36 -27 44 -19 44
49 0 63 19 137 59 229 16 36 23 79 27 165 3 65 11 131 16 147 19 52 74 109
132 139 54 27 56 30 56 67 0 40 16 53 26 22 8 -22 62 -161 74 -188 74 -167 97
-205 127 -205 9 0 5 17 -16 58 -70 135 -114 267 -83 248 7 -4 12 -16 12 -26 0
-33 66 -162 109 -213 80 -96 226 -193 338 -225 49 -15 98 -52 119 -93 8 -16
21 -68 30 -116 13 -78 13 -94 -1 -155 -15 -65 -42 -126 -71 -159 -16 -17 -18
-45 -6 -53 5 -3 24 10 42 29 41 43 54 44 47 5 -8 -37 5 -46 28 -20 17 18 22
35 24 81 1 8 22 39 47 69 100 117 130 236 120 470 -6 157 -19 222 -60 296 -69
126 -225 299 -368 407 -83 63 -294 111 -385 88z"/>
<path d="M2495 8920 c-116 -29 -188 -61 -265 -118 -69 -51 -160 -145 -184
-191 -65 -126 -128 -222 -171 -261 -59 -55 -67 -87 -62 -254 11 -314 25 -500
42 -533 19 -38 72 -86 123 -112 46 -23 110 -42 116 -33 2 4 7 48 11 97 6 74 5
88 -6 78 -7 -7 -32 -13 -55 -13 -47 0 -86 25 -109 70 -33 64 -6 110 66 110 19
0 38 2 41 5 3 3 -1 38 -8 78 -8 40 -14 78 -14 85 0 21 23 8 40 -22 23 -43 35
-33 38 34 3 60 22 86 22 31 0 -37 18 -50 25 -19 3 13 9 41 14 63 5 22 9 32 10
23 1 -10 8 -18 17 -18 10 0 29 29 51 80 39 85 54 100 30 28 -26 -77 -30 -109
-14 -102 8 3 23 21 33 40 20 37 39 40 39 7 0 -12 3 -24 6 -28 8 -7 49 47 49
64 0 20 19 11 22 -11 2 -12 8 -23 15 -25 16 -6 81 53 110 101 23 36 27 38 39
22 7 -10 10 -31 7 -51 -13 -78 38 -41 93 68 19 37 36 67 37 67 4 0 -5 -66 -18
-139 -11 -61 9 -52 60 26 51 78 65 80 65 8 0 -48 2 -55 20 -55 11 0 29 14 42
30 26 36 40 38 38 8 -5 -54 15 -66 43 -25 l16 22 0 -22 c1 -20 6 -23 46 -23
25 0 45 -4 45 -9 0 -18 34 -22 46 -6 11 15 14 14 29 -9 14 -21 25 -26 59 -26
44 0 71 -18 99 -62 34 -55 17 -252 -37 -423 -23 -72 -21 -81 9 -61 13 9 28 16
32 16 15 0 -55 -64 -103 -92 -48 -29 -51 -34 -63 -92 -7 -33 -15 -71 -18 -83
-9 -39 15 -26 83 45 97 98 181 231 234 367 50 127 64 257 52 466 l-10 166 -39
64 c-22 35 -55 91 -73 124 -53 97 -127 191 -199 250 -74 63 -194 127 -267 144
-235 57 -284 60 -399 31z"/>
<path d="M4616 8905 c-52 -28 -109 -33 -228 -20 -90 9 -112 0 -152 -64 -15
-23 -42 -47 -68 -60 -40 -19 -55 -20 -155 -14 -103 6 -113 4 -147 -16 -35 -22
-56 -48 -56 -70 0 -16 32 -13 54 4 30 22 48 18 89 -19 58 -53 43 -96 -32 -96
-22 0 -45 -13 -83 -47 -63 -55 -63 -56 -42 -77 19 -20 12 -46 -14 -46 -21 0
-42 -18 -42 -38 0 -8 9 -27 20 -42 32 -45 29 -90 -10 -144 -38 -53 -60 -59
-60 -17 0 16 -7 34 -15 41 -13 11 -18 10 -30 -6 -23 -31 -27 -51 -16 -91 6
-21 11 -55 11 -76 l0 -39 38 6 c41 6 64 -7 97 -57 16 -25 16 -29 1 -46 -23
-25 -20 -40 20 -101 45 -70 74 -125 74 -143 0 -20 -33 -47 -58 -47 -12 0 -23
8 -27 21 -7 20 -35 23 -42 4 -1 -5 6 -25 17 -42 17 -29 25 -33 64 -33 47 0 64
-18 50 -54 -3 -9 -1 -23 6 -31 20 -24 56 -18 80 13 l22 27 -7 -56 c-9 -71 4
-99 46 -99 20 0 37 9 53 27 13 15 28 23 34 19 17 -10 15 -36 -3 -42 -21 -8
-19 -60 2 -68 10 -4 27 1 43 12 36 28 31 73 -23 224 -7 22 -14 27 -32 22 -26
-6 -33 2 -119 144 -65 107 -79 148 -50 140 49 -14 49 -14 50 22 2 64 2 64 20
49 8 -7 28 -41 44 -76 44 -96 53 -84 49 65 l-4 127 28 -3 c27 -3 27 -2 27 58
l0 60 46 -35 c68 -52 85 -28 39 54 -14 23 -25 45 -25 47 0 11 25 1 55 -22 50
-38 114 -55 161 -43 45 12 59 22 98 69 39 48 83 72 108 59 11 -6 57 -48 103
-95 75 -76 115 -102 115 -74 0 6 -14 35 -31 65 -38 67 -34 93 5 37 41 -60 66
-73 134 -70 47 2 66 -3 98 -22 79 -50 83 -60 84 -201 0 -100 3 -129 15 -139
13 -11 13 -17 -6 -47 -18 -29 -20 -43 -14 -98 l7 -65 -34 0 c-48 0 -57 -10
-74 -79 -15 -65 -51 -149 -91 -214 -28 -44 -24 -67 9 -67 50 0 109 56 78 75
-15 9 -12 58 5 82 9 13 31 25 53 29 46 8 61 20 55 42 -2 10 5 26 16 36 12 11
21 27 21 36 0 13 12 20 47 25 71 10 119 33 154 73 l31 36 -6 91 c-6 83 -5 93
14 118 42 53 79 24 53 -41 -13 -32 -10 -72 6 -72 18 0 39 38 50 90 7 30 17 69
23 85 18 50 21 104 8 135 -15 36 -1 60 35 60 23 0 55 28 55 48 0 6 -11 28 -25
49 -31 45 -31 89 0 86 42 -5 65 6 65 34 0 19 -19 44 -71 96 -39 38 -74 80 -79
93 -14 36 -51 54 -132 63 -87 10 -120 25 -173 81 -38 39 -42 41 -85 35 -140
-18 -156 -18 -196 8 -51 32 -65 49 -104 124 -39 75 -76 118 -114 132 -40 16
-58 14 -110 -14z"/>
<path d="M865 8910 c-16 -5 -50 -14 -74 -20 -188 -47 -359 -206 -450 -420 -56
-130 -94 -347 -89 -505 l3 -100 75 -37 c78 -39 130 -48 149 -24 14 17 15 42 5
163 l-7 92 31 28 c28 26 30 34 34 113 7 134 29 162 233 288 140 88 182 102
294 102 112 0 172 -19 253 -82 174 -133 225 -229 238 -448 11 -181 28 -359 36
-372 9 -13 52 29 72 72 23 47 25 385 3 440 -16 40 -76 165 -94 195 -84 139
-272 388 -321 423 -89 64 -170 93 -270 98 -50 2 -104 -1 -121 -6z"/>
<path d="M9007 8903 c-4 -3 -7 -48 -7 -98 0 -130 -11 -275 -22 -275 -5 0 -48
24 -96 53 -91 55 -211 104 -318 131 -132 34 -454 13 -646 -42 -37 -11 -70 -17
-72 -14 -3 2 0 14 6 26 14 25 17 174 3 178 -14 4 -52 -69 -59 -116 -15 -93
-25 -115 -70 -145 -93 -64 -131 -157 -86 -213 29 -37 47 -36 21 1 -45 63 -15
143 70 183 58 28 219 80 309 100 276 61 570 35 752 -66 62 -35 279 -192 341
-247 46 -41 55 -54 46 -65 -15 -18 -49 -18 -49 0 0 36 -219 200 -335 251 -147
65 -252 88 -375 82 -415 -21 -625 -95 -685 -240 -18 -45 -21 -47 -187 -122
-51 -23 -55 -41 -12 -55 49 -16 43 -36 -13 -45 -27 -4 -63 -18 -81 -32 -30
-22 -33 -30 -28 -57 4 -17 14 -36 22 -43 13 -9 15 -21 9 -50 -4 -21 -12 -44
-17 -51 -15 -18 -1 -27 17 -12 28 24 45 68 45 118 0 58 19 83 46 61 17 -14 17
-19 -16 -134 -17 -57 -23 -108 -24 -180 -1 -89 1 -103 22 -132 13 -18 42 -41
65 -52 43 -19 87 -55 87 -71 0 -42 -103 -59 -142 -23 -17 16 -20 16 -36 0 -31
-32 -5 -51 77 -58 91 -7 107 -21 55 -47 -22 -11 -60 -31 -85 -44 -26 -14 -71
-33 -100 -44 -68 -23 -76 -30 -51 -43 25 -13 68 1 189 61 46 22 85 39 87 37 5
-5 9 -47 7 -71 -1 -9 -14 -21 -30 -26 -16 -6 -37 -22 -47 -37 -20 -30 -12 -54
37 -116 16 -20 29 -41 29 -45 0 -5 18 -36 41 -69 86 -127 169 -151 287 -81
107 64 126 113 89 230 -14 44 -51 162 -83 261 -31 99 -74 217 -96 261 -21 45
-45 104 -53 130 -19 64 -19 177 0 214 18 34 65 70 93 70 34 0 35 17 3 64 -28
40 -40 76 -26 76 3 0 19 -10 35 -22 38 -28 48 -17 27 27 -20 42 -22 78 -5 73
7 -3 24 -25 38 -50 14 -26 28 -50 32 -53 16 -16 55 7 76 44 25 45 28 78 8 107
-40 57 -22 154 29 154 29 0 30 -4 10 -60 -28 -80 27 -115 60 -37 12 28 19 36
22 25 5 -19 -22 -72 -72 -142 -42 -58 -44 -91 -7 -139 55 -73 77 -60 68 40
l-6 74 40 50 c42 53 56 88 46 114 -8 23 12 18 24 -6 19 -34 2 -98 -36 -137
-21 -22 -31 -40 -27 -50 17 -48 53 -58 53 -14 0 26 18 60 47 90 6 7 17 39 24
72 13 69 36 95 74 86 42 -11 32 -45 -28 -101 -74 -69 -94 -113 -68 -154 7 -11
12 -4 22 27 12 43 59 97 78 91 7 -3 1 -19 -14 -41 -42 -61 -32 -80 16 -30 51
52 64 47 21 -7 -51 -63 -39 -86 14 -28 35 38 59 81 51 94 -3 5 -2 15 4 23 15
25 11 -33 -6 -73 -8 -20 -26 -46 -39 -59 -29 -29 -40 -58 -22 -58 7 0 31 13
54 29 33 24 43 41 57 88 17 57 16 72 -12 143 -5 12 -2 11 13 -2 11 -10 41 -60
68 -113 27 -52 54 -95 62 -95 7 0 21 14 30 31 12 25 14 37 5 56 -6 13 -11 32
-11 41 1 28 38 -27 46 -67 6 -28 2 -37 -20 -57 -14 -14 -26 -28 -26 -32 0 -18
27 -32 62 -32 37 0 38 -1 38 -34 0 -25 7 -40 26 -55 24 -19 25 -21 10 -43 -27
-38 -21 -75 15 -93 46 -24 63 -16 69 30 4 32 9 41 28 43 29 4 52 -14 52 -42 0
-12 -13 -59 -30 -103 -40 -112 -46 -165 -25 -242 16 -55 16 -67 4 -104 -10
-30 -14 -98 -14 -242 0 -185 2 -204 22 -248 14 -30 31 -51 48 -57 15 -6 77
-10 138 -10 124 0 197 22 197 57 1 21 23 53 37 53 6 0 16 -6 22 -14 14 -16 81
-17 81 -2 0 6 -12 31 -25 55 -29 51 -44 100 -55 188 -5 42 -15 73 -32 95 -14
18 -31 56 -38 84 l-13 51 46 94 c103 211 114 325 37 407 l-22 24 32 33 c18 18
29 38 26 44 -12 20 -43 12 -54 -14 -25 -54 -53 -15 -45 62 7 61 -6 83 -47 83
-27 0 -28 -2 -23 -39 4 -30 2 -39 -12 -45 -26 -10 -32 -1 -38 64 -6 70 -29
105 -57 90 -25 -13 -29 -4 -18 43 14 62 4 156 -27 239 -53 141 -100 243 -128
275 -30 34 -38 38 -50 26z"/>
<path d="M7095 6755 c-108 -30 -191 -94 -229 -175 -18 -39 -21 -64 -21 -195 0
-128 3 -158 20 -195 29 -69 99 -157 194 -245 296 -276 294 -274 295 -441 1
-131 -9 -156 -65 -173 -31 -9 -45 -9 -72 3 -19 8 -38 20 -43 27 -5 8 -11 79
-14 159 l-5 145 -162 3 -163 2 0 -140 c0 -279 69 -367 318 -406 93 -14 111
-14 205 0 154 24 262 89 310 185 27 54 40 155 35 271 -4 98 -8 115 -38 176
-34 69 -74 113 -323 354 -128 123 -160 174 -165 257 -6 84 5 150 29 174 23 23
105 26 135 5 17 -13 19 -30 22 -170 l3 -156 166 0 165 0 -4 163 c-4 154 -5
164 -32 212 -48 88 -100 129 -205 161 -60 18 -288 17 -356 -1z"/>
<path d="M1677 6753 c-4 -3 -7 -367 -7 -809 0 -722 2 -802 16 -808 31 -12 299
-7 312 6 9 9 12 112 12 400 l0 388 200 0 201 0 -3 108 -3 107 -197 3 -198 2 0
200 0 200 200 0 201 0 -3 103 -3 102 -361 3 c-198 1 -363 -1 -367 -5z"/>
<path d="M2515 6748 c-3 -7 -4 -373 -3 -813 l3 -800 140 -3 c77 -1 150 0 163
3 l22 5 0 420 c0 231 4 420 8 420 4 0 13 -24 19 -52 6 -29 18 -82 27 -118 9
-36 21 -83 26 -105 5 -22 23 -94 40 -160 17 -66 38 -147 45 -180 28 -124 43
-181 53 -207 l12 -28 155 0 c127 0 157 3 161 15 3 8 -5 49 -19 92 -14 43 -35
112 -47 153 -12 41 -33 109 -45 150 -13 41 -38 122 -56 180 -17 58 -41 137
-54 175 -19 60 -20 70 -7 74 9 2 38 15 65 30 38 21 58 40 81 82 l31 54 0 225
c0 211 -1 227 -22 265 -40 76 -91 107 -200 124 -104 16 -592 15 -598 -1z m455
-213 c39 -20 50 -64 50 -200 0 -179 -21 -216 -122 -219 l-53 -1 -3 218 -2 217
50 0 c28 0 64 -7 80 -15z"/>
<path d="M3513 6753 c-10 -4 -13 -175 -13 -808 0 -723 2 -803 16 -809 31 -12
299 -7 312 6 9 9 12 202 12 809 0 717 -2 797 -16 803 -19 7 -293 7 -311 -1z"/>
<path d="M4015 6748 c-3 -7 -4 -373 -3 -813 l3 -800 365 0 365 0 3 108 3 107
-206 0 -205 0 2 288 3 287 203 3 203 2 -3 108 -3 107 -202 3 -203 2 0 200 0
200 203 2 202 3 0 100 0 100 -363 3 c-285 2 -364 0 -367 -10z"/>
<path d="M4893 6753 c-20 -8 -19 -1596 1 -1612 9 -8 57 -11 147 -9 l134 3 0
483 c0 509 -2 494 35 324 5 -24 12 -47 15 -52 3 -5 10 -28 15 -52 5 -24 16
-70 24 -103 9 -33 22 -87 30 -120 28 -120 87 -351 102 -399 7 -26 14 -54 14
-62 0 -21 33 -25 165 -22 l120 3 0 810 0 810 -125 3 c-69 1 -136 0 -149 -3
l-24 -6 5 -477 c6 -511 8 -494 -37 -312 -7 30 -27 109 -45 175 -34 129 -43
162 -60 240 -6 28 -15 58 -20 67 -6 10 -10 26 -10 37 0 10 -6 41 -14 67 -40
139 -46 162 -46 181 0 12 -7 24 -16 27 -19 7 -243 7 -261 -1z"/>
<path d="M5867 6753 c-10 -10 -8 -1596 2 -1612 14 -22 514 -10 596 14 130 39
188 97 219 218 23 96 24 1067 0 1159 -49 189 -150 228 -600 228 -116 0 -214
-3 -217 -7z m449 -222 c21 -13 33 -30 38 -51 3 -18 6 -260 6 -537 0 -428 -2
-510 -15 -537 -19 -39 -40 -53 -99 -61 l-46 -7 0 606 0 606 43 0 c24 0 55 -8
73 -19z"/>
<path d="M4152 4654 c-140 -31 -223 -103 -268 -234 -18 -52 -19 -92 -19 -675
0 -573 1 -625 18 -680 53 -171 179 -249 402 -248 222 1 344 79 398 253 16 51
17 113 15 690 l-3 635 -31 65 c-35 76 -108 146 -175 171 -106 39 -224 47 -337
23z m197 -250 c21 -26 21 -34 21 -656 0 -700 2 -681 -64 -694 -40 -7 -76 2
-93 25 -9 12 -12 170 -13 668 l0 652 22 15 c12 9 41 16 64 16 34 0 47 -5 63
-26z"/>
<path d="M2877 4633 c-4 -3 -7 -409 -7 -900 l0 -894 298 3 c273 4 301 6 347
25 111 47 169 130 186 269 6 50 9 316 7 671 l-4 588 -23 58 c-42 102 -114 150
-255 173 -84 14 -537 20 -549 7z m427 -237 c69 -29 66 4 66 -648 0 -357 -4
-597 -10 -612 -14 -38 -67 -67 -115 -64 l-40 3 -3 668 -2 667 35 0 c20 0 51
-6 69 -14z"/>
<path d="M4867 4634 c-4 -4 -7 -409 -7 -901 l0 -893 151 0 152 0 -6 508 c-4
279 -9 523 -12 542 -4 32 -3 31 6 -5 5 -22 14 -56 19 -75 9 -34 22 -90 55
-240 18 -82 42 -185 55 -240 5 -19 16 -69 25 -110 20 -94 42 -187 60 -265 8
-33 16 -71 17 -85 l3 -25 148 -3 147 -3 -2 898 -3 898 -145 0 -145 0 0 -475
c0 -261 3 -511 7 -555 9 -101 1 -76 -58 180 -20 88 -28 123 -49 210 -9 39 -23
97 -30 130 -8 33 -21 92 -30 130 -25 105 -32 134 -49 210 -9 39 -22 93 -29
120 l-13 50 -130 3 c-72 1 -133 -1 -137 -4z"/>
<path d="M5827 4633 c-4 -3 -7 -64 -7 -134 0 -144 -3 -139 86 -139 38 0 54 -4
54 -13 0 -24 -41 -98 -75 -136 -19 -21 -35 -41 -35 -45 0 -3 32 -6 70 -6 70 0
71 0 115 44 75 75 88 118 93 289 l4 147 -149 0 c-82 0 -153 -3 -156 -7z"/>
<path d="M6210 4520 l0 -120 99 0 c55 0 106 -3 115 -6 14 -6 16 -84 16 -780
l0 -774 165 0 165 0 2 778 3 777 113 3 113 3 -3 117 -3 117 -392 3 -393 2 0
-120z"/>
<path d="M3950 1575 l0 -855 335 0 336 0 -3 113 -3 112 -172 3 -173 2 0 724
c0 399 -3 731 -6 740 -5 14 -29 16 -160 16 l-154 0 0 -855z"/>
<path d="M4700 1575 l0 -855 165 0 165 0 -2 853 -3 852 -162 3 -163 2 0 -855z"/>
<path d="M5197 2423 c-4 -3 -7 -388 -7 -855 l0 -848 355 0 356 0 -3 113 -3
112 -192 3 -193 2 0 305 0 305 195 0 195 0 0 110 0 110 -195 0 -195 0 2 213 3
212 193 3 192 2 0 110 0 110 -348 0 c-192 0 -352 -3 -355 -7z"/>
</g>
</svg>
