<?xml version="1.0" standalone="no"?>
<!DOCTYPE svg PUBLIC "-//W3C//DTD SVG 20010904//EN"
 "http://www.w3.org/TR/2001/REC-SVG-20010904/DTD/svg10.dtd">
<svg version="1.0" xmlns="http://www.w3.org/2000/svg"
 width="3000.000000pt" height="2400.000000pt" viewBox="0 0 3000.000000 2400.000000"
 preserveAspectRatio="xMidYMid meet">
<metadata>
Created by potrace 1.16, written by Peter Selinger 2001-2019
</metadata>
<g transform="translate(0.000000,2400.000000) scale(0.100000,-0.100000)"
fill="#000000" stroke="none">
<path d="M13806 20892 c-8 -16 -28 -83 -45 -148 -32 -128 -77 -246 -111 -294
-25 -35 -59 -56 -71 -43 -4 4 -12 89 -17 188 -7 128 -15 192 -27 223 -36 88
-59 36 -85 -184 -13 -117 -30 -172 -70 -228 -36 -50 -39 -70 -19 -145 10 -41
10 -58 1 -85 -7 -19 -16 -64 -21 -100 -4 -39 -14 -74 -24 -83 -15 -15 -18 -15
-41 0 -16 11 -28 30 -32 54 -10 53 3 559 17 681 6 56 9 105 6 108 -15 15 -49
-12 -72 -60 -28 -58 -45 -169 -45 -303 0 -123 -21 -158 -78 -129 -49 25 -85
91 -97 176 -10 68 -15 80 -34 80 -25 0 -45 -51 -38 -99 7 -54 64 -167 98 -194
15 -12 46 -53 69 -91 46 -76 130 -247 130 -264 0 -6 20 -72 45 -146 60 -178
70 -255 44 -344 -21 -71 -19 -134 5 -162 23 -26 27 -68 12 -105 -12 -27 -21
-35 -40 -35 -31 0 -34 25 -10 72 15 30 15 32 -2 45 -27 19 -45 16 -97 -17 -57
-36 -67 -37 -94 -7 -30 32 -108 155 -128 202 -25 57 -22 137 9 224 32 93 35
170 6 178 -43 11 -77 101 -90 243 -10 111 -16 130 -40 130 -25 0 -30 -18 -46
-173 -15 -154 -28 -191 -94 -279 l-43 -57 -33 25 c-46 36 -71 95 -78 187 -9
125 -34 146 -90 80 -70 -82 -88 -95 -124 -89 -46 7 -77 29 -112 79 -47 66 -70
87 -95 87 -52 0 -33 -55 47 -137 28 -28 61 -54 74 -57 12 -3 54 -40 93 -82 51
-56 77 -94 96 -143 15 -36 60 -116 101 -178 100 -150 117 -191 118 -278 1 -70
1 -70 -27 -71 -15 -1 -45 -15 -67 -33 -77 -62 -101 -61 -173 8 -56 52 -66 79
-73 183 -8 114 -31 174 -70 184 -37 9 -50 -11 -57 -93 -4 -36 -11 -71 -16 -76
-22 -22 -173 133 -207 210 -8 18 -13 53 -12 77 1 35 -5 55 -27 88 -26 39 -29
51 -27 116 2 60 -1 74 -14 79 -12 4 -26 -4 -46 -28 -16 -19 -51 -59 -77 -89
-26 -30 -55 -70 -65 -87 -10 -21 -24 -33 -36 -33 -30 0 -26 57 10 125 17 31
30 68 30 81 0 13 23 67 50 121 63 122 74 160 59 202 -13 36 -35 51 -78 51 -36
0 -38 -9 -15 -71 8 -24 13 -57 10 -74 -6 -32 -119 -170 -139 -170 -20 0 -56
79 -71 159 -9 42 -37 125 -63 184 -59 132 -63 193 -20 283 29 61 33 98 16 148
-15 43 -39 37 -57 -14 -8 -22 -20 -59 -28 -81 -8 -23 -28 -56 -44 -73 -17 -17
-30 -40 -30 -51 0 -11 17 -64 39 -117 21 -54 42 -116 46 -138 4 -22 18 -67 32
-100 22 -52 26 -76 27 -177 1 -125 -6 -145 -44 -133 -30 9 -88 62 -106 96 -18
35 -18 87 1 119 19 33 19 60 -1 60 -9 0 -64 -34 -122 -75 -143 -102 -143 -102
-210 -26 -29 33 -62 61 -71 61 -23 0 -41 -41 -41 -93 0 -62 -27 -156 -56 -194
-28 -37 -44 -41 -66 -15 -38 45 -104 263 -114 381 -7 77 -17 111 -34 111 -20
0 -32 -46 -46 -172 -8 -71 -19 -138 -24 -148 -5 -10 -25 -28 -44 -40 -59 -36
-65 -93 -21 -194 11 -27 17 -70 18 -140 2 -111 2 -109 -88 -245 -39 -59 -41
-60 -86 -60 -30 -1 -51 4 -59 15 -47 55 -80 36 -80 -47 0 -32 -4 -60 -9 -63
-48 -30 -86 119 -40 160 39 35 41 48 19 153 -11 54 -20 121 -20 148 0 77 34
192 109 373 38 91 72 176 76 188 4 13 36 60 72 105 81 100 121 165 139 224 17
55 6 100 -27 121 -32 20 -45 1 -64 -93 -18 -85 -52 -153 -92 -185 -29 -22 -48
-25 -59 -9 -3 6 -12 92 -19 191 -12 158 -16 186 -39 233 -27 55 -53 75 -68 53
-4 -7 -6 -24 -2 -38 20 -83 26 -173 26 -400 1 -266 -6 -319 -44 -372 -11 -16
-26 -28 -33 -28 -17 0 -23 41 -31 240 -5 139 -8 159 -30 197 -33 58 -73 211
-80 313 -8 103 -17 130 -43 130 -26 0 -41 -29 -41 -77 0 -21 -9 -51 -20 -68
-26 -39 -26 -119 -1 -178 30 -70 7 -132 -42 -110 -22 10 -33 25 -110 146 -43
66 -71 75 -82 26 -10 -46 53 -169 123 -237 93 -91 153 -255 110 -299 -17 -16
-19 -16 -44 8 -14 13 -50 59 -80 101 -53 76 -77 98 -108 98 -20 0 -20 -23 0
-77 9 -24 14 -46 11 -50 -12 -12 -45 12 -79 57 -29 39 -39 45 -76 48 -30 2
-42 -1 -42 -10 0 -7 77 -98 170 -203 204 -228 237 -275 252 -355 13 -68 -2
-283 -22 -320 -16 -30 -48 -25 -68 11 -9 17 -56 81 -104 143 -48 61 -102 138
-120 171 -48 92 -85 141 -121 164 -36 22 -97 104 -123 166 -9 22 -20 73 -25
114 -9 80 -29 121 -59 121 -27 0 -32 -13 -31 -84 0 -79 38 -202 78 -253 46
-59 47 -61 22 -108 -28 -53 -18 -89 29 -100 35 -7 125 -72 165 -118 27 -32 41
-68 52 -139 4 -29 13 -42 35 -53 39 -20 50 -43 50 -104 0 -104 -29 -123 -111
-76 -48 27 -119 34 -119 12 0 -17 27 -41 115 -102 94 -66 161 -130 174 -166 9
-26 6 -33 -30 -75 -62 -71 -75 -94 -60 -104 7 -4 50 -10 95 -12 105 -7 131
-21 234 -124 83 -82 83 -83 69 -111 -9 -15 -30 -45 -49 -67 l-34 -39 -60 31
c-77 39 -118 73 -134 112 -13 31 -19 33 -82 30 -26 -1 -56 9 -101 34 -96 54
-147 44 -133 -25 9 -45 123 -279 182 -374 28 -44 64 -110 82 -147 17 -37 47
-89 66 -114 20 -26 36 -57 36 -70 0 -58 -104 -56 -206 4 -35 20 -89 52 -122
70 -32 18 -111 76 -175 128 -65 51 -132 100 -150 107 -31 14 -87 72 -199 209
-53 64 -131 138 -147 138 -4 0 -16 -6 -26 -14 -19 -13 -19 -16 -4 -48 9 -18
41 -61 71 -94 84 -94 108 -129 108 -157 0 -20 -6 -27 -30 -32 -41 -9 -102 20
-175 84 -44 38 -66 51 -85 49 -60 -7 -7 -123 85 -185 38 -27 57 -33 99 -33 28
0 87 -4 131 -9 73 -9 90 -15 185 -72 58 -34 158 -97 222 -140 65 -42 187 -112
270 -155 138 -70 161 -85 234 -159 99 -99 146 -186 148 -269 0 -47 -5 -62 -33
-101 -36 -51 -37 -86 0 -105 40 -22 49 -110 12 -124 -36 -14 -153 84 -153 127
0 9 -28 51 -62 93 -35 43 -92 121 -128 174 -42 60 -84 108 -114 130 -27 19
-85 65 -129 103 -45 37 -90 67 -102 67 -35 0 -125 -48 -125 -66 0 -9 22 -41
50 -69 27 -29 52 -65 56 -80 9 -37 -22 -76 -74 -94 l-40 -15 -117 57 c-64 31
-120 57 -124 57 -5 0 -11 -30 -15 -67 -8 -77 -12 -88 -42 -97 -51 -16 -86 -85
-50 -99 8 -3 43 3 78 15 42 13 114 23 218 30 278 19 269 20 395 -45 61 -31
122 -64 136 -74 67 -45 328 -288 347 -322 38 -67 42 -171 6 -171 -8 0 -30 11
-48 25 -63 48 -105 23 -81 -48 7 -20 31 -61 52 -90 80 -106 90 -146 117 -491
8 -111 -17 -128 -114 -78 -94 47 -95 51 -95 289 0 203 0 205 -24 224 -13 10
-32 19 -43 19 -20 0 -20 -4 -12 -152 11 -220 10 -239 -21 -265 -31 -28 -82
-30 -131 -7 -40 19 -60 53 -70 115 -4 24 -19 78 -34 119 -15 41 -31 102 -34
135 -9 79 -14 92 -33 99 -27 11 -43 -13 -43 -68 0 -59 22 -192 44 -267 20 -67
20 -79 -2 -79 -30 0 -60 28 -93 89 -31 59 -85 115 -277 289 -100 90 -134 103
-140 51 -2 -21 6 -35 39 -62 52 -45 54 -75 10 -121 -40 -41 -33 -60 29 -81 59
-19 140 -75 240 -164 41 -37 88 -76 103 -88 43 -33 139 -60 291 -82 162 -24
181 -33 303 -149 l82 -77 10 -555 c6 -305 18 -782 27 -1060 23 -690 24 -1205
4 -1245 -24 -48 -58 -41 -97 19 -52 80 -65 79 -116 -1 -26 -41 -29 -43 -78
-43 -73 0 -86 -10 -100 -81 -7 -36 -22 -73 -35 -88 -22 -25 -24 -25 -51 -11
-20 11 -42 43 -73 108 -66 132 -59 128 -177 112 -163 -21 -240 -45 -313 -95
-36 -25 -71 -45 -78 -45 -7 0 -39 25 -72 55 -33 30 -67 55 -75 55 -9 0 -32 -7
-52 -15 -20 -9 -43 -13 -50 -11 -7 3 -26 32 -42 65 -17 33 -35 62 -41 66 -37
23 -81 -54 -103 -182 -9 -53 -8 -74 11 -157 12 -52 22 -109 22 -126 0 -44 24
-85 58 -99 24 -10 41 -9 92 4 50 13 73 14 105 6 23 -6 87 -16 141 -22 58 -6
121 -20 154 -34 49 -20 61 -22 115 -13 76 13 811 3 952 -13 97 -10 104 -10
137 10 46 29 84 26 152 -10 64 -33 85 -34 164 -4 53 20 335 34 681 35 174 0
225 -3 264 -16 41 -15 80 -16 284 -11 130 3 288 13 351 22 106 15 120 15 183
-1 61 -15 119 -16 580 -8 282 4 697 8 922 8 292 1 424 5 457 14 43 11 55 10
125 -13 150 -47 245 -50 498 -15 33 4 771 3 1640 -2 869 -5 1767 -8 1995 -6
376 4 419 6 462 23 44 18 55 18 145 6 150 -19 499 -26 628 -11 224 24 260 25
342 0 75 -22 80 -22 227 -10 202 18 292 17 406 -4 94 -17 97 -17 154 3 57 20
58 20 107 1 104 -41 136 -16 125 100 -5 50 -2 92 10 150 16 71 16 95 6 196
-13 125 -32 184 -57 184 -19 0 -64 -47 -102 -107 -30 -47 -40 -50 -83 -28 -33
17 -54 12 -93 -24 -23 -21 -38 -26 -82 -26 -45 0 -59 5 -92 31 -59 48 -92 122
-104 234 -16 144 -61 227 -201 372 -87 90 -134 111 -254 112 -71 1 -96 -3
-110 -15 -11 -9 -32 -20 -49 -23 -16 -4 -55 -23 -86 -42 -92 -55 -125 -47
-188 47 -32 47 -41 71 -41 103 0 40 65 269 89 314 15 28 49 42 103 42 54 0
100 23 169 88 90 83 125 137 145 222 9 41 38 125 65 188 95 222 100 290 34
467 -99 265 -155 320 -333 331 -164 11 -182 26 -182 149 0 137 -62 298 -126
328 -57 28 -176 34 -224 12 -64 -29 -170 -187 -156 -232 3 -10 23 -27 43 -38
37 -19 38 -22 45 -90 12 -113 60 -197 129 -225 16 -7 29 -21 31 -33 8 -51 -31
-255 -59 -310 -8 -15 -26 -33 -41 -38 -15 -6 -123 -15 -239 -19 -244 -9 -258
-13 -307 -93 -41 -67 -30 -75 77 -58 143 23 242 25 316 6 77 -21 191 -70 191
-83 0 -14 -43 -50 -75 -62 -16 -7 -84 -27 -149 -46 -146 -42 -230 -85 -246
-125 -22 -52 9 -326 48 -424 11 -27 23 -79 27 -114 l7 -64 -143 6 c-167 6
-202 15 -220 60 -21 51 -13 156 21 269 33 110 39 188 16 207 -17 14 -34 -7
-62 -79 -10 -25 -32 -70 -50 -100 -37 -64 -49 -104 -64 -220 -6 -47 -13 -96
-16 -109 -5 -22 -6 -22 -24 -6 -57 51 -67 133 -80 660 -11 469 -26 781 -41
875 -18 109 -13 216 15 364 14 76 40 260 56 410 31 275 33 290 52 339 12 30
26 33 93 15 43 -12 46 -11 73 15 15 15 33 27 40 27 6 0 39 -18 73 -40 104 -67
123 -54 83 57 -25 69 -27 79 -15 122 6 25 21 55 31 66 19 18 21 18 37 2 10
-10 33 -63 53 -119 25 -71 43 -107 60 -120 25 -18 27 -18 84 2 33 11 75 20 95
20 71 1 171 62 171 106 0 25 -11 30 -96 44 -112 18 -183 94 -320 342 -49 87
-103 176 -120 196 -60 71 -117 213 -95 235 7 7 17 5 33 -5 13 -9 38 -19 57
-23 37 -8 50 -32 71 -125 16 -73 129 -294 152 -298 11 -2 22 6 29 20 9 20 5
40 -24 114 -38 98 -52 145 -62 216 -6 50 -14 60 -60 75 -28 10 -57 32 -136
105 -56 52 -30 124 70 195 36 25 131 80 210 121 152 78 148 77 249 56 41 -8
67 13 77 63 8 45 46 83 83 83 38 0 52 -17 52 -63 0 -51 13 -73 58 -96 20 -11
53 -35 71 -55 41 -43 87 -50 78 -13 -3 12 -26 68 -52 125 -55 120 -54 138 7
182 84 61 125 31 118 -83 -4 -74 47 -97 114 -52 43 29 56 30 97 10 55 -29 62
-5 23 82 -48 108 -32 153 54 153 37 0 50 -6 78 -34 29 -29 34 -41 34 -83 0
-63 -25 -136 -85 -243 -47 -84 -165 -391 -165 -430 0 -64 86 28 118 127 25 77
72 168 87 168 18 0 18 -188 -1 -236 -22 -59 -29 -115 -14 -124 6 -4 30 11 55
34 41 38 49 41 99 41 30 0 57 4 61 9 3 5 30 17 59 25 45 13 64 27 110 78 31
34 68 85 82 114 31 64 30 66 -69 173 -69 74 -167 212 -167 235 0 6 -16 33 -35
60 -58 82 -35 119 32 54 32 -31 35 -32 66 -19 94 38 217 42 301 10 107 -39
158 -8 99 61 -47 56 -67 60 -335 60 -241 0 -318 5 -318 21 0 12 117 156 195
238 90 95 139 131 180 131 55 0 97 19 93 43 -3 22 -16 28 -93 44 -38 8 -40 10
-38 43 1 22 40 111 107 241 58 114 106 216 106 227 0 28 -18 39 -80 47 -30 4
-70 16 -87 27 -38 23 -76 21 -81 -4 -2 -10 16 -38 41 -65 54 -58 67 -82 67
-123 0 -37 -30 -52 -72 -38 -55 20 -137 126 -153 200 -3 15 -17 35 -31 44 -24
16 -28 16 -79 -5 l-55 -23 -27 22 c-16 11 -44 31 -63 43 -32 21 -36 28 -43 87
-12 97 -16 110 -32 110 -19 0 -41 -44 -49 -102 -6 -38 -16 -56 -51 -91 -79
-79 -237 -147 -342 -147 -68 0 -89 26 -79 98 14 105 131 297 214 353 63 42
110 88 129 122 13 26 13 31 -3 55 -23 35 -55 61 -76 62 -10 0 -29 -23 -49 -57
-41 -71 -143 -191 -176 -206 -24 -11 -29 -8 -64 32 -44 50 -96 147 -105 200
-12 66 -42 79 -88 36 -36 -34 -33 -57 19 -132 25 -35 52 -78 61 -96 10 -18 39
-61 66 -96 50 -67 59 -95 32 -105 -26 -10 -66 4 -113 40 -94 72 -97 21 -8
-123 74 -120 59 -166 -96 -300 -51 -45 -111 -107 -131 -138 -21 -31 -48 -60
-59 -65 -33 -13 -272 -33 -301 -26 -45 11 -56 51 -63 229 l-6 162 140 135 c82
79 161 146 189 160 53 28 96 87 92 129 -5 42 -25 35 -90 -29 -57 -57 -63 -60
-75 -44 -20 28 -16 56 18 108 16 27 29 58 27 69 -4 28 -84 85 -99 70 -6 -6
-15 -41 -19 -79 -5 -38 -20 -101 -33 -139 -64 -187 -143 -266 -174 -175 -15
44 -17 252 -2 303 5 20 38 79 72 130 55 81 71 98 142 143 144 92 156 119 50
115 -74 -3 -100 22 -110 105 -4 33 -14 74 -21 93 -9 20 -14 71 -14 131 0 77
-3 100 -16 111 -19 16 -42 4 -64 -34 -13 -24 -11 -45 20 -230 42 -252 40 -269
-52 -398 -34 -48 -70 -92 -80 -98 -16 -10 -34 0 -131 72 -209 157 -272 188
-319 159 -14 -8 -33 -28 -42 -43 -33 -56 -17 -109 69 -223 94 -124 118 -229
75 -325 -11 -24 -20 -49 -20 -56 0 -7 18 -28 40 -45 49 -39 51 -64 8 -90 -46
-28 -79 -25 -143 11 -74 42 -89 35 -82 -36 3 -30 11 -66 19 -81 23 -48 37 -50
126 -14 68 28 83 31 96 20 20 -16 20 -39 1 -64 -19 -26 -19 -56 2 -138 9 -37
14 -70 11 -74 -4 -3 -44 11 -90 31 -46 20 -101 43 -124 51 -48 17 -136 123
-223 267 -29 49 -60 91 -68 94 -19 8 -63 -35 -63 -62 0 -12 25 -54 55 -94 30
-40 55 -79 55 -86 0 -24 -27 -35 -96 -42 -57 -5 -74 -11 -96 -33 -15 -15 -46
-34 -70 -42 -24 -9 -57 -22 -75 -29 -18 -7 -35 -10 -39 -6 -12 11 14 83 78
216 67 140 98 222 98 258 0 46 27 91 69 115 23 13 41 27 41 32 0 6 -12 23 -27
38 l-27 28 90 93 c50 50 119 129 154 175 35 46 76 90 91 97 34 18 68 87 82
170 8 49 8 68 -1 77 -9 9 -16 8 -30 -5 -10 -9 -23 -17 -29 -17 -15 0 -108 101
-128 140 -9 18 -23 52 -29 74 -9 31 -18 42 -35 44 -13 2 -28 -2 -32 -10 -15
-24 -10 -74 10 -92 31 -28 94 -164 111 -239 14 -65 -31 -154 -151 -300 -85
-102 -156 -145 -207 -126 -74 28 -161 118 -211 216 -19 38 -46 63 -68 63 -4 0
-45 -39 -89 -87 -81 -85 -82 -86 -127 -85 -58 3 -83 -19 -131 -111 -40 -75
-43 -108 -21 -181 17 -54 20 -133 6 -155 -13 -21 -33 -9 -45 29 -14 46 -51 52
-94 15 -16 -14 -43 -28 -59 -31 -27 -5 -29 -3 -57 70 -22 58 -27 86 -23 118 8
61 52 118 115 149 29 14 58 31 64 37 19 19 -8 39 -64 46 -57 8 -68 17 -68 57
0 31 -23 54 -42 43 -7 -4 -30 -27 -51 -50 -21 -24 -50 -45 -67 -49 -38 -8 -38
-25 0 -87 40 -65 40 -114 -1 -174 l-30 -45 20 -43 c18 -36 29 -96 18 -96 -21
0 -125 44 -134 57 -25 33 -16 80 22 118 31 31 34 38 24 58 -16 32 -91 107
-106 107 -21 0 -35 -51 -29 -100 7 -52 -12 -127 -51 -203 -17 -35 -34 -53 -59
-63 -67 -28 -95 -76 -51 -90 64 -19 71 -57 28 -166 -16 -40 -32 -93 -36 -118
-11 -69 -30 -98 -71 -109 -36 -10 -51 -8 -92 12 -47 22 -50 140 -4 190 11 12
25 40 32 62 7 22 23 54 36 72 l24 31 -27 59 c-32 68 -36 171 -10 240 14 38 14
44 1 58 -18 18 -20 18 -44 5 -27 -14 -55 -64 -90 -163 -21 -57 -37 -87 -47
-87 -21 0 -69 54 -78 87 -3 16 -22 52 -41 80 -19 29 -41 70 -48 90 -14 41 -35
59 -60 50 -23 -9 -20 -35 9 -68 13 -17 34 -62 46 -102 11 -40 39 -113 61 -164
46 -104 45 -134 -2 -158 -73 -38 -110 -7 -84 69 15 43 15 49 0 71 -39 60 -89
15 -94 -85 -4 -61 -1 -77 27 -136 24 -52 31 -80 31 -129 0 -103 -28 -144 -90
-130 -32 7 -80 47 -80 68 0 7 20 40 45 72 48 62 55 98 20 103 -26 3 -80 -42
-136 -114 l-44 -57 25 -16 c43 -27 80 -69 80 -89 0 -10 -14 -40 -31 -66 -33
-49 -33 -57 -5 -133 9 -23 13 -49 10 -58 -7 -18 -33 -19 -55 -2 -34 26 -40 56
-37 177 3 116 2 119 -23 147 -55 58 -48 90 36 184 81 90 88 108 83 196 -4 51
-10 79 -23 93 -24 27 -76 26 -100 -1 -19 -20 -18 -21 4 -63 37 -67 25 -104
-60 -189 l-70 -70 -68 5 c-79 6 -125 28 -158 76 -24 36 -44 140 -47 236 -1 59
1 65 32 94 17 16 32 35 32 42 0 6 14 44 32 83 26 58 33 90 38 162 6 101 -1 96
98 80 37 -7 42 -5 42 11 0 22 -20 55 -59 97 -16 18 -22 31 -15 35 75 50 143
130 129 152 -11 19 -40 10 -115 -34 -101 -58 -111 -61 -145 -34 -44 34 -58 79
-50 163 12 127 -33 233 -116 276 -45 23 -85 22 -82 -1 1 -8 12 -42 24 -75 20
-54 21 -66 10 -128 -6 -37 -20 -85 -30 -105 -29 -57 -80 -122 -94 -122 -8 0
-25 17 -38 37 -16 25 -37 41 -64 50 -29 10 -46 23 -60 49 -13 24 -36 44 -70
61 -27 14 -69 41 -92 59 -23 19 -50 34 -60 34 -29 0 -157 -129 -169 -170 -8
-30 -14 -35 -44 -38 -24 -3 -38 2 -47 14 -16 22 -17 116 -1 132 7 7 34 12 60
12 48 0 48 0 48 33 0 76 -31 300 -45 327 -14 27 -91 78 -102 67 -2 -3 1 -60 7
-126 7 -67 9 -139 5 -159 -12 -66 -108 -222 -136 -222 -5 0 -9 23 -9 50 0 70
-21 77 -69 23 -20 -23 -55 -63 -78 -89 -51 -57 -63 -52 -65 28 -2 68 21 117
97 213 31 39 71 102 90 140 39 81 87 282 89 370 1 55 -1 60 -21 63 -16 2 -26
-5 -37 -26z m-318 -724 c18 -18 14 -62 -9 -92 -35 -44 -59 -30 -59 35 0 58 37
88 68 57z m-3554 -35 c4 -9 0 -23 -8 -31 -12 -12 -15 -11 -21 7 -11 35 16 58
29 24z m4341 -19 c45 -21 117 -100 149 -162 35 -69 42 -121 22 -160 -20 -38
-36 -40 -70 -9 -74 65 -191 347 -145 347 6 0 26 -7 44 -16z m-356 -131 c56
-65 83 -121 70 -145 -16 -30 -59 -22 -100 18 -42 41 -102 60 -120 38 -9 -11 4
-28 60 -82 50 -48 71 -75 71 -93 0 -47 -207 -318 -267 -350 -43 -23 -48 -4
-51 194 l-3 182 86 78 c47 44 94 96 105 117 21 40 73 90 95 90 7 0 32 -21 54
-47z m896 0 c9 -44 37 -93 66 -117 35 -30 45 -51 53 -111 9 -65 -7 -144 -37
-188 -17 -25 -27 -58 -32 -104 -10 -91 -19 -113 -49 -113 -62 0 -74 74 -26
165 32 61 38 99 18 112 -7 4 -44 10 -83 13 -64 5 -70 7 -73 29 -2 15 9 41 29
70 28 39 35 58 40 121 5 50 14 87 29 113 27 45 57 50 65 10z m-1295 -118 c0
-50 -59 -114 -89 -96 -10 6 -7 20 14 62 15 30 32 59 37 66 16 21 38 3 38 -32z
m700 2 c6 -16 3 -27 -12 -42 -19 -20 -19 -20 -39 4 -22 26 -24 52 -7 69 15 15
46 -2 58 -31z m-4316 1 c9 -15 5 -24 -21 -50 l-32 -32 -10 27 c-15 38 2 79 30
75 12 -2 27 -11 33 -20z m1336 -43 c83 -42 170 -164 170 -238 0 -64 -102 -226
-162 -258 -16 -9 -24 -7 -36 5 -13 13 -18 47 -22 166 -3 86 -10 154 -16 160
-33 33 -71 -37 -90 -170 -20 -135 -45 -190 -85 -190 -27 0 -37 28 -50 135 -21
178 0 280 76 364 60 66 122 73 215 26z m6980 -20 c0 -8 -6 -15 -14 -15 -17 0
-28 14 -19 24 12 12 33 6 33 -9z m159 -29 c15 -8 53 -42 83 -75 49 -52 56 -66
62 -114 11 -83 -6 -207 -27 -207 -16 0 -103 90 -150 157 -47 64 -73 124 -82
186 -6 43 -4 48 17 56 34 14 65 13 97 -3z m-973 -118 c97 -81 109 -105 107
-198 -2 -120 -65 -307 -123 -367 -33 -36 -65 -30 -97 20 -51 80 -66 162 -67
367 -1 164 1 189 18 220 34 62 38 61 162 -42z m-6580 -4 c9 -35 -18 -63 -40
-44 -16 13 -22 51 -9 63 16 16 43 6 49 -19z m1764 -16 c0 -12 -28 -10 -35 2
-4 6 -4 19 0 28 6 16 8 15 21 -2 8 -11 14 -23 14 -28z m1577 20 c29 -31 44
-95 34 -140 -9 -37 -46 -98 -60 -98 -5 0 -29 -18 -54 -40 -35 -31 -49 -53 -61
-95 -14 -48 -20 -54 -49 -60 -17 -4 -46 -16 -63 -26 -35 -21 -66 -24 -95 -9
-38 21 -10 156 36 173 25 10 55 70 55 111 0 21 9 53 20 72 20 32 94 99 135
122 33 19 80 14 102 -10z m413 -57 c0 -4 -5 -22 -11 -40 -11 -31 -35 -40 -73
-25 -16 6 -22 54 -9 67 9 10 93 8 93 -2z m-3850 -67 c0 -28 -57 -94 -82 -94
-28 0 -22 37 11 71 25 25 71 40 71 23z m1060 -9 c0 -8 -7 -15 -15 -15 -8 0
-15 7 -15 15 0 8 7 15 15 15 8 0 15 -7 15 -15z m911 -14 c31 -32 37 -58 15
-67 -32 -12 -86 47 -73 80 9 23 25 20 58 -13z m4393 10 c19 -21 15 -51 -8 -70
-33 -27 -69 26 -46 68 13 26 32 27 54 2z m-2466 -74 c7 -33 -7 -67 -28 -67
-22 0 -34 31 -26 66 5 19 12 25 29 22 12 -2 23 -11 25 -21z m-2872 -54 c25
-32 54 -77 65 -101 10 -24 53 -79 94 -122 47 -49 86 -101 102 -136 32 -70 24
-82 -41 -64 -26 7 -61 9 -82 6 -29 -6 -39 -4 -50 12 -8 12 -30 21 -55 25 -62
8 -69 23 -21 42 42 17 55 35 46 60 -12 30 -39 35 -75 15 -80 -44 -80 -44 -97
-33 -30 18 -27 84 9 158 21 45 33 86 37 130 2 36 9 65 13 65 5 0 29 -26 55
-57z m2718 -59 c47 -46 41 -92 -34 -251 -50 -105 -80 -137 -122 -131 -34 5
-48 43 -48 136 0 97 16 135 82 198 68 65 95 76 122 48z m-3694 -16 c6 -7 21
-29 33 -48 16 -25 40 -42 83 -60 80 -33 84 -37 84 -70 0 -21 -14 -45 -47 -83
-27 -30 -64 -76 -83 -103 -39 -54 -70 -66 -101 -38 -48 44 -66 218 -29 287 15
27 19 48 14 72 -3 19 -3 38 1 44 9 15 32 14 45 -1z m7659 -13 c47 -40 70 -118
83 -274 6 -84 7 -161 2 -201 -8 -60 -11 -65 -35 -68 -20 -2 -34 6 -61 37 -65
76 -83 125 -86 238 -4 95 10 263 23 283 11 17 43 11 74 -15z m-7035 -11 c8
-21 -6 -44 -52 -86 -40 -36 -78 -55 -89 -44 -11 11 22 71 59 108 40 40 72 49
82 22z m633 -16 c46 -50 110 -140 123 -172 9 -23 8 -32 -3 -44 -22 -21 -44 -2
-115 98 -68 97 -77 113 -68 135 9 24 29 18 63 -17z m-2173 -31 c-13 -34 -40
-11 -29 24 6 18 9 19 21 7 8 -8 12 -22 8 -31z m700 27 c39 -15 6 -44 -51 -44
-18 0 -23 6 -23 25 0 21 5 25 29 25 16 0 36 -3 45 -6z m2281 -8 c18 -13 18
-14 -3 -25 -44 -23 -97 -3 -76 30 8 14 58 11 79 -5z m675 -15 c0 -10 -7 -24
-15 -31 -20 -17 -31 10 -15 39 12 24 30 19 30 -8z m3619 -17 c38 -49 15 -119
-30 -94 -21 12 -53 85 -46 104 10 25 53 19 76 -10z m-7444 -61 c22 -47 35
-101 28 -119 -8 -21 -50 -17 -73 6 -33 33 -22 150 14 150 7 0 22 -17 31 -37z
m4053 -4 c3 -29 -55 -132 -71 -126 -7 2 -13 29 -15 65 -2 50 1 65 17 81 26 26
65 15 69 -20z m401 0 c-22 -98 -56 -134 -149 -159 -85 -22 -128 -60 -115 -101
8 -24 26 -24 76 1 22 12 44 18 49 15 6 -3 10 -33 10 -65 0 -118 -37 -142 -112
-75 -20 19 -52 37 -72 40 -54 11 -80 45 -74 99 3 24 15 64 27 89 21 43 27 47
149 101 70 32 143 66 162 76 53 29 59 26 49 -21z m629 -7 c23 -32 52 -114 55
-157 2 -24 -2 -31 -19 -33 -30 -4 -80 56 -99 120 -18 61 -18 73 -5 99 13 24
39 13 68 -29z m1632 23 c0 -16 -6 -25 -15 -25 -18 0 -20 21 -3 38 17 17 18 16
18 -13z m3678 1 c49 -13 98 -28 108 -34 21 -11 180 -171 214 -215 l22 -28 -36
-108 c-20 -60 -36 -116 -36 -125 0 -75 -170 -249 -283 -290 -27 -10 -73 -41
-105 -71 -64 -59 -93 -77 -109 -67 -6 4 -20 25 -31 48 -11 22 -37 55 -57 72
-30 27 -44 32 -84 32 -76 0 -74 -26 10 -115 45 -47 60 -82 48 -112 -11 -30
-40 -43 -116 -54 -36 -5 -87 -20 -112 -33 -93 -49 -131 -43 -131 22 0 68 28
214 45 232 9 10 50 31 91 46 41 15 74 28 74 30 0 2 -21 14 -47 26 -56 25 -265
229 -313 305 -53 84 -37 171 43 235 80 63 141 88 217 88 90 0 112 -14 126 -75
14 -66 26 -87 68 -118 21 -17 41 -45 52 -74 31 -85 52 -94 85 -38 21 35 63 55
79 39 5 -5 2 -55 -7 -112 -15 -105 -12 -156 10 -150 18 5 97 166 97 198 0 15
-9 35 -19 44 -39 35 -45 71 -26 141 9 35 14 68 11 74 -4 5 -32 12 -64 16 -116
12 -132 17 -143 37 -22 41 -3 66 89 112 48 25 99 45 114 45 15 1 67 -10 116
-23z m-4175 -5 c7 -28 -7 -95 -48 -224 -19 -62 -44 -157 -55 -212 -24 -116
-36 -131 -84 -109 -35 17 -76 70 -76 98 0 10 9 33 19 50 11 17 22 54 26 81 9
63 24 91 70 135 50 48 100 118 116 163 14 41 24 47 32 18z m617 -5 c16 -20 9
-60 -12 -64 -18 -3 -26 20 -20 56 5 26 15 28 32 8z m-5943 -58 c27 -26 29 -60
8 -153 -9 -36 -24 -175 -35 -308 -28 -355 -40 -382 -179 -399 -85 -10 -161 3
-205 35 -19 14 -19 15 1 43 12 17 24 55 28 89 5 33 20 91 36 128 15 38 31 88
34 110 10 57 52 173 79 217 13 19 32 56 45 82 22 45 137 178 155 178 6 0 20
-10 33 -22z m2302 -46 c64 -66 132 -183 138 -236 5 -39 2 -45 -22 -62 -62 -43
-108 -91 -130 -134 -37 -73 -48 -78 -82 -34 -24 33 -28 46 -27 103 0 36 4 98
8 137 7 54 5 83 -8 126 -21 74 -20 97 6 125 34 36 65 30 117 -25z m1708 16
c39 -40 79 -126 93 -197 8 -41 6 -60 -6 -91 -15 -37 -15 -42 0 -65 11 -17 29
-27 59 -32 91 -14 107 -54 133 -343 24 -256 24 -268 -15 -302 -22 -20 -41 -28
-59 -26 -27 3 -27 4 -26 81 1 42 -1 77 -3 77 -3 0 -22 -13 -43 -30 -47 -37
-71 -38 -107 -1 -19 19 -44 31 -74 36 -61 10 -83 26 -97 72 -7 25 -22 45 -43
57 -17 10 -51 44 -76 77 -34 44 -56 62 -89 73 -50 17 -70 33 -84 70 -14 37 8
53 82 61 35 4 69 12 75 17 12 9 20 34 37 111 l7 28 92 -6 c102 -8 158 4 138
29 -7 8 -28 17 -49 21 -90 16 -105 66 -52 173 17 34 30 70 30 82 0 28 18 60
33 60 7 0 27 -15 44 -32z m2280 -13 c47 -49 51 -65 28 -118 -18 -44 -13 -61
30 -85 21 -13 42 -40 60 -77 l28 -57 -18 -76 c-9 -43 -22 -85 -27 -95 -18 -35
-50 -15 -108 67 -30 44 -68 87 -85 96 -45 25 -51 55 -26 133 23 72 26 115 12
165 -6 21 -6 43 1 62 15 46 51 40 105 -15z m-4219 -63 c2 -39 -2 -81 -8 -92
-14 -26 -61 -26 -85 0 -16 17 -17 25 -7 58 13 43 69 115 86 109 6 -2 12 -33
14 -75z m4036 -27 c6 -16 -19 -45 -39 -45 -19 0 -36 -35 -50 -100 -12 -62 -27
-69 -58 -28 -28 37 -36 138 -13 157 35 29 150 41 160 16z m-6399 -39 c21 -31
12 -50 -39 -77 -45 -24 -76 -21 -76 7 0 18 73 94 90 94 5 0 16 -11 25 -24z
m1489 -7 c22 -6 57 -22 78 -36 30 -20 61 -29 146 -38 89 -11 118 -19 175 -49
57 -30 75 -35 108 -30 51 9 61 -13 26 -60 -14 -18 -29 -46 -33 -62 -4 -16 -20
-55 -35 -87 -27 -57 -27 -60 -12 -110 8 -27 19 -61 24 -74 12 -33 11 -63 -2
-63 -6 0 -29 16 -52 35 -46 39 -85 45 -111 16 -41 -45 -75 -211 -43 -211 6 0
32 14 57 30 55 37 76 38 84 5 20 -81 -88 -288 -219 -418 -57 -56 -89 -68 -115
-41 -25 25 -47 113 -56 219 -6 71 -4 89 11 111 15 23 22 26 60 22 24 -3 49 -2
55 2 23 14 1 58 -45 90 -56 39 -69 59 -90 139 -36 142 -173 401 -251 476 -30
28 -44 50 -44 68 0 35 17 43 41 21 20 -18 22 -17 82 13 91 47 100 49 161 32z
m6144 -21 c7 -7 12 -26 12 -42 0 -51 11 -59 71 -51 76 9 138 -23 159 -82 8
-23 18 -44 21 -47 3 -3 27 1 54 10 115 34 204 -41 205 -173 l0 -53 -45 0 c-52
0 -148 36 -199 75 -24 18 -39 41 -46 66 -12 44 -14 45 -65 23 -70 -29 -146 13
-166 92 -13 52 -18 56 -84 69 -67 13 -71 38 -15 88 41 38 76 47 98 25z m-7012
-109 c-21 -63 -58 -118 -119 -177 l-45 -44 -26 35 c-14 18 -26 43 -26 54 0 35
100 146 175 194 25 16 32 17 44 5 12 -13 11 -22 -3 -67z m4204 36 c48 -25 68
-78 85 -227 8 -74 20 -150 25 -168 11 -38 -1 -54 -35 -44 -60 18 -116 87 -135
166 -7 28 -32 93 -56 143 -42 89 -52 124 -37 138 12 13 124 7 153 -8z m2155
-26 c8 -32 -22 -70 -36 -47 -13 19 -11 62 3 76 14 14 24 6 33 -29z m-5958 13
c23 -15 41 -78 62 -217 28 -181 45 -246 77 -294 25 -39 36 -114 19 -141 -10
-16 -45 -2 -80 30 -16 15 -49 37 -71 49 -23 11 -52 36 -64 56 -26 43 -47 55
-94 55 -51 0 -92 -45 -101 -110 -4 -28 -18 -72 -32 -98 -13 -26 -31 -68 -39
-93 -15 -50 -79 -153 -112 -183 -30 -26 -60 -15 -120 44 -54 53 -62 75 -38
113 8 12 17 40 20 62 4 22 20 58 36 80 15 22 33 60 40 85 7 24 30 79 51 122
22 43 48 102 59 132 28 73 153 201 284 290 38 26 80 33 103 18z m2881 -24 c26
-26 -2 -70 -38 -61 -24 6 -26 35 -4 57 19 19 26 20 42 4z m-1593 -42 c51 -51
105 -191 105 -273 0 -44 -3 -53 -18 -53 -27 0 -88 68 -115 130 -13 30 -35 69
-49 85 -69 83 -64 135 14 135 28 0 46 -7 63 -24z m3840 -18 c99 -115 116 -188
64 -269 -37 -58 -102 -119 -127 -119 -45 0 -192 193 -192 252 0 71 54 138 112
138 12 0 37 9 53 19 43 28 49 26 90 -21z m-3204 -15 c55 -33 84 -131 59 -198
-17 -44 -42 -27 -82 55 -39 77 -47 127 -26 148 15 15 14 15 49 -5z m591 7 c43
-12 68 -42 68 -82 0 -33 -31 -52 -110 -66 -39 -7 -59 -17 -70 -33 -35 -53
-126 -135 -164 -146 -71 -22 -93 14 -84 139 4 58 7 64 49 101 53 47 82 63 151
81 64 18 111 19 160 6z m5214 -45 c23 -35 13 -81 -33 -163 -64 -112 -78 -167
-47 -179 11 -4 30 9 59 40 68 74 115 61 115 -34 0 -23 15 -87 34 -143 18 -55
37 -116 41 -133 18 -85 -48 -155 -218 -231 -204 -93 -258 -91 -273 5 -4 27
-24 98 -44 158 -21 61 -46 151 -56 202 -17 86 -17 96 -2 166 19 84 57 172 95
217 50 60 182 119 265 120 40 0 50 -4 64 -25z m-8858 -17 c6 -50 -80 -180
-107 -163 -14 8 -14 100 0 128 36 70 101 90 107 35z m2905 -77 c41 -82 62
-188 54 -278 -8 -105 -53 -146 -132 -123 -55 17 -88 42 -124 97 -51 76 -43
111 64 273 45 68 72 100 85 100 13 0 29 -20 53 -69z m4628 59 c42 -23 10 -60
-51 -60 -57 0 -87 29 -58 58 15 15 82 16 109 2z m-490 -25 c0 -5 -12 -11 -26
-13 -18 -2 -25 1 -25 13 0 12 7 15 25 13 14 -2 26 -7 26 -13z m1995 -44 c51
-36 92 -85 100 -118 8 -32 -3 -345 -14 -393 -4 -20 -14 -35 -22 -35 -11 0 -17
20 -23 80 -5 44 -17 98 -27 120 -11 22 -22 67 -25 100 -4 40 -15 72 -32 97
-38 57 -45 178 -9 178 7 0 31 -13 52 -29z m-6807 -21 c37 -19 64 -134 45 -184
-10 -25 -37 -19 -73 16 -41 40 -54 72 -45 112 13 64 32 78 73 56z m3240 -9
c21 -11 52 -36 70 -56 39 -45 36 -64 -24 -122 -54 -53 -92 -58 -118 -14 -19
32 -47 141 -47 184 0 25 3 27 40 27 23 0 58 -9 79 -19z m2222 9 c32 -18 23
-90 -12 -90 -28 0 -45 43 -31 75 13 28 16 29 43 15z m-1050 -50 c25 -24 30
-37 27 -67 -4 -52 -28 -54 -56 -4 -23 41 -30 101 -11 101 6 0 24 -13 40 -30z
m-6112 -4 c17 -21 16 -87 -2 -122 -8 -16 -27 -40 -42 -54 -22 -21 -28 -22 -35
-10 -13 20 -12 96 0 142 15 52 55 74 79 44z m3361 -22 c61 -52 221 -296 242
-369 16 -56 74 -124 123 -146 24 -11 77 -55 126 -104 109 -112 113 -114 148
-76 25 27 36 31 79 31 34 0 59 -7 83 -23 45 -31 101 -105 97 -131 -3 -24 -108
-85 -145 -86 -20 0 -23 5 -23 39 0 47 -31 91 -65 91 -35 0 -50 -33 -36 -80 27
-90 86 -126 222 -136 52 -3 104 -12 116 -20 27 -17 60 -104 77 -204 8 -42 28
-110 46 -151 60 -138 71 -172 68 -203 -3 -26 -7 -31 -28 -28 -38 4 -110 51
-129 83 -20 36 -30 36 -85 -2 -42 -30 -46 -31 -82 -19 -21 7 -67 30 -101 51
-104 64 -222 95 -263 69 -11 -7 -12 -15 -4 -37 11 -33 71 -69 129 -79 73 -12
111 -73 81 -131 -18 -36 -98 -114 -241 -234 -150 -126 -353 -330 -404 -406
-41 -61 -83 -95 -108 -86 -18 6 -16 38 7 113 11 36 38 132 60 214 34 123 49
164 91 232 121 198 129 294 22 294 -41 0 -53 -21 -53 -97 0 -49 -7 -71 -42
-138 -106 -203 -137 -285 -138 -360 -1 -59 -67 -285 -91 -311 -28 -30 -74 -31
-128 -3 -30 15 -44 18 -59 10 -27 -14 -92 -89 -92 -105 0 -31 148 -31 198 0
16 11 27 12 41 4 29 -15 64 -12 123 10 136 51 376 217 438 301 15 22 31 59 35
86 13 91 151 200 425 335 192 94 282 130 341 136 91 9 117 -30 131 -192 6 -80
16 -125 33 -163 13 -29 33 -86 44 -128 12 -42 40 -113 62 -158 23 -45 82 -170
131 -277 49 -107 133 -278 188 -380 168 -316 180 -375 235 -1230 48 -741 46
-650 17 -688 -35 -46 -96 -79 -167 -91 -104 -16 -153 -39 -340 -155 -58 -36
-85 -30 -132 32 -44 58 -57 108 -57 227 l-1 100 67 6 c98 8 102 14 95 129 -3
52 -20 175 -36 273 -36 211 -61 434 -61 549 -1 160 -16 246 -73 419 -62 182
-90 305 -81 347 3 15 20 59 37 97 26 56 32 83 32 136 0 56 -4 71 -28 102 -38
50 -81 71 -147 71 -72 0 -157 -43 -177 -91 -15 -38 -18 -287 -4 -326 5 -13 30
-36 55 -51 25 -15 46 -34 46 -43 0 -9 -18 -62 -39 -117 -22 -56 -47 -129 -57
-164 -22 -78 -41 -92 -89 -62 -40 25 -151 143 -171 183 -11 20 -15 69 -17 170
-2 130 -4 145 -25 174 -44 62 -168 81 -251 39 -70 -37 -117 -170 -108 -302 6
-87 25 -126 77 -159 23 -14 42 -36 46 -50 9 -38 -19 -102 -74 -168 -57 -70
-117 -112 -170 -121 -21 -3 -64 -17 -95 -31 -31 -13 -78 -30 -104 -36 -27 -7
-65 -23 -85 -36 -44 -27 -79 -29 -138 -8 -93 33 -114 16 -117 -94 -2 -42 -7
-89 -13 -105 -15 -43 -12 -72 11 -118 35 -68 30 -155 -15 -258 -20 -47 -53
-128 -73 -180 -19 -52 -41 -101 -48 -109 -17 -17 -21 35 -34 454 -5 176 -14
338 -20 360 -18 72 -32 323 -38 685 -6 401 -8 389 69 475 45 50 68 85 68 104
0 24 -33 41 -80 41 l-48 0 -7 86 c-4 47 -5 159 -3 248 5 181 13 209 71 239 42
23 79 86 81 138 2 94 -66 69 -99 -36 -6 -19 -7 -19 -25 5 -26 33 -35 103 -21
150 6 21 29 61 51 89 21 27 42 61 46 75 5 22 0 29 -44 56 -59 36 -67 58 -38
99 42 59 95 74 161 47 40 -17 43 -28 15 -74 -19 -30 -27 -72 -14 -72 16 0 59
32 148 111 67 59 116 95 155 110 140 57 247 139 257 197 11 72 37 135 66 165
62 66 9 128 -95 113 -38 -6 -58 -19 -127 -83 -45 -42 -127 -130 -182 -195
-100 -119 -111 -127 -208 -160 -25 -9 -59 -22 -77 -29 -30 -12 -34 -11 -59 11
-64 61 -71 128 -21 211 18 30 78 114 134 188 136 179 138 183 116 265 l-17 66
44 42 c32 31 49 57 58 91 6 26 46 105 87 176 43 74 81 154 90 187 24 93 67
116 125 68z m3050 -8 c0 -13 -9 -54 -20 -90 -25 -81 -50 -99 -86 -65 -31 29
-31 66 1 109 26 35 72 70 93 70 6 0 12 -11 12 -24z m-420 -42 c34 -39 63 -98
75 -153 5 -25 2 -46 -15 -82 l-23 -48 32 -48 c41 -62 39 -97 -6 -101 -17 -2
-46 4 -64 13 -17 9 -55 24 -83 32 -79 23 -138 60 -174 108 l-34 44 21 35 c30
48 83 93 120 101 35 7 51 30 51 70 0 72 49 86 100 29z m-2886 -47 c-1 -32 -10
-46 -56 -91 -101 -99 -201 -260 -237 -383 -22 -73 -46 -103 -83 -103 -14 0
-18 8 -18 34 0 55 49 277 71 323 24 49 83 104 149 138 25 13 65 47 89 75 31
37 49 50 65 48 17 -2 21 -9 20 -41z m2352 14 c60 -37 70 -129 17 -171 -31 -24
-57 -25 -120 -4 -89 29 -110 76 -59 133 54 60 109 74 162 42z m-6561 -31 c22
-17 60 -42 86 -57 77 -41 209 -225 209 -290 0 -29 -3 -33 -26 -33 -31 0 -51
20 -209 203 -116 135 -140 170 -131 193 8 22 30 17 71 -16z m5432 -79 c70 -96
82 -136 57 -187 -21 -43 -56 -61 -96 -51 -38 10 -53 57 -53 167 0 105 9 153
28 148 7 -3 36 -37 64 -77z m2733 59 c0 -12 -28 -25 -36 -17 -9 9 6 27 22 27
8 0 14 -5 14 -10z m560 -7 c31 -22 58 -52 66 -76 7 -22 -31 -67 -56 -67 -43 0
-111 126 -83 153 12 12 48 7 73 -10z m-1110 -55 c0 -46 -17 -89 -37 -96 -16
-5 -17 48 -2 101 14 53 39 49 39 -5z m-1442 -6 c2 -23 -2 -33 -17 -42 -19 -10
-21 -8 -21 19 0 64 32 83 38 23z m1655 -3 c29 -13 50 -54 42 -79 -3 -10 -20
-24 -37 -31 -69 -29 -121 54 -62 100 31 25 27 24 57 10z m724 -46 c21 -27 59
-73 85 -103 26 -30 51 -68 57 -83 18 -48 32 -254 29 -432 l-3 -170 -73 -18
c-41 -10 -81 -16 -89 -12 -23 8 -9 124 23 187 33 65 42 139 20 157 -23 19 -45
6 -64 -39 -9 -22 -21 -38 -27 -37 -5 2 -21 22 -33 45 -66 119 -69 446 -5 523
14 16 29 29 33 29 5 0 26 -21 47 -47z m-6877 -37 c53 -56 77 -95 91 -151 10
-38 8 -54 -10 -112 -40 -131 -142 -283 -190 -283 -28 0 -51 68 -58 174 -12
187 46 416 106 416 11 0 38 -20 61 -44z m4166 -3 c15 -21 46 -57 68 -81 37
-39 41 -48 41 -94 0 -46 -3 -53 -39 -84 -41 -35 -98 -59 -120 -51 -7 3 -18 19
-24 35 -14 41 6 76 80 137 60 49 60 50 32 53 -16 2 -46 8 -66 13 -41 11 -55
38 -44 84 9 37 40 31 72 -12z m-2859 -15 c41 -40 42 -63 3 -103 l-31 -32 31
-38 c19 -24 30 -49 30 -70 0 -30 -3 -33 -37 -39 -80 -13 -110 -8 -142 24 -28
29 -66 111 -78 172 -8 41 19 73 79 97 77 29 106 27 145 -11z m4517 -98 c9 -22
16 -52 16 -66 0 -31 -29 -84 -46 -84 -24 0 -100 131 -90 156 3 8 20 23 37 33
41 25 61 15 83 -39z m-1010 21 c59 -23 9 -89 -58 -77 -47 9 -86 42 -86 73 0
26 1 26 59 20 32 -4 70 -11 85 -16z m1432 -56 c9 -36 -4 -93 -32 -141 -13 -22
-24 -46 -24 -52 0 -29 -45 -127 -72 -158 -51 -58 -62 -60 -109 -17 -51 46
-119 148 -119 178 0 33 31 67 107 119 76 52 174 95 215 96 21 0 29 -6 34 -25z
m-5946 -37 c30 -32 44 -63 65 -140 23 -87 17 -155 -30 -315 -20 -70 -35 -144
-35 -175 0 -76 -10 -87 -55 -65 -70 33 -93 22 -109 -55 -13 -59 -73 -11 -101
80 -34 108 -6 231 105 452 32 63 65 139 74 168 8 29 18 57 21 62 11 17 43 11
65 -12z m3600 3 c0 -25 -30 -36 -48 -17 -19 18 -7 36 24 36 17 0 24 -6 24 -19z
m1198 -7 c7 -52 -74 -72 -136 -34 -56 34 -17 59 88 56 38 -1 45 -4 48 -22z
m1521 -89 c15 -91 6 -180 -20 -206 -11 -11 -23 -19 -28 -19 -21 0 -71 53 -71
75 0 27 33 137 61 202 26 61 43 46 58 -52z m586 63 c34 -50 81 -262 72 -329
-7 -50 -22 -69 -57 -69 -34 0 -36 8 -46 165 -3 64 -14 134 -25 167 -10 31 -16
64 -13 72 9 24 51 19 69 -6z m-8254 -20 c15 -29 25 -183 11 -192 -5 -3 -21 3
-33 13 -22 18 -24 26 -22 101 2 45 5 86 9 91 9 15 23 10 35 -13z m4723 0 c18
-25 22 -78 6 -78 -24 0 -61 26 -66 47 -13 52 30 74 60 31z m-1784 -50 c34 -60
38 -98 13 -121 -30 -26 -67 -30 -109 -11 -21 9 -64 22 -94 28 -52 11 -55 14
-58 44 -4 41 20 52 60 29 17 -9 35 -17 42 -17 6 0 29 23 50 50 21 28 44 50 52
50 7 0 27 -24 44 -52z m3490 32 c11 -6 20 -17 20 -24 0 -22 -38 -63 -67 -74
-39 -13 -67 0 -103 50 -29 40 -30 43 -13 56 20 16 129 10 163 -8z m1005 -105
c0 -82 -3 -97 -21 -115 -29 -30 -86 -37 -108 -14 -35 34 4 162 67 225 27 28
31 29 46 14 12 -12 16 -37 16 -110z m-7250 65 c10 -17 -23 -60 -45 -60 -23 0
-28 38 -8 58 15 15 45 16 53 2z m5460 -35 c0 -24 -5 -31 -24 -33 -31 -5 -45
11 -37 43 5 21 12 26 34 23 23 -2 27 -8 27 -33z m-3572 -25 c48 -53 120 -184
132 -239 5 -21 2 -42 -6 -58 -11 -20 -10 -32 5 -77 31 -90 6 -120 -58 -71 -44
34 -106 44 -126 21 -11 -15 -11 -19 1 -31 29 -29 136 -86 188 -102 74 -21 119
-71 210 -229 41 -71 99 -164 130 -207 31 -43 71 -99 89 -124 35 -49 40 -79 17
-109 -14 -19 -14 -19 -47 0 -94 55 -99 56 -129 40 -25 -13 -33 -13 -65 1 -52
21 -70 19 -119 -16 l-43 -31 -41 22 c-80 40 -103 130 -60 231 l22 49 -21 54
c-11 30 -24 87 -27 128 -9 90 -35 154 -70 170 -21 9 -29 9 -42 -4 -16 -16 -15
-21 12 -68 17 -29 20 -191 5 -254 -11 -50 -51 -92 -74 -79 -29 16 -137 126
-167 170 -38 55 -64 116 -80 189 -28 130 -65 151 -98 54 -14 -41 -41 -218 -41
-273 0 -36 2 -39 50 -59 36 -15 59 -34 85 -69 46 -65 132 -131 234 -181 50
-24 122 -73 180 -121 53 -43 152 -118 221 -165 389 -267 618 -451 653 -525 8
-17 18 -71 22 -119 l7 -87 -27 -13 c-25 -11 -33 -9 -84 20 -125 73 -298 152
-343 158 -46 6 -78 -5 -78 -27 0 -12 124 -74 180 -90 50 -14 84 -37 172 -115
157 -140 155 -131 193 -994 14 -311 29 -623 35 -695 5 -71 10 -173 10 -226 l0
-97 -36 -34 c-34 -34 -111 -82 -257 -162 -67 -37 -68 -38 -121 -144 -85 -171
-155 -335 -167 -393 -28 -138 -33 -143 -104 -109 -36 17 -52 33 -66 64 -10 23
-19 51 -19 64 0 32 -28 82 -45 82 -21 0 -50 -42 -75 -109 -32 -86 -41 -91 -94
-52 -25 17 -53 31 -64 31 -11 0 -39 -23 -67 -55 -49 -58 -64 -65 -85 -40 -7 8
-31 20 -54 26 -45 12 -56 23 -56 56 0 44 -48 48 -137 12 -31 -12 -34 -11 -63
16 -29 28 -31 28 -81 17 -91 -21 -97 -19 -103 41 -4 28 -10 221 -15 427 -6
209 -14 391 -20 410 -30 96 -60 691 -68 1315 -6 511 -1 622 32 671 12 18 26
22 102 26 48 3 118 14 156 23 l67 17 0 47 c1 120 21 336 40 431 12 58 37 139
55 181 l35 76 -15 59 c-26 103 -89 216 -151 273 -57 52 -87 63 -98 35 -15 -39
-5 -72 42 -130 106 -133 105 -124 72 -336 -33 -209 -49 -231 -170 -236 -93 -5
-134 12 -156 64 -13 30 -13 50 1 162 29 239 35 273 57 315 16 31 23 69 29 148
6 89 15 130 54 245 59 174 101 265 158 346 55 76 153 173 185 183 12 3 63 55
112 115 118 142 118 142 183 70z m2864 20 c60 -36 84 -110 40 -118 -37 -7
-108 86 -93 123 7 20 14 19 53 -5z m-5239 -43 c4 -20 -25 -34 -40 -19 -15 15
-1 44 19 40 10 -2 19 -11 21 -21z m6447 -1 c63 -19 95 -50 95 -92 0 -40 -18
-47 -70 -29 -42 15 -124 67 -136 87 -8 12 30 48 51 48 6 0 33 -6 60 -14z
m-799 -22 c-8 -30 -48 -96 -76 -124 -11 -11 -31 -20 -45 -20 -32 0 -44 42 -22
79 22 38 95 91 124 91 22 0 24 -3 19 -26z m438 14 c28 -12 43 -45 28 -60 -18
-18 -76 -5 -88 21 -23 46 6 64 60 39z m4236 -35 c0 -29 -72 -107 -92 -101 -7
3 -17 21 -22 41 -8 31 -6 42 11 64 37 50 103 47 103 -4z m-7627 -50 c10 -53
-33 -71 -72 -30 -24 27 -20 50 12 64 29 14 53 0 60 -34z m4502 -37 c54 -76 87
-148 79 -170 -12 -31 -43 -39 -71 -19 -50 36 -89 53 -121 53 -68 0 -88 31 -57
89 14 29 101 111 116 111 4 0 28 -29 54 -64z m-3952 -36 c57 -67 78 -134 87
-271 9 -124 -2 -437 -15 -459 -22 -36 -80 21 -95 94 -6 29 -21 77 -33 107 -21
51 -22 67 -21 301 1 136 4 255 8 263 7 20 34 7 69 -35z m7266 24 c28 -36 27
-86 -2 -120 -30 -35 -54 -27 -90 28 -46 72 -33 118 34 118 29 0 43 -6 58 -26z
m-9392 -23 c50 -40 103 -107 103 -129 0 -22 -35 -12 -97 29 -67 43 -103 81
-103 109 0 43 35 40 97 -9z m-779 17 c18 -18 15 -53 -9 -105 -18 -40 -20 -56
-14 -143 13 -183 -43 -460 -103 -514 -21 -18 -22 -18 -32 8 -5 15 -10 46 -10
69 0 23 -9 88 -20 145 -28 143 -25 186 19 357 32 122 44 154 66 172 29 25 83
31 103 11z m4842 -3 c0 -8 -7 -15 -15 -15 -8 0 -15 7 -15 15 0 8 7 15 15 15 8
0 15 -7 15 -15z m586 4 c6 -10 -11 -29 -26 -29 -3 0 -11 4 -19 9 -17 11 -5 31
19 31 10 0 22 -5 26 -11z m-2927 -33 c27 -14 111 -99 111 -112 0 -4 -11 -27
-25 -50 -44 -75 -83 -80 -130 -18 -34 45 -68 122 -61 140 4 11 63 54 74 54 2
0 15 -6 31 -14z m-2155 -48 c45 -37 46 -66 5 -113 -22 -24 -48 -40 -85 -51
-30 -9 -54 -21 -54 -29 0 -7 25 -54 55 -103 75 -122 79 -137 48 -204 -14 -29
-34 -76 -44 -104 -24 -63 -88 -138 -140 -164 -46 -24 -97 -26 -106 -4 -15 41
48 296 84 336 15 17 18 34 15 115 l-3 96 39 56 c21 31 51 88 66 128 35 93 51
98 120 41z m5563 16 c38 -28 51 -81 32 -131 -11 -29 -25 -44 -59 -60 -70 -36
-96 -31 -153 29 -90 96 -95 136 -24 169 57 26 164 23 204 -7z m1510 0 c15 -12
41 -45 56 -75 16 -30 56 -96 88 -146 128 -198 140 -250 96 -415 -15 -53 -33
-114 -42 -135 l-17 -38 -65 70 c-133 142 -293 352 -293 384 0 9 7 25 15 35 27
35 16 56 -65 135 -44 43 -80 85 -80 94 0 9 10 23 23 32 125 87 118 84 189 82
50 -2 75 -8 95 -23z m-5119 -75 c38 -39 122 -187 122 -215 0 -26 -24 -49 -41
-39 -31 20 -149 229 -149 265 0 30 33 25 68 -11z m-1728 -14 c0 -26 -133 -210
-152 -210 -6 0 -15 12 -19 27 -9 34 28 94 101 162 56 52 70 57 70 21z m4637
10 c32 -22 36 -59 14 -111 -18 -40 -24 -45 -48 -42 -41 5 -69 64 -53 113 17
52 49 67 87 40z m-4493 -105 c11 -52 13 -55 55 -70 58 -20 105 -70 147 -155
45 -90 50 -162 14 -200 -67 -71 -136 27 -123 174 5 51 3 62 -11 67 -24 9 -50
-18 -77 -79 -24 -55 -28 -119 -15 -212 7 -45 5 -54 -23 -95 -17 -25 -31 -50
-31 -56 0 -5 11 -25 25 -44 14 -19 25 -38 25 -42 0 -14 -74 -79 -96 -84 -12
-3 -52 4 -90 16 -38 12 -101 24 -140 27 -68 5 -73 4 -85 -18 -8 -14 -12 -54
-12 -99 2 -85 -13 -120 -51 -120 -34 0 -51 48 -51 150 0 111 14 145 68 162 39
12 44 18 69 81 15 38 43 90 62 115 19 26 39 65 45 87 21 77 127 209 199 248
54 29 87 61 78 75 -3 5 -22 13 -41 16 -30 6 -35 11 -35 33 0 31 47 85 69 81 9
-2 19 -24 25 -58z m3049 36 c11 -28 -36 -100 -87 -134 -126 -84 -100 26 28
120 44 32 52 34 59 14z m-4592 -75 c43 -48 49 -76 20 -86 -25 -8 -61 7 -94 40
-31 32 -42 64 -33 100 l7 26 30 -18 c17 -10 49 -38 70 -62z m6304 10 c16 -16
46 -33 65 -38 32 -8 35 -13 38 -49 2 -26 -4 -50 -18 -72 -18 -30 -24 -33 -53
-27 -93 20 -157 74 -157 133 0 28 51 82 76 82 10 0 32 -13 49 -29z m960 -2
c15 -47 -43 -130 -112 -162 -32 -14 -45 4 -40 54 12 96 130 179 152 108z
m-1480 -29 c0 -36 -21 -53 -27 -23 -6 29 3 64 16 60 6 -2 11 -19 11 -37z
m-2276 -7 c6 -21 26 -110 45 -198 19 -88 48 -202 66 -254 34 -104 33 -135 -5
-171 -33 -31 -51 -21 -121 68 -142 179 -210 301 -200 357 13 68 148 235 190
235 9 0 19 -15 25 -37z m3983 7 c38 -11 68 -33 68 -51 0 -21 -91 -106 -151
-142 -110 -64 -144 -42 -115 73 18 71 27 85 71 112 34 20 73 23 127 8z m-665
-83 c49 -28 100 -125 82 -159 -5 -9 -25 -22 -45 -28 -31 -10 -38 -10 -56 7
-29 26 -58 87 -58 123 0 17 9 39 20 50 23 23 27 24 57 7z m2040 -23 c23 -32
17 -164 -12 -247 -14 -39 -32 -120 -40 -179 -22 -171 -55 -310 -78 -335 -24
-27 -59 -30 -78 -7 -19 23 -26 481 -9 596 12 87 42 154 83 183 30 22 115 15
134 -11z m-2217 -20 c13 -40 4 -58 -26 -52 -23 4 -28 26 -15 61 14 37 27 34
41 -9z m-510 -20 c0 -16 -45 -20 -55 -5 -7 12 25 30 42 24 7 -3 13 -11 13 -19z
m1638 -66 c121 -107 337 -347 499 -553 121 -154 154 -216 210 -385 116 -350
158 -702 127 -1060 -17 -196 11 -973 42 -1145 7 -44 14 -114 14 -155 0 -97
-35 -324 -56 -359 -28 -47 -132 -102 -168 -88 -9 4 -24 21 -34 38 -34 64 -44
69 -138 69 -137 0 -284 -48 -313 -103 -28 -53 -87 -35 -152 47 -49 60 -75 116
-84 180 -4 26 -18 61 -31 79 -36 49 -45 74 -34 101 14 37 55 63 111 70 29 4
78 20 108 37 31 16 67 29 81 29 68 0 222 137 275 243 29 59 32 132 15 308 -30
294 -113 473 -310 667 -54 54 -110 107 -124 119 -26 22 -26 23 -24 160 3 161
-1 173 -87 252 -41 37 -65 51 -86 51 -47 0 -158 -50 -200 -90 -42 -39 -49 -72
-29 -126 6 -14 15 -83 21 -153 14 -180 33 -214 131 -235 46 -10 53 -37 52
-191 -1 -77 -6 -152 -12 -166 -13 -31 -15 -32 -330 -54 -118 -8 -223 -20 -234
-26 -39 -21 -65 -130 -33 -143 8 -3 36 4 62 16 41 18 66 21 168 20 66 0 158
-8 205 -16 118 -22 130 -21 226 19 96 40 110 42 136 18 26 -23 22 -52 -11
-105 -45 -70 -62 -78 -208 -89 -70 -6 -185 -24 -255 -40 -69 -16 -134 -29
-143 -29 -9 0 -32 -7 -51 -16 -90 -43 -98 -202 -24 -498 34 -138 40 -170 29
-178 -8 -5 -52 -7 -99 -6 -70 3 -95 9 -142 33 -76 38 -91 27 -60 -42 35 -78
33 -106 -9 -123 -42 -18 -55 -2 -73 84 -16 75 -14 87 20 121 26 26 64 141 64
194 0 21 -6 46 -14 56 -13 18 -15 17 -29 -17 -31 -74 -68 -55 -70 37 -1 60 15
85 55 85 36 0 43 22 93 301 8 47 21 107 29 132 7 25 10 51 5 58 -4 8 -30 20
-56 29 l-48 15 -6 85 c-3 47 -11 101 -18 120 -6 19 -16 127 -22 240 -13 238
-4 370 32 447 17 36 23 73 27 150 l4 102 54 47 c100 85 165 226 183 396 12
116 2 205 -35 313 -34 102 -30 130 25 145 46 12 51 17 95 106 44 87 99 143
151 151 l38 6 -7 -34 c-18 -100 -19 -145 -2 -162 16 -15 20 -15 46 -2 36 18
58 59 66 119 5 34 1 54 -17 90 l-23 46 21 28 c11 15 42 44 69 64 57 44 202
125 225 127 9 0 48 -27 87 -61z m1411 -44 c28 -30 70 -94 93 -141 38 -76 43
-95 43 -152 -1 -119 -86 -249 -191 -291 -106 -43 -128 -17 -120 145 3 63 18
172 35 255 16 80 33 163 36 185 4 22 9 43 11 47 13 20 47 3 93 -48z m-1975 20
c22 -21 20 -56 -5 -88 -40 -51 -82 -18 -64 51 13 53 40 67 69 37z m-1188 -40
c38 -40 39 -45 22 -143 -14 -84 -4 -116 40 -126 16 -3 43 -20 59 -38 35 -37
83 -117 83 -138 0 -24 36 -84 115 -190 92 -123 109 -155 141 -265 27 -95 63
-171 130 -275 l45 -70 -43 -97 c-23 -53 -54 -110 -69 -127 -28 -30 -28 -30
-47 -10 -10 11 -44 79 -75 150 -58 133 -112 233 -255 478 -83 143 -148 312
-171 442 -21 118 -51 350 -51 391 0 67 25 73 76 18z m247 22 c18 -7 54 -32 81
-54 27 -22 65 -45 85 -49 l36 -9 1 -114 c1 -63 2 -128 3 -143 1 -20 18 -46 55
-85 85 -91 97 -133 50 -177 -37 -34 -57 -31 -105 13 -75 67 -135 164 -175 284
-20 61 -54 149 -75 195 -62 133 -48 178 44 139z m374 -42 c42 -60 65 -83 85
-86 36 -5 59 -48 59 -110 0 -96 -62 -178 -135 -178 -58 0 -116 140 -116 279 0
49 4 65 26 90 31 38 57 39 81 5z m266 -70 c8 -9 -11 -44 -23 -44 -6 0 -10 8
-10 18 0 27 18 41 33 26z m-5092 -291 c15 -18 18 -229 9 -663 -3 -129 -1 -260
4 -291 l8 -55 -44 -54 c-61 -75 -88 -88 -194 -96 -104 -8 -124 -16 -124 -49 0
-31 27 -48 110 -68 142 -35 180 -64 180 -139 0 -26 -7 -63 -16 -81 -15 -32
-15 -37 5 -82 26 -58 27 -106 4 -128 -10 -8 -44 -25 -75 -37 -50 -19 -98 -58
-98 -80 0 -4 8 -18 19 -31 18 -22 20 -22 75 -9 75 18 84 9 96 -96 5 -45 18
-116 29 -160 30 -118 48 -295 76 -714 4 -52 15 -210 26 -350 24 -311 26 -478
5 -585 -29 -148 -46 -162 -121 -101 -65 54 -86 55 -126 7 -30 -36 -42 -42 -94
-52 -33 -5 -72 -19 -87 -30 -35 -24 -34 -25 -68 12 -20 22 -42 34 -76 40 -26
5 -55 16 -65 25 -28 25 -88 22 -110 -5 l-19 -23 -55 23 c-50 21 -59 21 -107
10 -29 -7 -94 -15 -144 -18 l-91 -6 -7 144 c-10 244 -22 676 -61 2254 l-6 240
45 57 c75 94 263 209 367 223 27 4 52 11 55 16 13 21 -10 52 -54 71 l-45 20
-101 -51 c-56 -28 -127 -72 -160 -98 -89 -72 -85 -71 -103 -48 -12 16 -14 37
-9 105 7 118 20 155 74 213 61 65 185 165 279 225 119 75 339 231 450 317 113
89 304 215 324 215 4 0 13 -7 20 -17z m-1022 -25 c40 -41 45 -60 27 -95 -19
-38 -114 -126 -126 -118 -14 8 -13 114 2 156 13 39 45 89 57 89 5 0 23 -14 40
-32z m6069 -274 l-3 -211 -36 -69 c-36 -71 -87 -118 -115 -107 -31 12 -94 171
-94 238 0 20 16 55 43 97 24 36 58 106 76 156 29 82 77 166 105 184 20 13 27
-72 24 -288z m-3112 251 c8 -19 14 -66 14 -105 0 -61 -2 -70 -18 -70 -19 0
-72 51 -91 87 -18 35 -13 72 14 98 35 36 63 32 81 -10z m-305 -131 c18 -49
-35 -96 -69 -62 -20 20 -14 64 11 76 35 17 47 14 58 -14z m-1181 -496 c114
-58 82 -151 -59 -173 -24 -4 -49 -9 -57 -12 -7 -2 -22 5 -33 16 -16 16 -21 34
-21 74 0 62 18 93 63 106 49 14 59 13 107 -11z m8394 -1354 c11 -28 6 -71 -8
-83 -12 -10 -15 -7 -18 16 -7 61 11 107 26 67z m-5731 -13 c24 -24 -65 -108
-156 -146 -57 -23 -316 -85 -358 -85 -72 0 -88 24 -49 73 33 41 120 77 262
107 73 15 153 38 178 49 45 22 102 23 123 2z m5483 -139 c38 -25 41 -95 4
-107 -56 -18 -123 32 -101 74 19 35 69 52 97 33z m-5318 -65 c5 -40 -26 -114
-60 -142 -24 -20 -40 -25 -88 -25 -143 0 -146 55 -8 143 99 63 151 71 156 24z
m5427 -115 c-12 -13 -24 22 -12 37 10 12 13 11 15 -8 2 -13 1 -26 -3 -29z
m-2700 -17 c0 -34 -4 -40 -22 -43 -27 -4 -41 35 -23 68 19 35 45 21 45 -25z
m-3366 -21 c12 -11 9 -21 -24 -71 -26 -40 -40 -72 -43 -104 -4 -40 0 -50 27
-81 21 -25 31 -46 31 -69 0 -48 -60 -267 -80 -292 -17 -20 -21 -21 -64 -9 -26
6 -71 12 -101 12 -64 0 -66 5 -34 89 11 30 29 97 40 150 23 112 29 132 81 269
30 78 46 106 66 117 30 16 79 11 101 -11z m3362 -151 c6 -16 0 -37 -21 -76
-16 -30 -32 -70 -35 -91 -4 -20 -11 -39 -15 -41 -25 -15 -22 193 2 223 17 20
60 10 69 -15z m-441 -72 c0 -16 -8 -39 -19 -52 -16 -20 -21 -21 -35 -10 -19
16 -21 62 -4 79 7 7 22 12 35 12 19 0 23 -5 23 -29z m-1872 -85 c2 -10 0 -22
-5 -27 -20 -20 -62 18 -47 42 10 16 49 5 52 -15z m4613 -187 c9 -18 7 -25 -14
-46 -38 -39 -59 -16 -37 41 12 32 35 34 51 5z m-4497 -55 c10 -25 7 -106 -5
-168 -13 -60 -43 -96 -81 -96 -53 0 -115 -73 -89 -104 6 -8 42 -17 79 -21 37
-4 73 -12 80 -17 15 -13 16 -55 1 -97 -10 -27 -15 -31 -48 -31 -20 0 -57 10
-81 23 -41 20 -46 27 -54 69 -8 42 -13 49 -42 58 -60 20 -194 148 -194 186 0
29 66 86 144 124 156 78 277 108 290 74z m4141 -8 c11 -8 29 -30 39 -50 16
-29 17 -41 8 -61 -6 -14 -16 -25 -22 -25 -14 0 -60 98 -60 128 0 26 8 27 35 8z
m-2354 -47 c63 -69 57 -103 -16 -79 -41 13 -65 43 -65 81 0 53 30 53 81 -2z
m-3165 -134 c28 -8 81 -38 122 -69 39 -30 81 -57 92 -61 29 -9 25 -20 -25 -74
-60 -64 -59 -87 3 -126 37 -23 54 -44 79 -95 70 -140 67 -224 -10 -258 -46
-21 -87 -64 -130 -137 -26 -44 -30 -47 -39 -30 -6 10 -14 115 -18 234 -4 120
-12 228 -18 244 -15 35 -79 130 -154 228 -32 42 -58 83 -58 91 0 18 27 43 60
57 34 13 39 13 96 -4z m4990 -3 c6 -4 19 -21 28 -39 24 -48 53 -63 117 -63 59
0 119 16 119 31 0 5 13 9 29 9 36 0 73 -43 92 -108 14 -50 8 -60 -26 -44 -33
15 -163 15 -221 1 -82 -21 -83 -74 -1 -113 29 -14 72 -40 95 -58 39 -29 52
-33 104 -33 l61 0 17 -61 c22 -80 60 -174 71 -174 5 0 9 3 9 8 0 4 18 27 40
52 l40 45 30 -33 c40 -43 29 -67 -35 -76 -40 -6 -48 -12 -65 -46 -11 -22 -20
-45 -20 -52 0 -7 -11 -37 -25 -66 -40 -86 -59 -61 -70 90 -4 50 -13 94 -21
105 -13 17 -16 16 -45 -20 -36 -44 -87 -72 -155 -87 -58 -13 -90 -7 -104 20
-6 11 -22 84 -36 163 -30 172 -62 247 -158 365 -104 128 -107 156 -16 185 24
8 134 7 146 -1z m-2070 -90 c6 -13 9 -32 7 -42 -7 -26 -80 -59 -171 -79 -75
-16 -101 -34 -89 -64 5 -14 263 -147 285 -147 26 0 63 -46 87 -110 16 -42 33
-70 41 -70 8 0 32 9 54 20 60 30 86 27 100 -14 6 -18 29 -52 50 -74 43 -44 48
-62 24 -86 -22 -23 -49 -20 -67 8 -9 13 -49 41 -90 62 l-75 38 -59 -62 -59
-63 -55 7 c-50 6 -57 4 -93 -25 -63 -51 -85 -41 -132 56 -34 74 -62 169 -70
247 -3 33 -20 95 -36 136 -64 162 -18 231 167 250 46 5 96 16 112 24 36 20 55
17 69 -12z m370 -44 c45 -50 70 -112 59 -148 -21 -65 -125 50 -125 138 0 53
23 56 66 10z m2419 8 c13 -13 27 -39 30 -58 9 -45 3 -111 -10 -115 -21 -6 -73
57 -84 101 -13 51 -1 96 24 96 9 0 27 -11 40 -24z m-6111 -71 c20 -20 30 -92
23 -174 -4 -58 -8 -68 -33 -86 -15 -11 -44 -34 -63 -52 -49 -43 -49 -93 2
-184 43 -77 46 -105 14 -120 -19 -8 -32 -6 -72 15 -26 14 -56 26 -65 26 -36 0
-158 108 -188 166 -15 28 -1 78 51 179 83 161 270 291 331 230z m2594 0 c42
-18 82 -52 82 -71 0 -19 -86 -131 -162 -211 -66 -70 -68 -74 -68 -123 0 -55 9
-78 46 -123 27 -32 31 -69 9 -87 -11 -9 -23 -2 -66 44 -28 30 -66 60 -84 66
-18 6 -38 17 -44 24 -11 13 -61 292 -61 337 0 41 111 122 199 145 63 17 105
17 149 -1z m1864 3 c55 -16 78 -48 68 -93 -9 -38 -52 -118 -82 -152 -19 -20
-22 -21 -60 -7 -22 8 -70 35 -106 61 -36 27 -73 52 -81 58 -9 5 -43 10 -76 10
-45 0 -60 4 -63 15 -5 27 22 50 73 64 28 8 75 23 105 35 63 23 162 27 222 9z
m2421 -41 c140 -69 227 -187 227 -307 0 -105 -38 -150 -126 -150 -45 0 -59 -5
-105 -40 -57 -43 -68 -47 -87 -28 -22 22 -14 65 16 88 37 30 51 58 52 105 0
55 -18 77 -103 126 -94 54 -173 113 -193 145 -16 23 -15 26 2 46 62 70 194 76
317 15z m-2055 10 c12 -13 25 -37 28 -55 5 -26 1 -36 -24 -62 -35 -35 -55 -32
-78 12 -17 33 -11 82 14 111 20 23 34 22 60 -6z m379 -69 c23 -27 46 -66 69
-123 21 -52 30 -220 15 -267 -14 -42 -64 -93 -84 -85 -15 6 -47 99 -68 197
-12 56 -9 266 5 288 11 19 41 14 63 -10z m-3120 -30 c27 -26 29 -51 8 -168
-22 -123 -21 -125 39 -188 71 -76 80 -94 66 -136 -12 -38 -47 -79 -60 -71 -5
3 -12 26 -16 51 -4 26 -17 58 -30 72 l-23 27 -40 -22 c-23 -13 -57 -23 -79
-23 -30 0 -43 -6 -54 -22 -18 -27 -48 -18 -48 15 0 13 19 53 42 88 66 102 117
218 133 302 21 108 23 111 62 75z m-1773 -48 c84 -127 90 -247 14 -286 -39
-20 -55 -9 -68 48 -14 69 -24 219 -16 252 10 39 39 33 70 -14z m4353 -59 c32
-47 63 -136 63 -179 0 -50 -33 -102 -64 -102 -58 0 -97 116 -76 224 21 105 36
117 77 57z m-1930 -18 c17 -42 14 -165 -6 -201 -24 -46 -76 -33 -84 20 -6 45
10 153 28 189 21 39 43 37 62 -8z m1458 -207 c25 -38 36 -86 24 -108 -14 -25
-88 -78 -110 -78 -49 0 -45 77 7 168 28 48 55 55 79 18z m-335 -15 c0 -11 -4
-23 -10 -26 -6 -4 -10 5 -10 19 0 14 5 26 10 26 6 0 10 -9 10 -19z m2358 -47
c3 -27 -13 -48 -32 -41 -19 7 -21 38 -4 55 16 16 32 10 36 -14z m-5377 -27
c-16 -16 -26 0 -10 19 9 11 15 12 17 4 2 -6 -1 -17 -7 -23z m-5276 -267 c3
-10 1 -29 -5 -40 -9 -17 -14 -19 -26 -9 -17 14 -19 56 -1 62 21 9 26 7 32 -13z
m3595 -6 c8 -8 14 -34 14 -57 1 -41 0 -42 -35 -45 -41 -3 -56 10 -60 53 -4 59
-1 65 35 65 18 0 39 -7 46 -16z"/>
<path d="M20054 19066 c-15 -12 -17 -18 -8 -33 20 -33 94 -29 94 5 0 40 -48
55 -86 28z"/>
<path d="M14600 18567 c0 -28 102 -238 125 -257 14 -12 18 -12 26 1 13 20 4
51 -41 146 -52 111 -110 168 -110 110z"/>
<path d="M14407 18514 c-11 -11 -8 -62 3 -69 18 -11 41 17 38 44 -3 25 -27 39
-41 25z"/>
<path d="M13661 16451 c-14 -9 -12 -44 3 -45 5 -1 14 7 20 16 13 21 -3 41 -23
29z"/>
<path d="M13640 16199 c-23 -42 13 -95 46 -68 15 12 18 46 8 73 -9 23 -41 20
-54 -5z"/>
<path d="M16610 18312 c0 -28 56 -107 86 -121 63 -28 51 42 -17 104 -43 39
-69 45 -69 17z"/>
<path d="M12279 16061 c-20 -16 -21 -21 -10 -35 7 -8 39 -23 70 -33 67 -20
126 -55 141 -82 5 -11 14 -37 18 -58 9 -43 47 -69 88 -59 73 19 -34 202 -150
257 -71 34 -124 37 -157 10z"/>
<path d="M10700 16885 c-16 -20 -5 -77 19 -100 38 -33 141 -41 141 -10 0 19
-39 64 -83 96 -45 33 -59 35 -77 14z"/>
<path d="M10488 15485 c-6 -14 -9 -27 -7 -29 41 -35 213 -155 255 -177 68 -35
114 -39 114 -9 0 28 -38 62 -119 106 -36 21 -100 59 -142 86 -42 26 -79 48
-83 48 -3 0 -12 -11 -18 -25z"/>
<path d="M10943 15233 c-7 -2 -13 -13 -13 -23 0 -23 43 -34 71 -19 18 9 19 13
8 24 -17 16 -50 25 -66 18z"/>
<path d="M11062 15162 c-27 -18 11 -58 43 -46 21 8 19 31 -4 44 -23 12 -23 12
-39 2z"/>
<path d="M19088 20149 c-29 -11 -41 -31 -32 -54 3 -8 34 -33 67 -55 34 -22 72
-47 84 -56 27 -19 53 -12 53 15 0 23 -81 136 -109 150 -23 13 -27 13 -63 0z"/>
<path d="M19860 19815 c-21 -25 0 -50 41 -50 31 0 34 3 34 30 0 26 -4 30 -31
33 -19 2 -36 -3 -44 -13z"/>
<path d="M8847 19713 c-16 -15 -4 -49 43 -126 38 -64 52 -97 60 -151 12 -79
28 -113 81 -177 48 -57 59 -86 59 -152 1 -97 15 -139 58 -177 21 -19 53 -55
69 -80 60 -88 100 -102 90 -31 -2 20 -36 122 -75 226 -72 196 -92 265 -74 265
5 0 32 -18 60 -40 27 -22 60 -40 72 -40 26 0 25 5 -11 109 -21 59 -26 65 -68
84 -25 11 -49 24 -52 30 -4 5 -4 36 -2 68 6 66 -10 119 -36 119 -10 0 -30 -13
-46 -30 -16 -16 -34 -30 -41 -30 -6 0 -43 32 -82 70 -66 66 -89 79 -105 63z"/>
<path d="M8747 19256 c-9 -22 1 -45 40 -93 18 -23 46 -72 61 -110 15 -38 56
-112 90 -165 66 -101 82 -140 82 -199 0 -52 25 -77 89 -89 117 -22 151 -10
171 60 12 41 -2 68 -38 75 -96 20 -99 22 -182 128 -44 56 -101 144 -126 195
-77 152 -168 248 -187 198z"/>
<path d="M18983 17350 c-38 -23 -35 -47 6 -56 73 -15 111 -67 111 -151 0 -47
2 -53 24 -59 32 -8 111 27 126 56 30 55 -19 127 -116 170 -26 11 -54 29 -61
40 -18 25 -49 25 -90 0z"/>
<path d="M18579 14655 c-35 -19 -52 -58 -35 -81 16 -21 129 -33 140 -15 9 13
-9 48 -42 84 -29 31 -29 31 -63 12z"/>
<path d="M18635 14434 c-10 -15 -20 -46 -22 -68 -10 -84 73 -102 96 -21 22 82
-34 149 -74 89z"/>
<path d="M8782 12093 c-5 -10 -17 -41 -26 -69 -11 -33 -32 -65 -61 -94 -25
-24 -45 -50 -45 -57 0 -32 -165 -92 -279 -102 -51 -4 -76 -11 -82 -21 -15 -31
-88 -277 -98 -334 -6 -33 -11 -84 -11 -113 l0 -54 36 7 c43 8 76 -18 107 -86
18 -39 20 -62 18 -170 -4 -253 38 -460 95 -460 8 0 24 21 36 48 13 26 31 48
40 50 37 7 191 -183 205 -250 6 -29 7 -30 63 -32 31 -1 37 -6 57 -46 42 -85
64 -165 70 -250 5 -71 3 -88 -10 -99 -24 -19 -73 1 -124 51 -45 45 -73 46 -73
4 0 -18 9 -30 29 -40 24 -13 30 -24 36 -67 4 -29 20 -80 35 -113 37 -82 74
-256 61 -287 -5 -13 -35 -55 -66 -94 -130 -159 -143 -207 -80 -289 19 -26 35
-54 35 -64 0 -9 -14 -55 -30 -102 -16 -47 -30 -94 -30 -105 -1 -36 -17 -48
-75 -56 -32 -4 -70 -13 -85 -19 -51 -21 -59 -81 -20 -160 33 -68 32 -82 -11
-169 -24 -49 -38 -89 -34 -100 9 -28 42 -53 70 -53 32 -1 56 20 112 96 46 62
52 90 28 122 -15 20 -20 82 -7 100 4 5 25 17 47 25 35 13 42 21 59 69 24 68
23 67 42 48 11 -10 21 -52 29 -114 12 -97 15 -102 61 -130 16 -9 16 -13 1 -59
-36 -104 -4 -215 62 -215 22 0 41 33 41 73 0 58 12 74 42 60 16 -7 33 -33 52
-80 27 -67 28 -77 30 -264 3 -227 13 -271 66 -307 51 -34 150 -122 150 -133 0
-9 -37 -27 -113 -57 -14 -6 1 -21 70 -74 98 -74 170 -142 179 -170 3 -10 22
-27 42 -38 20 -11 78 -52 127 -91 50 -38 127 -88 171 -111 70 -36 84 -40 98
-29 24 20 20 64 -6 81 -13 7 -68 38 -123 68 -124 66 -163 96 -171 128 -15 57
36 68 140 29 80 -30 106 -31 139 -5 36 28 84 25 134 -9 25 -17 62 -31 91 -35
28 -3 64 -17 83 -31 64 -46 92 -57 163 -66 90 -12 162 -46 219 -108 73 -78
118 -188 120 -294 1 -71 -8 -94 -41 -100 -35 -7 -149 -83 -162 -108 -9 -16 -3
-24 45 -54 64 -42 71 -66 24 -91 -43 -22 -79 -62 -79 -88 0 -71 74 -86 175
-37 33 17 87 42 120 56 87 38 411 243 445 282 16 18 38 62 49 97 11 36 45 122
75 193 107 250 166 531 166 793 0 107 -9 128 -57 132 -33 3 -38 7 -41 31 -4
35 18 44 52 22 66 -44 89 18 121 317 13 128 33 296 45 373 26 175 39 478 29
695 -4 91 -8 327 -8 525 -1 246 -6 398 -16 480 -33 271 -57 595 -75 1030 -19
452 -37 601 -81 671 -26 42 -48 49 -93 27 -34 -16 -38 -16 -71 0 -20 9 -41 17
-48 17 -7 0 -43 -21 -82 -47 l-69 -48 -132 0 -132 0 -43 -31 c-70 -51 -89 -98
-89 -218 0 -56 9 -148 19 -206 28 -150 37 -249 66 -665 28 -411 42 -578 54
-621 10 -39 40 -38 66 4 11 17 39 57 63 88 23 31 42 63 42 71 0 8 13 45 29 82
16 37 32 83 36 102 4 19 20 64 36 101 21 47 29 83 29 123 0 93 62 173 121 158
33 -9 59 -52 59 -97 0 -65 -65 -335 -97 -406 -17 -38 -74 -120 -135 -196 -57
-72 -114 -151 -127 -176 -28 -59 -42 -70 -83 -66 -26 2 -37 10 -53 40 -15 29
-26 38 -46 38 -32 0 -41 -25 -28 -75 12 -44 55 -79 131 -106 l61 -23 -6 -225
c-9 -335 -39 -480 -123 -587 -24 -32 -44 -66 -44 -77 0 -11 24 -42 55 -71 30
-28 55 -55 55 -60 0 -4 -13 -36 -29 -70 -16 -33 -32 -77 -36 -96 -4 -21 -23
-52 -46 -76 -55 -57 -40 -83 46 -84 17 0 40 -7 52 -15 26 -18 85 -167 81 -203
-4 -36 -39 -52 -114 -52 -53 0 -66 4 -110 35 -27 19 -54 35 -61 35 -21 0 -32
-34 -26 -78 4 -33 2 -43 -11 -48 -31 -12 -66 7 -168 88 -216 172 -293 269
-359 449 -41 113 -55 179 -74 354 -34 311 -70 477 -123 562 -70 115 -68 101
-34 221 51 181 94 409 107 562 15 177 67 396 121 501 44 88 51 143 63 484 8
225 12 268 30 317 29 80 29 174 -1 218 -41 59 -71 74 -171 84 -143 13 -183 10
-243 -19 -30 -15 -62 -38 -71 -51 -19 -30 -38 -30 -109 1 -31 14 -70 25 -85
25 -16 0 -47 -11 -69 -25 -22 -14 -43 -25 -47 -25 -3 0 -18 14 -33 32 -20 23
-36 32 -65 34 -24 2 -48 13 -65 29 -42 40 -70 31 -84 -27 -9 -39 -40 -44 -99
-17 l-50 24 -52 -59 c-34 -38 -57 -57 -67 -54 -8 4 -30 44 -48 90 -31 80 -54
118 -71 118 -5 0 -12 -8 -17 -17z m-244 -469 c2 -39 -2 -56 -18 -75 -20 -24
-20 -24 -35 -5 -17 23 -20 73 -5 111 7 20 16 26 33 23 19 -3 22 -10 25 -54z
m-130 -248 c2 -10 0 -22 -5 -27 -14 -14 -58 24 -49 40 11 18 50 9 54 -13z
m124 -166 c84 -26 118 -62 132 -141 4 -20 2 -48 -3 -62 -10 -26 -18 -30 -96
-42 -30 -5 -50 -18 -81 -50 l-40 -44 -20 52 c-14 40 -19 78 -19 162 0 61 3
118 7 128 10 22 41 22 120 -3z m1212 -1326 c29 -28 18 -104 -14 -104 -22 0
-60 45 -60 71 0 21 26 49 45 49 7 0 21 -7 29 -16z m1 -260 c8 -53 -4 -242 -16
-249 -19 -12 -34 235 -17 278 13 30 25 19 33 -29z m-734 -246 c14 -27 7 -152
-11 -173 -16 -20 -54 -19 -71 1 -26 32 -8 129 33 182 16 18 36 15 49 -10z m73
-700 c8 -14 6 -22 -11 -40 -18 -18 -24 -19 -37 -8 -16 13 -21 51 -9 64 12 12
45 2 57 -16z m715 -697 c11 -11 27 -34 36 -51 9 -18 38 -43 70 -61 67 -38 133
-111 174 -193 28 -56 30 -64 19 -103 -11 -38 -10 -44 16 -84 29 -43 40 -99 20
-106 -33 -12 -312 242 -419 381 -106 139 -95 233 28 235 24 1 44 -6 56 -18z
m1115 -103 c18 -12 43 -36 54 -52 23 -34 48 -123 38 -133 -17 -17 -194 92
-202 124 -8 28 30 83 57 83 11 0 34 -10 53 -22z m215 -334 c29 -21 51 -72 51
-119 0 -40 -21 -55 -47 -34 -46 38 -72 169 -34 169 4 0 17 -7 30 -16z m-24
-404 c0 -28 -4 -35 -20 -35 -13 0 -21 8 -23 23 -5 34 5 54 25 50 13 -2 18 -13
18 -38z m-277 -46 c52 -36 10 -114 -44 -79 -13 8 -24 19 -24 24 0 5 -3 16 -6
24 -6 16 20 47 39 47 7 0 23 -7 35 -16z"/>
<path d="M15713 12050 c-28 -28 -56 -50 -62 -50 -5 0 -19 14 -31 30 -12 17
-27 30 -34 30 -21 0 -92 -67 -126 -120 -44 -68 -64 -67 -150 9 -98 88 -117 88
-212 10 -26 -22 -56 -39 -68 -39 -12 0 -54 23 -93 50 -39 28 -79 50 -89 50
-10 0 -36 -9 -58 -20 -57 -29 -70 -26 -70 14 0 40 -28 80 -51 71 -9 -3 -23
-22 -33 -42 l-17 -36 -102 6 c-56 4 -165 11 -242 17 -198 15 -246 4 -260 -60
-3 -15 -29 -53 -57 -84 l-51 -57 7 -407 c16 -938 47 -1621 82 -1802 8 -41 19
-140 25 -219 12 -177 21 -204 154 -483 58 -119 132 -285 165 -370 71 -176 83
-202 126 -280 18 -31 37 -73 44 -95 7 -21 21 -52 31 -68 31 -52 77 -236 150
-600 44 -219 80 -370 95 -404 13 -29 24 -62 24 -73 0 -10 -22 -40 -50 -65 -54
-50 -61 -73 -35 -123 15 -29 61 -60 88 -60 20 0 85 -74 93 -104 18 -71 -27
-85 -102 -31 -65 47 -74 50 -85 34 -18 -29 -8 -65 31 -113 22 -26 40 -51 40
-55 0 -4 -14 -20 -31 -37 -17 -16 -38 -44 -45 -62 -15 -35 -11 -51 27 -101 13
-16 19 -40 19 -77 0 -71 16 -116 122 -339 50 -104 103 -224 118 -266 18 -54
49 -108 102 -180 41 -57 82 -117 91 -134 30 -59 218 -245 247 -245 10 0 14 14
25 83 7 46 34 71 129 122 l74 39 54 -57 c72 -77 87 -76 133 8 45 80 59 82 69
5 9 -64 37 -96 96 -107 64 -12 64 -35 1 -132 -46 -71 -91 -179 -91 -215 0 -9
-7 -36 -16 -62 -13 -39 -13 -48 -2 -56 7 -5 65 -7 128 -6 95 3 122 8 157 26
49 25 76 28 92 8 19 -22 3 -60 -50 -119 -46 -52 -61 -89 -39 -102 5 -3 19 -19
30 -35 l21 -30 -65 -63 c-86 -82 -89 -107 -23 -175 23 -23 58 -54 79 -68 l37
-26 40 31 c87 69 109 197 36 215 -33 8 -32 15 10 63 43 51 51 72 60 158 8 81
23 110 62 120 41 10 53 24 53 61 0 82 -76 169 -107 122 -4 -7 -13 -31 -18 -53
-14 -51 -41 -57 -87 -17 -18 16 -58 37 -88 45 -79 23 -180 90 -180 119 0 53
94 138 153 138 24 0 32 45 20 104 -6 28 -8 56 -4 63 3 7 47 39 96 72 100 65
210 173 221 216 7 29 -5 77 -55 219 -18 49 -31 101 -29 115 3 25 6 26 60 26
68 0 87 15 95 73 5 34 2 41 -16 47 -14 4 -31 -2 -56 -21 -20 -15 -38 -24 -41
-21 -3 3 4 45 17 94 17 67 22 119 23 218 1 147 -6 188 -32 183 -12 -2 -20 -20
-28 -59 -6 -31 -22 -80 -36 -111 -14 -30 -28 -76 -33 -103 -14 -95 -100 -238
-222 -366 -34 -37 -67 -79 -73 -93 -20 -53 -7 -136 21 -136 6 0 53 41 104 90
91 88 126 107 139 74 19 -49 -12 -82 -191 -205 -96 -66 -161 -123 -215 -188
-16 -19 -29 -21 -118 -21 -117 0 -167 16 -194 61 -23 39 -19 42 86 63 44 8
100 26 125 38 69 34 167 135 188 194 10 27 44 112 77 188 32 77 63 160 69 185
8 36 23 59 70 107 70 70 83 112 55 178 -22 54 -20 68 15 102 17 16 39 45 49
64 10 19 43 74 73 122 64 103 74 139 82 313 4 72 11 157 16 190 8 46 7 83 -5
157 -14 87 -14 107 0 219 14 102 14 132 4 175 -10 42 -10 80 -1 186 6 73 17
187 22 253 13 135 8 280 -10 313 -19 36 -55 27 -139 -36 -86 -65 -163 -94
-299 -112 -86 -11 -180 -40 -220 -65 -12 -8 -45 -54 -74 -102 -59 -102 -85
-133 -111 -133 -34 0 -43 42 -20 94 33 74 71 115 163 177 101 68 196 99 300
100 59 0 75 5 129 37 86 51 196 154 228 216 l27 51 0 400 c-1 409 -16 817 -41
1075 -9 91 -18 393 -24 815 -6 369 -14 721 -19 784 -8 102 -12 116 -34 139
l-25 25 -37 -22 c-35 -20 -39 -21 -55 -6 -10 9 -23 36 -30 61 -14 50 -53 89
-100 99 -22 5 -44 0 -82 -19 -29 -14 -64 -27 -78 -30 -17 -3 -34 -19 -48 -44
-44 -79 -63 -75 -153 30 -34 40 -65 74 -68 75 -3 2 -29 -20 -58 -47z m635
-545 c21 -46 7 -185 -20 -201 -40 -25 -79 173 -42 210 23 24 49 19 62 -9z
m-1378 -414 c27 -52 2 -88 -48 -70 -26 10 -28 36 -6 67 19 27 40 28 54 3z
m-340 -247 c0 -17 -27 -18 -33 -1 -2 6 -2 18 1 25 6 16 32 -4 32 -24z m50
-250 c20 -51 4 -134 -26 -134 -16 0 -24 24 -24 76 0 75 31 110 50 58z m1674
-196 c15 -56 3 -148 -19 -148 -24 0 -34 95 -15 144 12 32 26 33 34 4z m-1104
-63 c0 -27 -25 -45 -64 -45 -32 0 -34 22 -4 50 32 29 68 27 68 -5z m-503 -322
c22 -54 16 -71 -48 -139 l-62 -63 -49 52 -49 52 -19 -23 c-10 -12 -24 -48 -31
-79 l-13 -56 -23 27 c-13 15 -23 36 -23 47 0 30 169 184 247 224 32 17 49 7
70 -42z m-3 -485 c11 -52 16 -135 10 -151 -9 -26 -50 -22 -58 6 -9 36 -7 127
4 148 14 26 39 24 44 -3z m1640 -569 c34 -27 33 -45 -4 -64 -36 -19 -35 -19
-54 1 -28 27 -15 84 20 84 6 0 23 -9 38 -21z m-1764 -415 c14 -35 13 -91 -2
-100 -18 -11 -38 26 -38 71 0 60 22 76 40 29z m1420 -400 c0 -13 -4 -24 -9
-24 -11 0 -22 40 -15 52 9 15 24 -2 24 -28z m-66 -170 c23 -59 13 -194 -14
-194 -15 0 -32 81 -25 119 12 75 17 91 25 91 4 0 11 -7 14 -16z m-504 -183
c13 -25 13 -27 -6 -45 -37 -37 -88 0 -58 42 19 27 50 28 64 3z m1025 -52 c-8
-12 -32 -12 -40 1 -11 18 5 31 26 20 11 -6 17 -15 14 -21z m-1169 -73 c15 -40
-49 -107 -171 -178 -44 -26 -98 -65 -120 -87 -49 -51 -92 -56 -124 -15 -12 15
-21 32 -21 39 0 21 45 55 108 79 33 13 87 46 119 72 54 44 162 102 191 104 7
0 15 -6 18 -14z m474 -219 c0 -38 -13 -62 -29 -53 -15 9 -14 69 1 84 17 17 28
5 28 -31z m494 -303 c37 -14 7 -72 -95 -188 -5 -5 -32 11 -62 37 l-54 46 -58
-70 c-86 -103 -126 -125 -139 -75 -9 36 10 74 45 94 17 9 46 29 65 43 19 15
54 30 79 33 28 5 62 20 88 40 60 45 91 55 131 40z m-371 -425 c18 -25 18 -28
3 -61 -10 -20 -29 -41 -43 -47 -23 -10 -29 -9 -46 7 -23 24 -28 92 -8 116 21
25 70 17 94 -15z m-956 -252 c12 -7 35 -31 52 -53 22 -31 42 -46 79 -58 88
-30 134 -95 97 -136 -37 -41 -93 -13 -134 68 -21 42 -58 62 -112 62 -28 0 -69
30 -69 49 0 19 21 66 33 73 16 10 28 9 54 -5z m475 -233 c50 -26 69 -88 47
-153 -16 -45 -40 -55 -85 -36 -20 8 -44 15 -53 15 -33 0 -91 21 -91 34 0 6 16
27 35 46 19 18 40 50 46 69 18 55 34 59 101 25z m219 -291 c58 -62 87 -133 54
-133 -69 0 -161 122 -125 165 14 17 34 9 71 -32z m-207 -219 c21 -21 20 -47
-3 -68 -17 -16 -20 -16 -35 -1 -16 16 -22 66 -9 78 11 12 31 8 47 -9z"/>
<path d="M16800 12074 c-42 -28 -121 -107 -138 -139 -25 -45 -20 -489 17
-1510 54 -1471 54 -1483 72 -1541 7 -24 5 -41 -13 -80 -19 -41 -22 -67 -22
-169 -1 -119 -1 -121 33 -179 49 -85 126 -173 171 -196 45 -23 265 -211 280
-240 13 -24 0 -33 -37 -24 -43 11 -87 44 -133 102 -52 66 -124 114 -165 110
-70 -7 -23 -85 101 -169 105 -71 114 -99 36 -115 -39 -8 -59 7 -82 61 -20 46
-37 63 -76 74 -16 4 -35 20 -44 37 -19 33 -51 42 -70 19 -18 -22 17 -72 149
-208 114 -118 135 -148 146 -212 10 -51 23 -76 91 -177 73 -106 189 -345 210
-431 14 -56 21 -68 41 -73 25 -7 66 -55 77 -91 15 -48 -49 -41 -78 8 -29 49
-53 69 -84 69 -38 0 -52 32 -52 113 0 56 -6 74 -65 192 -37 74 -86 156 -114
189 -27 32 -79 111 -116 177 -80 141 -115 192 -151 216 -26 16 -27 16 -45 -6
-44 -54 -20 -154 91 -391 96 -205 108 -240 120 -367 13 -140 35 -238 64 -288
14 -23 30 -63 36 -89 6 -26 29 -77 52 -113 37 -59 43 -76 48 -142 4 -62 8 -76
21 -76 29 0 128 149 142 213 l13 57 27 -40 c33 -48 33 -59 2 -110 -14 -22 -25
-48 -25 -58 0 -27 56 -75 96 -83 31 -6 40 -2 69 26 39 38 60 35 101 -13 56
-67 80 -152 49 -177 -20 -17 -57 1 -137 66 -33 27 -68 47 -81 47 -34 0 -85
-40 -114 -91 -29 -49 -74 -188 -67 -205 3 -7 25 -24 49 -39 30 -18 53 -43 72
-78 15 -29 43 -77 61 -108 19 -31 42 -90 53 -131 37 -145 96 -205 145 -147 26
29 39 83 30 119 -3 13 -33 59 -66 102 -33 43 -60 85 -60 94 0 9 41 80 91 156
50 77 102 164 115 193 42 93 144 219 354 437 64 66 121 134 126 150 6 17 17
46 24 65 47 128 66 202 136 510 l77 345 5 221 c5 270 10 259 -112 249 -146
-12 -166 -20 -202 -81 -10 -17 -13 -17 -29 -4 -27 22 -17 157 18 233 14 31 30
57 36 57 13 0 55 -52 70 -88 18 -42 46 -46 109 -16 58 28 98 74 113 129 9 32
7 44 -15 87 -25 49 -26 51 -11 96 39 113 40 1568 1 1852 -7 58 -17 183 -20
279 -4 96 -13 204 -20 240 -21 99 -25 154 -41 546 -15 348 -22 426 -43 447 -7
7 -22 6 -46 -3 -31 -11 -40 -11 -73 6 -29 14 -67 19 -158 22 -150 5 -164 8
-175 38 -23 60 -92 53 -134 -14 -14 -22 -35 -45 -47 -51 -18 -10 -25 -8 -49
15 -40 38 -60 27 -101 -53 -45 -89 -65 -90 -94 -5 -33 95 -91 161 -129 147 -8
-3 -29 -40 -46 -82 -17 -43 -35 -87 -41 -100 -14 -34 -28 -24 -74 53 -51 86
-66 97 -98 67 -13 -12 -36 -22 -51 -22 -26 0 -38 10 -106 88 -23 26 -56 28
-90 6z m220 -1135 c0 -28 -4 -39 -12 -37 -24 8 -22 78 2 78 5 0 10 -18 10 -41z
m-2 -852 c5 -72 -15 -97 -78 -97 -39 0 -52 4 -60 19 -25 48 0 93 65 116 61 22
70 17 73 -38z m-1 -223 c9 -23 -23 -51 -44 -38 -26 16 -27 33 -1 43 33 14 38
13 45 -5z m-77 -727 c0 -42 -25 -79 -39 -58 -5 8 -8 19 -6 25 2 6 6 23 9 39 9
40 36 35 36 -6z m-70 -362 c13 -16 6 -35 -14 -35 -18 0 -39 27 -31 40 9 14 31
12 45 -5z m139 -101 c49 -42 44 -66 -9 -44 -26 11 -60 53 -60 75 0 15 31 1 69
-31z m1251 -99 c15 -18 6 -45 -13 -45 -20 0 -40 27 -33 45 7 19 30 19 46 0z
m-815 -36 c-10 -15 -55 -11 -55 5 0 8 6 16 13 19 17 6 49 -12 42 -24z m-28
-666 c95 -79 133 -128 119 -152 -4 -6 -41 -10 -84 -10 -57 1 -89 -4 -124 -19
-59 -26 -114 -37 -122 -24 -8 13 42 283 56 299 14 18 34 6 155 -94z m662 -69
c1 -39 -4 -85 -10 -103 -36 -103 -52 69 -17 179 10 30 12 32 19 15 4 -11 8
-52 8 -91z m-308 -207 c214 -163 325 -289 301 -342 -6 -14 -23 -27 -38 -31
-24 -6 -33 0 -77 52 -71 83 -135 141 -170 155 -26 11 -35 10 -70 -10 -51 -30
-62 -19 -77 73 -6 38 -22 93 -36 123 -55 116 -3 110 167 -20z m387 -59 c15
-15 16 -64 2 -73 -18 -11 -60 24 -60 49 0 33 35 47 58 24z m-84 -430 c9 -36 7
-150 -3 -144 -15 9 -31 102 -25 136 8 36 19 39 28 8z m-840 -183 c17 -18 31
-78 21 -94 -11 -18 -33 -12 -54 15 -23 30 -27 64 -9 82 16 16 23 15 42 -3z"/>
<path d="M20366 12060 c-84 -36 -99 -49 -121 -106 -15 -41 -20 -45 -42 -39
-13 3 -55 26 -93 52 -50 32 -80 46 -107 47 l-38 1 -7 -110 c-9 -136 9 -1319
22 -1470 6 -60 7 -145 3 -188 -7 -89 13 -1130 27 -1376 8 -130 14 -172 30
-205 25 -52 113 -152 151 -171 37 -20 100 -19 144 2 44 21 67 11 158 -67 106
-91 106 -90 -26 -90 -143 0 -189 14 -280 83 -93 71 -144 100 -158 92 -39 -25
-69 -177 -50 -255 7 -25 16 -196 22 -380 9 -295 13 -340 30 -379 23 -54 24
-92 2 -134 -22 -43 -28 -205 -14 -377 9 -113 15 -144 39 -190 32 -64 61 -76
87 -37 31 47 82 183 135 357 29 96 79 240 110 320 32 80 63 172 70 205 7 33
23 80 35 105 62 124 135 386 144 515 l6 90 81 3 81 3 5 110 c3 61 10 115 16
121 7 7 31 -7 77 -46 36 -31 69 -56 73 -56 4 0 20 -20 35 -44 43 -69 55 -75
82 -44 25 29 80 196 90 273 11 83 66 164 133 199 35 18 41 33 16 43 -21 8
-152 -21 -209 -46 -45 -20 -45 -20 -45 -70 0 -27 -4 -52 -10 -56 -5 -3 -28 11
-51 32 -37 33 -50 39 -103 43 -58 5 -62 7 -80 41 -17 32 -18 42 -8 77 16 53
65 99 125 117 65 19 87 9 116 -54 14 -30 31 -51 40 -51 9 0 36 22 61 49 35 38
54 51 85 55 76 12 90 20 93 49 4 33 -13 57 -40 57 -17 0 -19 4 -14 28 4 15 11
101 15 192 6 140 11 173 30 217 15 33 21 62 17 77 -9 35 -141 154 -187 168
-42 12 -49 30 -28 71 19 36 62 77 81 77 17 0 19 -6 34 -76 10 -55 77 -28 101
41 18 52 9 117 -27 193 -27 58 -49 81 -108 114 -20 11 -42 38 -63 80 -17 35
-56 105 -86 155 -90 153 -106 196 -93 240 13 46 26 293 15 293 -4 0 -28 -15
-54 -34 -64 -48 -94 -54 -115 -25 -9 13 -16 35 -16 49 0 14 -9 58 -20 98 -26
92 -25 102 6 180 17 44 26 87 28 130 1 61 -1 66 -29 86 -62 43 -134 124 -146
164 -10 34 -9 51 6 106 l18 66 -45 48 c-34 36 -47 59 -52 93 -16 101 -82 124
-210 69z m207 -515 c44 -73 45 -91 6 -131 -57 -59 -69 -45 -69 76 0 123 14
135 63 55z m221 -757 c3 -18 8 -55 12 -83 12 -95 84 -238 128 -255 49 -18 36
-70 -18 -70 -27 0 -56 -29 -56 -57 0 -13 11 -51 25 -84 18 -42 29 -93 36 -172
6 -62 19 -138 30 -169 10 -32 19 -70 19 -85 0 -35 -31 -103 -55 -123 -16 -13
-20 -12 -41 13 -62 73 -117 447 -90 612 7 43 5 58 -19 110 -21 45 -28 78 -29
132 -1 40 -5 76 -9 79 -13 14 -35 -18 -41 -60 -6 -39 -29 -66 -43 -52 -12 12
-21 85 -16 124 6 44 20 60 82 94 18 10 39 31 49 48 22 38 30 38 36 -2z m343
-1072 c19 -41 13 -62 -23 -78 -23 -11 -28 -10 -45 10 -20 26 -18 56 7 83 25
28 42 23 61 -15z m-110 -198 c38 -35 26 -98 -18 -98 -41 0 -68 77 -37 108 17
17 28 15 55 -10z"/>
<path d="M12475 12059 c-13 -21 56 -136 182 -305 147 -196 241 -303 332 -379
74 -62 117 -77 138 -49 32 44 -12 105 -158 220 -135 106 -148 139 -92 232 46
77 46 79 12 142 -45 82 -54 85 -146 59 -88 -24 -94 -23 -178 46 -56 45 -78 54
-90 34z"/>
<path d="M12966 12047 c-30 -30 -43 -74 -29 -96 11 -18 85 -77 105 -83 10 -4
10 -18 -5 -74 -22 -89 -21 -113 6 -145 33 -39 63 -51 120 -48 29 2 62 0 74 -4
36 -13 180 -195 209 -263 12 -28 13 -43 4 -70 -16 -46 -95 -131 -212 -226 -54
-44 -105 -89 -113 -102 -13 -19 -13 -37 1 -141 15 -118 30 -158 65 -176 7 -4
43 -21 79 -38 71 -33 219 -161 246 -213 17 -32 12 -63 -12 -72 -23 -9 -63 17
-128 83 -89 90 -135 90 -191 1 -32 -50 -75 -164 -75 -197 0 -15 14 -42 34 -64
56 -61 74 -166 37 -218 -11 -14 -22 -49 -26 -76 -14 -97 -55 -134 -133 -120
-50 8 -150 67 -209 122 -41 38 -44 44 -38 75 14 65 43 136 79 192 20 31 36 65
36 77 0 50 -66 132 -163 204 -21 16 -47 44 -57 64 -32 65 -112 332 -113 380
-1 47 3 56 64 166 28 50 33 72 37 140 8 150 -33 248 -221 530 -197 297 -232
327 -307 266 -21 -17 -45 -31 -54 -31 -16 0 -32 40 -42 108 -8 54 -32 56 -71
5 -52 -69 -64 -94 -90 -191 -37 -141 -39 -364 -13 -1132 14 -390 23 -876 25
-1260 2 -382 7 -660 14 -715 53 -429 132 -682 292 -937 97 -155 334 -462 461
-599 47 -51 181 -169 191 -169 4 0 47 29 96 65 78 58 121 78 121 59 0 -4 -22
-46 -50 -94 -52 -91 -64 -146 -35 -170 27 -23 110 -41 216 -47 137 -8 162 3
220 95 56 90 59 122 20 200 -17 34 -31 66 -31 73 0 6 14 41 30 79 17 38 30 84
30 104 0 29 -5 38 -30 51 -43 22 -38 45 24 118 29 35 58 73 65 84 16 31 13
142 -9 357 -14 135 -17 201 -10 231 9 42 45 132 137 345 148 342 199 616 158
849 -8 46 -17 139 -21 205 -3 67 -14 200 -24 296 -29 266 -56 698 -75 1200
-28 769 -30 793 -70 868 -14 26 -25 54 -25 63 0 41 -54 30 -131 -26 -54 -41
-70 -43 -108 -14 -16 12 -34 18 -41 14 -6 -4 -28 -33 -47 -64 -20 -31 -41 -59
-47 -63 -16 -10 -33 8 -76 81 -45 78 -66 99 -107 107 -25 5 -37 1 -57 -19z
m-873 -337 c7 -27 -3 -62 -17 -57 -6 2 -12 14 -14 26 -7 45 20 72 31 31z
m1104 -4222 c4 -7 10 -51 13 -98 6 -99 17 -108 81 -66 35 24 39 24 39 8 0 -10
-11 -33 -24 -51 -13 -18 -30 -46 -36 -62 -9 -20 -23 -32 -50 -40 -57 -17 -74
-7 -65 39 15 82 11 115 -23 161 -18 24 -32 52 -32 63 0 42 76 78 97 46z"/>
<path d="M18905 12039 c-40 -15 -72 -19 -165 -17 l-114 3 -20 -105 c-36 -187
-25 -838 15 -912 6 -10 23 -21 40 -25 40 -8 48 -42 20 -87 -12 -18 -29 -40
-38 -47 -34 -29 -40 -64 -27 -152 7 -45 25 -210 39 -367 31 -351 62 -615 76
-657 10 -32 17 -36 79 -48 50 -10 80 -32 80 -59 0 -37 -34 -59 -100 -64 l-58
-4 -8 -87 c-4 -47 -3 -146 2 -219 12 -157 12 -158 134 -191 84 -23 123 -48
128 -79 3 -22 -22 -33 -113 -47 -22 -4 -63 -13 -92 -21 -48 -13 -53 -18 -62
-52 -26 -95 -61 -659 -61 -979 0 -210 1 -224 20 -243 11 -11 24 -20 29 -20 23
0 83 28 143 66 37 24 82 51 100 60 18 9 73 58 123 109 90 92 180 155 223 155
18 0 22 -6 22 -28 0 -16 16 -60 35 -99 62 -126 44 -155 -82 -129 -75 16 -180
21 -218 10 -25 -7 -75 -84 -85 -132 -5 -20 -11 -93 -14 -162 -8 -158 -16 -220
-26 -220 -12 0 -19 28 -30 117 -10 91 -25 130 -52 139 -43 13 -101 -83 -119
-198 -21 -127 25 -252 140 -382 39 -43 75 -93 81 -112 15 -44 58 -49 115 -14
l29 19 38 -35 c21 -19 48 -34 60 -34 12 0 40 19 66 46 l44 46 32 -31 c34 -33
55 -38 74 -19 19 19 14 38 -22 79 -33 36 -41 56 -66 155 -10 39 -31 61 -50 49
-5 -3 -16 -27 -24 -53 -44 -130 -96 -151 -96 -38 0 46 10 63 52 89 17 11 32
32 39 59 7 24 27 66 44 93 29 46 42 80 110 274 18 52 33 75 78 117 69 65 97
108 97 154 0 52 28 90 171 230 110 107 129 131 129 157 0 66 -71 73 -104 10
-26 -50 -170 -187 -196 -187 -41 0 -20 40 65 129 90 93 104 126 61 137 -33 8
-108 -33 -189 -104 -63 -55 -101 -77 -118 -66 -16 10 10 43 56 70 25 14 53 36
63 48 9 12 37 33 62 48 58 33 251 232 279 285 14 28 24 78 32 157 l12 116 -31
60 -31 59 15 58 c21 75 22 169 7 548 -7 171 -20 681 -28 1135 -21 1101 -29
1328 -45 1363 -17 35 -44 35 -87 -3 -39 -34 -61 -33 -103 5 -77 68 -110 71
-174 15 -70 -60 -97 -61 -213 -7 -54 25 -114 48 -133 52 -19 4 -45 13 -57 21
-28 17 -45 16 -108 -7z"/>
<path d="M10465 12022 c-71 -45 -81 -78 -95 -320 -10 -178 -3 -293 25 -402 34
-134 96 -319 114 -342 36 -43 44 -14 54 194 10 221 3 808 -10 853 -11 37 -45
43 -88 17z"/>
<path d="M20973 11467 c-11 -5 -29 -24 -38 -41 -15 -28 -16 -38 -5 -72 38
-119 134 -107 134 16 0 76 -41 120 -91 97z"/>
<path d="M20871 11129 c-23 -25 -17 -49 13 -49 41 0 65 51 30 64 -22 8 -21 9
-43 -15z"/>
<path d="M12670 10829 c-20 -37 14 -131 63 -178 29 -27 42 -23 50 16 19 98
-75 233 -113 162z"/>
<path d="M10540 10815 c-13 -34 -12 -53 5 -149 8 -44 20 -86 28 -94 45 -45 71
142 32 223 -24 49 -51 57 -65 20z"/>
<path d="M10245 10759 c-22 -41 -45 -152 -45 -214 0 -98 34 -99 83 -3 33 63
48 189 28 226 -17 32 -48 28 -66 -9z"/>
<path d="M8484 10344 c-9 -36 4 -151 21 -184 18 -35 52 -45 65 -20 6 10 10 42
10 70 0 104 -77 211 -96 134z"/>
<path d="M10192 10275 c-15 -13 -46 -61 -67 -106 -36 -76 -38 -88 -37 -163 4
-174 69 -454 126 -544 38 -60 118 -102 164 -87 11 3 29 24 41 47 24 50 18 66
-60 155 -88 100 -89 101 -89 394 0 316 -11 360 -78 304z"/>
<path d="M10617 8835 c-39 -40 -67 -92 -67 -122 0 -11 9 -28 20 -38 18 -17 20
-15 60 46 43 66 54 96 48 125 -5 30 -25 26 -61 -11z"/>
<path d="M13942 8794 c-12 -8 -28 -30 -36 -47 -39 -95 -26 -210 43 -382 26
-66 58 -157 70 -202 30 -115 39 -134 150 -318 54 -89 113 -200 131 -246 18
-46 45 -104 61 -129 17 -29 30 -67 34 -105 11 -85 38 -151 90 -217 100 -127
120 -56 84 287 -22 198 -56 333 -132 520 -24 61 -50 127 -56 147 -7 20 -43 84
-81 143 -38 59 -74 122 -81 142 -6 19 -24 60 -40 90 -16 30 -29 65 -29 77 0
38 -66 162 -112 210 -48 50 -62 54 -96 30z"/>
<path d="M10630 8522 c-44 -14 -70 -72 -31 -72 23 0 71 37 71 55 0 15 -19 24
-40 17z"/>
<path d="M13730 8340 c-27 -27 -58 -90 -76 -157 -27 -103 -20 -358 17 -614
l13 -86 -41 -61 c-71 -106 -85 -290 -30 -398 14 -27 30 -81 36 -120 6 -40 25
-114 41 -165 35 -106 66 -146 142 -185 59 -30 70 -51 62 -111 -5 -40 -2 -53
16 -75 25 -32 63 -37 99 -12 28 20 64 98 80 172 10 50 9 58 -19 124 -38 88
-39 140 -5 174 33 33 80 30 107 -7 23 -31 52 -188 45 -243 -3 -22 -20 -60 -38
-85 -18 -25 -48 -68 -67 -95 l-33 -50 2 -113 c3 -128 -3 -145 -49 -126 -95 39
-220 97 -242 113 -57 40 -165 53 -193 22 -37 -40 -7 -94 83 -152 28 -18 50
-40 50 -49 0 -10 -14 -28 -31 -40 -19 -14 -44 -51 -64 -95 -62 -136 -89 -131
-99 20 -4 60 -14 123 -21 141 -13 29 -18 33 -54 33 -30 0 -44 6 -55 22 -23 32
-20 47 12 54 87 21 81 84 -21 204 -25 29 -31 31 -50 21 -40 -22 -116 -99 -130
-134 -15 -35 -60 -77 -82 -77 -21 0 -25 -27 -10 -77 7 -26 20 -92 29 -145 9
-54 21 -109 26 -123 13 -34 13 -35 -6 -35 -9 0 -37 20 -62 45 -25 25 -49 45
-53 45 -18 0 -18 -43 1 -124 32 -138 26 -156 -53 -176 -52 -14 -67 -33 -67
-84 0 -49 -6 -58 -47 -80 -21 -10 -35 -26 -39 -44 -12 -54 -15 -61 -34 -67
-27 -9 -59 10 -106 63 -51 57 -69 51 -61 -22 10 -94 30 -116 119 -131 35 -5
63 -30 110 -98 9 -13 42 -37 74 -53 62 -31 134 -110 134 -147 0 -11 -11 -39
-24 -61 -84 -143 -40 -240 56 -125 24 29 64 76 90 105 72 82 75 91 41 126 -33
35 -35 69 -14 248 l14 115 -28 60 c-24 52 -27 67 -22 125 6 70 14 100 27 100
5 0 28 -15 52 -33 42 -32 43 -34 46 -97 5 -89 -16 -232 -44 -311 -28 -77 -30
-116 -10 -164 10 -24 21 -35 36 -35 36 0 102 41 166 102 73 70 115 83 162 49
61 -43 77 -26 87 89 8 103 18 123 89 184 l56 48 -34 41 c-45 57 -56 80 -56
121 0 42 31 70 89 80 53 8 91 42 131 117 26 50 30 63 19 70 -8 5 -53 30 -101
56 -101 53 -141 89 -118 103 8 5 26 6 40 3 41 -10 143 -63 172 -90 32 -31 52
-26 76 19 9 18 33 49 53 68 20 19 49 60 65 90 15 30 39 68 51 83 21 26 23 38
20 120 -2 83 0 96 23 132 24 38 25 47 23 160 -3 132 -3 131 68 217 59 70 59
82 -3 110 -91 42 -155 120 -118 143 6 4 33 -14 62 -39 56 -49 162 -106 197
-106 52 0 30 66 -39 117 -25 19 -58 46 -73 61 -61 58 -155 249 -200 409 -46
161 -166 343 -226 343 -52 0 -82 -55 -84 -156 -1 -81 5 -92 56 -110 36 -12 62
-54 52 -84 -10 -33 -32 -23 -75 35 -34 47 -47 56 -81 61 -27 5 -46 15 -56 31
-14 21 -14 30 2 94 21 90 68 196 102 231 23 24 25 33 20 81 -6 64 -56 189 -98
247 -33 45 -66 53 -99 20z m25 -1055 c0 -23 -5 -31 -21 -33 -24 -3 -38 20 -28
50 4 13 13 18 27 16 17 -2 22 -10 22 -33z m303 -71 c26 -18 29 -49 5 -63 -26
-14 -53 5 -53 38 0 44 12 50 48 25z m-199 -247 c24 -12 51 -33 59 -45 14 -21
13 -23 -24 -38 -22 -9 -51 -27 -66 -41 -38 -36 -62 -28 -66 24 -4 59 14 123
36 123 9 0 37 -11 61 -23z m-415 -1253 c32 -31 12 -94 -29 -94 -30 0 -49 32
-40 68 11 43 41 54 69 26z m29 -306 c36 -48 67 -114 67 -141 0 -33 -25 -54
-45 -37 -17 14 -75 160 -75 190 0 30 26 24 53 -12z m-468 -198 c3 -5 -1 -10
-9 -10 -9 0 -16 5 -16 10 0 6 4 10 9 10 6 0 13 -4 16 -10z"/>
<path d="M11798 7909 c-23 -13 -45 -89 -53 -179 -4 -41 -17 -116 -30 -166 -30
-116 -105 -501 -105 -540 0 -29 36 -89 62 -106 24 -14 52 -8 104 24 101 61
121 140 131 518 7 279 0 327 -52 410 -29 47 -36 51 -57 39z"/>
<path d="M19785 7868 c-28 -29 -72 -89 -99 -133 -27 -44 -91 -143 -142 -220
-51 -77 -111 -178 -133 -225 -45 -98 -70 -195 -54 -211 6 -6 39 -14 74 -19 35
-4 86 -16 114 -25 48 -17 49 -17 66 4 10 12 20 47 24 79 3 31 17 91 31 132 14
41 32 103 40 138 8 35 36 105 63 155 50 93 84 192 96 279 8 54 0 98 -17 98 -7
0 -35 -24 -63 -52z"/>
<path d="M12050 7510 c-32 -59 -38 -459 -9 -540 7 -19 31 -66 54 -105 124
-206 175 -358 190 -570 4 -50 13 -100 21 -112 8 -13 50 -48 93 -78 105 -73
106 -75 92 -129 -18 -73 -14 -92 27 -136 22 -22 44 -40 50 -40 15 0 39 25 79
83 18 26 37 47 42 47 6 0 13 -17 16 -37 6 -36 18 -73 52 -155 21 -50 9 -64
-68 -72 -71 -7 -79 -11 -79 -37 0 -23 98 -130 147 -160 41 -26 87 -22 91 7 2
11 -4 27 -13 34 -8 7 -15 23 -15 36 0 21 5 24 36 24 19 0 44 5 56 11 33 18 58
86 58 162 0 72 3 66 -71 127 -20 16 -50 55 -67 87 -58 109 -90 125 -140 72
-24 -26 -35 -30 -56 -25 -33 8 -43 44 -22 85 21 39 55 61 104 68 43 6 37 10
125 -107 18 -25 41 -46 51 -48 56 -11 103 41 90 101 -11 51 -52 125 -79 143
-14 9 -69 80 -122 158 -53 78 -113 160 -134 182 -28 31 -40 56 -49 100 -13 67
-26 89 -84 152 -41 44 -41 46 -46 137 -5 89 -7 94 -50 156 -83 118 -323 399
-342 399 -9 0 -22 -9 -28 -20z"/>
<path d="M19816 7411 c-30 -34 -64 -152 -90 -315 -28 -179 -25 -204 33 -245
39 -28 39 -41 0 -86 -38 -43 -33 -60 26 -86 95 -42 114 -19 95 120 -11 82 -11
114 -1 172 16 84 17 393 2 432 -12 32 -40 35 -65 8z"/>
<path d="M16726 7358 c-58 -157 -42 -649 35 -1035 l21 -102 -26 -57 c-39 -85
-31 -194 15 -194 14 0 19 11 24 48 9 70 24 101 56 117 34 18 50 19 83 4 22
-10 46 -53 46 -81 0 -4 -25 -24 -56 -44 -66 -42 -88 -76 -109 -166 -25 -109
-20 -143 45 -336 33 -98 64 -212 71 -257 6 -44 15 -85 20 -92 6 -6 18 -34 29
-62 10 -27 37 -73 61 -102 l44 -51 -3 -89 c-3 -98 -1 -101 70 -114 43 -8 45
-6 73 95 14 52 26 76 38 78 13 3 17 -3 17 -23 0 -35 42 -159 86 -253 19 -42
32 -77 30 -79 -4 -5 -56 18 -105 46 -25 15 -39 18 -53 10 -30 -16 -28 -92 4
-126 27 -29 16 -62 -23 -70 -17 -3 -38 -17 -47 -30 -9 -13 -25 -34 -34 -46
l-17 -22 -23 23 c-21 20 -23 31 -23 120 0 95 -1 99 -47 192 -48 97 -107 170
-138 170 -17 0 -67 -34 -82 -55 -17 -23 -5 -56 38 -109 49 -61 64 -98 64 -161
0 -22 9 -54 20 -73 11 -18 20 -41 20 -52 0 -19 -7 -20 -104 -20 l-104 0 -4
100 c-4 106 -15 133 -46 114 -25 -15 -71 -104 -72 -136 0 -35 30 -125 82 -245
47 -109 47 -109 168 -62 58 22 88 40 109 66 40 49 65 40 137 -45 95 -112 134
-178 132 -227 -2 -54 6 -65 44 -65 67 0 171 147 187 263 4 29 10 58 15 65 15
25 55 11 121 -43 36 -30 72 -55 79 -55 14 0 59 46 106 110 46 62 80 90 112 90
66 0 198 91 198 137 0 12 -13 52 -29 89 -31 74 -30 82 14 124 26 24 27 25 41
6 8 -12 14 -44 14 -80 0 -67 8 -106 21 -106 18 0 134 97 151 126 10 18 24 79
33 148 9 65 25 144 36 175 45 127 44 117 19 170 -25 55 -22 81 12 81 13 0 40
5 60 10 64 18 56 61 -31 160 -107 122 -140 179 -224 385 -76 190 -81 237 -30
335 l26 50 -37 151 c-40 164 -55 202 -87 220 -32 17 -71 -5 -137 -75 -92 -99
-203 -303 -205 -376 0 -19 5 -59 11 -89 7 -29 9 -57 6 -62 -3 -5 -22 4 -41 22
-32 28 -37 29 -51 15 -22 -21 -17 -72 14 -152 37 -97 35 -148 -6 -233 l-33
-70 32 -65 c29 -59 117 -156 142 -156 14 0 39 -56 39 -88 0 -15 -6 -37 -14
-47 -12 -17 -18 -14 -84 48 -39 37 -78 67 -86 67 -40 0 -28 -36 64 -190 98
-164 110 -214 61 -259 -22 -21 -29 -38 -35 -86 -4 -33 -12 -81 -18 -106 -10
-42 -9 -50 26 -126 20 -44 36 -86 36 -92 0 -15 -26 -14 -60 4 -29 15 -45 51
-52 120 -3 27 -6 30 -38 30 -19 0 -45 4 -57 8 -28 10 -65 70 -61 99 3 20 9 23
48 23 55 0 67 7 75 44 7 34 26 52 69 66 19 6 32 18 33 30 4 25 -55 104 -180
240 -144 158 -163 205 -106 270 41 46 36 80 -25 167 -28 40 -50 85 -56 115 -6
28 -32 86 -57 129 -24 44 -51 95 -58 114 l-12 35 -71 -3 c-65 -4 -72 -2 -85
20 -8 12 -18 61 -22 108 -4 47 -16 104 -26 127 -14 31 -19 65 -19 133 0 119
-17 155 -100 205 -33 20 -61 39 -61 43 -1 4 -3 75 -4 157 -2 123 -7 168 -28
250 -17 66 -29 151 -36 252 -12 175 -33 256 -67 261 -18 3 -25 -5 -38 -40z
m221 -1090 c-3 -7 -5 -2 -5 12 0 14 2 19 5 13 2 -7 2 -19 0 -25z m274 -519
c15 -29 6 -116 -14 -136 -9 -9 -23 -13 -32 -9 -14 5 -17 16 -13 59 6 59 23
107 37 107 6 0 15 -10 22 -21z m-131 -201 c0 -16 -61 -78 -77 -78 -22 0 -14
21 21 56 35 35 56 43 56 22z m190 -85 c20 -71 24 -261 6 -342 -8 -41 -18 -77
-22 -80 -15 -16 -32 37 -37 121 -7 90 6 308 18 328 12 19 24 10 35 -27z m680
-514 c0 -5 -7 -9 -15 -9 -8 0 -15 7 -15 15 0 9 6 12 15 9 8 -4 15 -10 15 -15z
m140 -158 c0 -26 -31 -36 -47 -15 -16 22 -8 34 23 34 17 0 24 -6 24 -19z"/>
<path d="M18553 7004 c-18 -9 -62 -47 -97 -84 -55 -58 -69 -82 -104 -172 -91
-233 -98 -306 -46 -477 41 -134 81 -199 116 -186 33 13 194 391 224 527 10 44
17 122 18 198 1 106 -2 131 -19 165 -23 46 -45 53 -92 29z"/>
<path d="M10300 6965 c-26 -32 13 -81 48 -59 34 22 22 74 -18 74 -10 0 -23 -7
-30 -15z"/>
<path d="M10478 6883 c-11 -3 -18 -14 -18 -28 0 -49 62 -62 68 -13 3 29 -20
48 -50 41z"/>
<path d="M14471 6825 c-52 -48 -77 -94 -67 -120 3 -9 23 -23 43 -32 21 -8 39
-16 41 -18 1 -1 -31 -71 -73 -155 -41 -84 -75 -163 -75 -176 0 -12 11 -35 25
-50 35 -38 32 -85 -11 -200 -31 -80 -35 -98 -25 -117 27 -50 146 -97 244 -97
44 0 47 2 55 34 11 39 5 81 -15 113 -22 33 -19 108 6 139 25 31 26 62 7 109
-17 40 -62 85 -84 85 -8 0 -30 -13 -49 -30 -33 -29 -83 -41 -83 -19 0 5 33 45
73 87 55 58 76 87 81 115 9 47 26 295 21 311 -2 6 -6 23 -9 39 -10 42 -47 36
-105 -18z"/>
<path d="M11698 6824 l-78 -25 0 -343 0 -343 50 -63 c61 -77 105 -152 119
-206 16 -60 44 -90 120 -128 78 -40 112 -74 135 -138 14 -39 23 -49 54 -59 20
-6 58 -33 83 -59 50 -51 115 -80 181 -80 48 0 56 17 34 73 -9 24 -16 50 -16
59 0 8 23 44 50 78 28 34 50 72 50 83 0 25 -81 107 -107 107 -37 0 -56 -35
-63 -117 -12 -138 -51 -175 -103 -98 -12 18 -50 63 -85 99 -34 37 -74 85 -89
109 -14 23 -39 58 -55 77 -32 40 -35 69 -12 147 18 63 15 151 -9 279 -9 45
-21 137 -27 205 -13 129 -18 145 -56 192 -21 25 -23 34 -17 93 9 95 -16 103
-159 58z"/>
<path d="M10219 6811 c-30 -25 -18 -50 34 -70 30 -11 40 -11 52 -1 22 18 18
57 -7 74 -30 21 -51 20 -79 -3z"/>
<path d="M10575 6791 c-8 -26 4 -51 25 -51 19 0 32 32 23 56 -8 20 -41 17 -48
-5z"/>
<path d="M12757 6752 c-44 -45 -46 -66 -11 -113 14 -19 36 -57 48 -84 18 -40
38 -62 94 -103 45 -34 74 -63 81 -82 11 -33 43 -50 93 -50 40 0 108 68 133
132 34 91 0 103 -79 28 -29 -27 -60 -50 -68 -50 -8 0 -27 9 -42 21 -33 26 -34
64 -3 80 72 38 41 114 -81 196 -54 36 -106 63 -121 63 -4 0 -24 -17 -44 -38z"/>
<path d="M18788 6733 c-9 -10 -21 -36 -28 -58 -7 -22 -40 -98 -72 -170 -32
-71 -81 -194 -108 -273 -54 -157 -62 -174 -91 -203 -29 -29 -24 -98 16 -214
39 -112 60 -218 70 -344 4 -46 19 -127 35 -180 15 -53 31 -124 35 -157 4 -34
13 -74 21 -89 8 -15 14 -33 14 -40 0 -6 -28 -50 -61 -96 -94 -129 -126 -208
-97 -237 21 -21 45 -13 82 28 60 67 158 202 178 247 10 23 24 45 30 49 6 4 30
-3 53 -16 73 -40 97 -8 49 62 l-27 38 38 77 38 76 51 -57 c28 -31 57 -56 65
-56 24 0 110 60 145 102 37 43 65 124 90 257 8 46 20 89 25 94 7 7 24 4 52 -8
51 -23 73 -13 77 38 3 29 -3 42 -23 63 -33 33 -47 68 -39 99 6 23 10 24 102
27 l97 3 -1 38 c-2 75 -60 103 -129 62 -32 -18 -58 -25 -99 -25 -37 0 -60 -5
-71 -16 -21 -21 -50 -81 -115 -234 -29 -69 -68 -145 -86 -170 -19 -25 -41 -59
-50 -77 -10 -17 -27 -34 -40 -37 -43 -11 -161 -115 -183 -161 -11 -24 -35 -53
-52 -66 -31 -22 -32 -22 -45 -4 -29 39 6 94 166 261 135 141 161 181 228 349
22 55 60 141 83 190 40 84 43 97 47 193 5 116 3 118 -69 82 -30 -16 -44 -18
-59 -10 -11 6 -20 14 -20 18 -1 4 -14 22 -30 41 l-29 34 -51 -47 c-28 -26 -56
-46 -63 -43 -26 8 -41 64 -45 169 -6 136 -1 158 37 158 16 0 43 3 60 6 27 6
31 11 31 38 -1 44 -65 134 -124 174 -54 36 -86 40 -108 15z m140 -675 c2 -22
-5 -52 -17 -76 -11 -22 -25 -60 -32 -85 -6 -25 -19 -53 -30 -63 -49 -44 -70
42 -24 102 15 19 30 58 36 91 13 71 16 75 42 71 17 -2 23 -11 25 -40z"/>
<path d="M10354 6693 c14 -58 106 -103 106 -52 0 30 -53 79 -85 79 -25 0 -27
-3 -21 -27z"/>
<path d="M11417 6628 c-14 -29 -29 -71 -32 -93 -9 -58 37 -305 78 -420 18 -51
52 -60 68 -18 14 36 6 220 -17 373 -33 224 -50 252 -97 158z"/>
<path d="M13482 6657 c-5 -6 -22 -41 -36 -76 -24 -61 -25 -65 -10 -97 33 -69
137 -144 201 -144 57 0 103 57 103 126 0 33 -7 45 -50 85 -29 27 -65 51 -83
54 -18 4 -45 17 -62 29 -47 35 -52 37 -63 23z"/>
<path d="M12065 6633 c-13 -32 -17 -355 -7 -486 12 -137 34 -197 72 -197 25 0
31 25 29 122 -1 46 1 142 5 213 5 84 4 155 -4 200 -18 116 -73 201 -95 148z"/>
<path d="M11135 6439 c-22 -12 -59 -35 -83 -51 -23 -16 -73 -42 -110 -57 -77
-32 -144 -72 -184 -109 -36 -33 -36 -60 2 -192 16 -58 35 -143 41 -190 6 -47
18 -112 26 -144 26 -113 96 -188 130 -140 46 65 75 72 91 24 16 -43 100 -130
127 -130 27 0 35 24 28 82 l-6 43 30 -27 c16 -16 34 -28 39 -28 35 0 96 129
114 244 8 49 8 90 0 148 -12 83 -133 513 -152 535 -15 19 -48 16 -93 -8z"/>
<path d="M11570 5951 c-15 -28 -12 -97 5 -131 18 -36 73 -70 112 -70 34 0 63
26 63 57 0 28 -59 103 -107 136 -46 32 -59 33 -73 8z"/>
<path d="M14162 5908 c-21 -27 -23 -60 -7 -120 22 -91 70 -183 108 -209 74
-51 67 -79 -18 -79 -38 0 -60 -6 -79 -21 -33 -26 -33 -35 4 -92 33 -53 37 -79
15 -117 -19 -34 -19 -80 1 -109 15 -21 22 -23 63 -17 161 24 222 17 297 -35
65 -45 86 -40 134 32 47 69 83 94 147 104 98 14 183 71 183 122 0 51 -215 465
-248 478 -20 8 -40 -12 -64 -62 -11 -24 -40 -60 -65 -80 -31 -26 -58 -63 -94
-134 -48 -94 -99 -154 -123 -146 -21 7 -17 54 8 92 35 51 35 120 1 193 -26 57
-132 175 -177 198 -33 17 -72 18 -86 2z m596 -415 c10 -18 -4 -73 -18 -73 -10
0 -20 26 -20 54 0 38 22 49 38 19z"/>
<path d="M18313 5873 c-31 -12 11 -193 50 -217 27 -16 47 17 47 76 0 59 -20
110 -51 132 -25 17 -27 17 -46 9z"/>
<path d="M12196 5851 c-13 -14 -19 -38 -20 -78 -1 -74 17 -80 74 -23 35 35 41
46 38 78 -3 34 -5 37 -39 40 -25 2 -40 -3 -53 -17z"/>
<path d="M11499 5654 c-10 -28 -12 -163 -3 -189 4 -9 37 -32 75 -51 76 -38
105 -71 95 -108 -14 -56 -53 -39 -108 46 -17 26 -37 48 -43 48 -18 0 -62 -52
-79 -92 -12 -28 -16 -74 -16 -185 l0 -148 106 -115 c59 -63 130 -152 159 -196
30 -45 67 -91 83 -103 46 -32 134 -71 163 -71 28 0 98 53 244 184 126 114 129
116 162 125 57 16 100 -14 202 -143 51 -65 103 -122 117 -128 16 -8 42 -8 82
-2 l57 9 1 80 c1 134 2 136 94 103 83 -30 89 -21 51 78 -86 223 -210 361 -258
287 -26 -40 -153 -104 -153 -78 0 3 14 35 30 72 35 78 37 102 10 131 -26 27
-40 27 -90 2 -63 -32 -74 -28 -128 53 -82 120 -102 130 -195 93 -35 -15 -67
-26 -70 -26 -4 0 -21 25 -38 55 -40 71 -81 106 -182 154 -96 46 -265 114 -320
129 -36 10 -39 9 -48 -14z m406 -420 c39 -9 55 -22 48 -40 -9 -24 -61 -17 -88
12 -29 32 -32 47 -7 40 9 -3 31 -8 47 -12z m355 -38 c0 -19 -43 -80 -55 -78
-20 3 -16 44 6 68 25 26 49 32 49 10z m-222 -63 c-5 -25 -28 -28 -28 -4 0 12
6 21 16 21 9 0 14 -7 12 -17z m727 -223 c0 -13 -6 -25 -12 -27 -9 -3 -13 6
-13 27 0 21 4 30 13 28 6 -3 12 -15 12 -28z"/>
<path d="M16672 5648 c-18 -57 -24 -143 -12 -174 14 -37 79 -104 101 -104 33
0 38 62 14 186 -17 90 -36 124 -69 124 -19 0 -27 -8 -34 -32z"/>
<path d="M13943 5493 c-20 -7 -15 -41 6 -53 37 -19 102 30 69 52 -14 8 -56 9
-75 1z"/>
<path d="M12479 5423 c-11 -29 -4 -79 13 -89 16 -10 48 34 48 65 0 52 -44 69
-61 24z"/>
<path d="M13864 5287 c-20 -18 -27 -33 -28 -64 -1 -50 17 -73 58 -73 39 1 80
34 100 82 19 46 19 43 0 62 -24 25 -97 21 -130 -7z"/>
<path d="M16748 5287 c-12 -62 38 -109 76 -71 21 21 20 27 -10 63 -31 37 -60
40 -66 8z"/>
<path d="M15084 5276 c-8 -21 3 -36 27 -36 15 0 20 6 17 22 -4 27 -35 37 -44
14z"/>
<path d="M16847 5163 c-16 -15 -5 -57 22 -84 45 -45 90 -36 77 15 -12 49 -76
93 -99 69z"/>
<path d="M16504 5085 c-25 -60 -15 -145 16 -145 19 0 90 75 90 95 0 14 -28 56
-48 73 -26 20 -42 14 -58 -23z"/>
<path d="M16304 5086 c-16 -42 25 -76 45 -37 8 15 7 23 -5 35 -19 20 -33 20
-40 2z"/>
<path d="M16681 4941 c-23 -23 -36 -96 -27 -146 5 -25 15 -39 32 -47 37 -17
58 12 73 102 11 72 11 76 -10 93 -27 22 -44 22 -68 -2z"/>
<path d="M15817 4554 c-10 -10 12 -44 29 -44 10 0 14 8 12 22 -3 22 -27 35
-41 22z"/>
<path d="M18325 4391 c-92 -61 -189 -150 -228 -211 -20 -30 -58 -76 -84 -101
-66 -64 -251 -209 -280 -220 -20 -7 -24 -15 -21 -41 3 -29 6 -33 32 -31 33 2
152 70 217 123 61 51 110 80 134 80 38 0 126 50 181 102 60 57 88 102 99 161
4 20 20 54 37 74 21 26 28 46 26 67 -5 46 -40 45 -113 -3z"/>
<path d="M16501 4261 c-16 -30 -13 -51 8 -51 24 0 44 24 39 47 -5 25 -35 28
-47 4z"/>
<path d="M16436 4138 c-23 -32 -20 -101 4 -129 20 -24 20 -24 35 -5 15 20 21
109 9 140 -9 23 -30 20 -48 -6z"/>
<path d="M16985 3930 c-109 -56 -119 -81 -55 -141 61 -59 132 -62 160 -8 6 11
16 47 21 80 17 105 -17 124 -126 69z"/>
</g>
</svg>
