<?xml version="1.0" standalone="no"?>
<!DOCTYPE svg PUBLIC "-//W3C//DTD SVG 20010904//EN"
 "http://www.w3.org/TR/2001/REC-SVG-20010904/DTD/svg10.dtd">
<svg version="1.0" xmlns="http://www.w3.org/2000/svg"
 width="570.000000pt" height="426.000000pt" viewBox="0 0 570.000000 426.000000"
 preserveAspectRatio="xMidYMid meet">
<metadata>
Created by potrace 1.16, written by Peter Selinger 2001-2019
</metadata>
<g transform="translate(0.000000,426.000000) scale(0.100000,-0.100000)"
fill="#000000" stroke="none">
<path d="M1691 3994 l-43 -27 6 -66 c6 -57 11 -69 36 -89 17 -13 30 -27 30
-32 0 -4 -18 -35 -40 -68 -39 -58 -43 -60 -92 -67 -46 -7 -54 -5 -70 15 -28
34 -69 17 -113 -45 -15 -21 -12 -22 -75 17 -10 7 -23 9 -27 4 -4 -4 -9 -64
-11 -133 l-4 -124 39 -33 c34 -31 37 -36 28 -62 -9 -26 -16 -29 -54 -31 -24
-1 -51 -8 -59 -17 -14 -14 -14 -17 1 -34 16 -17 16 -23 3 -60 -27 -77 -32 -81
-71 -72 -83 19 -194 -37 -240 -121 -27 -48 -30 -63 -30 -139 1 -95 19 -142 75
-195 l31 -30 -23 -6 c-13 -4 -47 -7 -76 -8 -80 -1 -92 -11 -91 -74 2 -96 9
-111 54 -119 141 -24 390 -39 615 -37 135 1 261 -2 280 -8 30 -8 35 -13 38
-43 2 -19 17 -102 33 -185 25 -129 33 -154 59 -185 17 -19 42 -52 55 -73 14
-21 43 -50 65 -65 l39 -27 3 -240 c3 -202 7 -247 22 -285 16 -40 17 -57 7
-164 -6 -66 -14 -123 -19 -128 -5 -5 -33 13 -63 41 -30 27 -64 57 -76 67 -13
11 -40 51 -60 90 -43 82 -72 115 -166 197 -37 32 -67 66 -67 75 0 23 -23 82
-32 82 -4 0 -8 -7 -8 -15 0 -25 -13 -17 -72 42 -54 55 -57 61 -60 112 -3 61
-22 78 -32 29 -6 -32 -6 -32 -26 -12 -14 13 -21 38 -25 79 -3 32 -9 63 -14 68
-12 12 -34 -58 -27 -88 3 -13 3 -31 0 -39 -9 -23 -59 43 -82 106 -9 26 -21 47
-27 45 -15 -5 -18 -54 -6 -88 11 -32 4 -32 -32 -1 -25 22 -30 10 -14 -30 18
-43 97 -113 145 -129 52 -16 61 -26 73 -75 13 -49 62 -94 103 -94 38 0 129
-97 191 -204 16 -27 52 -74 80 -105 28 -31 98 -119 154 -196 126 -171 155
-202 195 -211 17 -4 43 -20 58 -36 15 -16 32 -27 38 -23 21 13 32 -7 14 -26
-12 -14 -21 -16 -35 -9 -29 16 -46 12 -83 -21 -37 -32 -79 -99 -90 -142 -6
-24 -3 -27 31 -36 21 -5 69 -13 106 -17 60 -6 70 -4 82 12 8 11 15 27 15 37 0
35 32 15 68 -43 20 -33 42 -60 49 -60 6 0 17 17 24 38 24 74 69 114 69 61 0
-27 26 -24 91 9 38 19 55 34 57 50 2 12 -1 22 -6 22 -6 0 -38 32 -72 72 -62
71 -62 72 -56 119 5 35 15 56 36 78 25 24 30 38 30 75 0 25 -8 67 -19 93 -10
26 -26 76 -36 110 l-17 62 45 68 c25 37 57 79 72 93 15 14 47 53 72 87 32 46
53 65 81 74 74 24 106 61 62 72 -29 7 -25 20 21 73 58 68 79 137 44 150 -8 4
-15 13 -15 22 0 20 -48 102 -60 102 -14 0 -12 -18 5 -65 16 -47 20 -119 5
-110 -5 3 -10 30 -10 60 0 63 -15 81 -23 27 -11 -64 -26 -133 -33 -143 -3 -6
-12 -8 -18 -6 -8 3 -25 -24 -45 -74 -18 -43 -53 -106 -77 -138 -50 -67 -202
-204 -216 -195 -5 3 -2 14 8 25 11 13 15 28 11 49 -6 28 -3 31 48 55 32 16 74
48 103 80 45 49 51 62 63 126 10 56 10 86 1 140 -7 38 -12 117 -12 175 0 73
-5 116 -16 142 -8 20 -20 78 -25 127 -5 50 -12 117 -15 151 l-7 61 429 6 c236
4 543 7 682 7 l252 0 10 -26 c6 -14 10 -84 10 -155 l0 -130 -52 -49 c-51 -48
-95 -78 -101 -69 -2 2 -22 42 -45 89 -23 47 -54 101 -71 120 -28 34 -30 35
-62 22 -19 -7 -67 -22 -106 -32 -40 -11 -82 -24 -93 -30 -22 -12 -47 -3 -70
24 -16 20 -50 21 -50 1 0 -8 18 -38 40 -67 22 -29 40 -56 40 -60 0 -17 49 -7
62 13 12 19 24 22 98 23 l85 1 18 -99 19 -99 -22 -29 -21 -29 52 -106 c51
-101 52 -106 34 -119 -11 -8 -24 -13 -30 -11 -24 8 -66 88 -72 137 -7 61 -21
75 -51 54 -27 -19 -27 -38 -1 -116 40 -118 92 -160 192 -157 50 1 100 -11 110
-28 3 -4 6 -26 8 -48 4 -56 15 -74 56 -91 32 -14 38 -13 71 4 32 16 37 24 40
59 4 59 -10 106 -36 118 -19 8 -22 18 -22 68 0 63 12 97 35 97 18 0 60 -57 69
-92 7 -31 35 -38 55 -14 23 28 -90 186 -133 186 -10 0 -34 -11 -51 -25 -31
-23 -34 -23 -48 -7 -11 12 -14 30 -10 65 5 41 15 58 85 139 l80 92 -5 141 c-3
77 -8 150 -12 161 -25 80 185 103 725 80 178 -8 212 -7 261 7 56 17 56 17 63
63 9 72 7 121 -6 132 -10 8 -149 42 -171 42 -2 0 12 18 32 39 96 104 92 270
-9 368 -40 39 -109 73 -150 73 -38 0 -121 -31 -156 -59 l-27 -22 -28 27 c-27
25 -27 26 -11 67 18 47 29 58 49 50 21 -8 63 6 63 22 0 8 -10 20 -22 26 -13 6
-24 13 -26 14 -2 2 8 20 23 40 14 21 25 47 25 59 0 14 12 28 33 39 42 23 68
65 60 98 -23 88 -151 240 -218 258 -50 13 -69 41 -54 74 9 20 8 30 -6 50 -9
15 -15 40 -13 58 3 29 -3 37 -40 66 -47 36 -82 42 -102 17 -10 -11 -23 -14
-52 -9 -44 8 -45 4 -18 -39 20 -33 23 -72 7 -93 -9 -13 16 -74 39 -94 8 -6 14
-28 14 -49 0 -30 -9 -49 -44 -92 -25 -29 -61 -68 -80 -87 -20 -19 -36 -37 -36
-41 0 -5 -18 -7 -40 -6 -49 3 -64 -16 -74 -89 -3 -27 -12 -64 -18 -83 -11 -29
-10 -35 5 -47 21 -15 21 -31 0 -105 l-18 -59 -36 5 c-53 9 -137 -19 -186 -61
-28 -24 -51 -35 -72 -35 -30 0 -31 1 -31 50 0 44 3 51 28 64 36 18 58 62 41
82 -15 18 -49 18 -85 -1 -34 -17 -104 -20 -104 -4 0 6 8 23 19 37 10 15 22 41
25 58 4 20 22 44 47 63 36 29 39 36 39 80 0 53 -24 94 -98 165 -36 34 -45 38
-76 33 -45 -7 -68 15 -37 35 26 16 26 25 1 33 -11 4 -20 15 -20 26 0 11 -11
31 -24 44 -22 22 -28 23 -58 13 -57 -19 -68 -35 -68 -97 0 -58 17 -105 38
-107 7 -1 14 -2 17 -3 3 0 -1 -14 -10 -31 -22 -43 -109 -108 -153 -115 -70
-11 -79 -15 -104 -38 -20 -18 -26 -37 -32 -89 -3 -36 -11 -80 -17 -96 -8 -24
-7 -36 5 -55 9 -13 13 -26 10 -30 -4 -3 -8 -14 -9 -24 -1 -10 -5 -33 -10 -50
-7 -32 -9 -33 -57 -33 -93 0 -173 -65 -202 -162 -13 -47 -14 -61 -2 -105 8
-29 24 -66 36 -83 12 -17 20 -33 18 -36 -3 -2 -143 -3 -312 -2 l-306 3 24 26
c48 52 66 102 66 186 0 60 -5 88 -21 118 -43 82 -103 125 -196 140 -43 7 -60
25 -24 25 11 0 32 10 46 23 21 17 28 36 35 87 5 36 16 85 26 110 38 104 1 355
-68 452 -9 13 -9 28 1 67 29 114 -57 186 -130 108 -29 -31 -24 -128 9 -175 13
-17 20 -37 17 -43 -10 -14 -115 101 -115 127 0 11 -12 44 -26 72 -19 38 -37
58 -65 72 -48 25 -45 25 -98 -6z m-216 -384 c-3 -5 -13 -10 -21 -10 -8 0 -14
5 -14 10 0 6 9 10 21 10 11 0 17 -4 14 -10z m-89 -122 c-8 -41 -28 -81 -43
-86 -10 -3 -13 16 -13 72 l0 77 31 -17 c27 -14 30 -19 25 -46z m288 15 c-3
-16 -12 -47 -20 -71 -8 -23 -14 -47 -14 -53 0 -16 -20 -31 -84 -64 -62 -32
-96 -66 -96 -96 0 -15 -8 -19 -40 -19 -44 0 -50 13 -30 65 7 19 6 35 -5 62
-13 31 -13 38 -1 52 8 9 22 42 31 74 l16 57 72 0 c40 0 79 5 87 10 8 5 32 10
53 10 36 0 37 -1 31 -27z m2702 -45 c9 -28 -13 -44 -80 -58 -28 -6 -66 -19
-84 -30 -40 -25 -38 -36 24 -134 59 -93 58 -98 -13 -77 -113 35 -132 47 -130
78 2 22 -3 29 -20 31 -26 4 -27 7 -12 67 10 41 13 44 39 38 20 -3 38 1 57 14
15 11 51 28 78 37 28 9 66 25 85 36 45 24 47 24 56 -2z m-1019 -123 c2 -16 9
-35 15 -43 8 -9 7 -16 -5 -25 -8 -7 -47 -37 -86 -66 -40 -31 -71 -63 -71 -72
0 -10 12 -27 27 -38 14 -12 24 -23 22 -25 -2 -2 -35 4 -74 14 -57 14 -70 21
-76 42 -3 13 -12 33 -19 45 -10 16 -11 33 -4 70 8 43 11 48 34 45 15 -2 63 16
115 43 50 25 96 44 104 42 8 -1 16 -15 18 -32z m-1601 -141 c-3 -9 -6 -20 -6
-25 0 -5 -16 -9 -35 -9 -42 0 -45 14 -7 34 36 20 56 20 48 0z m2754 -54 c-13
-47 -34 -60 -58 -36 -16 16 -15 20 22 52 22 19 41 32 43 30 3 -2 -1 -23 -7
-46z m-3220 -84 c-8 -23 -13 -26 -25 -16 -12 10 -11 18 5 61 11 27 21 53 22
57 1 4 3 -11 5 -34 2 -22 -1 -53 -7 -68z m240 89 c10 -12 5 -17 -25 -29 -34
-14 -41 -14 -93 3 -84 29 -78 41 21 41 62 0 88 -4 97 -15z m2630 -11 c41 -14
85 -28 97 -31 34 -8 74 -113 43 -113 -10 0 -230 159 -230 166 0 8 17 4 90 -22z
m49 -136 c125 -90 145 -108 157 -143 19 -55 18 -63 -12 -102 -29 -39 -27 -52
11 -73 23 -12 30 -12 53 1 16 9 27 24 27 35 0 26 63 82 69 62 3 -7 10 -31 17
-52 6 -22 32 -62 57 -88 25 -27 42 -51 39 -54 -13 -13 -413 -9 -490 5 l-78 14
29 31 c59 64 67 84 67 181 0 103 -17 146 -79 203 -20 18 -36 37 -36 41 0 16
12 41 19 41 4 0 71 -46 150 -102z m-2819 82 c13 0 73 -61 134 -138 l58 -72
-26 -21 c-43 -33 -34 -56 23 -64 29 -4 57 -15 67 -26 27 -30 97 -26 123 7 12
15 21 33 21 40 0 35 18 8 34 -48 10 -35 28 -76 40 -93 41 -55 42 -53 -41 -52
-43 0 -95 -5 -116 -12 -29 -10 -80 -11 -213 -6 -96 4 -177 11 -180 16 -3 5 6
24 20 41 31 41 56 112 56 160 0 43 -32 135 -59 170 -18 22 -18 24 0 67 14 32
23 42 35 37 9 -3 19 -6 24 -6z m198 -43 c14 -62 15 -97 3 -97 -10 0 -72 75
-90 109 -16 29 -3 41 44 41 29 0 31 -3 43 -53z m2052 -11 c0 -40 -2 -42 -51
-64 -29 -12 -54 -20 -57 -17 -3 3 0 22 6 42 13 41 3 63 -29 63 -19 0 -33 15
-25 28 2 4 38 3 80 -2 l76 -10 0 -40z m-1761 37 c17 -10 31 -22 31 -26 0 -5
-3 -7 -7 -5 -5 3 -23 10 -40 17 -18 7 -33 17 -33 22 0 14 15 11 49 -8z m1343
-36 c31 -8 61 -18 67 -22 16 -10 51 -81 51 -104 0 -18 -11 -12 -78 35 -44 30
-94 69 -113 85 -39 34 -39 34 73 6z m738 -27 c23 -14 -7 -121 -37 -135 -31
-13 -37 -34 -17 -56 19 -22 49 -25 61 -7 4 7 17 45 28 86 11 40 25 74 30 74 6
0 24 -16 40 -37 27 -33 30 -44 30 -103 0 -117 -61 -182 -172 -182 -71 0 -85
11 -71 52 6 16 8 58 6 93 -3 53 -10 73 -37 112 l-33 47 28 23 c16 12 47 27 69
32 54 12 58 12 75 1z m903 -38 c84 -80 81 -213 -6 -288 -37 -31 -46 -34 -102
-34 -48 0 -70 5 -95 23 -52 35 -99 134 -72 151 5 3 44 -4 88 -14 79 -19 79
-19 99 1 l20 20 -75 68 c-84 77 -85 93 -7 109 56 11 116 -3 150 -36z m-3673
36 c0 -17 -47 -120 -66 -145 -23 -30 -23 -32 -6 -53 18 -22 52 -20 52 4 0 6
25 36 56 66 53 52 56 54 69 36 40 -54 25 -173 -28 -230 -124 -131 -339 -1
-298 178 21 93 84 145 174 146 26 0 47 -1 47 -2z m955 -12 c67 -29 109 -137
86 -224 -22 -81 -86 -132 -166 -132 -86 0 -153 49 -175 128 -17 62 -14 72 21
72 26 0 30 -3 24 -17 -4 -10 -10 -28 -12 -40 -7 -29 20 -31 61 -4 20 13 39 18
58 14 34 -7 61 13 54 40 -3 13 4 31 19 49 21 25 23 33 13 51 -6 12 -14 24 -17
27 -3 3 -15 15 -25 28 -19 22 -19 22 3 22 12 0 37 -6 56 -14z m1021 -33 c160
-110 184 -129 190 -151 7 -26 -11 -52 -37 -52 -10 0 -30 -5 -45 -10 -25 -10
-26 -12 -11 -27 8 -9 39 -24 68 -34 48 -17 55 -18 77 -3 13 8 30 30 38 47 l13
32 8 -25 c3 -14 19 -48 34 -76 l27 -52 -62 -6 c-86 -9 -317 -10 -343 -2 -21 7
-21 7 10 54 29 42 32 54 32 122 0 72 -2 77 -42 135 -40 57 -54 95 -34 95 4 0
39 -21 77 -47z m1377 26 c7 -11 3 -30 -12 -65 -21 -47 -23 -48 -37 -29 -25 33
-1 122 29 112 6 -2 15 -10 20 -18z m-2537 -16 c-7 -7 -26 7 -26 19 0 6 6 6 15
-2 9 -7 13 -15 11 -17z m1424 8 c0 -6 -4 -13 -10 -16 -5 -3 -10 1 -10 9 0 9 5
16 10 16 6 0 10 -4 10 -9z m-2180 -11 c0 -16 -39 -55 -47 -47 -9 10 18 57 34
57 7 0 13 -5 13 -10z m695 -60 c18 -20 17 -20 -7 -20 -25 0 -43 21 -31 34 10
10 19 7 38 -14z m1060 -27 c-8 -56 -11 -63 -30 -63 -18 0 -37 -34 -29 -54 9
-23 35 -28 54 -11 10 9 23 43 29 77 6 34 13 63 16 66 11 11 46 -33 56 -70 20
-76 -20 -163 -86 -187 -92 -33 -185 40 -185 146 0 29 5 53 10 53 6 0 10 6 10
14 0 8 16 28 35 45 29 25 45 31 81 31 l46 0 -7 -47z m685 -15 c0 -45 -3 -59
-10 -48 -13 20 -13 110 0 110 6 0 10 -27 10 -62z m980 21 l45 -40 -60 6 c-33
4 -64 10 -68 14 -11 11 10 61 25 61 7 0 33 -18 58 -41z m-1179 -15 c-15 -27
-21 -33 -21 -19 0 22 29 70 37 62 2 -3 -5 -22 -16 -43z m149 6 c0 -47 -10 -50
-39 -14 -20 25 -20 27 -4 40 31 24 43 17 43 -26z m146 -35 c16 -38 19 -111 5
-119 -15 -10 -41 59 -41 108 0 55 15 60 36 11z m-195 -12 c14 -16 31 -41 37
-57 10 -23 17 -27 38 -23 22 4 28 -2 50 -46 13 -28 23 -51 21 -52 -38 -30 -88
-31 -138 -3 -58 32 -85 115 -59 182 12 33 20 33 51 -1z m-1866 -43 c-3 -5 -13
-10 -21 -10 -8 0 -14 5 -14 10 0 6 9 10 21 10 11 0 17 -4 14 -10z m745 -447
c3 -2 7 -174 10 -381 5 -367 5 -377 -15 -394 -11 -9 -33 -19 -50 -22 -16 -4
-57 -20 -89 -36 -92 -47 -85 -55 -106 130 -6 52 -13 113 -16 136 -3 23 -15 55
-27 71 -25 33 -112 107 -169 141 -55 34 -85 75 -108 149 -20 64 -27 177 -12
199 4 7 18 14 32 17 30 7 543 -3 550 -10z"/>
</g>
</svg>
