<?xml version="1.0" standalone="no"?>
<!DOCTYPE svg PUBLIC "-//W3C//DTD SVG 20010904//EN"
 "http://www.w3.org/TR/2001/REC-SVG-20010904/DTD/svg10.dtd">
<svg version="1.0" xmlns="http://www.w3.org/2000/svg"
 width="1600.000000pt" height="900.000000pt" viewBox="0 0 1600.000000 900.000000"
 preserveAspectRatio="xMidYMid meet">
<metadata>
Created by potrace 1.16, written by Peter Selinger 2001-2019
</metadata>
<g transform="translate(0.000000,900.000000) scale(0.100000,-0.100000)"
fill="#dc2626" stroke="none">
<path d="M11353 8603 c6 -68 -8 -87 -18 -25 -10 59 -13 62 -45 62 l-31 0 7
-48 c5 -39 3 -49 -8 -49 -9 0 -13 8 -11 21 5 27 -13 76 -28 76 -7 0 -9 -13 -5
-37 l6 -38 -14 33 c-9 19 -22 32 -34 32 -10 0 -23 5 -30 12 -15 15 -16 -3 -3
-49 13 -44 -2 -50 -18 -7 -18 49 -32 42 -26 -13 l5 -48 -26 54 c-19 42 -28 51
-37 42 -8 -8 -9 -14 -1 -19 13 -9 27 -72 15 -72 -4 0 -16 18 -26 40 -19 43
-41 55 -30 18 14 -50 14 -61 -2 -25 -11 25 -22 37 -36 37 -14 0 -17 -3 -10
-12 17 -21 33 -78 22 -78 -5 0 -9 6 -9 13 0 27 -26 50 -48 43 -17 -6 -20 -13
-16 -39 l5 -32 -18 33 c-16 32 -51 47 -39 17 13 -33 16 -49 5 -27 -7 12 -18
22 -26 22 -17 0 -17 -5 3 -36 9 -13 14 -27 11 -31 -4 -3 -12 6 -18 21 -7 14
-18 26 -25 26 -10 0 -10 -8 2 -36 16 -38 13 -54 -5 -32 -6 7 -20 24 -32 38
l-20 25 6 -30 7 -30 -22 28 c-29 36 -41 34 -34 -5 l5 -33 -19 23 c-21 23 -42
29 -42 12 0 -5 4 -10 8 -10 5 0 16 -16 25 -35 20 -42 13 -44 -24 -9 -36 35
-58 28 -29 -9 30 -38 17 -47 -14 -11 -13 16 -28 26 -32 22 -4 -5 0 -16 9 -26
30 -33 18 -44 -14 -13 -37 38 -52 40 -39 5 14 -36 13 -37 -20 -13 -16 13 -33
19 -37 15 -5 -4 -1 -13 8 -19 15 -12 39 -49 39 -62 0 -4 -17 7 -37 24 -45 37
-61 31 -31 -12 l23 -32 -32 23 c-40 29 -63 29 -37 1 19 -22 19 -22 -6 -14 -20
6 -23 5 -12 -6 19 -20 14 -31 -8 -17 -24 15 -37 4 -20 -17 7 -8 8 -15 2 -15
-5 0 -12 7 -16 15 -3 8 -13 15 -22 15 -15 0 -16 -2 -2 -17 29 -34 32 -46 10
-34 -11 6 -28 11 -36 11 -14 0 -14 -3 -4 -20 7 -11 21 -23 31 -26 9 -3 15 -10
12 -15 -4 -5 -13 -2 -21 6 -20 19 -54 38 -60 32 -7 -7 7 -37 17 -37 5 0 9 -5
9 -11 0 -5 -5 -7 -11 -4 -12 8 -51 -29 -42 -39 4 -3 1 -6 -7 -6 -10 0 -10 -3
1 -16 12 -15 11 -16 -8 -10 -35 11 -37 -12 -1 -27 26 -11 29 -15 15 -20 -9 -3
-17 -3 -17 1 0 11 -39 12 -45 1 -4 -5 1 -9 11 -9 13 0 11 -5 -10 -25 -33 -31
-33 -41 2 -53 22 -9 23 -11 7 -12 -11 -1 -28 -2 -37 -1 -10 1 -18 -3 -18 -8 0
-6 10 -11 23 -11 12 0 29 -5 37 -10 11 -7 8 -10 -16 -10 -23 0 -36 -7 -48 -25
-19 -29 -20 -39 -3 -29 9 6 9 4 1 -7 -6 -8 -14 -24 -17 -36 -4 -20 -1 -23 24
-23 42 0 36 -18 -8 -22 -20 -2 -38 -9 -41 -16 -3 -9 4 -11 24 -8 15 3 32 2 38
-2 6 -3 -2 -9 -18 -12 -16 -3 -31 -11 -34 -19 -3 -10 1 -12 14 -8 17 6 17 6 3
-5 -8 -7 -18 -24 -22 -36 -5 -20 -2 -23 14 -19 10 3 19 1 19 -4 0 -5 -7 -9
-15 -9 -34 0 -12 -20 23 -21 l37 -1 -34 -12 c-39 -14 -53 -36 -24 -37 14 0 12
-3 -7 -11 l-25 -11 25 -6 c25 -7 25 -7 3 -13 -21 -5 -34 -30 -15 -27 25 4 32
-4 8 -10 -37 -8 -48 -30 -11 -24 36 7 31 -14 -5 -22 -38 -8 -39 -25 -2 -25 24
-1 25 -2 10 -14 -24 -18 -23 -30 2 -23 28 7 25 -2 -5 -13 -27 -10 -34 -30 -10
-30 9 0 12 -6 9 -15 -4 -8 -1 -15 5 -15 8 0 7 -9 -3 -28 -8 -16 -13 -43 -11
-60 2 -18 0 -32 -5 -32 -6 0 -6 -10 0 -26 7 -16 7 -32 0 -44 -7 -13 -6 -20 2
-22 12 -4 16 -36 19 -135 1 -35 6 -63 11 -63 6 0 8 -7 4 -15 -3 -9 0 -15 9
-15 17 0 20 -16 5 -25 -14 -9 -12 -62 3 -68 9 -4 9 -8 -2 -15 -8 -6 -10 -12
-3 -16 6 -4 9 -15 7 -26 -2 -11 1 -22 6 -25 5 -4 6 -11 3 -17 -4 -6 -1 -14 7
-19 12 -7 14 -19 18 -76 1 -7 11 -13 24 -13 19 0 22 5 22 45 0 25 -4 45 -9 45
-5 0 -1 6 9 14 18 13 18 14 0 23 -12 7 -18 21 -17 42 0 17 -4 31 -10 31 -6 0
-5 7 3 17 10 11 10 17 3 20 -6 2 -9 15 -6 28 3 16 0 25 -8 25 -9 0 -11 10 -6
30 4 20 2 30 -7 30 -6 0 -4 5 6 11 20 12 23 29 4 29 -10 0 -12 16 -10 63 6
101 6 157 0 163 -3 3 3 22 14 41 16 29 18 38 7 44 -11 7 -10 9 1 9 11 0 11 3
1 15 -10 12 -9 15 5 15 9 0 15 6 12 13 -2 6 3 17 12 24 15 11 14 12 -1 13 -9
0 -20 5 -24 11 -4 7 0 9 12 5 11 -3 26 -1 34 4 13 9 13 10 0 10 -12 1 -11 4 4
15 11 8 17 18 13 21 -4 4 1 13 11 20 15 12 14 13 -13 14 -16 0 -37 5 -45 10
-11 7 -5 10 23 10 20 0 37 5 37 10 0 6 -7 10 -15 10 -8 0 -15 5 -15 10 0 6 11
10 25 10 18 0 25 5 25 19 0 11 6 22 13 24 10 4 10 6 0 6 -21 2 -15 18 10 25
18 5 20 8 7 16 -13 9 -13 12 3 24 21 16 21 83 0 79 -7 -2 -13 1 -13 7 0 5 10
9 22 7 18 -2 23 4 28 33 4 19 11 44 16 55 6 11 9 43 8 70 -1 28 4 56 10 64 9
12 8 13 -3 6 -10 -5 -12 -4 -7 3 4 7 17 12 28 12 18 0 20 4 15 35 -5 28 -2 35
11 35 12 0 13 3 4 12 -16 16 -15 28 3 28 9 0 18 8 22 18 7 20 39 53 50 51 30
-5 35 2 17 23 l-19 22 28 -18 c35 -21 47 -14 22 14 -20 23 -6 27 25 8 17 -11
22 -10 29 0 4 8 12 14 17 14 5 0 8 4 7 8 -3 12 55 30 72 24 20 -8 19 13 0 33
-9 8 -13 18 -10 22 4 3 15 -4 25 -16 19 -23 40 -30 40 -14 0 6 -4 13 -10 16
-5 3 -10 11 -10 18 0 8 3 8 12 -1 7 -7 19 -12 27 -12 11 0 8 7 -8 24 -23 25
-23 25 -2 19 12 -3 28 -15 36 -26 8 -12 15 -16 15 -9 0 8 -7 20 -15 29 -26 25
-7 28 25 5 31 -24 45 -28 35 -12 -9 14 9 12 23 -2 10 -10 15 -10 21 1 6 9 21
12 45 9 26 -3 36 0 36 10 0 12 3 12 16 1 9 -8 28 -12 41 -11 13 2 30 -2 38 -8
18 -15 36 -4 28 18 -3 11 0 9 11 -5 10 -13 22 -23 27 -23 6 0 8 10 4 23 -5 15
0 12 14 -10 11 -18 26 -33 31 -33 6 0 9 4 6 9 -4 5 3 7 14 4 16 -4 20 0 21 18
1 21 2 21 6 4 7 -27 23 -46 34 -39 5 3 12 -2 15 -10 10 -27 24 -18 24 15 0 17
4 28 10 24 6 -3 10 -14 10 -25 0 -10 7 -20 15 -24 8 -3 15 -1 15 5 0 6 7 8 17
5 9 -4 20 -1 24 5 4 8 9 4 14 -10 9 -29 28 -21 36 15 6 27 7 27 8 -8 1 -41 22
-52 40 -20 10 16 10 16 11 -2 0 -11 3 -16 7 -13 3 4 12 2 19 -4 8 -6 21 -8 31
-3 24 10 83 12 83 2 0 -4 7 -8 15 -8 8 0 15 -4 15 -10 0 -16 27 -12 34 5 3 8
12 12 20 9 10 -4 20 3 27 20 15 32 30 34 26 4 -1 -18 2 -22 18 -20 11 2 26 12
33 22 12 16 16 17 38 5 14 -7 40 -11 57 -9 18 2 39 4 47 5 36 5 60 -2 60 -16
0 -18 12 -19 28 -3 10 10 15 10 22 -2 8 -12 11 -12 28 3 25 23 36 22 29 -3 -6
-23 3 -26 22 -7 11 10 12 7 6 -13 -6 -20 -5 -23 6 -12 18 17 45 16 30 -1 -17
-21 0 -29 21 -10 22 20 36 10 17 -13 -13 -16 -11 -17 15 -10 25 6 28 5 18 -7
-16 -19 -4 -29 20 -16 16 9 19 7 16 -8 -2 -12 2 -17 14 -15 9 1 20 -3 24 -9 4
-8 3 -9 -4 -5 -7 4 -12 3 -12 -3 0 -5 6 -14 13 -18 20 -13 40 -64 44 -118 3
-27 8 -51 13 -53 5 -2 6 -19 4 -39 -4 -33 -3 -35 18 -30 22 6 22 6 -2 -13
l-25 -20 23 -6 c14 -4 21 -12 18 -21 -3 -7 1 -16 9 -20 10 -3 12 -9 7 -17 -6
-6 -5 -27 2 -51 10 -33 16 -40 35 -37 21 2 22 0 10 -14 -11 -13 -10 -17 4 -25
9 -5 14 -16 11 -24 -4 -9 0 -15 10 -15 9 0 13 -6 10 -15 -4 -8 1 -17 9 -21 9
-3 13 -13 10 -25 -4 -12 0 -19 10 -19 16 0 27 -20 27 -51 0 -10 5 -19 11 -19
6 0 8 -7 5 -16 -3 -8 1 -26 10 -39 9 -13 15 -28 15 -32 0 -4 10 -7 22 -5 21 2
21 2 -3 -12 -22 -13 -23 -15 -7 -22 10 -3 16 -12 13 -19 -2 -7 5 -15 16 -19
18 -4 19 -7 8 -21 -9 -11 -10 -19 -4 -23 6 -4 17 -21 26 -38 12 -26 13 -33 1
-51 -9 -14 -11 -28 -5 -44 5 -13 8 -42 7 -64 -1 -22 3 -53 9 -70 13 -35 14
-55 2 -73 -5 -8 -10 -46 -11 -85 -1 -40 -8 -85 -14 -100 -6 -16 -11 -48 -11
-73 0 -40 2 -44 25 -44 14 0 25 4 25 9 0 5 33 26 73 47 87 46 166 53 214 19
38 -28 125 -201 126 -252 4 -141 -31 -238 -123 -347 -73 -84 -106 -109 -135
-102 -36 9 -95 -18 -95 -44 0 -20 -1 -20 -37 -5 -21 9 -47 25 -59 35 -11 11
-26 20 -32 20 -7 0 -12 7 -12 14 0 11 14 16 46 18 61 4 76 25 52 69 -22 38
-23 85 -3 93 21 8 20 66 -1 66 -9 0 -14 6 -11 13 2 6 16 11 31 9 32 -3 45 21
27 51 -12 18 -4 29 85 118 55 54 114 106 132 116 36 20 40 31 15 40 -9 4 -42
-6 -77 -24 -34 -17 -72 -34 -85 -38 -13 -4 -52 -32 -87 -61 -36 -30 -68 -52
-73 -49 -5 3 -14 -16 -19 -43 -21 -92 -51 -258 -57 -312 -6 -51 -17 -111 -60
-339 -17 -88 -33 -129 -59 -150 -9 -8 -16 -20 -16 -27 0 -8 -4 -14 -8 -14 -5
0 -17 -8 -28 -17 -61 -56 -288 -214 -367 -256 -80 -43 -209 -97 -250 -104 -18
-3 -103 -7 -190 -10 -165 -5 -312 7 -407 33 -117 33 -247 77 -290 98 -25 13
-83 42 -130 65 -121 61 -195 117 -295 223 -111 118 -155 207 -237 483 -16 55
-32 107 -35 115 -3 8 -7 20 -8 25 -2 6 -10 39 -19 75 -9 36 -18 78 -21 93 -8
38 -180 197 -214 197 -5 0 -11 4 -13 10 -5 14 -88 25 -88 12 0 -6 10 -16 22
-23 41 -22 90 -74 140 -149 l50 -75 -4 -74 c-5 -72 -5 -73 22 -85 22 -9 25
-15 19 -31 -4 -11 -8 -35 -8 -53 -1 -26 5 -36 30 -51 l30 -19 -27 -21 c-35
-28 -70 -36 -97 -24 -196 91 -276 153 -324 251 -25 51 -28 67 -28 162 0 100 2
108 35 174 40 79 177 216 216 216 12 0 45 -15 73 -34 68 -46 70 -29 3 27 -53
43 -97 38 -176 -20 -157 -116 -216 -265 -179 -447 8 -39 24 -90 35 -113 25
-50 111 -139 168 -173 23 -14 57 -35 76 -48 50 -31 103 -41 165 -30 62 11 104
31 118 55 13 23 14 20 40 -67 23 -75 68 -185 123 -294 41 -82 138 -188 227
-247 41 -28 129 -77 196 -110 l120 -59 6 -68 c3 -37 7 -152 8 -257 2 -191 5
-250 15 -293 4 -17 -1 -25 -17 -31 -12 -5 -47 -24 -77 -43 -180 -109 -217
-152 -326 -368 -30 -58 -66 -127 -82 -155 -33 -59 -176 -365 -198 -427 -9 -24
-42 -117 -74 -208 -32 -91 -85 -241 -117 -335 -33 -93 -97 -253 -142 -355 -44
-101 -79 -192 -76 -201 8 -25 46 -62 78 -76 71 -32 184 -25 230 15 14 12 17
13 17 1 -1 -32 -31 -351 -41 -429 -12 -100 -37 -464 -53 -795 -2 -44 -7 -87
-10 -95 -12 -28 -27 -276 -41 -655 -3 -82 -8 -210 -11 -282 -4 -113 -3 -133
10 -133 8 0 17 4 20 8 3 5 8 140 11 300 4 233 3 292 -7 292 -10 0 -10 2 -1 8
7 5 10 22 7 45 -2 21 -1 44 3 50 9 15 10 24 23 192 5 77 14 178 20 225 6 47
15 157 20 245 6 88 13 176 17 195 7 40 37 69 73 70 14 0 33 7 43 15 25 18 15
46 -29 84 -74 66 -75 98 -4 541 l28 175 99 92 c90 85 101 92 139 93 l40 0 13
-67 c8 -38 16 -72 19 -77 3 -5 4 -39 3 -76 -2 -50 2 -70 13 -79 9 -8 16 -10
16 -5 0 5 4 4 8 -3 4 -7 9 6 10 30 1 23 8 102 16 175 17 166 15 177 -37 202
-65 31 -53 38 -204 -104 -46 -44 -115 -104 -153 -133 -61 -48 -69 -51 -75 -34
-3 11 -3 31 1 45 7 29 12 29 -70 -8 -21 -9 -40 -15 -43 -12 -3 3 10 12 28 20
44 19 94 53 220 151 175 135 180 137 262 130 41 -4 80 -14 93 -23 22 -16 23
-21 19 -152 -2 -74 -8 -198 -14 -275 -6 -77 -16 -268 -22 -425 -6 -157 -15
-370 -20 -475 -25 -524 -34 -906 -27 -1150 8 -294 7 -285 25 -285 10 0 13 66
15 353 2 374 2 386 12 542 7 103 49 333 66 366 6 10 8 33 6 51 -6 45 -32 154
-40 167 -21 33 2 430 25 456 9 9 7 -16 -7 -82 -2 -12 -7 -54 -10 -92 -5 -58
-4 -71 8 -71 11 0 17 23 26 92 17 137 26 229 25 263 -1 25 0 26 7 10 4 -11 20
-31 34 -44 26 -24 26 -24 26 -3 0 11 7 25 15 29 12 7 11 21 -11 98 -19 68 -24
106 -21 153 3 34 1 62 -3 62 -16 0 -34 -33 -40 -73 l-5 -42 -18 25 c-15 24
-15 35 -2 150 12 112 36 205 67 267 7 15 7 39 -1 85 -18 102 -12 120 13 38 30
-100 84 -162 102 -116 3 8 19 17 36 20 34 7 32 -5 13 121 -5 32 -4 37 5 22 6
-10 14 -43 17 -73 5 -47 10 -57 33 -69 40 -21 51 -7 44 56 -3 29 -10 62 -15
71 -5 9 -9 28 -9 42 0 13 -7 31 -15 40 -8 8 -15 28 -15 45 0 16 -5 33 -11 36
-7 5 -10 46 -8 114 2 126 1 134 -13 101 -5 -14 -12 -83 -15 -155 -3 -71 -6
-131 -7 -132 -1 -1 -16 10 -33 26 -25 22 -31 35 -28 57 12 91 14 147 4 137
-24 -24 -30 -135 -14 -273 3 -32 2 -39 -4 -25 -5 11 -10 31 -10 45 -1 14 -10
33 -21 43 -11 9 -20 26 -20 37 0 11 -7 20 -15 20 -8 0 -15 2 -15 5 0 12 32
141 40 160 4 11 15 40 25 65 9 25 21 55 26 68 11 29 11 32 -1 32 -12 0 -28
-30 -57 -110 l-24 -65 5 61 c6 64 42 174 58 174 5 0 6 9 3 20 -4 11 -2 20 4
20 6 0 11 -4 11 -10 0 -14 47 -12 57 3 4 6 6 23 4 36 -2 15 2 22 10 19 6 -2
13 -19 16 -38 4 -39 7 -44 26 -37 12 4 12 15 4 59 -5 29 -11 94 -13 143 -3
113 -2 107 -12 101 -5 -3 -10 -18 -11 -33 0 -15 -7 -55 -14 -88 l-13 -60 -13
38 c-7 20 -18 37 -24 37 -8 0 -8 3 -2 8 14 10 31 53 31 76 -1 29 -21 30 -40 1
-15 -23 -20 -43 -25 -93 0 -7 -6 -10 -11 -7 -11 7 -8 39 11 127 8 35 14 45 26
41 41 -16 28 51 -16 84 -14 10 -14 12 4 18 11 4 38 16 60 26 36 17 48 17 98 7
31 -7 60 -9 64 -5 3 4 2 20 -3 35 -9 25 -14 27 -63 27 -44 -1 -71 -10 -174
-64 -140 -73 -175 -85 -194 -70 -29 25 -7 133 53 256 19 38 43 66 83 96 31 24
78 60 104 80 57 44 67 45 67 12 0 -14 -6 -25 -13 -25 -7 0 -23 -9 -35 -21
l-22 -20 32 -47 c17 -26 63 -76 101 -111 38 -36 74 -76 80 -90 8 -21 11 -23
14 -8 3 9 10 17 18 17 7 0 36 22 64 49 39 38 66 54 118 70 36 12 73 21 81 21
7 0 26 6 40 14 49 26 140 47 307 71 22 4 76 12 120 20 115 19 155 24 155 19 0
-11 -216 -402 -243 -438 -29 -42 -77 -116 -91 -144 -9 -17 -20 -32 -24 -32 -4
0 -16 19 -27 42 -21 43 -83 130 -97 136 -4 2 -8 10 -8 18 0 16 -125 144 -140
144 -5 0 13 -29 40 -65 53 -72 135 -230 155 -302 3 -13 12 -23 20 -23 21 0 24
-22 7 -54 -19 -39 -61 -149 -79 -211 -26 -87 -32 -117 -43 -215 -6 -52 -13
-108 -15 -125 -2 -16 -8 -68 -12 -115 l-8 -85 -6 95 c-4 52 -7 174 -8 270 -1
164 -9 216 -28 196 -4 -4 -8 -91 -8 -192 0 -140 -3 -184 -12 -184 -7 0 -14 10
-15 23 -1 12 -3 31 -4 42 -1 11 -2 78 -3 148 -1 90 -4 128 -12 125 -8 -3 -11
-45 -10 -131 l1 -127 -25 0 c-31 0 -31 -3 0 -120 56 -215 47 -195 88 -195 20
0 37 -3 37 -7 0 -4 -4 -29 -9 -55 -5 -26 -12 -116 -15 -200 -2 -83 -9 -160
-15 -170 -10 -17 -10 -17 -11 0 0 21 -29 35 -39 19 -4 -6 -4 -44 0 -84 4 -40
6 -74 4 -76 -2 -2 -12 25 -24 60 -26 78 -56 128 -76 128 -21 0 -21 30 0 252 6
62 -9 81 -19 26 -28 -157 -31 -553 -5 -585 8 -8 18 -9 41 -1 27 10 29 14 24
41 -6 29 -5 30 8 12 9 -11 16 -26 16 -32 0 -11 21 -18 35 -10 2 1 11 -7 19
-18 11 -16 14 -74 16 -270 1 -138 1 -279 0 -315 l-2 -65 -14 60 c-21 95 -22
101 -46 264 -12 84 -27 159 -34 165 -6 7 -15 35 -18 62 -8 53 -24 93 -27 64
-2 -19 -2 -15 5 -78 3 -29 12 -60 21 -68 8 -9 15 -21 16 -27 0 -7 2 -23 4 -37
2 -14 7 -56 11 -95 4 -38 8 -72 9 -75 13 -49 15 -93 6 -104 -11 -13 -8 -91 5
-154 3 -13 1 -21 -4 -18 -5 3 -17 49 -27 103 -10 54 -24 121 -31 150 -7 28
-11 63 -10 77 2 14 0 26 -4 26 -4 0 -6 14 -4 31 3 21 0 29 -8 27 -8 -3 -11
-19 -8 -49 2 -24 4 -66 3 -94 -8 -187 2 -289 36 -377 8 -22 16 -27 33 -24 13
3 23 5 23 6 0 1 16 2 36 3 l36 2 7 -105 c4 -69 1 -144 -8 -220 -8 -63 -18
-162 -21 -220 -10 -152 -36 -221 -50 -133 -24 139 -75 268 -120 297 -48 32
-49 10 -30 -504 1 -30 2 -108 3 -172 l2 -118 181 0 181 0 -6 38 c-3 20 -8 73
-11 117 -3 44 -8 96 -10 115 -4 37 -10 102 -20 215 -4 39 -8 86 -11 106 -13
127 -24 364 -19 420 4 43 3 75 -4 88 -8 14 -12 177 -12 538 -1 532 13 896 47
1192 17 149 15 146 109 201 63 37 82 37 185 0 86 -31 100 -40 160 -100 178
-176 277 -261 449 -383 192 -136 208 -144 391 -197 195 -57 336 -88 382 -83
l46 5 7 -47 c4 -26 3 -51 -2 -56 -12 -12 -112 -13 -142 -2 -18 7 -28 22 -35
53 -12 49 -3 45 -236 110 -58 16 -113 32 -122 35 -14 6 -18 -2 -24 -53 -7 -65
-19 -94 -31 -76 -5 6 -17 16 -28 22 -76 40 -387 277 -599 457 -89 76 -227 176
-285 206 l-44 23 -56 -31 c-65 -36 -76 -51 -68 -85 8 -32 45 -48 112 -48 l55
0 0 -57 c0 -135 88 -167 176 -65 l31 36 57 -48 c31 -27 58 -58 60 -70 3 -11
10 -84 16 -161 19 -228 61 -486 82 -513 6 -7 8 -15 5 -18 -3 -3 3 -29 13 -59
10 -29 23 -79 30 -111 25 -126 63 -274 96 -376 19 -59 34 -115 34 -124 0 -12
-24 7 -71 56 -105 110 -159 235 -161 372 -1 68 -6 78 -44 81 -28 2 -29 0 -36
-53 -4 -30 -11 -82 -17 -115 -6 -33 -17 -132 -25 -220 l-14 -160 38 -80 c20
-44 65 -163 100 -265 34 -102 75 -210 91 -240 65 -126 66 -136 36 -457 l-13
-133 148 0 c111 0 148 3 149 13 3 23 -3 412 -6 427 -2 8 -6 78 -9 155 -4 77
-16 228 -27 335 -11 108 -19 225 -17 260 2 36 -3 137 -10 225 -10 135 -24 543
-22 639 1 41 -20 98 -33 93 -19 -6 -36 -243 -37 -509 0 -76 -4 -138 -8 -138
-15 0 -70 354 -112 715 -11 94 -22 185 -25 204 l-7 35 34 -25 c18 -14 46 -30
61 -37 15 -6 31 -21 35 -32 9 -24 118 -121 206 -183 32 -23 75 -56 95 -73 76
-65 103 -75 213 -81 83 -4 122 -1 203 16 55 12 102 26 103 31 2 6 10 10 17 10
8 0 20 9 27 19 8 11 33 27 56 36 23 10 43 20 43 24 9 50 6 167 -6 224 -9 40
-34 159 -56 265 -22 106 -53 232 -68 280 -16 48 -32 114 -35 148 -3 33 -14 98
-24 145 -11 46 -22 100 -25 119 -6 34 -6 34 15 -10 12 -25 50 -105 85 -178 34
-74 63 -138 63 -144 0 -5 14 -40 31 -76 36 -78 95 -228 116 -292 22 -70 92
-345 99 -387 3 -21 10 -40 15 -41 5 -2 6 -8 3 -14 -4 -6 0 -14 7 -19 12 -8 12
-11 -1 -19 -13 -8 -13 -10 1 -10 17 0 30 -53 44 -170 6 -52 76 -422 105 -555
11 -49 31 -166 45 -260 46 -309 56 -368 60 -374 4 -8 32 -209 39 -281 3 -30 9
-75 15 -100 13 -66 37 -191 57 -307 17 -97 19 -103 41 -103 26 0 26 0 6 135
-4 28 -7 55 -8 60 0 6 -3 13 -7 16 -5 3 -10 34 -13 70 -6 70 -17 135 -45 279
-11 52 -31 174 -45 270 -49 332 -73 476 -119 700 -38 183 -73 376 -81 455 -3
28 -20 102 -37 165 -16 63 -37 142 -45 175 -8 33 -25 97 -39 143 -80 275 -77
265 -123 372 -16 36 -41 97 -57 135 -47 118 -112 262 -199 440 -46 94 -102
221 -124 284 -41 114 -74 182 -136 276 -18 28 -59 93 -90 145 -115 188 -183
287 -265 380 -74 85 -93 100 -179 145 -110 58 -196 95 -220 95 -22 0 -41 64
-41 137 0 32 -5 112 -11 178 -9 104 -8 121 5 130 8 5 45 28 82 50 74 45 253
176 293 215 119 118 145 169 177 356 l17 101 58 -30 c56 -29 59 -29 123 -17
40 7 84 24 111 42 70 46 175 179 214 271 19 44 37 168 32 221 -3 33 -81 192
-118 244 -65 88 -201 95 -285 15 l-27 -26 2 29 c1 16 8 35 15 42 6 7 12 26 12
42 0 16 5 32 10 35 16 10 12 25 -7 25 -15 0 -15 2 -4 9 8 5 11 16 7 26 -3 9
-1 25 4 36 8 14 7 19 -1 19 -8 0 -9 4 0 13 8 10 7 17 -1 25 -9 9 -9 12 0 12 7
0 12 14 12 33 0 17 4 47 9 65 8 25 7 32 -4 32 -12 0 -12 5 -3 26 10 21 9 27
-3 35 -11 8 -11 12 -2 16 8 3 11 14 7 28 -3 12 -1 26 5 29 19 12 12 28 -9 21
-15 -5 -18 -3 -14 9 3 9 10 16 15 16 5 0 9 4 9 10 0 5 -17 12 -37 16 -32 6
-34 8 -16 15 24 9 32 20 38 49 3 15 -2 20 -18 20 -22 0 -22 1 3 20 l25 20 -27
0 c-28 0 -37 13 -18 25 14 9 12 45 -2 45 -9 0 -9 3 0 12 21 21 13 29 -25 24
l-38 -5 38 10 c21 6 37 17 37 25 0 12 -9 14 -37 9 -36 -6 -37 -5 -18 9 37 28
46 38 42 43 -3 2 -15 -1 -27 -7 -33 -18 -38 -2 -7 24 30 26 35 41 10 32 -9 -4
-20 -1 -24 5 -5 9 -19 8 -53 -4 -25 -9 -46 -12 -46 -7 0 5 23 16 50 25 38 12
50 22 50 36 0 13 -4 17 -11 13 -8 -5 -10 3 -7 25 2 17 4 31 2 31 -1 0 -15 -7
-30 -15 -33 -17 -54 -19 -54 -6 0 5 14 14 30 20 17 5 30 17 30 27 0 9 -6 14
-12 11 -44 -16 -60 -18 -54 -8 4 6 13 11 20 11 17 0 41 28 32 37 -3 4 -22 -1
-41 -10 -48 -23 -44 -3 5 25 22 13 40 29 40 36 0 16 -5 15 -42 -4 -25 -13 -32
-14 -39 -2 -6 9 1 20 21 36 17 13 30 28 30 33 0 8 -10 8 -75 -7 -16 -4 -14 -1
8 16 36 28 34 41 -4 33 -30 -6 -31 -5 -19 16 9 18 9 22 -2 20 -32 -4 -41 1
-28 16 24 28 4 35 -32 10 -52 -35 -58 -31 -10 8 23 17 41 38 41 45 1 16 -5 15
-34 -4 -14 -9 -25 -12 -25 -6 0 6 5 14 10 17 18 11 10 26 -10 20 -23 -7 -28
10 -5 19 26 10 17 29 -11 22 -23 -6 -25 -4 -19 15 6 18 4 21 -13 17 -15 -4
-18 -1 -14 14 3 11 -3 24 -14 33 -16 12 -21 11 -37 -2 -24 -23 -32 -10 -12 21
28 43 -7 33 -39 -11 -22 -31 -26 -33 -21 -13 4 14 14 34 21 45 8 11 14 25 14
32 0 25 -19 12 -49 -34 -38 -57 -39 -51 -5 16 24 49 24 91 0 60 -6 -8 -23 -14
-37 -14 -24 -1 -26 2 -18 22 13 34 -10 29 -44 -9 l-29 -33 17 33 c18 38 10 66
-12 37 -12 -18 -13 -18 -13 2 0 30 -36 36 -53 9 -7 -11 -17 -30 -20 -40 -4
-10 -10 -16 -14 -13 -3 4 2 23 11 42 10 20 15 44 11 53 -5 14 -10 10 -24 -18
-24 -50 -53 -91 -58 -86 -3 3 4 25 16 49 23 47 28 82 10 71 -6 -3 -20 -25 -31
-48 -11 -22 -26 -52 -34 -66 -26 -46 -17 11 11 69 26 53 26 82 0 61 -8 -7 -18
-9 -23 -6 -6 3 -15 -1 -22 -9 -15 -19 -34 -20 -27 -2 6 15 -9 45 -17 36 -3 -2
-8 -20 -11 -39 -7 -37 -12 -47 -21 -38 -3 3 0 24 7 46 12 42 7 78 -10 67 -6
-3 -13 -26 -17 -50 -3 -25 -10 -48 -15 -51 -12 -7 -11 9 2 42 11 31 4 78 -11
69 -4 -3 -11 -19 -15 -35 -9 -43 -20 -44 -20 -2 0 26 -4 36 -14 34 -7 -1 -19
5 -27 15 -10 14 -13 15 -14 4 0 -11 -4 -9 -15 5 -13 16 -16 17 -25 4 -5 -8 -8
-21 -5 -28 3 -7 0 -10 -5 -7 -6 3 -10 15 -10 26 0 10 -4 19 -9 19 -13 0 -21
-26 -21 -68 0 -53 -18 -27 -22 32 -4 69 -28 75 -28 7 0 -70 -18 -74 -22 -5 -4
77 -25 84 -24 8 1 -82 -20 -81 -29 1 -10 92 -31 87 -28 -7 1 -71 1 -72 -7 -21
-10 65 -16 83 -30 83 -8 0 -9 -20 -5 -61 4 -36 2 -59 -3 -55 -5 3 -12 31 -15
62 -3 34 -13 64 -23 73 -15 15 -16 12 -11 -46z m-200 -108 c4 -8 2 -17 -3 -20
-6 -4 -10 3 -10 14 0 25 6 27 13 6z m378 -68 c-13 -13 -15 21 -3 50 6 15 8 13
10 -11 2 -16 -1 -33 -7 -39z m359 -19 c0 -7 -5 -20 -10 -28 -8 -11 -9 -9 -8
13 2 26 18 40 18 15z m-219 -25 c-12 -20 -14 -14 -5 12 4 9 9 14 11 11 3 -2 0
-13 -6 -23z m-213 -59 c-3 -14 -5 -12 -10 9 -3 19 -2 25 4 19 6 -6 8 -18 6
-28z m-898 16 c0 -5 -2 -10 -4 -10 -3 0 -8 5 -11 10 -3 6 -1 10 4 10 6 0 11
-4 11 -10z m1190 -55 c0 -8 -4 -15 -10 -15 -5 0 -7 7 -4 15 4 8 8 15 10 15 2
0 4 -7 4 -15z m635 -34 c3 -5 1 -12 -5 -16 -5 -3 -10 1 -10 9 0 18 6 21 15 7z
m-1800 -32 c11 -17 -1 -21 -15 -4 -8 9 -8 15 -2 15 6 0 14 -5 17 -11z m-200
-9 c3 -5 -1 -10 -9 -10 -9 0 -16 5 -16 10 0 6 4 10 9 10 6 0 13 -4 16 -10z
m2135 -214 c0 -3 -4 -8 -10 -11 -5 -3 -10 -1 -10 4 0 6 5 11 10 11 6 0 10 -2
10 -4z m25 -126 c-3 -5 -12 -10 -18 -10 -7 0 -6 4 3 10 19 12 23 12 15 0z m85
-179 c-8 -5 -26 -12 -40 -15 l-25 -7 25 15 c14 9 32 15 40 15 13 0 13 -1 0 -8z
m49 -85 c-2 -2 -15 -7 -29 -10 l-25 -7 25 15 c21 12 42 14 29 2z m-1549 -2473
c134 -50 174 -63 192 -63 10 0 21 -6 24 -13 3 -8 10 -14 17 -15 129 -14 352
-23 370 -15 12 6 45 19 72 29 28 9 82 34 120 54 39 21 80 41 92 44 20 6 21 4
21 -41 -1 -72 13 -276 19 -287 3 -5 12 -106 19 -225 7 -119 15 -244 18 -277 5
-45 2 -65 -8 -73 -7 -6 -78 -16 -157 -21 -172 -11 -281 -30 -388 -66 -44 -15
-86 -24 -95 -21 -8 3 -19 21 -25 39 -5 18 -39 118 -75 223 -36 104 -66 191
-66 192 0 2 -11 3 -25 3 -25 0 -25 -1 -25 -77 0 -95 22 -250 50 -358 13 -50
17 -81 10 -83 -5 -2 -10 -9 -10 -15 0 -7 -28 -33 -63 -59 l-62 -47 -15 22 c-8
12 -33 41 -55 63 l-40 41 -3 184 c-2 101 -6 262 -10 358 -4 96 -6 257 -4 358
2 171 4 184 20 178 9 -5 46 -19 82 -32z m1232 -539 c45 -28 147 -142 204 -227
16 -23 42 -58 59 -77 16 -20 50 -68 75 -108 25 -40 65 -103 89 -140 55 -85
133 -237 166 -326 41 -108 85 -275 85 -321 0 -44 47 -258 103 -470 48 -180 63
-254 92 -449 20 -134 22 -172 13 -178 -7 -5 -38 -6 -68 -3 -101 11 -96 5 -108
113 -6 53 -18 234 -27 402 -15 306 -30 425 -55 440 -32 20 -47 -12 -118 -237
-78 -250 -100 -336 -128 -490 -10 -57 -22 -103 -27 -103 -17 0 -94 44 -137 79
-25 20 -72 54 -105 75 -106 69 -248 178 -330 256 -164 153 -234 202 -343 237
-95 30 -118 29 -175 -7 -26 -16 -50 -30 -54 -30 -3 0 -3 15 1 33 4 17 11 65
17 105 6 40 18 92 28 115 41 96 94 197 102 197 4 0 6 6 3 14 -6 14 39 121 61
146 7 8 14 18 14 23 2 23 81 164 190 337 23 36 53 87 69 114 15 26 46 72 69
101 61 77 163 248 163 274 0 23 -54 70 -114 101 -66 33 -66 33 -66 75 l0 43
103 -43 c56 -23 124 -55 149 -71z m-1364 -144 c2 -29 -1 -40 -12 -40 -19 0
-120 -54 -145 -77 -28 -26 -51 -85 -44 -112 4 -15 -2 -30 -20 -49 -65 -69
-137 -240 -137 -327 0 -74 52 -93 152 -55 28 11 53 19 54 17 1 -1 -4 -40 -11
-87 -14 -88 -41 -320 -75 -640 -35 -328 -30 -310 -75 -276 -35 27 -99 35 -133
17 -9 -6 -33 -12 -52 -16 -32 -5 -107 -54 -177 -115 -62 -55 -124 -103 -128
-99 -2 3 -5 52 -6 109 -1 58 -8 150 -16 205 -16 115 -15 119 64 355 45 134
138 376 152 395 4 6 20 42 36 80 15 39 33 76 38 83 5 7 29 49 52 95 150 297
206 395 247 434 28 27 213 142 229 143 3 0 6 -18 7 -40z m-990 -1876 c-13 -70
-11 -66 -31 -58 -14 5 -14 9 0 42 8 20 19 48 24 61 16 41 20 17 7 -45z m19
-96 c44 -1 45 -2 10 -5 -30 -3 -40 -10 -50 -31 -6 -15 -12 -28 -13 -30 -1 -2
-13 4 -27 13 -22 14 -24 19 -14 45 9 23 14 27 28 19 10 -5 39 -10 66 -11z"/>
<path d="M1110 7656 c0 -31 5 -46 16 -50 9 -3 1660 -6 3670 -6 l3655 0 7 21
c5 12 6 34 4 50 l-4 29 -3674 0 -3674 0 0 -44z m3704 14 c3607 0 3612 0 3613
-20 2 -20 -2 -20 -3643 -20 -3586 0 -3644 0 -3644 19 0 20 24 32 48 25 8 -2
1639 -4 3626 -4z"/>
<path d="M1467 7509 c-60 -12 -188 -82 -237 -130 -44 -42 -93 -140 -110 -220
-31 -139 9 -299 95 -378 45 -41 158 -99 308 -156 50 -20 105 -41 122 -48 38
-15 102 -72 121 -108 27 -52 12 -132 -34 -181 -53 -57 -237 -83 -323 -45 -50
22 -113 97 -155 182 -43 89 -56 105 -83 105 -31 0 -37 -26 -45 -185 -4 -77 -9
-171 -13 -210 l-5 -70 33 -13 c31 -11 36 -11 52 9 19 24 13 24 262 -12 87 -13
261 -5 338 15 113 30 232 109 291 195 47 67 67 143 73 273 5 113 5 119 -21
172 -37 75 -118 154 -202 198 -38 19 -130 57 -204 83 -162 57 -176 64 -218
108 -65 67 -51 162 31 207 109 62 272 7 375 -125 l44 -56 56 3 c63 3 76 17 87
92 8 48 37 77 99 101 l48 19 19 -25 c18 -23 19 -44 17 -434 -3 -455 -1 -442
-70 -470 -47 -19 -49 -44 -5 -68 28 -17 59 -19 261 -21 160 -1 230 2 233 9 8
21 -16 63 -43 77 -15 7 -37 26 -48 41 -20 28 -21 41 -24 449 -2 243 1 425 6
430 26 26 143 -48 192 -122 39 -57 62 -80 82 -80 27 0 31 21 14 81 -8 30 -18
80 -22 112 -6 54 -5 59 12 55 37 -7 42 -57 42 -463 1 -214 -3 -407 -8 -428 -4
-22 -18 -49 -29 -61 -27 -29 -27 -56 -1 -56 11 0 20 -4 20 -10 0 -5 9 -10 19
-10 11 0 23 5 26 10 9 14 268 13 282 -1 6 -6 21 -9 34 -7 32 4 27 39 -11 87
-26 34 -28 43 -31 141 -5 151 0 280 9 280 21 0 87 -82 128 -156 81 -148 103
-244 64 -279 -27 -25 -25 -48 7 -62 33 -16 65 -17 80 -2 12 12 405 7 462 -6
33 -8 34 -7 27 20 -4 16 -19 42 -33 59 -23 28 -25 36 -20 93 7 71 54 234 71
246 29 20 145 -27 211 -85 53 -46 95 -124 95 -175 0 -33 -7 -50 -30 -76 -16
-19 -30 -41 -30 -48 0 -28 91 -52 105 -29 4 6 67 10 155 10 88 0 151 -4 155
-10 8 -13 68 -13 82 1 10 10 41 9 132 -3 35 -5 35 27 -1 68 -17 19 -34 53 -39
75 -8 34 -4 678 4 686 2 1 14 -3 27 -10 25 -13 69 -66 142 -172 23 -33 44 -62
48 -65 4 -3 24 -30 46 -61 21 -31 61 -87 88 -125 86 -121 116 -184 116 -244 0
-44 -5 -59 -26 -81 -29 -31 -26 -42 17 -65 23 -12 34 -13 44 -4 13 11 67 10
155 -2 33 -4 39 27 9 58 -39 41 -48 141 -49 552 -1 381 1 411 36 398 8 -3 18
4 24 14 6 11 7 20 2 20 -5 0 -8 10 -8 23 1 22 -2 22 -122 25 -104 2 -123 0
-128 -13 -4 -10 2 -24 15 -36 45 -42 55 -78 56 -191 0 -58 -3 -110 -7 -114
-12 -12 -36 14 -105 115 -79 116 -88 138 -70 160 8 10 11 28 8 46 l-6 30 -249
3 c-137 1 -254 -2 -258 -6 -5 -5 7 -32 27 -61 l35 -53 0 -417 c0 -334 -3 -421
-13 -436 -29 -38 -48 0 -107 210 -37 132 -66 231 -77 265 -7 20 -47 169 -80
294 -21 81 -24 102 -14 118 16 26 5 75 -20 89 -27 14 -354 8 -369 -7 -9 -9 -8
-22 1 -52 11 -38 8 -52 -60 -264 -90 -279 -147 -461 -160 -513 -6 -22 -17 -49
-25 -60 -13 -18 -16 -18 -29 -5 -7 8 -26 53 -41 100 -32 95 -83 202 -125 260
-16 22 -34 53 -41 70 -13 30 -12 31 48 86 74 67 112 139 112 215 0 66 -27 110
-88 147 l-47 27 -245 3 c-135 1 -303 -1 -375 -6 -102 -6 -133 -5 -143 5 -11
10 -94 13 -379 13 -332 0 -368 -2 -385 -17 -14 -12 -21 -14 -26 -6 -8 12 -81
31 -252 64 -101 19 -234 23 -313 8z m368 -78 c130 -30 134 -31 140 -52 9 -26
-4 -125 -19 -143 -9 -14 -18 -10 -61 25 -137 110 -279 130 -383 52 -45 -33
-62 -72 -62 -139 0 -90 50 -149 161 -187 24 -9 76 -28 114 -42 39 -15 90 -34
115 -42 112 -40 206 -122 252 -222 38 -82 44 -137 25 -239 -44 -233 -202 -350
-497 -369 -98 -6 -236 11 -347 43 -29 9 -61 13 -72 9 -10 -3 -27 2 -39 12 -21
18 -21 22 -11 158 5 76 12 141 14 143 12 12 35 -13 71 -73 69 -119 164 -184
268 -185 172 -1 274 72 298 212 10 57 9 69 -8 103 -27 56 -78 87 -244 151
-262 100 -319 136 -372 234 -44 81 -53 145 -35 248 8 50 25 111 38 137 27 55
125 149 176 170 85 36 311 34 478 -4z m740 -27 c34 -4 84 -2 113 5 77 16 112
-14 112 -94 0 -40 -3 -41 -38 -17 -47 32 -181 70 -202 57 -7 -4 -10 -148 -10
-439 0 -370 2 -439 16 -471 26 -62 21 -65 -124 -65 -101 0 -132 3 -142 15 -6
8 -8 19 -5 26 20 31 24 116 25 494 l1 410 -23 18 c-29 24 -79 17 -161 -23
l-60 -30 6 52 c4 28 11 55 18 58 6 4 87 7 181 8 93 0 172 3 176 7 4 3 18 4 32
1 14 -3 52 -9 85 -12z m994 -4 c89 -16 128 -68 116 -154 -10 -82 -40 -124
-159 -223 -23 -19 -25 -25 -16 -49 6 -15 30 -55 54 -88 63 -90 132 -240 171
-373 16 -54 43 -80 71 -69 10 4 13 13 9 26 -4 11 9 58 33 117 21 54 47 130 56
168 10 39 24 84 31 100 12 28 62 179 106 325 11 36 34 102 51 146 l32 82 67 6
c36 4 78 5 93 1 14 -3 37 -7 50 -10 28 -6 32 -15 56 -115 9 -41 36 -140 58
-220 23 -80 59 -208 81 -285 67 -238 91 -316 107 -346 8 -16 12 -34 9 -39 -4
-6 -66 -10 -144 -10 -163 0 -168 3 -150 74 15 59 1 113 -46 177 -68 94 -180
159 -274 159 -34 0 -41 -4 -54 -32 -37 -80 -61 -185 -63 -276 -1 -52 -5 -97
-9 -100 -4 -4 -97 -7 -207 -7 -189 0 -200 1 -211 20 -6 11 -10 32 -8 47 4 46
-27 136 -87 252 -69 132 -124 199 -156 190 -50 -14 -56 -35 -56 -201 0 -85 5
-185 11 -224 7 -38 9 -72 6 -75 -12 -12 -196 -16 -231 -4 -38 12 -47 35 -23
58 9 10 13 121 14 475 2 254 3 467 3 474 0 8 26 13 83 15 145 5 470 -2 526
-12z m1546 -36 c18 -90 233 -410 259 -384 5 6 -12 366 -20 408 l-6 33 48 -3
48 -3 -2 -350 c-1 -192 -5 -395 -8 -450 -4 -75 -2 -112 10 -150 23 -74 23 -75
-39 -75 -66 0 -75 13 -50 66 31 66 10 115 -139 317 -64 87 -116 160 -116 162
0 3 -8 13 -17 24 -10 10 -56 73 -103 141 -106 153 -128 180 -146 180 -13 0
-14 -58 -11 -412 2 -227 7 -428 12 -445 l7 -33 -44 0 c-58 0 -68 11 -56 62 10
46 17 759 8 881 -3 43 -3 80 -1 83 3 2 84 3 180 2 l176 -3 10 -51z"/>
<path d="M3234 7341 c-48 -29 -55 -59 -52 -231 l3 -155 28 -13 c27 -13 31 -12
55 10 15 14 43 35 62 48 91 60 130 120 130 197 0 95 -62 163 -149 163 -27 0
-58 -8 -77 -19z m133 -39 c78 -42 69 -158 -19 -244 -51 -49 -99 -68 -123 -48
-12 10 -15 38 -15 120 0 135 6 163 37 182 27 16 79 12 120 -10z"/>
<path d="M4110 7253 c-51 -187 -86 -331 -83 -343 4 -16 30 -29 98 -51 22 -6
58 -27 81 -46 23 -18 49 -33 59 -33 21 0 18 19 -31 191 -19 68 -39 148 -44
176 -10 61 -44 143 -59 143 -6 0 -15 -17 -21 -37z m38 -138 c11 -13 29 -64 41
-112 12 -48 24 -96 27 -105 7 -25 -25 -23 -87 3 -35 15 -51 29 -55 46 -7 26
35 193 47 193 4 0 16 -11 27 -25z"/>
<path d="M5865 7460 c-159 -29 -297 -134 -348 -268 -14 -35 -17 -81 -17 -261
l0 -218 35 -69 c63 -127 154 -211 275 -255 61 -22 84 -24 360 -30 162 -3 304
-8 315 -10 29 -6 32 35 5 58 -46 39 -50 60 -50 277 0 211 7 259 37 255 10 -1
23 -1 29 0 13 1 13 55 1 68 -9 9 -381 15 -409 7 -25 -7 -22 -27 8 -55 47 -43
54 -75 54 -243 0 -85 -4 -166 -10 -180 -12 -33 -66 -66 -105 -66 -68 1 -158
69 -201 155 -29 56 -53 149 -65 245 -14 117 3 226 51 324 34 68 69 101 140
128 63 25 92 23 166 -13 77 -38 140 -96 179 -167 19 -35 34 -52 48 -52 17 0
18 5 14 48 -22 192 -31 251 -43 280 -13 31 -16 33 -52 26 -20 -4 -38 -8 -40
-9 -1 -1 -31 4 -65 11 -83 18 -250 25 -312 14z m280 -35 c33 -8 79 -15 102
-15 36 0 45 -4 57 -28 14 -27 25 -146 14 -157 -2 -3 -30 19 -61 49 -179 173
-407 109 -484 -135 -26 -81 -25 -332 1 -414 59 -183 146 -277 260 -279 64 0
112 25 138 75 16 31 18 63 20 235 1 109 0 206 -3 214 -3 13 14 15 116 15 l120
0 -4 -30 c-2 -16 -4 -131 -5 -255 -1 -166 3 -235 12 -263 8 -21 11 -41 7 -45
-11 -11 -494 -3 -553 9 -135 27 -244 114 -309 247 l-38 76 -3 215 c-3 198 -2
220 16 261 46 104 161 194 287 225 69 18 238 17 310 0z"/>
<path d="M6533 7444 c-19 -9 -16 -20 21 -74 45 -65 49 -114 44 -555 -3 -363
-4 -368 -55 -408 -27 -22 -29 -36 -5 -43 9 -3 27 -11 40 -17 16 -8 28 -7 46 2
30 17 597 11 637 -6 30 -13 49 -1 49 30 0 37 41 157 66 194 13 20 24 45 24 56
0 15 3 18 10 11 7 -7 11 -89 12 -210 1 -166 -1 -208 -16 -252 -12 -36 -26 -57
-42 -64 -34 -16 -31 -49 7 -70 34 -20 69 -24 69 -8 0 15 385 13 409 -2 15 -9
23 -9 34 0 21 17 11 50 -29 94 -47 53 -48 62 -46 356 2 195 3 202 22 202 11 0
20 -4 20 -9 0 -5 8 -12 19 -16 25 -8 61 -64 136 -210 98 -193 118 -282 73
-325 -12 -11 -25 -20 -30 -20 -4 0 -8 -12 -8 -26 0 -17 6 -28 20 -31 11 -3 20
-9 20 -14 0 -12 44 -11 56 1 14 14 436 15 463 1 57 -31 55 31 -3 87 -38 37
-48 56 -75 145 -63 200 -145 378 -244 524 l-56 82 75 67 c89 80 126 130 152
210 40 123 12 203 -93 269 l-48 30 -486 0 c-460 0 -486 -1 -489 -18 -2 -10 13
-36 36 -61 58 -63 65 -110 60 -391 -3 -150 -8 -237 -16 -250 -11 -20 -11 -20
-12 2 0 12 -4 24 -10 28 -12 7 -29 -12 -93 -109 -66 -99 -134 -150 -222 -165
-76 -13 -128 -5 -156 25 -18 19 -23 42 -31 126 -10 113 -6 323 6 335 4 5 35 7
68 6 62 -3 91 -15 140 -60 14 -14 34 -23 44 -21 22 4 32 38 12 38 -7 0 -40 16
-73 36 -55 34 -66 37 -137 37 -43 0 -81 -3 -85 -7 -4 -4 -8 -107 -8 -229 0
-247 5 -268 68 -308 69 -44 229 -6 327 76 l45 38 3 -39 c4 -40 -12 -110 -30
-131 -8 -10 -85 -13 -322 -13 -350 0 -358 1 -338 58 7 21 12 178 13 457 1 246
5 442 11 465 l10 40 287 2 c326 3 310 8 331 -87 17 -74 7 -83 -43 -43 -69 56
-112 71 -204 72 -80 1 -83 0 -115 -32 -32 -32 -33 -35 -36 -133 -3 -68 0 -104
8 -114 17 -21 123 -20 182 2 46 16 48 16 62 -3 9 -10 18 -32 21 -49 20 -94 34
-87 30 14 -4 77 -24 141 -45 141 -5 0 -21 -15 -35 -34 -30 -39 -69 -56 -130
-56 -70 0 -79 13 -73 110 6 106 20 120 116 120 56 0 74 -5 126 -34 75 -42 116
-85 151 -154 21 -43 31 -53 48 -50 19 3 22 8 19 43 -2 22 -9 60 -17 85 -8 25
-19 72 -25 105 -14 78 -29 114 -49 123 -19 9 -700 14 -718 6z m1527 -24 c172
-2 189 -4 240 -27 101 -45 139 -106 126 -205 -13 -96 -64 -173 -169 -253 -38
-29 -66 -58 -66 -68 -1 -11 29 -65 67 -120 86 -131 140 -247 198 -427 26 -80
60 -164 76 -188 16 -23 26 -47 23 -52 -4 -6 -82 -10 -199 -10 -210 0 -250 8
-235 45 14 37 9 115 -11 176 -19 54 -119 262 -153 313 -6 11 -27 44 -45 73
-29 47 -36 53 -66 53 -19 0 -44 -9 -57 -19 l-24 -19 0 -239 c0 -207 3 -246 19
-301 17 -55 18 -65 5 -73 -9 -7 -75 -8 -173 -5 -184 6 -197 11 -169 67 17 31
18 75 15 589 -2 449 -5 564 -17 600 -26 82 -25 84 25 91 25 3 126 4 225 3 99
-1 263 -3 365 -4z"/>
<path d="M7871 7329 c-53 -10 -88 -40 -101 -88 -13 -47 -13 -387 0 -411 5 -10
23 -23 40 -28 27 -10 32 -8 46 13 9 13 39 37 68 54 70 39 140 119 166 189 65
172 -43 307 -219 271z m138 -58 c39 -21 61 -70 61 -136 -1 -101 -49 -176 -155
-236 -61 -35 -90 -37 -99 -6 -3 12 -6 99 -6 193 0 179 2 186 45 197 33 8 130
0 154 -12z"/>
<path d="M10615 7335 c-5 -2 -22 -6 -37 -9 -16 -4 -28 -10 -28 -15 0 -10 90
-36 200 -57 47 -9 131 -32 186 -50 56 -19 109 -34 119 -34 34 0 -4 28 -83 61
-42 17 -98 42 -124 55 -73 37 -129 54 -178 53 -25 0 -49 -2 -55 -4z"/>
<path d="M12270 7310 c-38 -8 -268 -81 -337 -107 -24 -9 -43 -20 -43 -24 0
-12 -3 -13 139 21 119 28 329 62 397 64 l32 1 -26 24 c-28 26 -95 35 -162 21z"/>
<path d="M10717 7159 c-46 -53 -48 -115 -4 -180 53 -79 142 -105 226 -67 63
29 82 66 70 141 -12 76 -33 98 -115 119 -106 27 -144 24 -177 -13z"/>
<path d="M11974 7133 c-58 -12 -73 -20 -86 -41 -44 -78 -21 -158 62 -215 34
-24 147 -23 177 1 12 9 34 41 48 71 31 60 29 91 -7 150 -13 20 -22 39 -20 44
3 12 -97 6 -174 -10z"/>
<path d="M11091 6654 c-40 -63 -40 -92 2 -107 13 -5 17 -1 17 16 0 12 8 43 17
70 13 35 14 50 6 58 -9 9 -20 -1 -42 -37z"/>
<path d="M11725 6690 c-3 -6 2 -37 12 -70 16 -55 20 -60 45 -60 35 0 37 23 7
83 -27 53 -50 70 -64 47z"/>
<path d="M11228 6584 c-18 -17 -5 -34 38 -54 26 -11 53 -20 60 -20 15 0 19 37
5 59 -10 15 -92 27 -103 15z"/>
<path d="M11571 6571 c-25 -25 -27 -73 -6 -91 11 -9 12 -16 5 -25 -11 -13 0
-27 31 -38 25 -8 44 -155 36 -272 -2 -28 1 -30 35 -33 28 -2 40 2 52 20 21 29
20 66 -4 163 -11 44 -22 90 -25 101 -3 16 1 23 16 27 17 5 19 9 10 25 -5 10
-7 28 -4 40 4 17 -1 24 -21 32 -16 6 -26 17 -26 29 0 12 -9 22 -22 26 -13 4
-31 9 -40 11 -9 3 -26 -4 -37 -15z"/>
<path d="M12715 6562 c-29 -3 -30 -6 -31 -47 -1 -25 2 -45 6 -45 7 0 44 49 45
60 0 3 4 11 9 18 10 17 8 18 -29 14z"/>
<path d="M2351 6106 c-12 -14 -60 -245 -61 -288 0 -9 13 -21 30 -26 28 -10 32
-9 55 26 14 20 25 49 25 64 0 33 28 64 76 84 47 20 57 18 76 -13 14 -24 16
-82 19 -418 4 -440 4 -442 -62 -472 -49 -21 -50 -45 -3 -74 34 -21 40 -21 103
-9 63 12 245 9 331 -5 45 -7 60 3 53 38 -4 19 -17 34 -42 47 -25 12 -43 32
-56 59 -17 38 -17 65 -11 418 8 399 11 423 55 423 32 0 115 -63 146 -112 32
-50 71 -76 88 -59 7 7 3 44 -13 115 -12 57 -20 112 -16 122 6 15 9 14 27 -7
12 -13 25 -34 30 -46 12 -33 13 -842 0 -875 -6 -15 -19 -33 -31 -40 -11 -7
-20 -21 -20 -30 0 -31 89 -64 105 -39 7 12 264 11 271 -1 3 -4 16 -8 30 -8 20
0 24 5 24 29 0 16 -7 34 -16 42 -8 7 -24 30 -35 50 -17 35 -19 61 -19 294 0
173 3 255 11 255 5 0 7 5 4 10 -4 6 24 10 77 11 110 2 131 0 145 -14 8 -9 13
-92 15 -284 l3 -272 -34 -35 c-34 -35 -37 -66 -6 -66 8 0 15 -4 15 -10 0 -5
13 -10 29 -10 17 0 33 5 36 10 9 14 261 13 284 -2 49 -31 60 21 15 75 -13 15
-28 44 -34 65 -11 40 -12 785 -1 837 5 23 12 31 34 33 24 3 27 7 27 43 0 30
-4 39 -17 39 -27 1 -375 1 -395 1 -27 -1 -22 -28 13 -70 26 -33 31 -49 35
-112 3 -43 1 -80 -5 -89 -16 -23 -193 -28 -226 -6 -23 15 -25 23 -25 90 0 94
5 106 41 106 27 0 29 3 29 39 0 36 -2 39 -32 44 -18 2 -121 4 -228 2 -163 -2
-197 0 -206 13 -9 12 -68 15 -380 19 -326 4 -372 3 -383 -11z m714 -36 c21
-23 47 -114 38 -135 -7 -20 -16 -19 -39 6 -45 50 -178 95 -208 70 -12 -10 -13
-81 -10 -434 3 -273 8 -441 16 -475 8 -38 8 -56 1 -60 -13 -8 -249 0 -258 9
-3 4 -1 71 4 150 15 217 17 760 2 787 -23 43 -87 38 -177 -14 -23 -13 -44 -20
-48 -17 -10 10 -7 61 5 68 6 4 8 13 5 21 -3 8 1 14 8 14 8 0 16 7 20 15 5 13
49 15 314 15 296 0 310 -1 327 -20z m421 -22 c3 -4 1 -60 -5 -126 -7 -65 -9
-125 -6 -133 11 -30 40 -34 180 -29 l140 5 5 75 c3 41 3 106 0 143 -3 38 -3
70 -1 73 8 8 226 4 239 -5 10 -6 11 -25 2 -92 -15 -122 -10 -789 6 -859 7 -30
9 -59 4 -64 -9 -9 -231 -9 -255 1 -18 6 -20 44 -2 62 9 9 12 77 14 259 0 136
2 259 4 274 1 15 -6 39 -15 53 -16 25 -18 25 -155 25 -107 0 -141 -3 -150 -14
-9 -10 -11 -95 -8 -313 2 -164 6 -309 8 -323 l4 -25 -118 -3 c-93 -2 -121 0
-132 12 -18 17 -19 33 -5 38 17 5 33 367 20 468 -5 47 -11 178 -13 292 -2 180
-1 208 13 210 30 6 219 2 226 -4z"/>
<path d="M12757 6100 c4 -14 14 -20 34 -20 22 0 29 5 29 20 0 16 -7 20 -34 20
-29 0 -33 -3 -29 -20z"/>
<path d="M5899 6100 c-106 -17 -188 -57 -260 -129 -89 -89 -119 -149 -120
-243 -2 -183 -14 -153 -16 39 l-1 212 29 10 c25 8 29 15 29 45 0 24 -6 38 -18
45 -24 13 -230 7 -244 -7 -8 -8 -2 -22 22 -52 18 -23 37 -60 41 -83 13 -68 11
-181 -4 -201 -13 -17 -21 -8 -95 102 -79 116 -94 153 -72 167 10 6 8 61 -2 71
-3 2 -393 6 -490 4 -25 0 -22 -14 12 -62 l31 -42 -3 -447 -3 -447 -27 -22
c-37 -29 -35 -44 9 -65 28 -14 41 -15 55 -6 23 14 111 14 125 0 7 -7 19 -9 28
-5 21 8 13 50 -14 81 -39 45 -41 67 -41 404 0 283 2 330 15 335 22 8 37 -1 66
-42 15 -20 69 -95 120 -167 52 -71 116 -159 141 -195 26 -36 57 -76 68 -90 69
-85 89 -188 45 -230 -14 -13 -25 -33 -25 -46 0 -40 79 -71 107 -43 11 11 70 8
126 -6 24 -7 27 -5 27 19 0 14 -13 45 -30 68 -30 40 -30 43 -29 162 0 131 11
185 24 131 19 -75 109 -209 172 -257 122 -91 200 -108 538 -113 137 -2 261 -6
275 -7 21 -3 24 1 22 19 -2 13 -19 46 -38 74 l-34 51 0 197 c0 208 7 241 49
241 46 0 51 68 7 83 -36 12 -394 -2 -402 -15 -4 -5 11 -28 32 -49 l39 -40 3
-153 c4 -164 -5 -223 -40 -255 -62 -58 -184 -20 -249 78 -75 112 -113 276 -99
426 14 143 56 236 133 299 32 26 48 31 105 34 50 3 78 -1 112 -16 59 -25 135
-94 167 -151 34 -59 53 -81 70 -81 16 0 18 72 2 101 -5 11 -12 59 -15 107 -3
48 -10 102 -16 120 l-10 33 -56 -6 c-32 -4 -79 -2 -106 5 -68 15 -220 21 -287
10z m289 -36 c35 -8 76 -14 91 -14 38 0 57 -30 66 -107 9 -81 -4 -86 -64 -30
-79 74 -122 92 -217 91 -84 0 -123 -15 -178 -68 -110 -106 -148 -389 -79 -600
40 -122 128 -228 201 -240 105 -17 167 9 190 79 15 44 13 405 -2 438 -8 16 0
17 120 15 l129 -3 -5 -50 c-3 -27 -5 -144 -5 -260 0 -156 4 -218 14 -243 7
-18 11 -36 7 -40 -13 -12 -487 -2 -557 13 -154 31 -268 133 -318 283 -19 55
-21 85 -21 285 l0 223 28 45 c112 175 334 243 600 183z m-1046 -64 c7 -48 23
-76 115 -212 151 -224 153 -223 142 37 -5 105 -10 199 -11 210 -3 21 20 30 55
21 l22 -5 0 -458 c0 -252 4 -482 9 -510 l9 -53 -35 0 c-60 0 -73 18 -70 97 3
62 0 75 -33 138 -19 38 -68 112 -108 165 -39 52 -85 114 -102 137 -253 351
-278 382 -291 349 -8 -20 2 -816 11 -853 7 -29 5 -32 -21 -35 -36 -4 -84 10
-84 25 0 7 7 30 15 52 11 32 14 115 14 425 0 212 -3 416 -8 453 -4 37 -5 70
-2 73 3 2 86 3 185 2 l181 -3 7 -55z"/>
<path d="M6823 6100 c-85 -17 -167 -74 -208 -144 -75 -128 -74 -280 3 -381 44
-56 87 -82 240 -141 184 -71 231 -113 217 -194 -14 -85 -73 -124 -185 -124
-123 0 -200 50 -276 179 -40 70 -61 85 -72 55 -9 -24 10 -320 22 -339 6 -9 20
-11 48 -7 24 4 77 -2 141 -15 56 -11 117 -23 135 -25 69 -9 273 41 333 82 20
14 59 53 86 88 108 134 109 311 4 423 -59 62 -103 88 -239 138 -152 56 -160
60 -194 97 -47 52 -31 137 30 166 40 19 120 15 168 -9 40 -19 144 -113 144
-130 0 -4 14 -12 30 -18 31 -10 35 -6 32 39 -7 130 -16 201 -28 228 -13 28
-18 31 -42 25 -37 -11 -83 -9 -175 5 -87 13 -151 14 -214 2z m242 -35 c39 -7
86 -16 106 -20 28 -4 39 -12 47 -33 17 -44 24 -119 12 -127 -6 -3 -33 14 -60
38 -145 131 -350 87 -350 -74 0 -82 51 -126 209 -178 96 -32 154 -57 180 -76
41 -30 96 -93 112 -129 38 -84 15 -251 -46 -330 -31 -41 -119 -94 -187 -112
-70 -19 -245 -19 -337 1 -40 8 -85 15 -99 15 -47 0 -70 24 -70 72 1 24 -2 57
-6 73 -3 17 -2 37 4 45 8 12 20 5 67 -42 78 -76 127 -100 219 -106 65 -4 80
-1 129 22 63 31 90 62 106 118 24 91 -28 160 -154 208 -45 17 -91 35 -102 39
-108 47 -154 72 -179 97 -104 104 -102 314 4 423 90 93 202 114 395 76z"/>
<path d="M4218 6082 c-22 -4 -23 -25 -4 -42 39 -31 45 -84 51 -465 6 -415 1
-488 -40 -520 -34 -28 -32 -41 11 -61 29 -14 40 -15 55 -6 25 16 281 16 296 1
16 -16 43 -4 43 19 0 11 -11 31 -25 46 -44 47 -46 76 -43 521 l3 420 27 3 c14
2 28 9 31 16 8 19 -4 66 -17 67 -29 3 -373 4 -388 1z m307 -30 c7 -4 8 -149 5
-417 -5 -388 -2 -480 15 -567 l8 -38 -129 0 c-71 0 -135 4 -143 9 -12 8 -12
17 2 63 14 45 16 118 16 503 0 248 0 451 1 453 1 6 216 1 225 -6z"/>
<path d="M11480 6071 c-58 -4 -160 -6 -228 -4 -105 3 -129 1 -167 -16 -36 -16
-45 -25 -45 -44 0 -34 28 -43 60 -17 14 11 36 25 50 31 30 13 484 34 543 25
24 -4 68 -22 97 -41 35 -23 58 -31 64 -25 15 15 -9 57 -44 75 -37 19 -179 26
-330 16z"/>
<path d="M10044 6059 c-9 -14 24 -41 46 -37 8 2 15 12 15 23 0 23 -48 34 -61
14z"/>
<path d="M7332 5858 l3 -43 653 -3 652 -2 0 45 0 45 -656 0 -655 0 3 -42z
m1268 3 c0 -10 -7 -22 -16 -25 -21 -8 -1116 -6 -1179 2 -36 5 -51 12 -53 25
-3 16 32 17 622 17 608 0 626 -1 626 -19z"/>
<path d="M1100 5846 c0 -25 5 -48 10 -51 13 -8 1099 -7 1111 1 10 6 11 39 3
72 l-6 22 -559 0 -559 0 0 -44z m1094 16 c2 -4 1 -14 -4 -22 -8 -13 -84 -15
-505 -18 -447 -2 -499 -1 -531 14 -26 12 -32 19 -22 25 17 11 1055 12 1062 1z"/>
<path d="M11453 5650 c-17 -4 -44 -17 -60 -30 -21 -17 -23 -21 -8 -17 11 3 41
10 67 17 45 12 108 10 158 -5 19 -6 22 -5 14 4 -11 12 -108 42 -129 40 -5 -1
-24 -4 -42 -9z"/>
<path d="M11226 3927 c-46 -26 -49 -38 -10 -55 33 -14 55 -27 107 -60 33 -22
37 -28 37 -67 0 -45 12 -58 48 -48 16 4 26 -5 46 -39 28 -48 44 -118 27 -118
-6 0 -11 -11 -11 -25 0 -14 -4 -25 -10 -25 -5 0 -11 -15 -11 -32 l-1 -33 -7
35 c-4 20 -11 42 -16 50 -9 15 -10 23 -13 103 -2 25 -7 37 -17 37 -9 0 -12 -6
-8 -16 3 -9 6 -66 7 -127 l1 -112 28 2 c17 1 27 -3 27 -11 0 -15 30 -26 74
-26 l28 0 -7 58 c-3 31 -9 68 -11 82 -5 22 -2 21 30 -15 20 -22 36 -43 36 -47
0 -5 5 -8 10 -8 17 0 11 34 -13 81 -136 259 -188 336 -268 399 -28 22 -54 40
-57 40 -4 0 -25 -10 -46 -23z"/>
<path d="M10985 3843 c4 -15 9 -35 11 -43 2 -8 -6 -3 -19 13 -23 27 -47 36
-47 17 0 -9 27 -68 35 -78 1 -2 15 -5 31 -8 16 -3 31 -9 34 -14 3 -5 18 -7 33
-5 15 3 27 1 27 -5 0 -5 9 -10 20 -10 37 0 21 54 -35 115 -39 42 -39 44 -18
-30 4 -15 -2 -11 -26 14 -17 18 -31 37 -31 41 0 5 -5 12 -10 15 -7 4 -9 -3 -5
-22z"/>
<path d="M11206 3788 c15 -66 34 -95 53 -84 22 14 12 65 -19 96 -16 17 -30 35
-30 40 0 6 -4 10 -9 10 -5 0 -3 -28 5 -62z"/>
<path d="M11128 3825 c-4 -22 10 -83 25 -102 11 -16 47 -17 47 -3 0 21 -29 80
-40 80 -6 0 -14 10 -19 23 -8 21 -9 21 -13 2z"/>
<path d="M11289 3787 c-1 -1 -3 -18 -4 -37 -3 -40 9 -60 36 -60 33 0 22 84
-12 93 -10 3 -19 4 -20 4z"/>
<path d="M7519 3686 c-58 -8 -92 -18 -105 -30 -18 -18 -17 -18 6 -11 91 29
253 34 374 10 72 -13 190 -61 218 -88 23 -22 68 -48 68 -39 0 18 -68 71 -125
97 -135 62 -283 83 -436 61z"/>
<path d="M11130 3676 c-15 -42 -9 -71 15 -71 17 0 19 6 17 35 -2 19 -8 42 -12
50 -7 12 -11 9 -20 -14z"/>
<path d="M11076 3631 c-4 -33 -11 -61 -17 -63 -7 -2 -5 -31 3 -83 12 -72 16
-80 37 -83 22 -3 23 -1 19 36 -4 46 4 46 22 2 9 -21 19 -30 36 -30 13 0 24 -4
24 -9 0 -12 35 -20 49 -11 18 10 29 115 22 199 -7 87 -26 107 -28 29 -1 -81
-2 -88 -13 -88 -5 0 -10 14 -10 30 0 25 -4 30 -25 30 -23 0 -25 -4 -26 -47 0
-43 -2 -45 -10 -21 -6 15 -20 29 -35 32 -23 6 -24 10 -22 68 4 82 -17 90 -26
9z"/>
<path d="M11197 3668 c-6 -22 7 -48 24 -48 14 0 10 46 -5 59 -11 9 -15 7 -19
-11z"/>
<path d="M4850 3654 c25 -8 52 -17 60 -20 24 -10 203 -74 225 -80 36 -10 -25
33 -70 50 -88 32 -210 66 -234 65 -20 -1 -16 -4 19 -15z"/>
<path d="M11321 3620 c1 -25 -4 -71 -11 -103 -15 -66 -3 -111 28 -105 22 4 27
61 13 159 -12 84 -32 118 -30 49z"/>
<path d="M2265 3635 c-44 -8 -126 -30 -182 -49 -56 -20 -107 -36 -112 -36 -5
0 -22 -5 -38 -12 -15 -6 -34 -10 -40 -9 -7 1 -13 -3 -13 -10 0 -6 -6 -9 -14
-6 -17 7 -119 -53 -164 -96 -64 -61 -122 -148 -137 -206 -15 -53 -38 -118 -73
-206 -21 -53 -152 -250 -197 -298 -20 -20 -51 -45 -68 -54 -44 -22 -17 -29 35
-9 53 22 61 11 18 -25 -38 -32 -34 -39 7 -12 l25 17 -22 -43 c-29 -58 -14 -74
35 -37 l35 27 1 -28 c0 -15 5 -37 10 -48 7 -16 8 -13 4 13 -2 17 0 32 5 32 9
0 11 -7 10 -25 -2 -15 59 -114 88 -145 34 -36 35 -35 17 30 -10 37 7 15 44
-55 32 -59 71 -104 120 -137 13 -9 26 -24 27 -32 6 -39 38 -119 42 -103 2 10
-1 32 -7 49 -16 45 -13 56 6 28 53 -76 91 -80 63 -6 -13 34 -7 33 44 -9 24
-19 46 -31 51 -27 8 8 1 -63 -15 -147 -5 -29 -10 -55 -10 -57 0 -2 -17 -15
-37 -28 -21 -13 -64 -48 -95 -78 -56 -52 -58 -55 -58 -107 0 -60 -10 -77 -103
-182 -32 -36 -66 -78 -75 -92 -9 -14 -48 -69 -86 -124 -37 -54 -72 -108 -76
-120 -5 -11 -20 -32 -34 -45 -14 -12 -45 -59 -69 -103 -24 -44 -53 -96 -64
-116 -22 -37 -106 -279 -118 -339 -3 -19 -16 -73 -27 -120 -11 -47 -22 -96
-24 -110 -3 -14 -9 -41 -14 -60 -14 -54 -24 -113 -38 -217 -8 -57 -7 -63 10
-63 12 0 18 8 19 23 1 28 4 51 14 107 8 46 15 112 16 143 0 9 4 17 9 17 5 0 7
14 3 30 -3 18 -1 30 5 30 16 0 24 33 10 42 -10 6 -10 8 -1 8 7 0 10 7 7 15 -4
8 -2 15 4 15 6 0 8 10 4 22 -4 16 -2 19 8 13 10 -6 12 -4 7 7 -3 9 5 47 17 85
13 37 29 95 36 128 17 82 45 167 77 228 23 47 84 146 106 172 4 6 46 68 93
138 46 71 119 170 162 220 43 51 88 105 100 121 l22 29 0 -79 c0 -91 5 -161
26 -369 8 -82 14 -163 14 -180 -1 -40 10 -95 20 -95 15 0 18 41 5 67 -7 14
-11 32 -8 39 4 11 -6 122 -23 259 -2 17 -4 136 -5 265 l-1 235 69 62 c37 35
71 63 75 63 7 0 1 -48 -9 -62 -3 -5 -11 -7 -19 -4 -8 3 -14 0 -14 -7 1 -16 63
-195 127 -367 54 -144 59 -158 133 -375 54 -156 62 -205 85 -520 6 -85 8 -104
26 -290 15 -156 16 -164 17 -202 l2 -33 132 0 131 0 -7 127 c-3 71 -8 146 -11
168 -2 22 -9 110 -15 195 -6 85 -18 209 -25 275 -8 66 -17 147 -20 180 -3 33
-7 83 -10 110 -2 28 -7 77 -10 110 -3 33 -8 74 -10 90 -3 17 -9 73 -15 125 -6
52 -18 124 -26 160 -16 63 -16 67 6 140 14 45 25 67 27 55 2 -11 11 -37 19
-57 7 -21 12 -38 9 -38 -2 0 2 -17 9 -37 16 -46 111 -430 122 -493 4 -25 8
-47 9 -50 1 -3 5 -25 9 -50 4 -25 10 -54 13 -65 3 -12 -12 -1 -41 29 l-45 50
-26 -24 c-33 -31 -32 -43 5 -35 27 6 35 1 75 -42 25 -26 45 -54 45 -60 0 -7 9
-13 21 -13 14 0 19 5 16 18 -25 92 -29 112 -25 124 8 24 84 -233 119 -407 18
-86 17 -81 30 -185 6 -52 12 -97 14 -100 2 -3 9 -44 15 -90 6 -47 14 -98 17
-115 5 -30 9 -59 12 -82 0 -7 6 -13 12 -13 8 0 9 11 5 33 -4 17 -9 48 -12 67
-2 19 -6 46 -9 60 -3 14 -7 43 -11 65 -3 22 -9 67 -14 100 -5 33 -12 83 -16
110 -3 28 -8 59 -11 70 -3 11 -4 29 -4 40 1 11 -5 47 -13 80 -8 33 -20 87 -26
120 -6 33 -22 94 -35 135 -13 41 -36 116 -50 165 -15 50 -33 104 -40 120 -22
50 -75 218 -81 255 -3 19 -12 49 -18 65 -7 17 -18 55 -25 85 -7 30 -24 95 -38
143 l-26 88 23 67 c13 37 24 68 26 70 1 2 33 -6 71 -16 119 -35 165 -37 219
-10 49 24 65 38 149 130 28 30 94 85 148 122 89 62 97 66 97 44 0 -21 3 -19
35 17 l35 40 -21 -48 c-11 -27 -18 -51 -16 -54 7 -6 67 123 67 143 0 23 14 16
35 -19 19 -32 19 -32 22 -7 2 14 0 74 -5 133 -4 60 -5 110 -2 112 4 2 12 -35
19 -83 6 -48 16 -94 21 -102 9 -13 10 -13 10 0 0 45 -22 170 -55 315 -32 141
-58 272 -91 460 -36 208 -66 300 -112 348 -36 37 -99 76 -152 92 -13 4 -36 16
-50 26 -32 23 -251 60 -380 65 -54 2 -130 -3 -175 -11z m320 -44 c115 -10 293
-59 287 -80 -3 -14 15 -14 20 0 2 5 11 7 22 3 12 -4 14 -9 6 -14 -7 -4 0 -12
18 -21 16 -8 47 -30 69 -50 32 -29 43 -49 60 -110 23 -80 35 -139 28 -139 -2
0 -15 25 -29 54 -14 30 -34 61 -44 68 -11 7 -24 23 -31 36 -6 12 -18 22 -26
22 -12 0 -12 -5 1 -35 20 -48 31 -155 15 -155 -6 0 -11 6 -11 13 0 22 -59 107
-73 107 -8 0 -18 -10 -24 -22 -10 -22 -10 -22 -27 10 -17 33 -36 35 -36 3 0
-9 -7 -26 -15 -37 -13 -17 -14 -16 -10 23 5 53 -9 64 -30 24 -14 -29 -62 -77
-134 -137 -33 -28 -34 -28 -21 -4 7 14 31 51 52 84 27 40 33 56 21 51 -44 -19
-296 -105 -306 -105 -7 0 9 20 36 45 26 24 47 49 47 55 0 13 0 13 -46 -4 -22
-7 -69 -17 -104 -20 -36 -4 -89 -12 -118 -17 -30 -6 -56 -9 -58 -6 -3 3 13 22
36 43 37 34 48 62 22 57 -26 -6 -113 -6 -118 0 -4 3 1 13 10 22 40 41 -1 43
-76 5 -21 -11 -38 -15 -38 -10 0 5 9 14 20 20 11 6 20 18 20 26 0 8 -4 13 -9
9 -6 -3 -29 -8 -52 -11 -24 -4 -61 -13 -82 -20 -49 -17 -47 -18 -47 6 0 30
-12 25 -71 -33 -104 -101 -144 -108 -71 -12 45 60 110 99 271 165 143 59 212
76 336 86 50 3 92 8 94 10 7 7 101 4 216 -5z m-742 -106 c-3 -9 -8 -14 -10
-11 -3 3 -2 9 2 15 9 16 15 13 8 -4z m877 -667 c0 -48 10 -49 120 -12 58 18
106 34 106 34 1 0 4 -42 7 -92 3 -51 10 -133 15 -183 25 -216 27 -197 -25
-299 -27 -50 -47 -95 -45 -99 1 -5 -2 -6 -7 -3 -5 3 -11 -4 -15 -17 -8 -34
-54 -84 -134 -149 -69 -54 -77 -58 -126 -58 -110 0 -226 27 -323 76 -51 26
-93 50 -93 54 0 5 -8 11 -17 14 -10 3 -33 20 -51 37 -18 17 -35 29 -38 26 -10
-10 35 -83 78 -129 24 -25 54 -59 67 -75 13 -15 39 -44 58 -65 l35 -36 -26
-84 c-46 -147 -76 -272 -76 -315 0 -36 3 -43 20 -43 19 0 20 6 18 70 -1 38 1
72 4 75 3 3 11 -30 17 -72 7 -43 16 -96 20 -118 6 -35 3 -42 -24 -67 -25 -23
-28 -29 -15 -38 8 -6 23 -8 33 -6 12 3 17 -2 17 -19 0 -17 -19 -39 -64 -77
-69 -57 -75 -68 -50 -89 14 -12 25 -9 75 18 l58 32 5 -42 c3 -23 8 -76 11
-117 3 -41 8 -90 11 -107 4 -26 2 -33 -10 -33 -9 0 -16 5 -16 10 0 15 -30 12
-36 -4 -6 -15 4 -38 45 -101 20 -31 29 -62 37 -135 6 -52 9 -97 7 -100 -6 -6
-228 223 -236 243 -9 25 -1 22 69 -28 69 -49 79 -53 88 -29 8 20 -39 88 -120
174 -42 44 -64 76 -64 91 0 13 -23 79 -50 147 -45 111 -57 152 -46 152 2 0 23
-7 46 -15 56 -20 60 -19 60 10 0 21 -15 35 -80 76 -43 28 -82 59 -85 70 -10
30 -2 31 26 5 31 -29 68 -49 144 -77 64 -24 95 -18 137 28 l23 26 -42 -27 -41
-27 -67 20 c-82 24 -116 47 -182 124 -45 53 -57 77 -93 185 l-42 125 16 51
c27 91 63 289 68 379 1 20 3 37 5 37 1 0 18 -9 37 -19 19 -11 36 -17 39 -15 3
3 -10 35 -28 72 -18 37 -29 68 -25 70 5 2 25 -4 45 -12 21 -9 52 -16 71 -16
l33 0 -21 48 c-12 26 -24 79 -28 117 l-6 70 104 115 c58 63 114 119 126 124
11 5 44 20 73 33 62 28 61 28 59 6 -1 -15 9 -19 64 -21 65 -3 205 22 216 39
11 18 34 9 34 -13z"/>
<path d="M2095 3512 c-34 -7 -75 -42 -75 -64 0 -17 4 -19 23 -13 12 4 53 16
92 26 74 20 94 32 75 44 -14 9 -87 13 -115 7z"/>
<path d="M2805 3441 c-6 -11 57 -81 74 -81 22 0 10 28 -24 59 -39 34 -41 35
-50 22z"/>
<path d="M2876 3433 c-11 -12 -6 -20 19 -31 20 -9 25 -9 25 3 0 16 -34 38 -44
28z"/>
<path d="M2548 3389 c-43 -52 -48 -72 -17 -67 31 4 61 49 57 84 l-3 29 -37
-46z"/>
<path d="M2343 3365 c-40 -23 -70 -45 -66 -49 10 -9 58 -7 90 5 34 12 94 69
87 81 -10 15 -39 6 -111 -37z"/>
<path d="M2629 3363 c-7 -16 -15 -31 -17 -35 -2 -5 3 -8 11 -8 21 0 50 37 44
55 -9 23 -22 18 -38 -12z"/>
<path d="M2780 2690 c-20 -12 -7 -45 19 -48 25 -4 42 13 34 34 -6 15 -37 24
-53 14z"/>
<path d="M2321 2676 c-23 -28 17 -68 45 -45 19 15 18 45 -2 53 -23 9 -30 8
-43 -8z"/>
<path d="M2544 2445 c-19 -13 -19 -14 1 -20 11 -3 33 -13 49 -21 35 -18 40
-14 20 14 -24 34 -48 44 -70 27z"/>
<path d="M2700 2419 c-7 -11 -9 -23 -7 -26 8 -7 47 21 47 34 0 21 -28 15 -40
-8z"/>
<path d="M2524 2261 c-77 -24 -134 -50 -134 -64 0 -20 83 -67 119 -67 9 0 -8
11 -38 23 -110 45 -71 62 139 62 80 0 161 -4 180 -9 l34 -9 -36 36 c-34 36
-38 37 -119 42 -64 3 -99 0 -145 -14z"/>
<path d="M2565 2129 c-28 -6 -28 -7 -4 -8 14 0 29 -5 35 -11 16 -16 79 -15
104 3 l24 17 -34 2 c-78 4 -96 3 -125 -3z"/>
<path d="M4728 3643 c7 -3 16 -2 19 1 4 3 -2 6 -13 5 -11 0 -14 -3 -6 -6z"/>
<path d="M7241 3588 c-133 -73 -228 -157 -260 -231 -11 -27 -36 -70 -55 -95
-18 -26 -43 -66 -55 -89 -25 -51 -41 -178 -29 -242 5 -25 15 -90 23 -144 8
-54 17 -107 20 -118 7 -21 -5 -25 -22 -8 -25 25 -83 -71 -83 -138 0 -34 45
-115 89 -157 33 -32 48 -40 91 -44 45 -4 55 -9 71 -36 10 -17 19 -37 19 -44 0
-33 102 -142 182 -193 50 -33 53 -39 63 -149 l6 -65 -48 -29 c-82 -51 -143
-103 -303 -261 -211 -208 -259 -278 -215 -315 19 -16 17 -33 -23 -170 -17 -58
-35 -129 -41 -157 -6 -29 -20 -79 -31 -110 -18 -52 -76 -276 -85 -328 -2 -11
-13 -65 -24 -120 -12 -55 -26 -127 -31 -160 -5 -33 -14 -84 -20 -114 -13 -69
-13 -71 4 -71 8 0 16 16 20 43 17 120 84 458 91 465 8 9 46 -23 130 -108 117
-118 154 -140 175 -99 13 24 -7 62 -115 214 -74 104 -95 143 -95 175 0 27 41
35 78 16 42 -22 92 -21 92 1 0 14 -54 93 -92 134 -56 62 -61 69 -51 81 6 7 13
26 17 42 4 16 20 57 36 92 l29 64 28 -15 c35 -19 71 -18 103 0 36 20 37 20 49
-27 27 -113 34 -136 58 -180 29 -53 30 -54 57 -33 22 17 18 63 -18 187 -13 43
-20 78 -16 78 3 0 16 -9 28 -20 12 -11 26 -20 31 -20 13 0 71 -71 71 -88 0 -8
9 -12 23 -10 21 3 22 7 19 77 -2 75 -21 117 -47 107 -6 -2 -19 2 -30 10 -24
18 -113 17 -190 -1 -100 -24 -123 -21 -172 27 -24 23 -43 48 -43 56 0 26 223
274 340 377 59 52 201 155 215 155 19 0 -3 -24 -52 -57 -32 -21 -96 -74 -143
-119 -47 -45 -90 -83 -97 -85 -6 -2 -22 -18 -35 -36 -13 -18 -53 -71 -90 -118
-38 -47 -68 -92 -68 -101 0 -22 27 -71 43 -77 8 -3 20 -1 28 4 8 5 23 9 34 9
11 0 33 11 49 24 24 20 26 26 17 45 -12 21 -1 125 16 155 15 27 286 276 299
276 8 0 14 -1 14 -2 0 -2 -7 -41 -15 -88 -29 -165 -37 -257 -36 -420 1 -91 4
-178 6 -195 3 -27 6 -97 5 -135 -3 -72 49 -576 76 -745 23 -149 12 -135 115
-135 60 0 89 4 89 12 0 18 -30 170 -42 213 -17 62 -26 125 -16 125 4 0 8 9 8
19 0 29 38 15 45 -18 3 -14 8 -37 10 -51 3 -14 10 -47 16 -75 6 -27 12 -61 15
-75 3 -14 9 -41 13 -60 5 -19 12 -47 15 -63 4 -18 13 -27 27 -27 11 0 18 4 15
8 -3 5 -8 31 -11 58 -3 27 -8 64 -11 82 -13 82 -34 343 -34 427 -1 28 -1 147
-2 265 -2 227 18 448 50 564 17 60 80 146 108 146 8 0 14 4 14 9 0 5 21 21 48
36 64 38 85 57 71 65 -6 4 -9 17 -7 30 3 21 5 20 48 -19 l45 -41 -33 -30 c-37
-34 -33 -40 6 -9 25 19 27 19 30 4 2 -10 -8 -28 -25 -42 l-28 -24 31 15 31 15
1 -38 c1 -27 -4 -44 -19 -57 -17 -16 -22 -16 -29 -4 -8 13 -12 13 -27 -2 -16
-17 -16 -19 -1 -35 16 -15 17 -15 11 8 -5 19 -3 22 7 12 10 -9 6 -32 -21 -112
-18 -56 -36 -101 -39 -101 -3 0 -25 32 -48 71 -37 60 -41 73 -30 87 11 15 11
15 -3 4 -14 -10 -19 -8 -33 13 -16 24 -16 26 9 37 26 11 33 32 15 43 -5 3 -10
1 -10 -5 0 -18 -24 -38 -51 -42 -28 -4 -66 -76 -76 -144 -7 -51 5 -57 42 -20
23 23 65 26 65 5 0 -5 4 -8 9 -7 7 3 45 -34 89 -87 7 -8 19 -15 27 -15 19 0
80 77 100 128 10 23 21 42 26 42 5 0 9 -26 9 -58 0 -51 -4 -63 -37 -108 -21
-28 -50 -72 -65 -98 -38 -64 -58 -61 -58 9 0 32 -4 55 -10 55 -6 0 -10 -6 -9
-12 1 -7 1 -32 0 -55 -1 -32 -4 -41 -15 -37 -8 3 -17 1 -21 -5 -17 -29 -25 -3
-26 87 -1 77 -3 90 -10 62 -5 -19 -8 -62 -6 -94 1 -40 -2 -61 -10 -63 -10 -4
-13 13 -14 59 -1 54 -2 59 -10 33 -5 -16 -8 -43 -7 -60 3 -28 1 -30 -52 -41
l-55 -12 51 -1 c42 -1 50 -4 49 -19 0 -9 -4 -22 -8 -29 -4 -6 -1 -13 7 -16 18
-7 26 1 26 25 0 10 5 18 11 18 6 0 9 -9 6 -20 -6 -24 9 -36 28 -20 8 7 15 7
19 1 4 -6 14 -7 23 -4 11 4 14 3 9 -5 -4 -7 -14 -12 -23 -12 -9 0 -13 -6 -9
-15 8 -23 -14 -77 -30 -71 -9 4 -14 -2 -15 -17 -1 -43 -11 -122 -15 -127 -3
-2 -9 1 -13 9 -6 9 -10 5 -13 -13 -4 -19 -1 -26 11 -27 10 0 12 -2 4 -6 -7 -2
-13 -11 -13 -18 0 -7 -8 -16 -17 -18 -17 -4 -17 -5 0 -6 25 -2 21 -19 -5 -24
l-23 -4 23 -2 c21 -1 23 -5 17 -31 -4 -20 -3 -30 5 -30 6 0 8 -4 5 -10 -3 -5
-1 -10 5 -10 9 0 25 28 28 50 4 22 44 125 50 130 5 3 24 34 44 70 20 36 53 88
73 115 20 28 47 68 61 90 l25 40 -4 -142 c-5 -140 -5 -144 -33 -176 -16 -18
-42 -43 -57 -56 l-28 -23 4 28 c2 20 11 31 28 35 24 7 24 7 -3 8 -25 1 -28 5
-28 36 0 19 -4 35 -10 35 -5 0 -10 -13 -10 -28 0 -16 -3 -32 -7 -35 -4 -4 -6
-32 -5 -62 0 -30 -3 -55 -9 -55 -5 0 -8 19 -7 42 2 26 -2 43 -9 45 -8 3 -13
-4 -13 -15 0 -11 -8 -23 -17 -25 -17 -4 -16 -5 0 -6 22 -1 19 -36 -3 -36 -9 0
-15 -14 -18 -40 -4 -45 -19 -78 -31 -70 -8 4 -20 -25 -21 -47 0 -5 16 -8 36
-8 37 0 87 29 175 102 26 21 50 38 53 38 3 0 6 -10 6 -22 0 -31 -102 -122
-119 -105 -6 6 -11 7 -12 1 -5 -58 -19 -89 -19 -42 0 21 -4 24 -28 20 -26 -3
-27 -6 -29 -66 0 -35 -7 -74 -14 -87 -13 -22 -14 -20 -17 38 -4 77 -22 84 -22
8 0 -41 -4 -56 -17 -64 -15 -9 -16 -10 -2 -11 13 0 16 -11 15 -56 l-1 -56 -32
4 c-17 2 -29 0 -27 -4 3 -4 14 -8 24 -8 26 0 32 -14 16 -35 -7 -10 -11 -26 -9
-36 4 -15 22 -17 164 -18 l159 -1 -2 168 c-1 143 6 450 17 737 2 44 5 202 7
350 4 354 2 365 -97 460 -69 68 -72 73 -78 128 -5 56 -5 58 16 52 79 -23 127
-59 257 -197 74 -78 134 -144 132 -146 -2 -2 8 -12 21 -21 13 -9 36 -24 51
-35 24 -17 28 -17 50 -3 20 14 24 24 25 83 1 62 -2 72 -33 119 -32 49 -38 53
-107 72 -159 45 -152 41 -78 42 104 2 156 -9 183 -36 25 -25 72 -142 106 -266
l19 -69 -30 -26 c-17 -14 -36 -30 -43 -36 -22 -22 -87 -46 -122 -46 -33 0 -88
23 -128 54 -14 12 -20 31 -23 78 -5 95 -9 103 -53 123 -44 20 -57 16 -45 -12
4 -10 8 -47 9 -83 1 -54 7 -76 35 -125 18 -33 44 -74 57 -92 27 -36 29 -43 13
-43 -12 0 -38 -29 -39 -41 0 -15 43 -16 102 -3 35 7 82 13 105 14 51 0 89 35
117 106 10 27 32 63 49 81 28 30 29 35 23 85 l-6 53 40 -45 c22 -25 52 -63 65
-86 21 -35 67 -152 80 -204 2 -8 24 -73 49 -144 25 -71 46 -130 46 -132 0 -2
9 -4 19 -4 11 0 32 -10 46 -23 22 -19 27 -32 30 -87 1 -36 5 -81 9 -100 3 -19
8 -64 11 -99 8 -91 54 -312 69 -336 13 -21 30 -70 66 -192 14 -48 26 -73 35
-73 19 0 19 5 -4 76 -20 61 -51 168 -56 194 -2 8 -11 38 -19 65 -24 75 -44
176 -61 310 -9 66 -21 149 -27 184 -10 62 -11 64 -54 83 -29 12 -44 25 -44 37
0 10 -16 58 -36 107 -20 49 -45 121 -56 159 -41 141 -86 221 -183 325 -39 42
-59 75 -84 140 -36 95 -45 109 -81 133 -35 22 -180 40 -265 32 -66 -6 -74 -5
-109 18 -20 14 -59 33 -86 42 -57 19 -56 17 -64 71 l-7 40 69 52 c56 41 76 64
105 119 l36 68 81 -2 c63 -2 82 1 87 12 3 8 11 15 17 15 14 0 96 122 96 142 0
7 33 23 75 36 87 26 89 32 51 122 l-23 55 34 61 33 62 -70 48 c-38 26 -72 45
-76 42 -5 -6 59 -58 102 -84 16 -10 12 -19 -51 -97 -37 -48 -75 -87 -84 -87
-9 0 -22 9 -29 21 -13 20 -29 21 -75 3 -13 -5 -14 0 -7 28 5 18 13 53 17 77 4
25 13 46 18 48 6 2 21 -17 33 -41 37 -78 84 -81 68 -5 -5 25 -3 30 9 25 26
-10 27 14 1 58 -24 41 -24 45 -10 91 24 80 16 157 -23 214 -10 14 -18 33 -19
41 -3 32 -25 100 -37 112 -6 7 -21 31 -32 52 -11 22 -24 44 -30 50 -5 6 -32
43 -58 83 -42 62 -72 91 -83 80 -2 -2 12 -20 31 -41 61 -67 108 -146 172 -291
2 -5 -12 8 -31 29 -20 22 -36 45 -36 51 0 11 -16 33 -52 74 -7 8 -20 28 -28
45 -8 17 -22 31 -30 31 -8 0 -16 10 -18 23 -4 27 -28 40 -45 23 -19 -19 -37
-12 -37 14 0 18 -7 28 -24 34 -13 5 -26 19 -29 31 -5 18 -10 21 -35 15 -26 -5
-34 -2 -57 29 -26 34 -59 47 -67 27 -1 -5 -15 -12 -29 -16 -21 -5 -27 -2 -32
14 -6 24 -21 27 -39 7 -11 -12 -16 -12 -33 5 -26 23 -65 15 -65 -14 0 -18 -2
-18 -25 7 -13 14 -33 26 -43 26 -22 0 -45 -23 -34 -34 4 -4 -5 -5 -21 -1 -36
9 -77 -2 -77 -20 0 -18 -4 -19 -31 -2 -18 10 -23 9 -43 -15 -12 -16 -26 -28
-31 -28 -6 0 -3 5 5 10 11 7 12 12 3 21 -13 13 -36 3 -27 -12 8 -13 -26 -38
-44 -32 -7 3 -19 -2 -26 -12 -6 -9 -24 -18 -39 -18 -15 -1 -27 -6 -27 -11 0
-13 -49 -56 -64 -56 -8 0 -16 -9 -19 -19 -2 -10 -14 -24 -27 -31 -21 -11 -21
-11 -4 17 50 78 95 116 204 173 36 19 77 42 91 52 14 9 29 15 33 11 3 -3 6 -1
6 5 0 19 -8 15 -129 -50z m279 -8 c0 -5 -5 -10 -11 -10 -5 0 -7 5 -4 10 3 6 8
10 11 10 2 0 4 -4 4 -10z m152 -115 c121 -19 177 -34 288 -80 157 -65 260
-145 335 -260 34 -52 40 -69 43 -127 3 -47 -1 -80 -13 -112 -17 -43 -44 -79
-46 -60 -5 80 -43 153 -121 232 -148 152 -382 242 -638 246 -137 2 -246 -17
-390 -68 -126 -44 -184 -91 -226 -181 l-23 -50 0 47 c-1 78 48 178 122 248 42
41 188 127 247 146 110 36 262 43 422 19z m11 -225 c118 -24 132 -28 250 -83
73 -34 87 -44 87 -63 0 -13 9 -43 19 -66 104 -229 123 -306 102 -409 -17 -79
-39 -96 -213 -164 -53 -20 -105 -45 -115 -54 -11 -9 -28 -21 -39 -27 -10 -6
-27 -26 -36 -46 -23 -49 -90 -106 -134 -114 -84 -16 -284 16 -284 45 0 15 -88
114 -209 236 -148 148 -157 166 -148 295 5 76 37 191 61 219 23 28 26 50 11
91 l-14 40 45 26 c55 32 172 73 239 84 101 15 273 11 378 -10z m-785 -638 c14
-21 13 -22 -17 -22 -17 0 -31 -4 -31 -9 0 -5 17 -27 39 -48 40 -39 91 -109 91
-124 0 -15 -32 -10 -76 12 -41 19 -52 34 -75 108 -10 29 24 115 42 109 7 -2
19 -14 27 -26z m1421 -48 c18 -40 26 -114 12 -114 -6 0 -11 -9 -11 -20 0 -29
-64 -88 -104 -95 -19 -4 -48 -4 -65 0 l-30 6 17 45 c13 33 31 53 70 79 28 19
56 44 62 55 9 17 8 20 -12 20 -13 0 -33 -7 -45 -15 -20 -14 -21 -13 -16 6 5
19 71 58 99 59 6 0 16 -12 23 -26z m146 -35 c6 -23 2 -28 -26 -38 -41 -14 -69
-14 -69 0 0 6 7 9 15 5 18 -6 45 19 45 43 0 42 24 35 35 -10z m-1050 -1147
c-4 -12 -2 -12 8 -4 19 16 30 3 14 -17 -10 -14 -10 -14 5 -3 19 15 32 10 106
-40 41 -28 42 -31 42 -82 0 -30 -3 -68 -7 -87 -5 -28 -7 -30 -14 -14 -4 11 -8
30 -8 42 -2 39 -40 73 -82 73 -21 0 -41 5 -44 10 -3 6 -11 10 -18 10 -6 0 -2
-6 9 -14 18 -14 18 -15 -9 -25 -16 -6 -37 -11 -47 -11 -12 0 -17 -5 -14 -13 4
-11 -32 -37 -51 -37 -10 0 -4 47 7 58 10 10 10 15 -2 22 -8 5 -11 12 -7 16 3
4 13 1 21 -5 8 -7 20 -10 26 -6 5 3 10 2 10 -3 0 -5 10 -12 23 -15 22 -6 22
-6 2 9 -11 9 -32 20 -47 26 -16 5 -28 14 -28 20 0 6 8 7 18 3 9 -4 26 -10 37
-12 15 -4 17 -3 9 6 -6 7 -18 13 -25 14 -32 5 -36 16 -27 79 12 93 13 94 58
52 25 -23 38 -44 35 -52z m51 -239 c22 -34 84 -149 84 -156 0 -3 -10 -3 -22
-1 -17 3 -15 1 7 -10 17 -9 26 -15 21 -16 -5 0 -3 -7 4 -15 10 -12 10 -15 0
-15 -9 0 -10 -3 -1 -13 13 -16 5 -28 -15 -20 -8 3 -14 0 -14 -6 0 -6 3 -10 8
-10 18 3 32 -2 32 -11 0 -5 -8 -7 -17 -3 -17 5 -17 5 -1 -8 16 -14 30 -89 16
-89 -7 0 -12 25 -11 57 1 7 -2 11 -6 8 -4 -2 -20 24 -35 58 -15 34 -47 103
-70 152 -40 82 -42 92 -28 108 20 23 27 22 48 -10z m-96 -129 c12 -36 20 -67
18 -69 -2 -2 -19 0 -38 4 -34 6 -35 9 -38 55 -3 44 9 76 28 76 5 0 18 -30 30
-66z m435 -14 c-3 -5 -10 -10 -16 -10 -5 0 -9 5 -9 10 0 6 7 10 16 10 8 0 12
-4 9 -10z m5 -23 c0 -8 -7 -14 -15 -14 -25 0 -17 17 13 26 1 1 2 -5 2 -12z
m-417 -69 c9 -5 17 -20 17 -34 0 -14 -4 -22 -10 -19 -5 3 -10 1 -10 -4 0 -6 7
-11 16 -11 10 0 13 -6 10 -17 -3 -10 -1 -25 4 -33 8 -12 10 -12 10 5 1 17 3
17 11 -4 5 -14 7 -31 5 -38 -3 -7 -1 -13 4 -13 5 0 12 -21 16 -47 4 -27 10
-50 13 -53 13 -10 40 -90 28 -83 -7 4 -20 6 -30 5 -11 -2 -17 2 -16 10 5 38
-2 98 -12 98 -6 0 -8 -7 -5 -16 3 -8 2 -12 -4 -9 -6 3 -11 27 -11 53 -1 26 -4
38 -6 27 -3 -11 -8 -24 -12 -30 -4 -5 -7 -41 -6 -80 3 -85 -1 -95 -31 -95 -32
0 -33 37 -1 43 19 4 19 4 -5 6 -24 1 -27 5 -32 54 -3 28 -8 92 -11 141 -4 83
-3 91 18 109 l22 20 -22 -5 c-15 -4 -23 0 -26 13 -3 10 -2 20 1 23 6 7 49 -3
75 -16z m44 -300 c-3 -8 -6 -5 -6 6 -1 11 2 17 5 13 3 -3 4 -12 1 -19z m383
-60 c0 -7 -5 -20 -10 -28 -8 -11 -9 -9 -8 13 2 26 18 40 18 15z m-300 -23 c0
-8 -2 -15 -4 -15 -2 0 -6 7 -10 15 -3 8 -1 15 4 15 6 0 10 -7 10 -15z m-107
-21 c8 -8 -18 -34 -35 -35 -10 0 -10 -2 0 -6 16 -6 15 -23 -2 -23 -13 0 -29
48 -19 62 5 10 47 11 56 2z m67 -14 c0 -5 -4 -10 -10 -10 -5 0 -10 5 -10 10 0
6 5 10 10 10 6 0 10 -4 10 -10z m50 -11 c0 -5 -4 -9 -10 -9 -5 0 -10 7 -10 16
0 8 5 12 10 9 6 -3 10 -10 10 -16z m-50 -19 c0 -5 -2 -10 -4 -10 -3 0 -8 5
-11 10 -3 6 -1 10 4 10 6 0 11 -4 11 -10z m50 -4 c0 -3 -4 -8 -10 -11 -5 -3
-10 -1 -10 4 0 6 5 11 10 11 6 0 10 -2 10 -4z m-40 -26 c0 -5 -4 -10 -9 -10
-6 0 -13 5 -16 10 -3 6 1 10 9 10 9 0 16 -4 16 -10z m-106 -12 c2 -7 11 -65
21 -128 9 -63 18 -126 21 -140 10 -47 -15 -7 -36 60 -26 78 -39 220 -21 220 6
0 13 -6 15 -12z m166 2 c0 -5 -9 -10 -20 -10 -11 0 -20 5 -20 10 0 6 9 10 20
10 11 0 20 -4 20 -10z m-60 -31 c0 -6 -4 -7 -10 -4 -5 3 -10 11 -10 16 0 6 5
7 10 4 6 -3 10 -11 10 -16z m509 -188 c0 -71 -9 -88 -43 -75 -8 3 -16 -4 -21
-18 -6 -19 -8 -20 -12 -5 -2 9 -8 17 -13 17 -5 0 -7 -6 -4 -14 6 -16 -12 -56
-25 -56 -9 0 2 87 13 97 4 4 11 1 16 -7 8 -13 10 -12 10 2 0 9 5 29 11 45 10
26 12 27 19 8 8 -17 9 -16 9 8 1 32 17 67 30 67 5 0 9 -31 10 -69z m-133 -148
c-2 -9 -9 -19 -16 -21 -9 -3 -11 1 -7 12 4 10 7 22 7 27 0 6 4 8 9 5 5 -4 8
-14 7 -23z"/>
<path d="M7241 3055 c-61 -14 -127 -52 -138 -81 -10 -27 6 -27 38 0 30 26 33
26 126 20 97 -7 112 -3 113 34 0 10 -60 45 -72 41 -2 0 -32 -7 -67 -14z"/>
<path d="M7640 3030 c-43 -43 -15 -61 92 -61 104 0 149 -12 192 -49 63 -56 70
-25 10 43 -42 46 -60 55 -150 73 -100 19 -120 18 -144 -6z"/>
<path d="M7239 2889 c-18 -18 -19 -23 -6 -42 8 -12 26 -23 41 -25 23 -3 26 0
26 27 0 17 0 34 1 38 0 4 -9 11 -20 15 -16 5 -27 2 -42 -13z"/>
<path d="M7733 2853 c-15 -22 -14 -25 6 -47 27 -29 59 -24 67 10 9 34 0 51
-31 56 -20 4 -30 0 -42 -19z"/>
<path d="M7674 2652 c5 -35 3 -43 -15 -53 -17 -9 -30 -7 -66 12 -44 23 -46 23
-91 6 -47 -16 -47 -16 -84 10 -27 18 -45 24 -63 19 -21 -5 -25 -3 -25 14 0 25
-35 28 -48 4 -12 -22 19 -85 55 -114 20 -16 37 -20 60 -17 21 4 36 1 44 -9 15
-18 33 -18 70 1 28 15 32 14 59 -5 l30 -21 50 27 c27 15 50 30 50 34 0 4 9 10
20 13 38 10 17 82 -32 108 -20 11 -21 10 -14 -29z"/>
<path d="M7337 2469 c-26 -21 -37 -38 -37 -58 0 -14 -7 -37 -16 -49 -17 -24
-16 -24 41 -28 22 -1 76 -5 121 -9 54 -5 98 -4 131 4 38 10 61 10 93 1 23 -6
44 -9 47 -6 3 3 -3 17 -14 33 -10 15 -25 40 -33 55 -25 52 -92 77 -220 84 -72
4 -77 3 -113 -27z m223 -98 l24 -14 -24 -9 c-26 -10 -149 -6 -168 6 -15 9 -4
34 16 38 31 6 127 -8 152 -21z"/>
<path d="M7330 1326 c0 -15 57 -43 67 -33 9 9 -21 34 -35 29 -6 -2 -12 1 -12
7 0 6 -4 11 -10 11 -5 0 -10 -6 -10 -14z"/>
<path d="M7508 943 c7 -3 16 -2 19 1 4 3 -2 6 -13 5 -11 0 -14 -3 -6 -6z"/>
<path d="M7518 913 c7 -3 16 -2 19 1 4 3 -2 6 -13 5 -11 0 -14 -3 -6 -6z"/>
<path d="M7378 863 c7 -3 16 -2 19 1 4 3 -2 6 -13 5 -11 0 -14 -3 -6 -6z"/>
<path d="M7358 843 c7 -3 16 -2 19 1 4 3 -2 6 -13 5 -11 0 -14 -3 -6 -6z"/>
<path d="M7415 750 c-3 -5 -2 -10 4 -10 5 0 13 5 16 10 3 6 2 10 -4 10 -5 0
-13 -4 -16 -10z"/>
<path d="M7946 145 c4 -8 8 -15 10 -15 2 0 4 7 4 15 0 8 -4 15 -10 15 -5 0 -7
-7 -4 -15z"/>
<path d="M7750 3642 c0 -12 23 -32 37 -32 18 0 16 27 -3 34 -21 8 -34 8 -34
-2z"/>
<path d="M4450 3558 c-19 -11 -46 -31 -58 -46 -25 -28 -102 -178 -102 -197 0
-6 -30 -35 -66 -64 -71 -58 -104 -102 -104 -142 0 -33 35 -79 61 -79 11 0 17
-5 14 -10 -4 -6 -11 -8 -16 -5 -5 4 -9 2 -9 -4 0 -14 35 -32 46 -23 5 4 -1 -5
-13 -19 -28 -32 -29 -37 -1 -41 21 -3 20 -5 -11 -35 -27 -27 -29 -33 -14 -33
11 0 24 5 31 12 24 24 20 1 -4 -25 -30 -32 -62 -34 -98 -6 -14 11 -26 16 -26
10 0 -6 16 -23 35 -38 24 -19 30 -30 22 -35 -7 -4 4 -5 23 -2 19 4 45 16 58
27 30 28 28 6 -4 -33 -48 -57 -110 -75 -146 -43 -29 26 -21 -1 9 -31 15 -15
40 -30 55 -33 40 -8 24 -23 -23 -23 -50 0 -48 -15 6 -44 22 -11 42 -22 44 -24
3 -1 -4 -8 -14 -16 -17 -12 -18 -16 -5 -32 14 -16 13 -17 -16 -11 -16 3 -36 7
-43 9 -16 4 -23 -29 -9 -39 6 -3 28 -5 50 -5 21 1 37 -1 37 -6 -4 -26 2 -31
27 -22 24 9 25 8 22 -17 -3 -26 -6 -28 -50 -26 -27 1 -48 0 -48 -2 0 -2 8 -11
17 -21 13 -13 14 -19 5 -22 -26 -8 -11 -23 19 -17 29 6 30 6 18 -13 -7 -12
-22 -23 -33 -26 -17 -4 -17 -7 -6 -22 11 -12 25 -15 57 -11 48 5 56 -8 23 -38
-23 -21 -17 -38 11 -30 24 8 25 -7 1 -28 -36 -32 -103 -12 -141 42 -11 16 -31
31 -43 34 l-23 6 23 -16 c12 -8 22 -20 22 -26 0 -6 7 -19 17 -29 9 -11 11 -18
5 -18 -22 0 -12 -17 41 -70 28 -29 74 -63 101 -75 l49 -22 -37 -22 c-28 -18
-45 -22 -71 -17 -44 9 -45 -6 -2 -29 49 -26 118 -14 151 26 32 37 37 37 30 -3
-8 -42 -38 -68 -78 -68 -24 0 -27 -3 -16 -10 8 -5 31 -10 50 -10 20 0 53 -9
73 -19 34 -17 36 -20 22 -35 -26 -26 -47 -20 -43 11 3 31 -16 38 -42 16 -18
-14 -67 -19 -92 -8 -26 11 -22 -12 5 -29 12 -8 46 -22 75 -31 58 -19 67 -40
25 -56 -29 -11 -102 -8 -138 6 -17 7 -18 6 -7 -6 8 -8 41 -15 86 -17 69 -4 74
-3 94 23 18 22 24 25 41 15 12 -6 21 -13 21 -15 0 -3 -19 -30 -42 -59 -24 -30
-63 -84 -88 -121 -25 -36 -52 -74 -60 -85 -8 -10 -44 -62 -80 -116 -36 -53
-77 -109 -92 -125 -33 -35 -78 -99 -113 -164 -16 -28 -31 -52 -34 -55 -11 -9
-31 -50 -31 -63 0 -7 11 -29 25 -49 22 -33 24 -41 15 -85 -6 -26 -15 -79 -21
-118 -6 -38 -17 -92 -25 -120 -13 -46 -94 -518 -94 -551 0 -27 30 -14 36 16 8
38 11 40 122 85 84 34 92 40 89 62 -5 35 -23 43 -105 43 l-72 0 6 43 c3 23 12
69 21 102 8 33 16 67 18 75 2 8 14 62 28 120 13 58 25 119 26 135 2 17 3 39 4
50 3 36 34 27 108 -33 80 -64 120 -107 153 -161 22 -37 16 -37 -41 5 -35 26
-81 32 -89 11 -11 -28 20 -75 101 -154 71 -69 85 -87 85 -114 0 -26 -3 -30
-17 -24 -37 15 -49 16 -76 6 -53 -20 -21 -91 56 -126 47 -21 49 -23 27 -28
-253 -53 -286 -62 -326 -89 -19 -13 -34 -26 -34 -30 0 -14 216 -8 297 7 96 18
93 18 93 0 0 -9 9 -15 21 -15 23 0 23 9 2 305 -4 50 -6 105 -5 123 4 63 -69
225 -147 329 -41 53 -198 193 -218 193 -7 0 -13 2 -13 5 0 14 178 289 230 355
15 19 56 76 91 127 35 50 85 121 112 158 26 36 47 70 47 74 0 5 7 14 15 21 23
19 19 -5 -6 -40 -22 -29 -22 -29 -5 -157 46 -355 68 -518 71 -523 2 -3 6 -34
10 -70 3 -36 8 -72 10 -80 4 -15 23 -229 30 -338 2 -30 6 -70 9 -90 3 -21 8
-73 11 -117 3 -44 11 -109 17 -145 6 -36 12 -76 13 -90 1 -14 3 -28 4 -32 0
-5 42 -8 92 -8 l92 0 -7 73 c-9 97 -48 317 -56 317 -8 0 -20 -110 -20 -177 0
-61 -17 -53 -30 15 -6 31 -30 136 -52 232 -42 181 -51 225 -62 298 l-7 44 48
-45 c97 -90 119 -105 180 -122 34 -9 67 -15 73 -13 6 2 -24 29 -67 60 -80 57
-208 167 -230 198 -7 10 -19 64 -28 121 -9 57 -18 115 -21 128 l-5 23 35 -21
c66 -41 97 -53 121 -47 44 11 31 43 -51 122 -133 129 -178 202 -91 149 81 -50
179 -96 210 -100 148 -16 169 -17 214 -6 77 19 155 52 195 82 20 16 39 29 43
29 9 0 1 -61 -10 -70 -5 -4 -52 -24 -103 -44 -110 -42 -182 -83 -182 -102 0
-18 40 -34 83 -34 30 0 30 -1 -28 -43 -100 -72 -127 -84 -215 -102 -94 -19
-116 -30 -77 -40 26 -7 192 0 257 11 92 15 238 44 254 50 18 7 18 2 13 -97 -4
-57 -7 -148 -8 -203 -1 -54 -5 -113 -10 -130 -40 -158 -49 -200 -55 -259 -4
-37 -11 -67 -15 -67 -5 0 -9 35 -10 78 -1 150 -24 243 -48 204 -10 -16 -19
-129 -27 -349 l-7 -163 107 0 106 0 1 318 c0 174 -1 344 -2 377 -5 102 8 672
16 711 7 35 17 115 24 198 l6 79 45 -58 c25 -31 62 -75 83 -98 108 -119 402
-552 402 -592 0 -5 -14 -10 -30 -11 -17 0 -47 -6 -67 -13 -66 -22 -180 -168
-226 -287 -24 -65 -26 -80 -27 -264 -1 -107 0 -232 2 -278 4 -71 7 -83 21 -80
11 2 18 15 20 36 2 22 9 32 20 33 50 2 163 38 205 66 31 19 38 29 35 51 -3 24
-8 27 -45 30 -23 2 -76 -4 -117 -12 -103 -22 -106 -21 -106 14 0 17 4 30 9 30
5 0 19 16 31 35 12 20 28 42 36 50 8 8 31 36 51 62 20 26 40 49 45 51 4 2 8
17 8 32 0 34 -31 60 -63 52 -15 -3 3 21 58 79 59 61 82 80 86 69 4 -8 9 -51
13 -95 4 -44 9 -99 13 -123 5 -36 3 -42 -13 -42 -35 0 -144 -83 -144 -109 0
-26 37 -30 89 -11 28 11 55 20 60 20 4 0 11 -26 15 -58 3 -31 13 -103 22 -159
14 -88 20 -103 35 -103 22 0 25 43 9 150 -5 36 -12 90 -15 120 -4 30 -8 57
-11 61 -7 12 -27 299 -27 385 1 74 3 84 34 127 l32 46 -17 43 c-25 61 -61 128
-101 190 -89 136 -248 358 -256 358 -4 0 -42 44 -83 98 -40 53 -94 117 -120
142 -25 25 -46 48 -46 51 0 4 21 -4 47 -17 25 -13 59 -24 75 -24 42 0 124 38
143 66 17 26 5 33 -15 8 -22 -26 -50 -36 -81 -29 -24 6 -28 9 -18 21 6 8 17
14 25 14 7 0 16 5 20 11 4 8 -13 9 -58 4 -51 -5 -72 -3 -97 9 -17 9 -31 21
-31 27 0 8 4 8 13 1 36 -29 94 -19 68 12 -10 12 -9 15 6 15 54 0 91 11 121 37
17 16 32 34 32 41 0 7 4 13 8 13 5 0 17 7 28 16 18 15 17 15 -14 10 -26 -5
-40 0 -68 22 -19 15 -34 36 -34 46 0 18 1 18 19 2 37 -33 142 -34 155 -1 4 13
-3 14 -47 9 -40 -4 -57 -2 -72 11 -19 15 -18 16 20 10 22 -3 46 -1 54 4 16 11
6 31 -16 31 -14 0 -103 84 -103 98 0 3 5 1 12 -6 7 -7 24 -12 38 -12 16 0 42
-14 66 -35 58 -52 88 -42 44 15 -11 14 -20 31 -20 38 0 8 -9 26 -19 41 -10 14
-21 35 -23 46 -3 17 2 19 40 16 23 -1 42 -1 42 2 0 2 -20 17 -44 32 -45 28
-84 84 -51 71 9 -3 25 -6 36 -6 10 0 19 -5 19 -10 0 -15 52 -59 70 -59 13 0
12 2 -1 12 -20 15 -79 107 -79 123 0 6 9 14 20 17 30 8 24 24 -20 52 -22 14
-40 27 -40 29 0 1 14 3 31 4 45 1 46 9 5 28 -45 22 -47 44 -3 44 17 0 43 10
57 21 l25 20 -32 -6 c-44 -9 -69 1 -94 37 l-22 31 26 -5 c35 -7 34 2 -3 35
-42 38 -37 47 15 31 25 -7 43 -9 41 -5 -3 5 8 11 25 15 42 8 27 26 -22 26 -21
0 -39 5 -39 10 0 6 -7 10 -15 10 -8 0 -15 4 -15 9 0 4 11 6 25 3 35 -6 31 13
-5 28 -27 11 -30 17 -30 59 1 50 5 48 42 -18 19 -35 73 -71 106 -71 26 0 98
28 90 35 -3 3 -22 -2 -42 -10 -58 -24 -121 6 -155 73 -16 32 -16 41 -5 67 35
79 6 141 -91 196 -47 26 -55 36 -94 119 -23 49 -47 90 -52 90 -5 0 -9 6 -9 14
0 17 -58 61 -67 52 -3 -3 2 -15 13 -27 10 -12 20 -31 20 -43 1 -11 5 -45 9
-75 7 -50 6 -54 -11 -49 -128 37 -232 58 -292 60 -30 1 -55 5 -57 8 -2 3 -59
0 -128 -6 -122 -12 -291 -50 -355 -80 -19 -9 -36 -14 -38 -11 -3 3 14 44 37
92 29 59 45 82 50 73 6 -9 9 -7 9 9 0 20 34 56 63 66 7 2 10 7 7 9 -3 3 -21
-3 -40 -14z m814 -163 c24 -46 32 -75 22 -75 -22 0 -56 23 -56 38 0 10 -6 42
-14 71 -13 51 -13 52 4 35 10 -11 30 -41 44 -69z m-269 -237 c-19 -11 -30 -5
-21 11 4 6 14 7 22 4 15 -5 14 -7 -1 -15z m-188 -20 c-3 -8 -6 -5 -6 6 -1 11
2 17 5 13 3 -3 4 -12 1 -19z m79 -33 c3 -17 -21 -21 -31 -5 -4 6 -4 18 -1 27
5 12 9 14 18 5 7 -7 13 -19 14 -27z m-379 -22 c-3 -10 -5 -2 -5 17 0 19 2 27
5 18 2 -10 2 -26 0 -35z m-127 28 c0 -5 -7 -11 -15 -15 -15 -5 -20 5 -8 17 9
10 23 9 23 -2z m374 -10 c17 -19 17 -20 -15 -36 -32 -17 -32 -17 -26 7 4 12 7
29 7 36 0 18 14 15 34 -7z m404 1 c2 -7 -3 -12 -12 -12 -9 0 -16 7 -16 16 0
17 22 14 28 -4z m-568 -6 c0 -9 -30 -14 -35 -6 -4 6 3 10 14 10 12 0 21 -2 21
-4z m-110 -51 c0 -7 -8 -19 -17 -24 -23 -13 -11 -14 23 -1 24 9 25 9 14 -5
-23 -28 25 -18 54 12 25 25 30 26 60 15 18 -7 41 -10 50 -6 12 5 16 0 16 -20
0 -25 44 -86 61 -86 5 0 -3 16 -16 36 -14 20 -25 41 -25 45 0 12 39 31 53 26
7 -2 22 0 35 4 15 6 21 5 17 -1 -3 -6 -2 -10 4 -10 5 0 11 5 13 11 3 8 15 9
38 4 l34 -8 -29 -23 c-16 -13 -41 -25 -55 -27 -14 -2 -6 -5 19 -6 48 -1 81 19
81 51 0 26 62 24 100 -4 26 -19 34 -20 67 -10 22 7 41 8 48 2 6 -5 30 -9 55
-8 37 0 48 -4 67 -28 14 -18 39 -33 65 -40 48 -11 49 -17 26 -92 -11 -37 -10
-50 4 -90 19 -51 17 -62 -7 -42 -9 7 -19 10 -22 6 -4 -4 -1 -11 7 -16 12 -8
11 -10 -6 -10 -12 0 -21 -7 -21 -16 0 -13 8 -15 38 -11 41 5 46 -8 16 -41 -25
-28 -33 -86 -15 -114 21 -33 12 -58 -21 -58 -15 0 -32 5 -39 12 -9 9 -12 8
-12 -4 0 -17 20 -28 53 -28 21 0 21 -1 -3 -20 -14 -11 -36 -20 -50 -20 -23 -1
-23 -2 -7 -11 10 -6 34 -8 52 -5 l33 7 -8 -33 c-34 -143 -54 -190 -103 -243
-55 -60 -77 -108 -79 -174 -4 -110 1 -176 21 -268 22 -102 19 -201 -7 -221 -9
-6 -44 -39 -79 -72 -89 -86 -134 -104 -258 -104 -81 -1 -109 3 -146 20 -130
60 -276 210 -231 238 12 7 18 57 29 216 16 232 15 237 -101 413 -30 46 -60
103 -65 127 -5 24 -15 46 -21 50 -7 4 -8 10 -3 13 5 3 17 -3 26 -14 9 -10 25
-19 36 -19 16 0 13 6 -15 34 -31 31 -34 39 -34 93 0 32 -3 69 -5 83 -3 14 -3
19 1 13 3 -7 21 -13 40 -13 38 0 38 19 1 21 -20 1 -20 2 -2 6 23 6 67 34 62
39 -2 2 -18 -1 -35 -7 -39 -13 -65 -1 -82 40 -9 22 -9 38 -2 61 7 20 8 30 1
30 -6 0 -3 7 6 16 15 15 18 15 44 -11 19 -17 31 -23 36 -16 3 6 -9 26 -27 44
-27 26 -33 40 -33 74 0 24 2 43 4 43 3 0 13 -8 24 -17 20 -17 20 -17 14 7 -4
14 -7 30 -7 37 0 6 -11 24 -24 40 l-24 29 31 13 c86 34 126 55 131 67 7 19 26
18 26 -1z m850 -18 c0 -5 -4 -5 -10 -2 -5 3 -10 14 -10 23 0 15 2 15 10 2 5
-8 10 -19 10 -23z m-235 13 c-3 -5 -18 -10 -33 -9 -24 0 -25 1 -7 9 28 12 47
12 40 0z m-905 -350 c0 -5 -5 -10 -11 -10 -5 0 -7 5 -4 10 3 6 8 10 11 10 2 0
4 -4 4 -10z m1184 -144 c-3 -21 -9 -35 -11 -32 -3 3 -2 21 1 42 4 20 10 34 12
31 3 -3 2 -21 -2 -41z m106 -39 c0 -20 -1 -20 -25 3 -18 17 -22 26 -13 31 17
11 38 -9 38 -34z m-1221 -52 c0 -13 -5 -8 -14 14 -8 18 -12 38 -8 44 8 13 21
-23 22 -58z m1188 -143 c17 -49 16 -57 -3 -42 -24 21 -34 45 -27 69 7 27 13
21 30 -27z m-52 -152 c3 -5 2 -10 -4 -10 -5 0 -13 5 -16 10 -3 6 -2 10 4 10 5
0 13 -4 16 -10z m-1177 -25 c23 4 32 3 27 -4 -9 -16 -78 -13 -101 4 -18 14
-17 14 11 4 16 -6 45 -7 63 -4z m110 -68 c5 -23 -42 -33 -76 -17 l-27 13 33 7
c18 4 36 11 39 14 11 10 28 1 31 -17z m1052 -122 c0 -8 -6 -15 -14 -15 -20 0
-29 17 -14 23 22 9 28 7 28 -8z m-957 -45 c7 -26 -7 -34 -35 -18 -20 10 -21
13 -5 16 9 2 17 8 17 13 0 17 18 9 23 -11z m737 -794 c0 -35 -3 -38 -88 -65
-29 -9 -31 -9 -22 8 5 10 19 25 32 33 13 9 34 25 47 37 13 11 26 21 28 21 1 0
3 -15 3 -34z"/>
<path d="M4431 2980 c-22 -10 -50 -37 -51 -50 0 -3 57 -4 128 -3 70 1 135 3
145 3 26 0 21 25 -8 38 -36 16 -185 24 -214 12z"/>
<path d="M5015 2983 c-11 -2 -32 -9 -47 -15 -23 -9 -25 -12 -13 -24 10 -10 36
-13 97 -11 46 1 104 -2 131 -7 55 -10 61 2 21 39 -24 22 -36 25 -98 24 -39 -1
-80 -3 -91 -6z"/>
<path d="M5009 2849 c-16 -17 -27 -34 -25 -38 2 -3 27 -4 55 -3 45 4 51 7 51
26 0 15 -9 27 -26 35 -23 10 -29 8 -55 -20z"/>
<path d="M4512 2848 c-19 -19 -14 -25 32 -37 73 -18 85 -10 46 29 -22 22 -60
26 -78 8z"/>
<path d="M4730 2760 c-27 -27 -13 -54 35 -71 31 -12 34 -17 38 -58 l3 -46 2
46 c2 44 3 46 42 58 34 10 40 16 39 39 l0 27 -16 -22 c-12 -18 -25 -23 -62
-23 -26 0 -55 6 -65 13 -16 12 -16 13 1 29 10 9 32 18 48 21 27 4 26 4 -7 6
-26 1 -44 -5 -58 -19z"/>
<path d="M4744 2542 c-34 -22 -95 -113 -99 -149 l-2 -23 141 2 c78 1 156 -2
175 -7 33 -7 34 -7 27 21 -13 53 -57 135 -83 151 -39 26 -122 28 -159 5z m14
-44 c-2 -15 -11 -24 -25 -26 -27 -4 -30 10 -7 32 22 23 36 20 32 -6z m152 0
c21 -27 18 -38 -9 -31 -21 5 -35 29 -25 44 8 14 14 11 34 -13z"/>
<path d="M4630 2051 c133 -122 277 -134 407 -35 37 28 46 55 11 32 -43 -28
-127 -41 -217 -35 -73 5 -98 12 -161 44 -102 52 -103 51 -40 -6z"/>
<path d="M4401 3454 c0 -11 3 -14 6 -6 3 7 2 16 -1 19 -3 4 -6 -2 -5 -13z"/>
<path d="M4387 3383 c-4 -3 -7 -11 -7 -17 0 -6 5 -5 12 2 6 6 9 14 7 17 -3 3
-9 2 -12 -2z"/>
<path d="M11050 3316 c0 -29 -3 -75 -7 -101 -5 -38 -3 -47 8 -43 9 3 15 21 16
49 1 24 4 68 7 97 4 41 1 52 -10 52 -10 0 -14 -14 -14 -54z"/>
<path d="M10973 3333 c-4 -10 -11 -21 -16 -24 -4 -3 -9 -28 -10 -55 -3 -68 23
-68 40 1 6 28 15 60 18 73 6 17 3 22 -9 22 -9 0 -20 -8 -23 -17z"/>
<path d="M11112 3318 c-1 -18 -4 -67 -7 -108 -9 -131 -10 -170 -5 -170 4 0 4
-15 2 -34 -3 -27 -8 -33 -22 -29 -17 5 -17 2 1 -64 42 -144 53 -178 65 -191
14 -17 98 -6 119 15 13 13 15 11 15 -10 0 -27 25 -39 61 -30 15 4 19 11 15 27
-3 11 -8 46 -11 76 -10 85 -14 100 -30 100 -16 0 -16 2 -16 243 0 85 -3 117
-12 117 -9 0 -12 -46 -12 -180 0 -99 -3 -180 -7 -180 -5 0 -8 -21 -9 -47 -1
-39 -2 -43 -9 -23 -4 14 -9 41 -9 60 -1 19 -8 52 -15 72 -10 27 -10 38 -2 42
7 3 6 5 -2 5 -8 1 -16 -8 -19 -18 -3 -11 -14 -22 -25 -25 -19 -4 -20 -10 -15
-51 10 -66 -8 -47 -22 25 -13 63 -16 295 -5 324 8 20 -4 86 -15 86 -4 0 -8
-15 -9 -32z m155 -550 c-3 -8 -6 -5 -6 6 -1 11 2 17 5 13 3 -3 4 -12 1 -19z"/>
<path d="M11180 3245 c0 -52 4 -95 9 -95 15 0 21 29 21 111 0 64 -3 79 -15 79
-12 0 -15 -17 -15 -95z"/>
<path d="M11316 3293 c-3 -10 -4 -27 -1 -38 2 -11 4 -35 4 -52 1 -23 6 -33 17
-33 13 0 15 11 12 67 -3 64 -20 95 -32 56z"/>
<path d="M11270 3291 c0 -5 5 -13 10 -16 6 -3 10 -2 10 4 0 5 -4 13 -10 16 -5
3 -10 2 -10 -4z"/>
<path d="M11395 3280 c3 -5 8 -10 11 -10 2 0 4 5 4 10 0 6 -5 10 -11 10 -5 0
-7 -4 -4 -10z"/>
<path d="M4030 3058 c0 -18 4 -38 8 -44 15 -21 57 -44 82 -43 22 0 21 1 -9 12
-19 7 -41 23 -50 37 l-16 24 33 -24 c25 -18 35 -21 44 -12 9 9 7 12 -8 12 -22
0 -64 38 -64 58 0 7 -4 12 -10 12 -5 0 -10 -15 -10 -32z"/>
<path d="M11210 3040 c0 -19 3 -21 12 -12 9 9 9 15 0 24 -9 9 -12 7 -12 -12z"/>
<path d="M3946 2960 c-3 -23 -2 -49 4 -60 15 -28 56 -53 77 -47 15 4 14 5 -4
6 -12 0 -33 15 -47 33 -29 37 -26 52 4 20 28 -29 74 -28 111 2 38 32 26 40
-18 10 -27 -18 -40 -21 -54 -14 -24 13 -49 50 -49 72 0 34 -17 18 -24 -22z"/>
<path d="M5686 2935 c-15 -24 -34 -48 -43 -53 -13 -8 -9 -12 21 -22 49 -16 46
-30 -8 -30 -55 0 -73 -18 -46 -48 33 -35 87 -72 111 -77 12 -3 27 -10 33 -16
8 -8 -3 -10 -42 -7 -40 4 -62 13 -92 37 -63 50 -47 21 21 -39 92 -82 130 -146
132 -227 0 -7 5 -13 10 -13 12 0 3 67 -15 111 -9 19 -30 52 -47 71 -32 37 -28
47 17 48 9 0 25 7 35 14 17 13 14 15 -31 30 -49 16 -132 78 -132 98 0 11 84 7
113 -6 27 -13 21 12 -13 46 l-30 30 25 43 c15 24 22 46 16 49 -5 3 -21 -14
-35 -39z"/>
<path d="M3901 2905 c-17 -41 -8 -105 19 -127 l22 -18 -31 0 c-80 0 -171 -95
-171 -178 0 -21 2 -24 10 -12 5 8 10 24 10 36 0 54 102 144 162 144 22 0 64
20 42 20 -19 0 -54 40 -54 61 0 21 0 21 18 -1 20 -24 82 -33 89 -12 3 8 -7 12
-30 12 -41 0 -64 23 -69 70 l-4 35 -13 -30z"/>
<path d="M3870 2693 c-60 -35 -80 -53 -92 -83 -14 -34 -10 -97 8 -131 18 -36
64 -82 72 -74 4 4 -1 11 -11 16 -41 23 -71 129 -53 186 9 27 88 81 133 89 42
8 53 24 16 24 -15 0 -48 -12 -73 -27z"/>
<path d="M11059 2641 c-1 -23 -2 -44 -3 -48 -7 -24 -17 -129 -20 -203 -4 -73
14 -225 39 -335 4 -21 55 -34 55 -14 0 5 5 7 11 3 7 -4 9 0 6 12 -3 11 -8 28
-11 39 -13 47 -23 115 -16 115 7 0 18 -34 42 -139 10 -40 18 -55 32 -57 31 -4
46 7 46 35 0 30 -38 229 -46 242 -3 5 -16 9 -29 9 l-24 0 5 128 c2 70 6 147 9
171 3 29 0 48 -10 58 -8 8 -16 13 -16 11 -4 -10 -8 -116 -11 -273 -2 -137 -4
-169 -11 -135 -5 25 -16 53 -24 62 -17 19 -18 75 -7 249 4 66 3 99 -5 103 -7
5 -11 -7 -12 -33z"/>
<path d="M3943 2648 c-29 -36 -16 -137 22 -168 25 -21 28 -5 6 36 -22 40 -28
84 -12 84 5 0 12 -6 15 -12 3 -7 3 -2 0 11 -3 13 -7 30 -8 37 -3 21 -12 26
-23 12z"/>
<path d="M4020 2640 c0 -5 5 -10 11 -10 5 0 7 5 4 10 -3 6 -8 10 -11 10 -2 0
-4 -4 -4 -10z"/>
<path d="M11186 2633 c-6 -21 -8 -83 -7 -168 1 -50 4 -57 13 -40 15 26 24 210
10 219 -6 3 -13 -2 -16 -11z"/>
<path d="M5637 2628 c9 -10 11 -40 8 -96 -3 -48 -1 -83 5 -87 6 -4 10 22 10
69 0 42 4 76 9 76 15 0 41 -60 48 -108 4 -28 9 -40 15 -34 28 28 -31 155 -84
183 -20 11 -21 10 -11 -3z"/>
<path d="M10876 2588 c-27 -94 -56 -207 -56 -218 0 -5 4 -10 9 -10 5 0 14 22
20 50 6 27 22 82 36 121 26 76 31 109 16 109 -5 0 -16 -24 -25 -52z"/>
<path d="M10950 2622 c0 -10 -9 -54 -21 -98 -23 -88 -28 -118 -34 -186 -2 -26
-11 -63 -21 -83 -15 -32 -16 -45 -6 -100 16 -86 39 -137 59 -133 34 7 37 33
14 115 -23 79 -23 82 -7 194 9 63 18 134 20 159 2 25 7 69 11 98 5 36 4 52 -4
52 -6 0 -11 -8 -11 -18z"/>
<path d="M5587 2581 c-19 -33 -22 -45 -7 -36 6 4 10 3 9 -2 -7 -29 28 -146 42
-138 4 3 4 18 -2 33 -6 15 -12 58 -14 95 -1 37 -4 70 -7 72 -2 2 -12 -9 -21
-24z"/>
<path d="M11360 2570 c0 -5 5 -10 10 -10 6 0 10 5 10 10 0 6 -4 10 -10 10 -5
0 -10 -4 -10 -10z"/>
<path d="M3891 2506 c-14 -56 -14 -103 0 -111 7 -5 4 -14 -7 -26 -12 -14 -17
-38 -18 -84 -1 -36 -4 -65 -9 -65 -11 0 -51 23 -59 35 -5 6 -8 6 -8 -1 0 -15
44 -44 66 -44 8 0 24 -10 35 -22 19 -23 19 -23 4 21 -16 45 -20 108 -9 136 6
14 8 14 26 -2 19 -17 19 -16 7 12 -14 36 -19 153 -7 178 5 10 5 17 0 17 -6 0
-15 -20 -21 -44z"/>
<path d="M11356 2518 c-3 -18 -5 -40 -5 -48 1 -8 -1 -31 -4 -51 -3 -19 -2 -41
3 -48 8 -14 13 9 25 122 7 61 -10 83 -19 25z"/>
<path d="M5561 2483 c1 -43 2 -45 9 -18 11 44 11 65 0 65 -5 0 -9 -21 -9 -47z"/>
<path d="M11001 2514 c0 -11 3 -14 6 -6 3 7 2 16 -1 19 -3 4 -6 -2 -5 -13z"/>
<path d="M10997 2483 c-9 -16 -17 -108 -8 -93 5 8 11 34 15 58 5 40 3 52 -7
35z"/>
<path d="M1390 2426 c0 -8 4 -17 9 -20 5 -4 7 3 4 14 -6 23 -13 26 -13 6z"/>
<path d="M5770 2395 c0 -13 -6 -16 -25 -11 -14 3 -36 9 -50 12 -15 4 -25 2
-25 -5 0 -6 13 -11 28 -11 16 0 37 -7 48 -16 19 -15 19 -16 -1 -9 -11 4 -36 8
-55 11 l-35 4 35 -13 c48 -17 120 -56 120 -65 0 -4 9 -18 20 -32 16 -21 20
-22 20 -7 0 10 -19 36 -42 57 -51 47 -39 54 15 9 20 -17 37 -26 37 -21 0 5
-18 24 -39 41 -22 18 -38 38 -35 46 3 7 1 16 -5 20 -6 3 -11 -1 -11 -10z"/>
<path d="M3750 2368 c-2 -30 -3 -72 -1 -88 1 -5 8 -10 16 -10 11 0 14 7 10 23
-3 12 -9 40 -14 62 -8 34 -9 36 -11 13z"/>
<path d="M10973 2348 c-10 -16 -7 -251 4 -298 7 -28 14 -36 36 -38 46 -6 58
12 40 56 -8 20 -20 40 -25 43 -14 9 -42 141 -42 202 -1 52 -1 52 -13 35z"/>
<path d="M4040 2320 c0 -13 39 -32 53 -26 7 2 2 8 -10 11 -13 4 -23 11 -23 16
0 5 -4 9 -10 9 -5 0 -10 -4 -10 -10z"/>
<path d="M5618 2287 c-26 -39 -26 -43 -9 -50 13 -6 34 -1 71 18 67 34 59 43
-12 12 -40 -18 -55 -21 -55 -11 0 7 4 11 8 9 7 -5 34 53 28 60 -3 2 -17 -15
-31 -38z"/>
<path d="M3996 2297 c3 -10 9 -15 12 -12 3 3 0 11 -7 18 -10 9 -11 8 -5 -6z"/>
<path d="M3922 2287 c-6 -7 -9 -28 -8 -47 4 -37 42 -110 57 -110 5 0 -3 18
-17 40 -32 47 -28 59 7 26 25 -24 62 -46 75 -46 4 0 -11 14 -32 31 -48 38 -75
79 -68 102 6 20 1 22 -14 4z"/>
<path d="M3765 2240 c19 -63 74 -106 146 -114 l44 -6 -44 11 c-24 6 -50 17
-58 25 -8 7 -20 17 -27 21 -8 5 -26 26 -41 48 -19 29 -25 33 -20 15z"/>
<path d="M5635 2209 c11 -4 31 -8 45 -9 l25 -1 -25 -10 c-14 -6 -40 -8 -57 -5
-25 3 -33 1 -33 -10 0 -8 -7 -29 -16 -46 -21 -40 -9 -51 64 -58 l57 -6 -38
-19 c-32 -16 -44 -17 -80 -8 -37 10 -40 10 -23 -3 24 -17 102 -18 136 -1 14 7
26 22 28 34 3 21 0 21 -52 16 -79 -8 -86 -3 -73 46 11 40 12 41 57 41 25 1 63
9 85 20 22 11 38 20 35 20 -52 6 -150 5 -135 -1z"/>
<path d="M11885 2158 c-4 -18 -13 -46 -20 -63 -7 -16 -21 -70 -30 -120 -9 -49
-20 -108 -25 -130 -29 -121 -60 -276 -69 -343 -5 -42 -17 -115 -25 -162 -9
-47 -20 -130 -25 -185 -16 -169 0 -822 27 -1085 l7 -65 183 -3 c100 -1 182 0
182 4 0 7 -61 272 -88 386 -11 43 -17 80 -14 82 2 3 31 -17 64 -43 37 -30 68
-47 81 -46 29 3 29 3 50 19 17 14 18 16 2 47 -10 17 -48 73 -85 124 -168 228
-241 357 -258 460 -15 92 -14 275 3 434 8 78 22 222 30 320 9 97 17 182 20
188 10 29 16 213 7 213 -6 0 -13 -15 -17 -32z"/>
<path d="M3922 2082 c-14 -42 -5 -94 24 -122 l25 -25 -22 49 c-15 35 -19 59
-15 87 7 46 2 51 -12 11z"/>
<path d="M10331 2064 c-97 -110 -104 -156 -29 -192 63 -29 78 -60 78 -159 0
-43 4 -95 9 -115 l9 -36 -48 -7 c-70 -10 -118 -62 -92 -101 8 -12 58 -29 115
-39 l39 -6 -7 -57 c-3 -31 -8 -75 -10 -97 -5 -63 -16 -115 -26 -115 -8 0 -51
61 -74 105 -11 21 -82 61 -92 52 -12 -13 -15 -99 -4 -141 6 -25 22 -61 35 -80
13 -20 40 -75 60 -123 l37 -86 -16 -76 c-8 -42 -17 -96 -20 -121 -3 -25 -7
-54 -9 -65 -17 -80 -41 -220 -70 -395 l-33 -205 130 -3 c71 -1 131 -1 132 0 4
5 23 533 30 803 4 189 -11 608 -25 715 -6 41 -13 176 -16 300 -2 124 -6 232
-7 240 -9 52 -53 54 -96 4z"/>
<path d="M3961 2054 c0 -11 3 -14 6 -6 3 7 2 16 -1 19 -3 4 -6 -2 -5 -13z"/>
<path d="M4080 2035 c7 -8 17 -15 22 -15 6 0 5 7 -2 15 -7 8 -17 15 -22 15 -6
0 -5 -7 2 -15z"/>
<path d="M3970 2018 c0 -21 37 -76 59 -88 26 -13 27 -3 4 17 -10 9 -7 8 7 -1
14 -9 33 -19 43 -23 12 -4 17 -16 17 -41 0 -28 8 -43 40 -74 23 -21 49 -38 58
-37 14 0 14 2 2 6 -42 17 -102 115 -86 141 3 5 -12 16 -34 26 -21 9 -52 32
-69 51 -33 38 -41 42 -41 23z"/>
<path d="M5520 2005 c-9 -11 -9 -21 3 -45 11 -21 12 -30 4 -30 -7 -1 -1 -10
12 -20 24 -21 61 -27 61 -10 0 5 6 7 13 4 7 -2 21 1 30 9 16 11 13 12 -21 9
-27 -3 -49 2 -67 14 -23 15 -26 23 -22 51 6 37 5 39 -13 18z"/>
<path d="M11105 1990 c4 -6 7 -55 7 -110 0 -109 7 -151 27 -158 10 -3 12 8 7
54 -3 33 -8 93 -12 134 -6 79 -9 90 -25 90 -6 0 -7 -5 -4 -10z"/>
<path d="M11005 1978 c-2 -7 -7 -31 -9 -53 -3 -22 -8 -51 -11 -65 -15 -70 -17
-112 -5 -105 9 6 10 -24 5 -130 -6 -115 -11 -141 -26 -156 -19 -19 -19 -18
-20 29 -1 26 -1 49 -1 52 0 3 2 82 6 175 6 148 5 168 -8 152 -9 -11 -15 -45
-16 -85 -1 -37 -2 -80 -4 -97 -2 -16 -4 -56 -4 -88 -2 -50 -5 -59 -24 -66 -22
-8 -23 -14 -23 -109 0 -56 -3 -98 -6 -94 -3 4 -14 45 -25 92 -15 68 -18 114
-14 230 6 246 5 310 -5 310 -5 0 -10 -24 -12 -52 -1 -29 -4 -75 -7 -103 -2
-27 -7 -97 -11 -155 -5 -62 -13 -113 -22 -126 -12 -19 -12 -34 1 -110 9 -49
20 -104 26 -123 7 -27 5 -52 -15 -120 -31 -112 -38 -161 -27 -191 l9 -24 16
25 c9 13 28 68 43 121 27 98 46 139 60 126 3 -4 2 -33 -4 -65 -14 -69 -27
-230 -19 -223 6 5 33 160 44 250 6 54 6 54 33 45 20 -6 21 -12 16 -53 -3 -26
-8 -76 -11 -112 -6 -60 -5 -63 9 -40 8 14 12 28 10 32 -3 4 3 45 12 90 16 78
16 88 -1 176 -9 51 -15 95 -12 98 3 3 8 -10 12 -28 4 -18 21 -66 37 -106 29
-71 32 -74 60 -70 l29 5 -6 -56 c-3 -31 -10 -85 -15 -121 -12 -85 -13 -117 -1
-105 10 10 41 200 41 248 0 19 6 26 31 31 17 3 28 10 25 15 -4 5 -13 57 -21
114 -8 58 -19 115 -24 128 -4 13 -11 85 -15 159 -9 167 -15 209 -28 186 -6
-10 -5 -71 1 -162 6 -80 8 -152 4 -159 -5 -7 -5 -62 -2 -122 3 -59 5 -109 3
-111 -1 -2 -14 36 -29 85 -14 48 -30 95 -35 104 -8 15 -5 164 4 249 2 19 7 88
11 153 7 106 6 117 -9 117 -9 0 -19 -6 -21 -12z"/>
<path d="M11204 1949 c3 -19 9 -51 12 -71 9 -51 24 -48 23 5 -1 55 -11 89 -28
95 -10 3 -12 -3 -7 -29z"/>
<path d="M11174 1849 c19 -296 19 -302 0 -316 -17 -12 -17 -21 -5 -131 14
-133 27 -179 52 -185 34 -9 42 17 31 100 -23 167 -40 332 -41 408 -1 97 -20
223 -34 232 -7 4 -8 -31 -3 -108z"/>
<path d="M10876 1940 c-3 -8 -11 -61 -19 -118 -11 -86 -11 -104 0 -114 7 -6
17 -8 20 -4 4 4 12 54 18 112 8 82 8 110 -1 122 -11 15 -13 15 -18 2z"/>
<path d="M5480 1891 c0 -11 12 -29 27 -41 l28 -22 -52 -49 c-28 -27 -47 -52
-42 -55 11 -6 90 69 108 103 13 26 14 46 1 38 -12 -8 -50 16 -50 32 0 7 -4 13
-10 13 -5 0 -10 -9 -10 -19z"/>
<path d="M11379 1905 c-1 -6 -1 -13 -1 -16 1 -3 2 -27 3 -52 2 -26 5 -47 9
-47 3 0 6 -8 7 -17 3 -32 12 -75 18 -81 8 -8 6 56 -5 133 -9 61 -28 108 -31
80z"/>
<path d="M11258 1854 c-4 -3 -2 -19 2 -35 11 -36 10 -32 10 -74 0 -24 4 -33
13 -29 10 4 11 19 4 74 -9 65 -15 79 -29 64z"/>
<path d="M4155 1764 c30 -22 95 -38 108 -25 8 8 1 11 -23 11 -19 0 -48 7 -64
15 -36 19 -47 19 -21 -1z"/>
<path d="M5518 1736 c-10 -7 -18 -18 -18 -25 0 -6 -1 -11 -2 -11 -16 -1 -79
-29 -66 -30 27 0 63 17 92 43 37 35 32 53 -6 23z"/>
<path d="M5300 1713 c0 -13 51 -43 72 -43 7 1 -3 8 -22 16 -19 8 -38 20 -42
27 -6 9 -8 9 -8 0z"/>
<path d="M7839 1568 c12 -16 11 -18 -4 -18 -15 0 -15 -2 -4 -16 10 -12 10 -17
1 -23 -10 -6 -10 -14 1 -34 8 -15 17 -24 20 -20 4 3 7 2 7 -4 0 -6 -10 -18
-22 -26 -18 -13 -19 -16 -7 -16 9 -1 20 7 24 17 6 15 8 15 18 2 7 -8 20 -21
30 -29 16 -12 17 -12 10 5 -4 10 -15 25 -25 32 -10 7 -18 19 -17 25 0 9 2 9 6
0 5 -14 33 -18 33 -5 0 4 -5 13 -12 20 -9 9 -9 12 0 12 7 0 12 -4 12 -10 0 -5
4 -10 8 -10 5 0 9 15 9 33 0 17 -2 26 -5 19 -2 -6 -8 -9 -14 -6 -6 4 -14 0
-19 -7 -4 -7 -12 -10 -16 -5 -4 5 -2 11 5 13 6 3 12 11 12 18 0 7 6 16 13 19
6 3 2 3 -11 0 -15 -4 -31 1 -45 13 -19 16 -20 16 -8 1z m25 -73 c3 -9 0 -15
-9 -15 -8 0 -15 7 -15 15 0 8 4 15 9 15 5 0 11 -7 15 -15z"/>
<path d="M7790 1541 c0 -6 4 -13 10 -16 6 -3 7 1 4 9 -7 18 -14 21 -14 7z"/>
<path d="M8239 1523 c-13 -16 -12 -17 4 -4 9 7 17 15 17 17 0 8 -8 3 -21 -13z"/>
<path d="M7970 1519 c0 -5 5 -7 10 -4 6 3 10 8 10 11 0 2 -4 4 -10 4 -5 0 -10
-5 -10 -11z"/>
<path d="M7935 1500 c-3 -5 -1 -10 4 -10 6 0 11 5 11 10 0 6 -2 10 -4 10 -3 0
-8 -4 -11 -10z"/>
<path d="M8250 1500 c-13 -8 -12 -10 3 -10 9 0 17 5 17 10 0 12 -1 12 -20 0z"/>
<path d="M7810 1440 c0 -5 5 -10 10 -10 6 0 10 5 10 10 0 6 -4 10 -10 10 -5 0
-10 -4 -10 -10z"/>
<path d="M7119 1373 l-24 -27 29 22 c27 21 31 21 55 7 l26 -16 -24 20 c-30 27
-33 26 -62 -6z"/>
<path d="M7850 1391 c0 -6 4 -13 10 -16 6 -3 7 1 4 9 -7 18 -14 21 -14 7z"/>
<path d="M13429 1356 c-2 -2 -52 -7 -111 -9 -79 -4 -120 -11 -160 -28 -80 -34
-155 -86 -196 -138 -20 -25 -50 -58 -65 -73 -32 -30 -30 -60 4 -78 22 -12 322
-4 379 10 19 4 82 13 140 19 58 7 142 17 188 22 l82 11 0 32 c0 41 -27 132
-48 164 -23 35 -107 72 -163 72 -25 0 -48 -2 -50 -4z"/>
<path d="M8578 1259 c13 -5 30 -5 38 -1 9 5 1 8 -23 9 -33 1 -35 0 -15 -8z"/>
<path d="M4674 1200 c22 -11 44 -20 50 -20 16 1 -57 39 -74 39 -8 0 3 -9 24
-19z"/>
<path d="M7807 1152 c1 -37 2 -75 2 -85 1 -11 6 -15 12 -11 8 4 9 30 5 77 -8
92 -22 106 -19 19z"/>
<path d="M8320 1170 c-12 -8 -11 -10 8 -10 12 0 22 5 22 10 0 13 -11 13 -30 0z"/>
<path d="M11204 1113 c-4 -21 -8 -45 -9 -53 0 -9 -5 -22 -10 -29 -6 -11 -10
-9 -18 10 -9 21 -11 22 -14 6 -3 -10 -2 -30 1 -43 5 -19 12 -25 29 -22 18 2
25 15 39 63 21 77 22 105 3 105 -8 0 -17 -15 -21 -37z"/>
<path d="M11339 1098 c0 -7 -3 -24 -5 -38 -3 -14 -2 -41 2 -60 7 -34 7 -34 14
-10 12 37 11 120 0 120 -5 0 -10 -6 -11 -12z"/>
<path d="M1375 1090 c11 -4 63 -18 115 -30 87 -20 190 -70 190 -92 0 -5 6 -8
13 -8 20 0 -75 80 -103 87 -14 3 -63 16 -109 29 -83 24 -150 33 -106 14z"/>
<path d="M8403 1049 c-6 -8 -22 -37 -37 -66 -14 -28 -30 -54 -36 -58 -20 -12
-11 -89 16 -135 22 -39 25 -53 20 -100 -3 -30 -8 -113 -12 -185 -3 -72 -9
-193 -15 -270 -5 -77 -9 -161 -9 -187 l0 -48 76 0 76 0 -6 27 c-3 16 -10 72
-16 127 -10 80 -9 101 2 111 7 7 63 39 123 70 169 88 200 111 230 171 22 43
25 56 15 74 l-11 21 -34 -25 c-19 -14 -36 -26 -39 -26 -4 0 -31 -16 -60 -36
l-54 -36 -29 21 c-15 11 -46 22 -68 25 -38 6 -38 5 -10 -5 17 -5 35 -11 40
-13 6 -1 20 -8 33 -15 19 -10 21 -15 12 -26 -16 -19 -147 -105 -160 -105 -6 0
-10 32 -10 82 0 140 -21 361 -36 383 -18 26 -18 99 2 164 16 56 15 82 -3 60z"/>
<path d="M1796 998 c-9 -28 -14 -53 -12 -56 16 -16 56 60 48 91 -7 29 -18 19
-36 -35z"/>
<path d="M6815 1025 c4 -11 8 -29 9 -40 3 -25 10 -38 79 -148 34 -53 58 -104
62 -130 3 -23 8 -54 11 -69 7 -37 -21 -44 -77 -18 -75 34 -109 22 -95 -33 5
-21 138 -162 180 -190 15 -11 21 -37 31 -143 7 -71 11 -131 9 -133 -2 -2 -20
4 -41 14 -21 10 -47 22 -58 27 -15 7 -13 4 5 -10 13 -11 41 -26 61 -32 35 -12
37 -15 44 -66 l6 -54 70 0 c38 0 69 2 69 5 0 2 -13 58 -29 122 -17 65 -46 204
-66 308 -81 425 -120 595 -140 595 -6 0 -18 -11 -25 -25 -10 -20 -11 -32 0
-70 7 -25 11 -48 8 -50 -2 -3 -30 32 -62 78 -32 45 -55 73 -51 62z"/>
<path d="M1964 1011 c-67 -36 -234 -157 -234 -169 0 -10 5 -10 21 -2 11 7 27
9 35 6 9 -4 14 0 12 9 -3 14 144 125 166 125 6 0 28 -12 49 -26 21 -14 45 -23
54 -20 13 6 13 9 -3 34 -37 57 -58 66 -100 43z"/>
<path d="M4718 1003 c17 -2 47 -2 65 0 17 2 3 4 -33 4 -36 0 -50 -2 -32 -4z"/>
<path d="M8649 973 c-18 -20 -25 -31 -14 -23 21 15 55 50 55 57 0 8 -8 1 -41
-34z"/>
<path d="M13195 910 c-104 -27 -242 -61 -305 -75 -192 -46 -270 -76 -270 -106
0 -10 -4 -21 -10 -24 -5 -3 -10 -21 -10 -38 0 -24 17 -53 71 -122 89 -113 99
-119 156 -111 69 9 123 30 277 108 144 74 209 114 283 178 44 39 126 135 135
161 8 20 -5 42 -27 45 -9 1 -27 9 -40 18 -34 22 -46 21 -260 -34z"/>
<path d="M5418 933 c-37 -43 -53 -95 -37 -124 16 -31 27 -22 65 52 28 57 33
74 22 80 -20 13 -33 11 -50 -8z"/>
<path d="M7648 943 c7 -3 16 -2 19 1 4 3 -2 6 -13 5 -11 0 -14 -3 -6 -6z"/>
<path d="M8583 943 c-13 -2 -23 -9 -23 -14 0 -14 26 -11 40 6 7 8 11 14 9 14
-2 -1 -14 -4 -26 -6z"/>
<path d="M4175 889 c8 -22 28 -70 45 -107 17 -37 36 -76 41 -87 5 -11 16 -40
24 -65 19 -55 29 -61 66 -43 21 10 29 22 29 40 0 37 -138 262 -175 284 -43 27
-46 24 -30 -22z"/>
<path d="M4948 862 c-59 -31 -110 -60 -114 -64 -3 -4 6 -12 22 -19 16 -6 40
-17 54 -24 14 -7 39 -16 56 -19 27 -6 36 -1 86 51 65 69 78 98 51 118 -28 22
-40 18 -155 -43z"/>
<path d="M7690 909 l-35 -6 32 -2 c24 -1 33 -6 36 -23 l4 -23 2 23 c1 18 7 22
33 22 17 0 28 3 24 8 -9 9 -49 9 -96 1z"/>
<path d="M7184 881 c7 -11 46 -35 46 -28 0 3 -12 12 -26 22 -15 9 -23 12 -20
6z"/>
<path d="M10829 885 c-1 -3 -2 -8 -3 -12 -1 -5 -9 -21 -18 -38 -37 -72 -91
-423 -114 -752 l-6 -83 82 0 82 0 -6 53 c-3 28 -8 129 -10 222 -4 154 -1 232
20 491 6 82 1 124 -17 124 -5 0 -10 -2 -10 -5z"/>
<path d="M1226 853 c-2 -16 -7 -68 -11 -118 -7 -110 -13 -180 -26 -310 -5 -55
-12 -122 -15 -150 -2 -27 -7 -70 -10 -94 l-6 -44 -26 41 c-51 79 -72 49 -72
-99 l0 -79 94 0 c89 0 94 1 98 23 10 58 0 857 -11 857 -5 0 -12 -12 -15 -27z"/>
<path d="M6780 876 c0 -3 9 -10 20 -16 11 -6 20 -8 20 -6 0 3 -9 10 -20 16
-11 6 -20 8 -20 6z"/>
<path d="M8784 839 c-26 -22 -59 -48 -73 -57 -14 -9 -28 -19 -31 -22 -3 -3
-18 -12 -35 -20 -17 -9 -30 -24 -30 -34 0 -24 61 -32 113 -15 41 14 127 90
149 133 14 27 14 31 -3 43 -27 20 -39 16 -90 -28z"/>
<path d="M11012 848 c-5 -7 -15 -47 -22 -88 -7 -41 -17 -82 -21 -92 -8 -15
-81 -503 -93 -615 l-5 -53 100 0 100 0 -2 208 c-2 114 -1 295 0 402 3 270 5
250 -23 250 -13 0 -28 -6 -34 -12z"/>
<path d="M8150 841 c0 -6 4 -13 10 -16 6 -3 7 1 4 9 -7 18 -14 21 -14 7z"/>
<path d="M1812 803 c7 -16 15 -32 19 -38 4 -5 10 -27 14 -48 4 -20 11 -40 16
-43 12 -7 12 -5 -12 62 -11 32 -23 67 -26 77 -3 9 -9 17 -14 17 -5 0 -3 -12 3
-27z"/>
<path d="M5302 813 c-15 -27 -33 -288 -35 -487 -1 -96 -5 -177 -9 -181 -3 -4
-10 13 -15 37 -5 23 -13 42 -18 41 -16 -4 -18 -73 -4 -150 l13 -73 84 0 84 0
-6 27 c-13 66 -26 238 -28 358 -1 145 7 179 69 298 38 72 36 92 -8 85 -16 -2
-32 -18 -49 -48 l-25 -45 -5 75 c-4 60 -8 75 -22 78 -9 2 -21 -5 -26 -15z"/>
<path d="M7720 809 c0 -5 5 -7 10 -4 6 3 10 8 10 11 0 2 -4 4 -10 4 -5 0 -10
-5 -10 -11z"/>
<path d="M8186 798 c6 -10 51 -11 57 0 3 4 -10 7 -28 8 -19 0 -32 -3 -29 -8z"/>
<path d="M7721 774 c0 -11 3 -14 6 -6 3 7 2 16 -1 19 -3 4 -6 -2 -5 -13z"/>
<path d="M2037 708 c15 -32 31 -58 35 -58 10 0 -22 65 -46 95 -9 11 -4 -6 11
-37z"/>
<path d="M7720 740 c0 -5 5 -10 11 -10 5 0 7 5 4 10 -3 6 -8 10 -11 10 -2 0
-4 -4 -4 -10z"/>
<path d="M4438 725 c-3 -3 1 -25 9 -48 25 -70 12 -291 -21 -387 -15 -41 -33
-109 -41 -150 -7 -41 -17 -90 -20 -107 l-7 -33 90 0 c109 0 102 -17 85 200 -7
85 -16 228 -21 317 -7 151 -10 164 -32 188 -24 25 -32 29 -42 20z"/>
<path d="M2480 713 c1 -5 9 -24 20 -43 20 -37 27 -20 10 24 -9 24 -31 37 -30
19z"/>
<path d="M5085 690 c-39 -26 -25 -26 17 0 18 11 29 20 23 20 -5 0 -23 -9 -40
-20z"/>
<path d="M7126 680 c12 -4 31 -21 43 -36 11 -14 21 -22 21 -17 0 18 -49 63
-67 62 -15 0 -15 -2 3 -9z"/>
<path d="M2602 658 c-7 -7 -12 -40 -12 -77 0 -37 -3 -96 -6 -133 l-7 -66 -33
5 c-46 8 -44 -13 2 -21 l35 -7 -6 -180 -6 -179 75 0 c42 0 76 3 76 8 0 4 -7
45 -15 92 -9 47 -22 153 -30 235 -8 83 -21 188 -30 235 -8 47 -15 88 -15 93 0
11 -14 9 -28 -5z"/>
<path d="M1923 634 c-25 -27 -48 -32 -39 -9 3 8 1 15 -5 15 -6 0 -9 -9 -7 -19
2 -11 -7 -30 -19 -43 -25 -27 -39 -107 -50 -288 -4 -69 -7 -132 -7 -140 1 -8
2 -45 2 -82 l2 -68 46 0 45 0 -6 254 c-8 277 -9 268 53 335 21 22 31 72 15 70
-5 -1 -18 -12 -30 -25z"/>
<path d="M13586 621 c-10 -11 -30 -22 -44 -26 -43 -11 -147 -61 -230 -112 -97
-59 -244 -143 -249 -143 -2 0 -9 -5 -16 -10 -7 -6 -61 -40 -122 -76 -60 -36
-121 -76 -135 -88 -14 -13 -54 -44 -90 -69 -36 -25 -76 -57 -89 -71 l-24 -26
227 0 228 0 37 29 c20 15 74 54 121 86 164 112 455 376 467 424 5 19 0 29 -20
46 -15 11 -27 26 -27 32 0 21 -17 23 -34 4z"/>
<path d="M7648 613 c6 -2 18 -2 25 0 6 3 1 5 -13 5 -14 0 -19 -2 -12 -5z"/>
<path d="M8130 485 c0 -3 10 -16 21 -28 l21 -22 -11 22 c-11 22 -31 40 -31 28z"/>
<path d="M8577 469 c7 -7 15 -10 18 -7 3 3 -2 9 -12 12 -14 6 -15 5 -6 -5z"/>
<path d="M8265 368 c-15 -46 -37 -109 -47 -140 l-20 -58 -33 35 c-18 19 -35
35 -39 35 -16 0 -3 -23 31 -56 l37 -36 -13 -59 c-6 -33 -14 -66 -18 -74 -4
-12 8 -15 65 -15 l71 0 5 33 c5 30 8 73 21 257 3 41 8 87 10 102 6 37 -3 58
-24 58 -12 0 -25 -23 -46 -82z"/>
<path d="M4022 422 c-43 -7 -24 -44 38 -74 59 -29 99 -35 117 -17 18 18 4 38
-40 61 -52 26 -85 35 -115 30z"/>
<path d="M1448 378 c-36 -44 -66 -109 -36 -78 30 31 89 120 80 120 -5 0 -25
-19 -44 -42z"/>
<path d="M7195 360 c9 -15 75 -24 87 -12 8 8 5 9 -10 5 -12 -3 -35 0 -52 6
-17 5 -28 6 -25 1z"/>
<path d="M7525 360 c-3 -5 -1 -10 4 -10 6 0 11 5 11 10 0 6 -2 10 -4 10 -3 0
-8 -4 -11 -10z"/>
<path d="M2017 336 c-4 -10 -7 -28 -7 -40 0 -12 -9 -56 -20 -97 -24 -92 -25
-129 -2 -168 16 -29 21 -31 75 -31 31 0 57 2 57 4 0 2 -12 29 -26 61 -34 73
-54 148 -55 205 0 25 -4 54 -8 64 -7 18 -8 18 -14 2z"/>
<path d="M6668 298 c-21 -18 -30 -72 -16 -106 6 -15 10 -34 9 -42 -1 -9 16
-45 38 -80 l39 -65 102 -3 102 -3 -61 71 c-33 38 -64 82 -67 96 -4 17 -9 22
-14 14 -6 -9 -11 -7 -19 9 -7 12 -9 26 -6 31 3 5 1 11 -5 15 -5 3 -10 1 -10
-6 0 -7 -16 9 -36 34 -20 26 -37 47 -38 47 -1 0 -9 -6 -18 -12z"/>
<path d="M8762 260 c-24 -22 -48 -40 -53 -40 -5 0 -9 -5 -9 -11 0 -6 -26 -41
-58 -77 -32 -37 -69 -82 -81 -100 l-22 -32 108 0 108 0 50 106 c62 132 65 144
47 172 -20 31 -41 27 -90 -18z"/>
<path d="M2100 255 c-6 -33 20 -180 41 -232 16 -42 30 -26 24 29 -12 118 -27
188 -40 188 -7 0 -16 6 -18 13 -3 6 -6 8 -7 2z"/>
<path d="M7658 223 c7 -3 16 -2 19 1 4 3 -2 6 -13 5 -11 0 -14 -3 -6 -6z"/>
<path d="M8655 210 c-8 -13 5 -13 25 0 13 8 13 10 -2 10 -9 0 -20 -4 -23 -10z"/>
<path d="M11130 194 c-6 -14 -13 -64 -17 -110 l-6 -84 52 0 51 0 0 91 c0 82
-2 91 -20 96 -11 3 -20 9 -20 13 0 4 -7 11 -15 14 -11 4 -19 -3 -25 -20z"/>
<path d="M13545 208 c-58 -31 -156 -104 -205 -150 l-55 -53 134 -3 c100 -2
138 1 147 10 26 28 82 148 77 166 -5 19 -42 42 -66 42 -7 0 -21 -6 -32 -12z"/>
<path d="M8610 200 c-13 -8 -13 -10 2 -10 9 0 20 5 23 10 8 13 -5 13 -25 0z"/>
<path d="M4842 136 c-7 -35 -12 -80 -12 -100 0 -34 1 -36 35 -36 l35 0 -6 63
c-7 75 -22 137 -33 137 -4 0 -13 -29 -19 -64z"/>
<path d="M7654 189 c-3 -5 6 -9 20 -9 31 0 34 6 6 13 -11 3 -23 1 -26 -4z"/>
<path d="M8550 175 c-14 -8 -20 -14 -15 -14 6 0 21 6 35 14 14 8 21 14 15 14
-5 0 -21 -6 -35 -14z"/>
<path d="M1443 147 c-50 -18 -72 -47 -37 -47 34 0 96 24 104 41 14 26 -8 28
-67 6z"/>
<path d="M7230 134 c-12 -19 -20 -37 -17 -40 2 -3 14 13 26 36 26 49 20 52 -9
4z"/>
<path d="M1625 105 c-27 -14 -65 -25 -82 -25 -75 0 -18 -55 67 -64 79 -9 111
6 123 57 11 44 10 45 -29 51 -18 3 -47 -4 -79 -19z"/>
<path d="M1302 83 c2 -10 -2 -22 -8 -28 -8 -7 -9 -18 -3 -32 7 -19 16 -23 54
-23 44 0 45 1 34 23 -15 28 -60 77 -72 77 -4 0 -7 -8 -5 -17z"/>
<path d="M5624 55 c-45 -14 -104 -43 -104 -50 0 -3 52 -5 115 -5 l115 0 0 25
c0 43 -47 55 -126 30z"/>
<path d="M8941 14 c0 -11 3 -14 6 -6 3 7 2 16 -1 19 -3 4 -6 -2 -5 -13z"/>
</g>
</svg>
